<svg width="1376" height="433" viewBox="0 0 1376 433" fill="none" xmlns="http://www.w3.org/2000/svg">
<rect y="269" width="1371" height="140" rx="60" fill="#280C05"/>
<path d="M144.218 241.062L82.8041 259.256L34.5 253.5L0 259.256V338L27.0617 365.033C35.328 373.29 44.6024 381.454 56.0852 383.613C71.2505 386.465 82.2549 377.513 171.032 377.513H534.323V247.43H458.204L386.411 245.406V215.592L387.276 193.76L389.006 171.018L397.656 170.108L404.576 167.379L409.766 164.65L415.821 159.192L421.01 147.366L422.74 128.263L424.47 104.612V93.6959L425.335 83.6896V73.6832L423.605 68.2252L421.01 64.5865L418.415 63.6768H408.901L405.441 67.3155L403.711 72.7735V149.186L398.521 156.463H395.061L394.196 158.282H388.141V143.728L389.871 134.895V92.7863L391.601 65.754V18.1934L389.871 10.916L384.681 3.63868L379.491 1.81934L375.167 0H365.652L362.192 1.81934L358.732 3.63868L355.272 7.27735L353.542 10.916L350.082 20.0127L348.352 26.3804V116.438H345.757L339.703 112.799L334.513 103.702V80.0509L335.378 67.3155V58.2188V30.0191L334.513 25.4707L332.783 23.6514L331.053 21.8321L327.593 20.0127H324.133L321.538 20.9224L318.943 22.7417L316.348 25.4707L313.753 29.1094L312.023 33.6578V43.6641L313.753 60.0382L315.483 72.7735L316.348 83.6896L317.213 101.883V107.341L319.808 112.799L322.403 116.438L325.863 120.076L331.053 123.715L334.513 125.534L338.838 127.354L343.162 128.263H348.352V241.972H319.808H292.994L284.344 240.153L286.939 237.424L292.994 232.875L294.724 229.237L290.399 230.146L283.479 234.695L279.154 240.153H275.694L277.424 234.695L282.614 225.598L286.074 220.14L287.804 212.863L293.859 202.856L298.184 195.579L299.914 189.211L298.184 190.121L289.534 204.676L283.479 214.682L275.694 226.508L271.369 234.695H268.774L269.639 231.056L270.504 226.508L272.234 221.05L273.964 216.501L276.559 210.134L280.019 201.947V196.489L277.424 202.856L273.099 212.863L269.639 221.05L265.314 230.146V234.695H261.854V231.056L263.584 221.959L264.449 213.772L266.179 205.585L267.909 195.579L269.639 186.482L271.369 179.205L273.099 171.018V165.56L272.234 159.192L269.639 171.018L267.909 181.934L266.179 189.211L264.449 200.127L261.854 209.224L260.99 216.501L258.395 224.688V234.695L254.935 232.875V222.869L255.8 214.682L256.665 207.405V198.308L255.8 190.121L254.935 193.76L253.205 198.308L252.34 207.405L251.475 214.682V231.056L248.015 228.702V194.669V174.656L246.285 163.74L244.555 171.927V187.392V202.856V217.411V221.959V229.237L242.825 228.327V224.688V219.23V212.863L241.095 207.405L240.23 211.043V216.501V221.959L241.095 226.508V231.056L239.365 230.146L238.5 227.417L236.77 221.959L235.905 216.501L234.175 211.043L233.31 207.405L230.715 203.766V207.405L232.445 212.863L233.31 220.14L234.175 223.779V227.417V231.056H230.715L229.85 227.417L227.255 221.959L223.796 215.592L222.066 211.043L220.336 205.585L218.606 201.947L216.011 198.308V201.037L216.876 204.676L218.606 209.224L220.336 214.682L222.066 221.959L224.66 228.327L225.525 231.056V233.785H223.796L221.201 231.966L219.471 228.327L214.281 222.869L209.956 217.411L205.631 212.863L203.036 209.224L199.576 204.676L196.981 201.947L194.386 200.127L195.251 203.766L198.711 207.405L199.576 209.224L201.306 211.953L204.766 216.501L205.631 218.321H206.496V220.14L207.361 221.05L208.226 221.959V222.869H209.091L209.956 223.779L210.821 225.598L211.686 227.417L212.551 228.327L213.416 229.237L214.281 230.146L215.146 231.056V232.875V234.695H204.766V232.875H203.036H201.306L199.576 231.056L197.846 229.237L196.116 227.417H194.386V229.237L196.116 231.056L197.846 232.875V234.695H187.466L144.218 241.062Z" fill="#280C05"/>
<path d="M1321.35 215.578L1356.5 226.566L1352.18 287H1258.46H999.5V208.436H1053.76L1104.94 207.214V189.207L1104.32 176.022L1103.09 162.287L1096.92 161.737L1091.99 160.089L1088.29 158.441L1083.97 155.145L1080.27 148.002L1079.04 136.465L1077.81 122.181V115.588L1077.19 109.545V103.501L1078.42 100.205L1080.27 98.0072L1082.12 97.4578H1088.9L1091.37 99.6554L1092.6 102.952V149.101L1096.3 153.496H1098.77L1099.39 154.595H1103.7V145.805L1102.47 140.47V115.039L1101.24 98.7123V69.988L1102.47 65.5928L1106.17 61.1976L1109.87 60.0988L1112.95 59H1119.73L1122.2 60.0988L1124.67 61.1976L1127.13 63.3952L1128.37 65.5928L1130.83 71.0867L1132.06 74.9325V129.323H1133.91L1138.23 127.125L1141.93 121.631V107.347L1141.31 99.6554V94.1614V77.1301L1141.93 74.3831L1143.16 73.2843L1144.4 72.1855L1146.86 71.0867H1149.33L1151.18 71.6361L1153.03 72.7349L1154.88 74.3831L1156.73 76.5807L1157.96 79.3277V85.3711L1156.73 95.2602L1155.49 102.952L1154.88 109.545L1154.26 120.533V123.829L1152.41 127.125L1150.56 129.323L1148.1 131.52L1144.4 133.718L1141.93 134.817L1138.85 135.916L1135.76 136.465H1132.06V205.14H1152.41H1171.53L1177.69 204.041L1175.84 202.393L1171.53 199.646L1170.29 197.448L1173.38 197.998L1178.31 200.745L1181.39 204.041H1183.86L1182.62 200.745L1178.92 195.251L1176.46 191.954L1175.23 187.559L1170.91 181.516L1167.83 177.12L1166.59 173.275L1167.83 173.824L1173.99 182.614L1178.31 188.658L1183.86 195.8L1186.94 200.745H1188.79L1188.17 198.547L1187.56 195.8L1186.32 192.504L1185.09 189.757L1183.24 185.911L1180.77 180.966V177.67L1182.62 181.516L1185.71 187.559L1188.17 192.504L1191.26 197.998V200.745H1193.72V198.547L1192.49 193.053L1191.87 188.108L1190.64 183.164L1189.41 177.12L1188.17 171.627L1186.94 167.231L1185.71 162.287V158.99L1186.32 155.145L1188.17 162.287L1189.41 168.88L1190.64 173.275L1191.87 179.867L1193.72 185.361L1194.34 189.757L1196.19 194.701V200.745L1198.66 199.646V193.602L1198.04 188.658L1197.42 184.263V178.769L1198.04 173.824L1198.66 176.022L1199.89 178.769L1200.51 184.263L1201.12 188.658V198.547L1203.59 197.125V176.571V164.484L1204.82 157.892L1206.05 162.836V172.176V181.516V190.306V193.053V197.448L1207.29 196.899V194.701V191.405V187.559L1208.52 184.263L1209.14 186.46V189.757V193.053L1208.52 195.8V198.547L1209.75 197.998L1210.37 196.349L1211.6 193.053L1212.22 189.757L1213.45 186.46L1214.07 184.263L1215.92 182.065V184.263L1214.69 187.559L1214.07 191.954L1213.45 194.152V196.349V198.547H1215.92L1216.54 196.349L1218.39 193.053L1220.85 189.207L1222.09 186.46L1223.32 183.164L1224.55 180.966L1226.4 178.769V180.417L1225.78 182.614L1224.55 185.361L1223.32 188.658L1222.09 193.053L1220.24 196.899L1219.62 198.547V200.195H1220.85L1222.7 199.096L1223.94 196.899L1227.63 193.602L1230.72 190.306L1233.8 187.559L1235.65 185.361L1238.12 182.614L1239.97 180.966L1241.82 179.867L1241.2 182.065L1238.73 184.263L1238.12 185.361L1236.88 187.01L1234.42 189.757L1233.8 190.855H1233.18V191.954L1232.57 192.504L1231.95 193.053V193.602H1231.33L1230.72 194.152L1230.1 195.251L1229.48 196.349L1228.87 196.899L1228.25 197.448L1227.63 197.998L1227.02 198.547V199.646V200.745H1234.42V199.646H1235.65H1236.88L1238.12 198.547L1239.35 197.448L1240.58 196.349H1241.82V197.448L1240.58 198.547L1239.35 199.646V200.745H1246.75L1277.58 204.59L1321.35 215.578Z" fill="#280C05"/>
<path d="M936.585 213.822L671.297 206.496C668.787 206.426 666.275 206.536 663.781 206.823L629.863 210.724C618.869 211.989 609.333 218.872 604.676 228.904C600.804 237.246 592.425 242.578 583.22 242.578C576.049 242.578 568.909 243.713 562.098 245.941L555.08 248.237L547.729 248.237L315 242.578L315 405.5L1287.21 405.5C1333.52 405.5 1371 368.015 1371 321.7L1371 209L936.585 213.822Z" fill="#280C05"/>
</svg>
