<svg width="256" height="212" viewBox="0 0 256 212" fill="none" xmlns="http://www.w3.org/2000/svg">
<path d="M32 191.849L26 205.349L44 209.849L55.5 211.849H68.5H81.5H94.5L103 209.849C104 209.515 106 207.649 106 202.849C106 198.049 104.667 197.182 104 197.349L97.5 189.849L89.5 185.349L80 180.849L75 177.349L70.5 172.849L65 165.849L59 164.349L53.5 167.349C51.3333 168.515 44.9 172.649 36.5 179.849C33.3 184.649 32.1667 189.849 32 191.849Z" fill="#280C05"/>
<path d="M67.6255 143.182L69.3108 188.349H93.8406L92.5299 142.182L138.032 140.349H140.279H142.339L143.088 139.515H144.96H157.693H159.378L162.187 140.349L163.311 140.849L166.12 141.682L197.765 140.349V186.849H223.98V139.015H252.068V137.015L251.88 136.182L250.195 136.015L251.131 135.182L252.068 131.682V130.349L251.131 128.849L246.637 128.515L249.072 127.682H250.195L252.068 127.015L252.817 125.515L254.876 123.515L250.57 122.182L252.068 121.682L252.629 121.349L254.876 121.182V119.015H253.191V118.182H251.131H250.195V117.515H252.817V116.682L253.191 116.182H253.94L254.876 115.849V115.015H253.191L252.068 114.182H253.94H255.626L256 113.349V112.182L252.817 111.682L251.131 111.349L255.626 109.515V108.182L254.876 106.349L253.191 105.182H250.195L245.514 102.349H248.323L247.948 100.015L245.514 99.682L244.952 98.8486L246.825 97.5153L248.323 97.0153L249.446 96.3486H250.57H253.94V90.0153L254.876 88.8486L253.94 88.182L252.817 87.682L252.442 86.182H249.446V85.5153L250.195 84.5153L252.442 83.182L252.817 82.3486L251.88 81.182L248.697 80.8486V79.5153L253.191 78.8486L252.442 76.682L252.817 75.5153L249.446 73.0153L251.506 71.3486H247.948L246.076 69.682H249.072V68.3486L244.952 68.0153L248.323 66.3486L244.952 65.182V64.3486H249.072L248.697 63.8486V63.182L249.072 62.8486V62.0153L247.948 61.3486L237.088 61.0153L232.781 60.682L229.785 60.3486L227.163 59.8486H226.414L225.853 59.5153H224.729L223.98 58.8486L249.072 58.5153V53.3486L232.781 53.0153L232.032 52.682L231.283 52.182V51.5153L230.721 50.682H228.661L225.853 52.182L223.98 53.0153H222.669L222.295 39.3486L197.765 40.5153L198.139 51.5153H195.892L195.705 50.682L195.143 50.182L193.458 49.182H190.649L188.402 49.8486L184.657 51.3486H181.474L179.414 50.682L177.916 50.182L178.291 48.5153L171.55 48.8486V49.8486L170.239 50.682H164.996L163.498 50.182L161.438 49.182H158.442L156.195 50.182L151.139 50.682L149.267 49.182L148.143 47.182L120.43 48.182V46.182H119.681H117.809L114.064 47.5153H110.88H109.382L108.259 46.682H103.765L102.829 46.182L101.331 45.8486L100.207 45.3486V44.8486L99.6454 44.3486L99.0837 43.5153L98.1474 42.682H91.0319L88.2231 40.3486V32.3486H78.2988L75.1155 32.682L72.6813 33.0153L71.745 33.5153H69.1235V41.682L63.3187 42.182L61.6335 41.682L60.1355 41.182H56.9522L47.7769 40.8486L43.8446 39.8486L37.2908 38.8486H28.49L21.9363 40.182L21 44.682V48.182L21.9363 48.5153L23.8088 49.0153L30.7371 49.3486V52.0153H31.8606L32.2351 52.5153L30.1753 52.8486L27.5538 53.3486L24.9323 55.3486V56.5153L25.494 56.8486H26.992V57.3486H24.9323L23.8088 57.8486L23.0598 58.5153V59.182H24.5578L24.9323 58.682L26.992 58.5153L28.49 59.182V60.682L26.992 61.3486L24.745 63.0153V63.5153V64.5153L26.0558 65.682L26.6175 66.5153L25.494 66.682L24.5578 67.3486V68.182L26.992 68.3486L27.3665 67.8486H27.741L27.9283 68.182V71.3486L29.0518 72.3486H33.9203L30.1753 73.0153L28.49 73.682L27.3665 74.182L26.992 75.3486V77.3486L28.49 78.182L30.7371 76.682L31.1116 77.8486L28.49 79.0153V80.3486L26.6175 81.8486V83.182L27.741 84.0153V84.5153L26.992 85.182V87.182L28.1155 87.682L27.5538 88.182V89.182L29.0518 90.3486V91.0153L26.992 91.3486V92.682L27.9283 93.0153L28.3028 93.3486L26.992 94.5153L29.239 96.0153L27.9283 96.8486L27.3665 97.182V97.5153L27.9283 98.0153L27.5538 99.8486L26.243 100.682L27.5538 102.515L34.2948 102.682V103.515L33.3586 104.682L35.2311 104.849L36.1673 105.849V106.515L38.2271 108.349L34.1076 109.682L30.1753 112.182L26.6175 114.349H30.1753L34.1076 116.515L26.6175 118.182L39.7251 120.015L26.6175 121.849V129.015H34.1076L30.1753 131.015V134.682H26.6175L30.1753 141.349H43.6574L47.0279 143.182H67.6255Z" fill="#280C05"/>
<path d="M17.6429 195.697C17.6429 197.93 13.9286 196.628 12.0714 195.697L11.1429 200.349L33.4286 198.488L42.7143 195.697L43.6429 189.186L39.9286 190.116H35.2857L33.4286 187.325V180.814V177.093L34.3571 172.442L38.0714 170.581L44.5714 169.651H49.2143L52 165.93V154.767V141.744V120.349C52 116.008 51.4429 107.139 49.2143 106.395C46.9857 105.651 46.4286 109.186 46.4286 111.046L45.5 139.884V151.046V159.418L42.7143 162.209C41.4762 162.209 38.6286 161.279 37.1429 157.558C35.6571 153.837 35.9048 145.465 36.2143 141.744L35.2857 90.5812V71.9765V62.6742L34.3571 58.0231C33.7381 57.0928 31.7571 55.6044 28.7857 57.0928C25.8143 58.5812 26.9286 60.1936 27.8571 60.8138L28.7857 68.2556V83.1393V114.767V145.465L26.9286 150.116L24.1429 151.046L20.4286 146.395V141.744L19.5 106.395V77.5579V55.2324V5.93003L18.5714 0.348633H14.8571L13.9286 4.9998V10.5812V19.8835V88.7207V124.07V152.907L13 162.209L12.0714 165.93L8.35714 164.07L6.5 158.488L5.57143 149.186V120.349V94.3021V85.93L4.64286 81.2789H0.928571L0 84.0696L0.928571 96.1626V165.93L3.71429 174.302L9.28571 178.023L15.7857 180.814L17.6429 186.395V195.697Z" fill="#280C05"/>
</svg>
