<svg width="616" height="381" viewBox="0 0 616 381" fill="none" xmlns="http://www.w3.org/2000/svg">
<path d="M205.218 241.062L143.804 259.256L61 247.43L0.5 259.256V337.5C2.67071 359.207 16.4804 377.993 38.2281 379.71C80.0205 383.01 146.753 377.513 232.032 377.513H595.323L616 289L519.204 247.43L447.411 245.406V215.592L448.276 193.76L450.006 171.018L458.656 170.108L465.576 167.379L470.766 164.65L476.821 159.192L482.01 147.366L483.74 128.263L485.47 104.612V93.6959L486.335 83.6896V73.6832L484.605 68.2252L482.01 64.5865L479.415 63.6768H469.901L466.441 67.3155L464.711 72.7735V149.186L459.521 156.463H456.061L455.196 158.282H449.141V143.728L450.871 134.895V92.7863L452.601 65.754V18.1934L450.871 10.916L445.681 3.63868L440.491 1.81934L436.167 0H426.652L423.192 1.81934L419.732 3.63868L416.272 7.27735L414.542 10.916L411.082 20.0127L409.352 26.3804V116.438H406.757L400.703 112.799L395.513 103.702V80.0509L396.378 67.3155V58.2188V30.0191L395.513 25.4707L393.783 23.6514L392.053 21.8321L388.593 20.0127H385.133L382.538 20.9224L379.943 22.7417L377.348 25.4707L374.753 29.1094L373.023 33.6578V43.6641L374.753 60.0382L376.483 72.7735L377.348 83.6896L378.213 101.883V107.341L380.808 112.799L383.403 116.438L386.863 120.076L392.053 123.715L395.513 125.534L399.838 127.354L404.162 128.263H409.352V241.972H380.808H353.994L345.344 240.153L347.939 237.424L353.994 232.875L355.724 229.237L351.399 230.146L344.479 234.695L340.154 240.153H336.694L338.424 234.695L343.614 225.598L347.074 220.14L348.804 212.863L354.859 202.856L359.184 195.579L360.914 189.211L359.184 190.121L350.534 204.676L344.479 214.682L336.694 226.508L332.369 234.695H329.774L330.639 231.056L331.504 226.508L333.234 221.05L334.964 216.501L337.559 210.134L341.019 201.947V196.489L338.424 202.856L334.099 212.863L330.639 221.05L326.314 230.146V234.695H322.854V231.056L324.584 221.959L325.449 213.772L327.179 205.585L328.909 195.579L330.639 186.482L332.369 179.205L334.099 171.018V165.56L333.234 159.192L330.639 171.018L328.909 181.934L327.179 189.211L325.449 200.127L322.854 209.224L321.99 216.501L319.395 224.688V234.695L315.935 232.875V222.869L316.8 214.682L317.665 207.405V198.308L316.8 190.121L315.935 193.76L314.205 198.308L313.34 207.405L312.475 214.682V231.056L309.015 228.702V194.669V174.656L307.285 163.74L305.555 171.927V187.392V202.856V217.411V221.959V229.237L303.825 228.327V224.688V219.23V212.863L302.095 207.405L301.23 211.043V216.501V221.959L302.095 226.508V231.056L300.365 230.146L299.5 227.417L297.77 221.959L296.905 216.501L295.175 211.043L294.31 207.405L291.715 203.766V207.405L293.445 212.863L294.31 220.14L295.175 223.779V227.417V231.056H291.715L290.85 227.417L288.255 221.959L284.796 215.592L283.066 211.043L281.336 205.585L279.606 201.947L277.011 198.308V201.037L277.876 204.676L279.606 209.224L281.336 214.682L283.066 221.959L285.66 228.327L286.525 231.056V233.785H284.796L282.201 231.966L280.471 228.327L275.281 222.869L270.956 217.411L266.631 212.863L264.036 209.224L260.576 204.676L257.981 201.947L255.386 200.127L256.251 203.766L259.711 207.405L260.576 209.224L262.306 211.953L265.766 216.501L266.631 218.321H267.496V220.14L268.361 221.05L269.226 221.959V222.869H270.091L270.956 223.779L271.821 225.598L272.686 227.417L273.551 228.327L274.416 229.237L275.281 230.146L276.146 231.056V232.875V234.695H265.766V232.875H264.036H262.306L260.576 231.056L258.846 229.237L257.116 227.417H255.386V229.237L257.116 231.056L258.846 232.875V234.695H248.466L205.218 241.062Z" fill="#280C05"/>
</svg>
