<svg width="421" height="317" viewBox="0 0 421 317" fill="none" xmlns="http://www.w3.org/2000/svg">
<path d="M376.355 245.578L420.5 269.5L407.184 317H313.464H54.5L0 279.5L108.759 238.436L159.935 237.214V219.207L159.319 206.022L158.086 192.287L151.92 191.737L146.987 190.089L143.288 188.441L138.972 185.145L135.272 178.002L134.039 166.465L132.806 152.181V145.588L132.189 139.545V133.501L133.422 130.205L135.272 128.007L137.122 127.458H143.904L146.37 129.655L147.604 132.952V179.101L151.303 183.496H153.769L154.386 184.595H158.702V175.805L157.469 170.47V145.039L156.236 128.712V99.988L157.469 95.5928L161.168 91.1976L164.868 90.0988L167.951 89H174.733L177.199 90.0988L179.666 91.1976L182.132 93.3952L183.365 95.5928L185.832 101.087L187.065 104.933V159.323H188.915L193.231 157.125L196.93 151.631V137.347L196.313 129.655V124.161V107.13L196.93 104.383L198.163 103.284L199.396 102.186L201.863 101.087H204.329L206.179 101.636L208.028 102.735L209.878 104.383L211.728 106.581L212.961 109.328V115.371L211.728 125.26L210.495 132.952L209.878 139.545L209.262 150.533V153.829L207.412 157.125L205.562 159.323L203.096 161.52L199.396 163.718L196.93 164.817L193.847 165.916L190.764 166.465H187.065V235.14H207.412H226.526L232.692 234.041L230.842 232.393L226.526 229.646L225.293 227.448L228.376 227.998L233.308 230.745L236.391 234.041H238.858L237.624 230.745L233.925 225.251L231.459 221.954L230.225 217.559L225.909 211.516L222.826 207.12L221.593 203.275L222.826 203.824L228.992 212.614L233.308 218.658L238.858 225.8L241.94 230.745H243.79L243.174 228.547L242.557 225.8L241.324 222.504L240.091 219.757L238.241 215.911L235.775 210.966V207.67L237.624 211.516L240.707 217.559L243.174 222.504L246.256 227.998V230.745H248.723V228.547L247.49 223.053L246.873 218.108L245.64 213.164L244.407 207.12L243.174 201.627L241.94 197.231L240.707 192.287V188.99L241.324 185.145L243.174 192.287L244.407 198.88L245.64 203.275L246.873 209.867L248.723 215.361L249.339 219.757L251.189 224.701V230.745L253.655 229.646V223.602L253.039 218.658L252.422 214.263V208.769L253.039 203.824L253.655 206.022L254.889 208.769L255.505 214.263L256.122 218.658V228.547L258.588 227.125V206.571V194.484L259.821 187.892L261.054 192.836V202.176V211.516V220.306V223.053V227.448L262.288 226.899V224.701V221.405V217.559L263.521 214.263L264.137 216.46V219.757V223.053L263.521 225.8V228.547L264.754 227.998L265.37 226.349L266.604 223.053L267.22 219.757L268.453 216.46L269.07 214.263L270.92 212.065V214.263L269.687 217.559L269.07 221.954L268.453 224.152V226.349V228.547H270.92L271.536 226.349L273.386 223.053L275.852 219.207L277.085 216.46L278.319 213.164L279.552 210.966L281.402 208.769V210.417L280.785 212.614L279.552 215.361L278.319 218.658L277.085 223.053L275.236 226.899L274.619 228.547V230.195H275.852L277.702 229.096L278.935 226.899L282.635 223.602L285.718 220.306L288.801 217.559L290.65 215.361L293.117 212.614L294.966 210.966L296.816 209.867L296.199 212.065L293.733 214.263L293.117 215.361L291.883 217.01L289.417 219.757L288.801 220.855H288.184V221.954L287.567 222.504L286.951 223.053V223.602H286.334L285.718 224.152L285.101 225.251L284.484 226.349L283.868 226.899L283.251 227.448L282.635 227.998L282.018 228.547V229.646V230.745H289.417V229.646H290.65H291.883L293.117 228.547L294.35 227.448L295.583 226.349H296.816V227.448L295.583 228.547L294.35 229.646V230.745H301.749L332.578 234.59L376.355 245.578Z" fill="#280C05"/>
<path d="M323.732 252C323.732 254.88 318.946 253.2 316.554 252L315.357 258L344.071 255.6L356.036 252L357.232 243.6L352.446 244.8H346.464L344.071 241.2V232.8V228L345.268 222L350.054 219.6L358.429 218.4H364.411L368 213.6V199.2V182.4V154.8C368 149.2 367.282 137.76 364.411 136.8C361.539 135.84 360.821 140.4 360.821 142.8L359.625 180V194.4V205.2L356.036 208.8C354.44 208.8 350.771 207.6 348.857 202.8C346.943 198 347.262 187.2 347.661 182.4L346.464 116.4V92.4V80.4L345.268 74.4C344.47 73.2 341.918 71.28 338.089 73.2C334.261 75.12 335.696 77.2 336.893 78L338.089 87.6V106.8V147.6V187.2L335.696 193.2L332.107 194.4L327.321 188.4V182.4L326.125 136.8V99.6V70.8V7.2L324.929 0H320.143L318.946 6V13.2V25.2V114V159.6V196.8L317.75 208.8L316.554 213.6L311.768 211.2L309.375 204L308.179 192V154.8V121.2V110.4L306.982 104.4H302.196L301 108L302.196 123.6V213.6L305.786 224.4L312.964 229.2L321.339 232.8L323.732 240V252Z" fill="#280C05"/>
</svg>
