<svg width="252" height="252" viewBox="0 0 252 252" fill="none" xmlns="http://www.w3.org/2000/svg">
<path d="M123.964 5.33853C116.988 5.60307 110.978 11.9542 111.093 18.943L111.39 38.4997C111.484 44.5793 115.749 49.4912 121.398 50.7235L121.71 71.1479C116.225 72.8984 111.989 78.2661 112.087 84.1274L112.384 103.684C112.478 109.767 116.743 114.676 122.394 115.906L122.706 136.331C117.216 138.086 112.993 143.447 113.082 149.31L113.381 168.865C113.433 172.358 114.842 175.589 117.351 177.963C119.858 180.333 123.163 181.562 126.653 181.418C130.141 181.282 133.402 179.788 135.836 177.214C138.27 174.641 139.58 171.302 139.522 167.812L139.225 148.255C139.131 142.173 134.866 137.264 129.215 136.033L128.904 115.649C131.135 114.984 133.188 113.782 134.842 112.033C137.271 109.465 138.58 106.125 138.527 102.629L138.225 83.0776C138.173 79.5837 136.764 76.3534 134.258 73.9826C132.554 72.3712 130.467 71.3364 128.22 70.8505L127.908 50.4666C130.138 49.8 132.191 48.5979 133.845 46.8493C136.274 44.2808 137.585 40.9421 137.531 37.4469L137.23 17.895C137.182 14.3965 135.773 11.1662 133.267 8.79543C130.757 6.42166 127.452 5.19292 123.964 5.33853ZM132.624 148.52L132.921 168.077C132.978 171.53 130.005 174.674 126.554 174.809C124.823 174.882 123.187 174.271 121.95 173.101C120.709 171.927 120.01 170.33 119.984 168.598L119.682 149.046C119.659 147.314 120.306 145.66 121.51 144.388C121.887 143.99 122.363 143.743 122.812 143.455L122.845 145.658C122.873 147.458 124.352 148.857 126.151 148.785C127.951 148.712 129.385 147.195 129.358 145.395L129.324 143.189C131.23 144.242 132.588 146.165 132.624 148.52ZM131.623 83.3396L131.925 102.892C131.957 105.163 130.636 107.192 128.796 108.428L128.763 106.282C128.736 104.481 127.257 103.082 125.457 103.154C123.658 103.227 122.223 104.744 122.251 106.545L122.284 108.75C120.382 107.694 119.022 105.773 118.987 103.417L118.689 83.8607C118.661 82.1334 119.31 80.4814 120.514 79.2092C120.892 78.8089 121.368 78.5621 121.817 78.2713L121.851 80.4709C121.878 82.2714 123.357 83.6705 125.157 83.598C126.956 83.5254 128.391 82.0086 128.364 80.2078L128.331 78.0067C128.787 78.2627 129.27 78.4706 129.66 78.8398C130.9 80.0115 131.598 81.6089 131.623 83.3396ZM130.631 18.1571L130.933 37.709C130.963 39.9787 129.643 42.013 127.801 43.2487L127.768 41.0991C127.741 39.2985 126.262 37.8994 124.462 37.9719C122.663 38.0444 121.228 39.5614 121.255 41.3621L121.289 43.568C119.387 42.5116 118.03 40.5901 117.994 38.2349L117.697 18.6783C117.669 16.951 118.317 15.2976 119.52 14.0254C120.724 12.7532 122.338 12.0147 124.065 11.9465C125.792 11.8734 127.426 12.4825 128.668 13.6574C129.906 14.8276 130.606 16.4265 130.631 18.1571Z" fill="#431206" stroke="#431206" stroke-width="0.3474"/>
<path d="M124.962 70.3387C117.986 70.6032 111.976 76.9544 112.091 83.9431L112.388 103.5C112.482 109.579 116.747 114.491 122.396 115.724L122.708 136.148C117.223 137.899 112.987 143.266 113.085 149.127L113.382 168.684C113.477 174.767 117.741 179.676 123.392 180.906L123.704 201.331C118.214 203.086 113.991 208.447 114.08 214.31L114.379 233.865C114.431 237.359 115.84 240.589 118.349 242.963C120.856 245.333 124.161 246.562 127.651 246.418C131.139 246.282 134.4 244.788 136.834 242.214C139.268 239.641 140.578 236.303 140.52 232.812L140.223 213.255C140.129 207.173 135.864 202.264 130.213 201.033L129.902 180.649C132.133 179.984 134.186 178.782 135.84 177.034C138.269 174.465 139.578 171.125 139.525 167.63L139.223 148.078C139.171 144.584 137.762 141.354 135.256 138.983C133.552 137.371 131.465 136.337 129.218 135.851L128.906 115.467C131.136 114.8 133.189 113.598 134.843 111.849C137.272 109.281 138.583 105.942 138.529 102.447L138.228 82.8951C138.18 79.3966 136.771 76.1663 134.265 73.7956C131.755 71.4218 128.45 70.193 124.962 70.3387ZM133.622 213.521L133.919 233.077C133.976 236.53 131.003 239.674 127.552 239.809C125.821 239.882 124.185 239.272 122.948 238.101C121.707 236.928 121.009 235.33 120.982 233.598L120.68 214.046C120.657 212.314 121.305 210.66 122.508 209.388C122.885 208.99 123.361 208.743 123.81 208.455L123.843 210.658C123.871 212.458 125.35 213.858 127.149 213.785C128.949 213.713 130.383 212.196 130.356 210.395L130.322 208.189C132.228 209.242 133.586 211.165 133.622 213.521ZM132.621 148.34L132.923 167.892C132.955 170.163 131.634 172.193 129.794 173.428L129.761 171.282C129.734 169.481 128.255 168.082 126.455 168.155C124.656 168.227 123.221 169.744 123.249 171.545L123.282 173.751C121.38 172.694 120.02 170.773 119.985 168.417L119.687 148.861C119.659 147.134 120.309 145.482 121.512 144.209C121.89 143.809 122.366 143.562 122.815 143.271L122.849 145.471C122.876 147.272 124.355 148.671 126.155 148.598C127.954 148.526 129.389 147.009 129.362 145.208L129.329 143.007C129.785 143.263 130.268 143.471 130.658 143.84C131.898 145.012 132.597 146.609 132.621 148.34ZM131.629 83.1572L131.931 102.709C131.961 104.979 130.641 107.013 128.799 108.249L128.766 106.099C128.739 104.299 127.26 102.9 125.46 102.972C123.661 103.045 122.226 104.562 122.253 106.362L122.287 108.568C120.385 107.512 119.029 105.59 118.993 103.235L118.695 83.6784C118.667 81.9511 119.315 80.2977 120.518 79.0255C121.722 77.7533 123.336 77.0149 125.063 76.9466C126.79 76.8735 128.424 77.4826 129.666 78.6575C130.904 79.8277 131.604 81.4266 131.629 83.1572Z" fill="#431206" stroke="#431206" stroke-width="0.3474"/>
</svg>
