<svg width="1115" height="265" viewBox="0 0 1115 265" fill="none" xmlns="http://www.w3.org/2000/svg">
<path d="M788.558 0H1081.66L1103.3 19.0086L1111.67 39.7452V63.938L1113.77 74.3063V135.652H1092.83L1009.09 139.972L937.205 146.021L829.035 154.661L796.933 161.573L782.975 165.893L773.205 170.213L767.622 173.669L762.737 177.126L760.643 182.31V188.358L765.528 194.406L773.903 198.726L785.069 202.182L803.911 203.91L899.52 206.502L1113.77 196.998C1114.7 211.111 1116 242.792 1113.77 256.616C1111.53 270.44 1059.8 264.104 1034.21 259.208H861.835H745.988L672.013 256.616L607.111 254.024L554.771 248.84L502.43 239.335L494.754 237.607L491.962 235.015V232.423C492.427 230.983 494.056 227.585 496.847 225.511C500.755 222.746 511.037 220.327 515.69 219.463L580.592 213.415L654.567 203.91L700.626 196.998C707.838 192.39 721.423 181.446 718.073 174.533C714.723 167.621 705.046 165.893 700.626 165.893L625.954 150.341L533.835 144.293H437.528H371.23L263.06 148.613H133.953L78.1236 145.157L43.23 141.7L20.898 137.38L10.4299 134.788L2.05508 130.468C0.891955 128.452 -1.01556 123.901 0.65933 121.828C2.33423 119.754 4.61394 119.236 5.54444 119.236L13.221 116.644L25.0849 115.78L48.8126 112.324L152.098 107.139L304.234 101.955L437.528 96.771L664.336 93.3149L731.332 91.5869H775.298L826.941 88.9948L867.417 87.2667L905.103 84.6747H937.205L961.63 81.2185L980.473 79.4905L994.43 76.8984L1009.09 74.3063L1016.06 70.8502L1018.86 69.1222L1021.65 67.3941L1023.04 63.938V61.3459L1021.65 57.8898L1017.46 55.2977L992.337 51.8416L963.026 50.1136H919.758H871.605L826.941 49.2495L798.328 47.5215L757.154 43.2014L733.426 37.1532L721.562 31.969L715.281 27.6489L711.792 24.1928L711.094 19.8726C711.327 19.0086 712.211 16.9349 713.885 15.5525L726.447 11.2324L745.29 6.91222L757.851 3.45611L788.558 0Z" fill="#B3CF9E" fill-opacity="0.8"/>
</svg>
