<svg width="470" height="268" viewBox="0 0 470 268" fill="none" xmlns="http://www.w3.org/2000/svg">
<path d="M135.281 267.798L12.0186 265.234L3.31581 246.04L0.225202 225.235L0.728219 201.048L0.0633417 190.663L1.33885 129.331L10.1433 129.514L45.451 125.927L75.8053 120.509L121.474 112.816L135.118 106.186L141.078 101.989L145.276 97.7554L147.696 94.3488L149.822 90.9362L150.81 85.7714L150.936 79.7246L149.008 73.635L145.576 69.2425L140.952 65.6895L133.064 63.797L92.9107 60.3693L2.61435 67.9978C2.51648 53.8803 2.62736 22.1948 3.85393 8.39287C5.0805 -5.40905 26.7055 1.37826 37.3647 6.49714L109.855 8.00468L158.572 9.01784L189.628 12.2563L216.867 15.4155L238.771 21.0562L260.584 31.0162L263.777 32.8111L264.897 35.427L264.843 38.0185C264.617 39.4542 263.862 42.8377 262.645 44.8865C260.944 47.6166 256.569 49.9455 254.595 50.7686L227.175 56.2479L195.869 65.1032L176.355 71.611C173.227 76.1551 167.286 86.9783 168.551 93.9183C169.816 100.858 173.85 102.671 175.709 102.709L206.788 118.911L245.401 125.764L285.902 126.606L313.783 127.186L359.362 123.813L413.656 124.942L437.063 128.886L451.665 132.646L460.966 137.161L465.315 139.844L468.747 144.236C469.194 146.262 469.902 150.828 469.154 152.887C468.407 154.945 467.437 155.444 467.046 155.436L463.764 157.96L458.757 158.72L448.706 161.968L405.163 166.248L341.077 170.1L284.914 174.117L189.461 175.589L161.251 176.731L142.761 176.346L120.99 178.486L103.932 179.86L88.03 182.122L74.5298 181.841L64.1861 185.083L56.2262 186.646L50.3027 189.115L44.0857 191.579L41.079 194.973L39.8692 196.676L38.6593 198.38L38.0005 201.823L37.9466 204.414L38.4617 207.882L40.1687 210.51L50.6621 214.185L62.9524 216.169L81.1483 216.547L101.398 216.969L120.163 218.223L132.16 220.201L149.386 224.88L159.238 231.135L164.12 236.421L166.671 240.796L168.067 244.281L168.27 248.607C168.155 249.469 167.74 251.534 167.007 252.902L161.634 257.111L153.62 261.265L148.266 264.611L135.281 267.798Z" fill="#B3CF9E" fill-opacity="0.8"/>
</svg>
