<svg width="575" height="506" viewBox="0 0 575 506" fill="none" xmlns="http://www.w3.org/2000/svg">
<path d="M562 37.884V443.349L104 423.055L115.652 246.927L123.16 209.987C124.518 203.305 130.493 198.573 137.309 198.782L227.834 201.559C233.753 201.741 238.754 197.204 239.147 191.295L241.131 161.462L256.762 92.4762C258.104 86.5535 263.368 82.349 269.441 82.349H284.207C291.024 82.349 296.472 88.0209 296.197 94.8324L293.321 166.188C293.208 168.984 295.412 171.328 298.209 171.388L312.906 171.704C316.81 171.788 320.027 168.661 320.056 164.757L320.9 49.4334L318.629 30.4126C317.93 24.5567 322.503 19.4051 328.401 19.4051C329.753 19.4051 330.9 18.4091 331.089 17.0696L332.831 4.7228C333.183 2.2244 335.342 0.380125 337.865 0.422072L462.404 2.49277C467.914 2.58438 472.311 7.11658 472.237 12.6269L470.73 123.749C470.647 129.882 475.596 134.899 481.729 134.899H488.057H491.244C499.246 134.899 505.839 128.618 506.227 120.625L508.501 73.7409C508.825 67.0574 515.066 62.2597 521.608 63.6648C524.909 64.3737 528.048 61.9254 528.165 58.5509L528.838 39.0389C528.838 33.3907 533.577 28.899 539.217 29.2018L539.593 29.222L552.764 28.8826C557.826 28.7521 562 32.8202 562 37.884Z" fill="url(#paint0_linear_4858_97)"/>
<path d="M1.98927 452.339L13.3667 457.855L19.6229 479.145L563.442 500.016L562.639 468L562.639 459.308L562.639 440.154L562.639 421L534.723 419.304L521.973 412.064L514.186 361.977L515.48 334.972L517.987 312.996C518.106 305.453 518.36 290.035 518.423 288.712C518.502 287.059 504.63 288.052 498.823 287.774C494.177 287.551 492.874 290.435 492.804 291.904L488.593 303.855L486.244 322.524L483.631 346.703L480.067 360.342C478.347 360.812 474.782 367.381 474.286 389.894C473.789 412.408 469.151 400.88 466.894 392.302L433.475 391.254C425.784 389.781 409.859 386.035 407.684 382.837C405.509 379.64 405.607 375.557 405.929 373.915L405.783 361.756L402.629 351.662L396.333 346.389C391.634 343.217 379.412 335.083 368.114 327.913C367.037 326.094 368.017 319.807 368.642 316.89L369.777 293.192L370.384 280.516L368.893 266.083C368.677 265.52 367.837 263.823 366.2 261.535C364.563 259.247 357.291 260.188 353.859 260.944L296.484 258.748L248.387 260.311L222.015 264.019C218.091 264.936 209.141 268.484 204.738 275.344C200.335 282.204 195.222 286.672 193.215 288.049L169.814 305.709L147.375 318.444C143.675 319.74 134.538 322.138 127.59 321.363C120.642 320.589 116.635 327.283 115.5 330.727L103.713 348.944L96.9819 367.955L91.0556 385.347L87.4391 400.088L82.8986 403.738L54.5606 402.933L42.2196 402.341L23.3452 401.437C21.0222 401.326 20.855 402.791 21.0618 403.537L17.0625 411.079L12.9576 420.826L10.2518 431.744L5.26261 444.762L1.98927 452.339Z" fill="url(#paint1_linear_4858_97)"/>
<defs>
<linearGradient id="paint0_linear_4858_97" x1="333" y1="0.348633" x2="333" y2="423.055" gradientUnits="userSpaceOnUse">
<stop stop-color="#FC7413"/>
<stop offset="1" stop-color="#FCAA41"/>
</linearGradient>
<linearGradient id="paint1_linear_4858_97" x1="291.85" y1="256.754" x2="280.598" y2="491.646" gradientUnits="userSpaceOnUse">
<stop stop-color="#DA6524"/>
<stop offset="1" stop-color="#DA6524" stop-opacity="0.92"/>
</linearGradient>
</defs>
</svg>
