<svg width="629" height="543" viewBox="0 0 629 543" fill="none" xmlns="http://www.w3.org/2000/svg">
<path d="M6 37.8389V399.349L469 390.349L454.894 268.697C454.169 262.44 451.555 256.552 447.4 251.818L430.55 232.62L415.066 208.754C414.177 207.383 413.436 205.922 412.857 204.394L404.917 183.465L397.756 160.638C396.662 157.15 396.106 153.517 396.106 149.862V135.93V116.484L391.565 82.8052C390.513 75.0005 383.604 69.3384 375.745 69.8397L342.593 71.9544C335.748 72.391 330.42 78.0697 330.42 84.9281V89.4761V101.9V109.663C330.42 114.18 331.167 118.665 332.629 122.938L335.064 130.054C337.59 137.433 332.468 145.227 324.698 145.899C315.927 146.657 308.143 140.191 307.339 131.424L300.263 54.2941C299.65 47.6026 294.037 42.4816 287.318 42.4816H246.472C243.59 42.4816 241.116 40.4331 240.578 37.6023L235.806 12.5044C234.511 5.69605 228.104 1.10017 221.24 2.05702L160.607 10.5094C155.003 11.2906 150.706 15.8798 150.295 21.5228L139.128 174.838C138.922 177.677 135.247 178.659 133.652 176.301L77.6585 93.5678C75.8425 90.8846 74.7429 87.7816 74.4641 84.5537L71.4252 49.3758C70.666 40.5868 63.31 33.8389 54.4883 33.8389H10C7.79086 33.8389 6 35.6298 6 37.8389Z" fill="url(#paint0_linear_4871_105)"/>
<path d="M4.93784 408.289C-3.68644 416.997 0.776578 411.522 4.86936 406.808L4.93784 408.289C6.71386 406.495 9.04488 404.1 12.0484 400.973C29.6372 382.662 44.2045 364.62 49.2896 357.887L59.1608 346.218L66.7886 341.281V315.25L64.0964 247.031L65.4425 200.355L68.5833 179.71L72.1729 166.694L75.7624 163.104L77.1085 148.293C76.9589 147.096 77.0187 144.074 78.4546 141.561C79.8904 139.047 82.9415 138.12 84.2876 137.97L85.1849 135.277L84.2876 126.75V117.774C84.2876 117.175 84.9157 115.978 87.4284 115.978C89.9411 115.978 98.9448 113.884 103.133 112.837L118.837 109.695L132.298 108.349L140.374 109.695L150.694 115.081L155.181 122.262L156.527 125.403L162.809 126.75L186.141 125.403L218.895 123.608L235.497 124.506L248.06 128.096L257.034 132.136C257.632 132.435 259.008 133.482 259.726 135.277C260.444 137.073 264.811 136.325 266.905 135.726L277.674 135.277L287.096 136.624L291.135 137.97L294.276 141.112L294.724 152.332L294.276 162.206V177.465V202.15V216.512L294.724 220.103L298.314 220.551L301.903 223.244L304.147 225.937V230.874L304.595 234.016H308.185L313.569 234.464L318.056 236.709L322.094 239.401L324.338 242.992L325.235 247.031L329.274 247.48C329.722 247.181 331.068 246.762 332.863 247.48C334.658 248.198 336.004 250.173 336.453 251.07L338.247 250.173L339.593 248.378L340.042 244.787V231.772V194.52L339.593 171.182C339.593 170.584 339.773 169.297 340.491 168.938C341.209 168.579 345.576 168.788 347.67 168.938H355.746L361.131 169.836V174.773L360.682 179.71V207.536V232.669V249.724L361.579 256.905L365.618 261.393L366.964 266.779L367.412 276.204L369.656 286.527L370.553 300.888L372.797 312.109C376.087 319.589 383.027 336.434 384.463 343.974C385.898 351.514 394.035 354.297 397.923 354.746L442.793 352.951L481.829 354.746L500.674 356.092L518.173 361.478C519.818 361.927 524.096 363.722 528.044 367.312C531.993 370.903 537.766 379.879 540.159 383.918L541.505 400.076L552.274 415.335L571.119 438.225L601.63 477.72L622.718 513.176L629 530.68V542.349H336.453L59.1608 535.616L10.702 532.924L4.93784 408.289Z" fill="url(#paint1_linear_4871_105)"/>
<defs>
<linearGradient id="paint0_linear_4871_105" x1="237.5" y1="0.348634" x2="227.652" y2="292.975" gradientUnits="userSpaceOnUse">
<stop stop-color="#FC7312"/>
<stop offset="1" stop-color="#FCAA40"/>
</linearGradient>
<linearGradient id="paint1_linear_4871_105" x1="314.5" y1="108.349" x2="314.5" y2="542.349" gradientUnits="userSpaceOnUse">
<stop stop-color="#DA6524"/>
<stop offset="1" stop-color="#F77A34"/>
</linearGradient>
</defs>
</svg>
