<svg width="626" height="57" viewBox="0 0 626 57" fill="none" xmlns="http://www.w3.org/2000/svg">
<path d="M35.4245 24.35L44.8745 28.175L41.9495 31.325C43.1495 33.65 43.7495 36.05 43.7495 38.6C43.7495 43.925 41.5745 48.35 37.1495 51.875C33.0995 55.175 28.2995 56.825 22.8245 56.825C20.9495 56.825 14.6495 56.3 3.77451 55.25L2.94951 35.45L8.27451 35.075C9.17451 38.15 11.1245 41.375 14.0495 44.6C17.3495 48.275 20.4245 50.075 23.1995 50.075C27.6995 50.075 31.4495 46.775 31.4495 42.275C31.4495 38.6 28.8995 35.975 23.8745 34.55L0.624512 28.25L3.92451 24.95C2.72451 22.7 2.12451 20 2.12451 16.925C2.12451 11.825 3.99951 7.7 7.82451 4.625C11.3495 1.7 15.7745 0.199999 20.9495 0.199999C25.7495 0.199999 32.3495 0.424996 40.8245 0.799995L41.6495 20L37.1495 20.375C34.9745 10.85 30.6995 6.125 24.1745 6.125C21.8495 6.125 19.8245 7.025 18.1745 8.825C16.5995 10.55 15.7745 12.65 15.7745 15.05C15.7745 17.075 17.2745 18.575 20.3495 19.55C20.3495 19.55 23.5745 20.45 29.9495 22.25C32.1245 22.85 33.9245 23.525 35.4245 24.35ZM78.4341 13.325V22.775L83.6841 28.175L78.4341 33.725V43.7C78.4341 45.425 78.8841 47 79.7091 48.35C80.6841 49.85 82.0341 50.525 83.7591 50.45L83.8341 55.7C83.0091 55.925 82.1091 56.075 80.9841 56.075H72.5841H62.4591C61.8591 56.075 61.2591 56.075 60.5841 56V50.9C63.5091 50.375 65.5341 48.05 65.5341 45.125V33.95L59.6841 28.25L65.5341 22.625V13.025C65.5341 9.95 64.1841 8.45 61.5591 8.45C58.7091 8.45 56.5341 10.475 54.9591 14.45C53.8341 17.3 53.2341 20.45 53.0841 23.9L48.1341 21.2V0.424996L95.6841 0.349997V20.375L90.2091 23.45C89.7591 18.725 89.3841 15.725 89.0841 14.6C88.0341 10.475 86.2341 8.375 83.7591 8.375C81.1341 8.375 78.4341 10.7 78.4341 13.325ZM110.823 32.6L126.048 32.675L117.573 15.725L110.823 32.6ZM130.098 12.8L135.573 23.375L143.898 28.175L140.148 32.225L147.123 45.725C149.073 49.475 151.098 51.2 153.198 50.975V56.15L127.023 55.925V50.975C128.523 50.975 129.948 50.75 131.223 50.3C132.948 49.7 133.848 48.8 133.848 47.6C133.848 46.775 133.398 45.575 132.498 44C132.123 43.325 131.523 42.2 130.548 40.625H107.298C106.023 43.7 105.348 45.65 105.348 46.475C105.348 49.55 107.673 51.05 112.248 50.975V55.775L89.3729 55.625V50.675C93.0479 50.525 95.5229 48.875 96.8729 45.725L102.573 32.6L98.2979 28.25L106.998 22.25C110.223 14.675 111.798 10.325 111.798 9.275C111.798 7.7 110.823 6.95 108.798 6.95C108.198 6.95 107.598 7.025 106.923 7.1L106.998 0.574998H134.223V6.5C132.948 6.575 131.898 6.875 130.998 7.475C129.873 8.15 129.348 9.125 129.348 10.25C129.348 11 129.573 11.825 130.098 12.8ZM159.083 33.725L153.683 28.25L159.083 22.85V13.475C159.083 9.35 157.733 7.325 155.108 7.325C154.583 7.325 154.058 7.4 153.458 7.625V0.574998C155.258 0.574998 164.633 0.424996 181.583 0.124995C186.908 0.124995 191.333 1.85 194.708 5.375C198.083 8.9 199.808 13.325 199.808 18.65C199.808 20.675 199.433 22.475 198.683 24.125L201.308 28.025L192.233 30.35C191.333 30.725 190.358 30.95 189.383 31.175C191.708 32.375 193.658 34.325 195.233 36.95L197.783 42.425C199.208 44.975 200.483 46.25 201.683 46.25C203.333 46.25 204.983 44.75 206.633 41.675C207.758 43.7 208.283 45.575 208.283 47.3C208.283 49.85 207.233 51.95 205.133 53.675C203.108 55.4 200.783 56.225 198.158 56.225C193.508 56.225 189.983 54.275 187.583 50.3C186.758 47.975 185.408 44.6 183.608 40.1C181.583 35.6 179.258 33.35 176.558 33.35C173.783 33.35 172.433 34.25 172.433 36.125V42.875C172.433 46.475 174.833 49.775 178.358 49.85V55.7C177.383 55.925 169.133 55.925 153.683 55.775V50.675C156.908 50.3 159.083 47.525 159.083 44.3V33.725ZM187.283 15.875C187.283 13.625 186.758 11.825 185.783 10.475C184.658 8.9 183.083 8.15 180.908 8.15C175.508 8.15 172.808 10.475 172.808 15.05V27.05C173.783 27.275 174.758 27.425 175.658 27.425C182.633 27.425 187.283 22.85 187.283 15.875ZM239.347 13.325V22.775L244.597 28.175L239.347 33.725V43.7C239.347 45.425 239.797 47 240.622 48.35C241.597 49.85 242.947 50.525 244.672 50.45L244.747 55.7C243.922 55.925 243.022 56.075 241.897 56.075H233.497H223.372C222.772 56.075 222.172 56.075 221.497 56V50.9C224.422 50.375 226.447 48.05 226.447 45.125V33.95L220.597 28.25L226.447 22.625V13.025C226.447 9.95 225.097 8.45 222.472 8.45C219.622 8.45 217.447 10.475 215.872 14.45C214.747 17.3 214.147 20.45 213.997 23.9L209.047 21.2V0.424996L256.597 0.349997V20.375L251.122 23.45C250.672 18.725 250.297 15.725 249.997 14.6C248.947 10.475 247.147 8.375 244.672 8.375C242.047 8.375 239.347 10.7 239.347 13.325ZM297.337 32.45L293.212 28.25L297.337 24.125V14.975C297.337 9.35 295.087 6.5 290.662 6.425L290.587 0.424996L309.937 0.274998L310.012 6.875H309.562C306.337 6.875 304.687 8.675 304.687 12.35V23.75L308.962 28.175L304.687 32.75V40.7C304.687 45.35 302.737 49.25 298.762 52.4C295.087 55.4 290.887 56.9 286.162 56.9C280.462 56.9 275.737 55.025 271.987 51.275C268.237 47.45 266.362 42.725 266.362 37.025V33.725L260.962 28.25L266.362 22.85V13.025C266.362 11.15 265.912 9.5 265.012 8.225C263.962 6.65 262.537 6.05 260.662 6.35V0.649997L284.062 0.499999V6.35C280.837 6.425 278.737 9.05 278.737 12.35V22.55L284.212 28.175L278.737 34.025V38.975C278.737 45.725 281.962 49.1 288.412 49.1C291.262 49.1 293.512 48.125 295.087 46.175C296.587 44.375 297.337 42.05 297.337 39.125V32.45ZM348.38 18.875C348.38 16.475 347.855 14.075 346.73 11.6C345.38 8.6 343.655 7.1 341.555 7.1C337.655 7.1 334.355 10.025 334.355 13.85L334.28 31.25C335.48 31.925 336.83 32.225 338.405 32.225C341.855 32.225 344.48 30.8 346.205 27.95C347.63 25.625 348.38 22.55 348.38 18.875ZM360.98 22.55L363.98 28.175L356.18 33.875C352.28 38.225 347.33 40.4 341.33 40.4C338.93 40.4 336.68 39.875 334.655 38.75V45.5C334.655 49.025 337.355 50.75 340.955 50.375V55.925L315.53 56.15V51.275C318.755 51.275 321.23 49.25 321.23 46.175L321.155 34.025L315.455 28.25L321.155 22.475L321.23 22.55V13.4C321.23 9.725 319.28 7.025 315.68 7.1V0.349997C316.655 0.424996 320.03 0.424996 325.955 0.349997C331.88 0.274998 336.98 0.274998 341.255 0.274998C347.03 0.274998 351.755 2.225 355.43 6.05C359.18 9.875 361.055 14.6 361.055 20.375C361.055 21.125 361.055 21.875 360.98 22.55ZM430.713 24.35L440.163 28.175L437.238 31.325C438.438 33.65 439.038 36.05 439.038 38.6C439.038 43.925 436.863 48.35 432.438 51.875C428.388 55.175 423.588 56.825 418.113 56.825C416.238 56.825 409.938 56.3 399.063 55.25L398.238 35.45L403.563 35.075C404.463 38.15 406.413 41.375 409.338 44.6C412.638 48.275 415.713 50.075 418.488 50.075C422.988 50.075 426.738 46.775 426.738 42.275C426.738 38.6 424.188 35.975 419.163 34.55L395.913 28.25L399.213 24.95C398.013 22.7 397.413 20 397.413 16.925C397.413 11.825 399.288 7.7 403.113 4.625C406.638 1.7 411.063 0.199999 416.238 0.199999C421.038 0.199999 427.638 0.424996 436.113 0.799995L436.938 20L432.438 20.375C430.263 10.85 425.988 6.125 419.463 6.125C417.138 6.125 415.113 7.025 413.463 8.825C411.888 10.55 411.063 12.65 411.063 15.05C411.063 17.075 412.563 18.575 415.638 19.55C415.638 19.55 418.863 20.45 425.238 22.25C427.413 22.85 429.213 23.525 430.713 24.35ZM465.022 32.6L480.247 32.675L471.772 15.725L465.022 32.6ZM484.297 12.8L489.772 23.375L498.097 28.175L494.347 32.225L501.322 45.725C503.272 49.475 505.297 51.2 507.397 50.975V56.15L481.222 55.925V50.975C482.722 50.975 484.147 50.75 485.422 50.3C487.147 49.7 488.047 48.8 488.047 47.6C488.047 46.775 487.597 45.575 486.697 44C486.322 43.325 485.722 42.2 484.747 40.625H461.497C460.222 43.7 459.547 45.65 459.547 46.475C459.547 49.55 461.872 51.05 466.447 50.975V55.775L443.572 55.625V50.675C447.247 50.525 449.722 48.875 451.072 45.725L456.772 32.6L452.497 28.25L461.197 22.25C464.422 14.675 465.997 10.325 465.997 9.275C465.997 7.7 465.022 6.95 462.997 6.95C462.397 6.95 461.797 7.025 461.122 7.1L461.197 0.574998H488.422V6.5C487.147 6.575 486.097 6.875 485.197 7.475C484.072 8.15 483.547 9.125 483.547 10.25C483.547 11 483.772 11.825 484.297 12.8ZM511.782 33.575L506.532 28.25L511.707 23.075C512.382 17.675 514.332 12.875 517.632 8.675C522.132 2.9 527.907 0.0499961 534.882 0.0499961L552.357 0.424996L555.807 15.575L550.257 17C549.732 13.925 548.307 11.3 545.982 9.125C543.657 6.95 540.882 5.825 537.807 5.825C533.157 5.825 529.707 8.675 527.532 14.3C526.557 16.85 525.882 19.775 525.507 23L530.532 28.175L525.432 33.575C525.732 36.8 526.332 39.65 527.232 42.125C529.182 47.375 532.332 50 536.757 50C540.957 50 544.107 47.6 544.107 43.475V36.35C544.107 33.05 541.332 30.575 537.957 29.9V23.825L560.082 24.725V30.35C557.007 31.325 555.432 34.325 555.432 39.35V55.625C545.682 56.225 538.857 56.45 535.032 56.3C532.857 56.45 530.982 56.3 529.557 55.85C519.132 52.625 513.207 45.2 511.782 33.575ZM583.015 32.6L598.24 32.675L589.765 15.725L583.015 32.6ZM602.29 12.8L607.765 23.375L616.09 28.175L612.34 32.225L619.315 45.725C621.265 49.475 623.29 51.2 625.39 50.975V56.15L599.215 55.925V50.975C600.715 50.975 602.14 50.75 603.415 50.3C605.14 49.7 606.04 48.8 606.04 47.6C606.04 46.775 605.59 45.575 604.69 44C604.315 43.325 603.715 42.2 602.74 40.625H579.49C578.215 43.7 577.54 45.65 577.54 46.475C577.54 49.55 579.865 51.05 584.44 50.975V55.775L561.565 55.625V50.675C565.24 50.525 567.715 48.875 569.065 45.725L574.765 32.6L570.49 28.25L579.19 22.25C582.415 14.675 583.99 10.325 583.99 9.275C583.99 7.7 583.015 6.95 580.99 6.95C580.39 6.95 579.79 7.025 579.115 7.1L579.19 0.574998H606.415V6.5C605.14 6.575 604.09 6.875 603.19 7.475C602.065 8.15 601.54 9.125 601.54 10.25C601.54 11 601.765 11.825 602.29 12.8Z" fill="white"/>
</svg>
