<svg width="119" height="28" viewBox="0 0 119 28" fill="none" xmlns="http://www.w3.org/2000/svg">
<g clip-path="url(#clip0_5621_40)">
<path d="M10.9201 26.8595C8.22609 26.8595 5.55409 25.8985 3.27209 24.0485L2.87109 23.7205L6.98809 19.0255C7.07409 18.9275 7.19909 18.8675 7.32809 18.8565C7.45809 18.8505 7.58809 18.8945 7.68509 18.9815C7.78309 19.0695 7.84209 19.1945 7.85309 19.3255C7.85809 19.4565 7.81509 19.5875 7.72909 19.6865L4.30509 23.5895C7.18209 25.7295 10.6551 26.4015 13.9171 25.4235L17.9031 24.2225L21.8901 25.4235C25.1461 26.4015 28.6191 25.7345 31.4961 23.5945L28.0241 19.6645C27.9371 19.5655 27.8941 19.4345 27.8991 19.3035C27.9051 19.1725 27.9641 19.0475 28.0611 18.9595C28.1591 18.8725 28.2891 18.8285 28.4181 18.8345C28.5481 18.8395 28.6731 18.8995 28.7591 18.9985L32.9241 23.7155L32.5191 24.0425C29.3061 26.6415 25.3301 27.4875 21.6031 26.3685L17.8981 25.2545L14.1931 26.3685C13.1321 26.6905 12.0291 26.8485 10.9201 26.8485" fill="#333333"/>
<path d="M10.9201 26.8595C8.22609 26.8595 5.55409 25.8985 3.27209 24.0485L2.87109 23.7205L6.98809 19.0255C7.07409 18.9275 7.19909 18.8675 7.32809 18.8565C7.45809 18.8505 7.58809 18.8945 7.68509 18.9815C7.78309 19.0695 7.84209 19.1945 7.85309 19.3255C7.85809 19.4565 7.81509 19.5875 7.72909 19.6865L4.30509 23.5895C7.18209 25.7295 10.6551 26.4015 13.9171 25.4235L17.9031 24.2225L21.8901 25.4235C25.1461 26.4015 28.6191 25.7345 31.4961 23.5945L28.0241 19.6645C27.9371 19.5655 27.8941 19.4345 27.8991 19.3035C27.9051 19.1725 27.9641 19.0475 28.0611 18.9595C28.1591 18.8725 28.2891 18.8285 28.4181 18.8345C28.5481 18.8395 28.6731 18.8995 28.7591 18.9985L32.9241 23.7155L32.5191 24.0425C29.3061 26.6415 25.3301 27.4875 21.6031 26.3685L17.8981 25.2545L14.1931 26.3685C13.1321 26.6905 12.0291 26.8485 10.9201 26.8485" stroke="#333333" stroke-width="0.54" stroke-linejoin="round"/>
<path d="M17.8977 24.7741L9.78367 20.0521C8.88567 19.3921 8.15567 18.5291 7.65767 17.5241C7.16067 16.5201 6.90567 15.4121 6.92267 14.2931L6.99267 9.45605L10.2377 10.5311C10.3027 10.5531 10.3567 10.5801 10.4117 10.6241C10.4597 10.6671 10.5037 10.7171 10.5307 10.7771C10.5627 10.8371 10.5787 10.8971 10.5847 10.9621C10.5847 11.0281 10.5847 11.0931 10.5627 11.1591C10.5407 11.2191 10.5087 11.2791 10.4657 11.3281C10.4217 11.3771 10.3677 11.4211 10.3137 11.4481C10.2547 11.4761 10.1897 11.4921 10.1247 11.4971C10.0597 11.4971 9.99467 11.4971 9.92967 11.4701L7.95567 10.8151L7.90667 14.2981C7.89567 15.2531 8.10667 16.2031 8.53467 17.0601C8.95667 17.9171 9.57867 18.6601 10.3467 19.2281L17.9027 23.6281L25.5517 19.2281C26.3197 18.6651 26.9467 17.9171 27.3687 17.0601C27.7957 16.2031 28.0067 15.2531 27.9967 14.2931L27.9477 10.8091L25.6977 11.5361C25.5727 11.5741 25.4377 11.5631 25.3237 11.5031C25.2107 11.4431 25.1187 11.3391 25.0807 11.2131C25.0427 11.0881 25.0537 10.9511 25.1127 10.8371C25.1727 10.7221 25.2757 10.6291 25.3997 10.5911L28.9107 9.46105L28.9757 14.2821C28.9917 15.4061 28.7377 16.5201 28.2397 17.5241C27.7367 18.5291 27.0067 19.3971 26.1027 20.0521L26.0597 20.0791L17.8977 24.7741Z" fill="#333333" stroke="#333333" stroke-width="0.54" stroke-linecap="round" stroke-linejoin="round"/>
<path d="M17.9211 16.8796L11.0781 12.9326L17.9211 22.6946L24.6121 12.9326L17.9211 16.8796Z" fill="#333333"/>
<path d="M17.919 0L11.293 11.159L17.908 15.21L24.616 11.213L17.919 0Z" fill="#333333"/>
<path d="M4.24016 20.3025C4.12716 20.3025 4.01816 20.2645 3.93216 20.1935C3.84516 20.1225 3.78616 20.0245 3.75916 19.9155C3.43416 18.4685 2.50916 16.9185 1.09216 15.4445L0.535156 14.8705L1.29216 14.6255C2.96916 14.0905 4.43016 14.0135 5.76616 14.4015C5.89016 14.4395 5.99816 14.5215 6.05816 14.6365C6.12316 14.7505 6.13316 14.8875 6.10116 15.0125C6.06816 15.1385 5.98216 15.2475 5.86816 15.3075C5.75516 15.3735 5.62016 15.3845 5.49516 15.3515C4.53816 15.0725 3.52616 15.0725 2.35216 15.3515C3.58616 16.7765 4.39716 18.2615 4.72216 19.6865C4.73816 19.7565 4.73816 19.8335 4.72216 19.9045C4.70516 19.9755 4.67316 20.0465 4.62416 20.1005C4.57616 20.1605 4.52116 20.2045 4.45116 20.2375C4.38616 20.2705 4.31116 20.2865 4.24016 20.2865" fill="#333333"/>
<path d="M4.24016 20.3025C4.12716 20.3025 4.01816 20.2645 3.93216 20.1935C3.84516 20.1225 3.78616 20.0245 3.75916 19.9155C3.43416 18.4685 2.50916 16.9185 1.09216 15.4445L0.535156 14.8705L1.29216 14.6255C2.96916 14.0905 4.43016 14.0135 5.76616 14.4015C5.89016 14.4395 5.99816 14.5215 6.05816 14.6365C6.12316 14.7505 6.13316 14.8875 6.10116 15.0125C6.06816 15.1385 5.98216 15.2475 5.86816 15.3075C5.75516 15.3735 5.62016 15.3845 5.49516 15.3515C4.53816 15.0725 3.52616 15.0725 2.35216 15.3515C3.58616 16.7765 4.39716 18.2615 4.72216 19.6865C4.73816 19.7565 4.73816 19.8335 4.72216 19.9045C4.70516 19.9755 4.67316 20.0465 4.62416 20.1005C4.57616 20.1605 4.52116 20.2045 4.45116 20.2375C4.38616 20.2705 4.31116 20.2865 4.24016 20.2865" stroke="#333333" stroke-width="0.54" stroke-linecap="round" stroke-linejoin="round"/>
<path d="M31.6054 20.3032C31.5304 20.3032 31.4594 20.2872 31.3944 20.2542C31.3294 20.2212 31.2704 20.1722 31.2214 20.1182C31.1734 20.0632 31.1404 19.9922 31.1244 19.9212C31.1084 19.8502 31.1084 19.7742 31.1244 19.7032C31.4484 18.2782 32.2604 16.7932 33.4934 15.3682C32.3194 15.0892 31.3084 15.0892 30.3504 15.3682C30.2914 15.3842 30.2264 15.3902 30.1614 15.3842C30.0964 15.3792 30.0374 15.3572 29.9774 15.3242C29.9234 15.2922 29.8694 15.2482 29.8314 15.1992C29.7934 15.1502 29.7614 15.0892 29.7454 15.0242C29.7284 14.9642 29.7234 14.8982 29.7284 14.8332C29.7344 14.7672 29.7554 14.7072 29.7884 14.6472C29.8204 14.5932 29.8644 14.5382 29.9124 14.5002C29.9614 14.4622 30.0204 14.4292 30.0804 14.4132C31.4164 14.0252 32.8824 14.0962 34.5534 14.6362L35.3114 14.8822L34.7534 15.4552C33.3364 16.9292 32.4114 18.4742 32.0874 19.9262C32.0604 20.0362 32.0004 20.1342 31.9144 20.2052C31.8274 20.2762 31.7194 20.3142 31.6054 20.3142" fill="#333333"/>
<path d="M31.6054 20.3032C31.5304 20.3032 31.4594 20.2872 31.3944 20.2542C31.3294 20.2212 31.2704 20.1722 31.2214 20.1182C31.1734 20.0632 31.1404 19.9922 31.1244 19.9212C31.1084 19.8502 31.1084 19.7742 31.1244 19.7032C31.4484 18.2782 32.2604 16.7932 33.4934 15.3682C32.3194 15.0892 31.3084 15.0892 30.3504 15.3682C30.2914 15.3842 30.2264 15.3902 30.1614 15.3842C30.0964 15.3792 30.0374 15.3572 29.9774 15.3242C29.9234 15.2922 29.8694 15.2482 29.8314 15.1992C29.7934 15.1502 29.7614 15.0892 29.7454 15.0242C29.7284 14.9642 29.7234 14.8982 29.7284 14.8332C29.7344 14.7672 29.7554 14.7072 29.7884 14.6472C29.8204 14.5932 29.8644 14.5382 29.9124 14.5002C29.9614 14.4622 30.0204 14.4292 30.0804 14.4132C31.4164 14.0252 32.8824 14.0962 34.5534 14.6362L35.3114 14.8822L34.7534 15.4552C33.3364 16.9292 32.4114 18.4742 32.0874 19.9262C32.0604 20.0362 32.0004 20.1342 31.9144 20.2052C31.8274 20.2762 31.7194 20.3142 31.6054 20.3142" stroke="#333333" stroke-width="0.54" stroke-miterlimit="10"/>
<path d="M10.0719 9.52052C10.0019 9.52052 9.9369 9.50452 9.8719 9.47652C9.8069 9.44952 9.7529 9.40552 9.7039 9.35652C9.6559 9.30252 9.6229 9.24252 9.6019 9.17652C9.5799 9.11152 9.5749 9.04052 9.5799 8.96952L9.9689 5.43652L12.4199 7.12352C12.5219 7.20052 12.5929 7.31452 12.6199 7.44052C12.6409 7.56652 12.6199 7.69752 12.5439 7.80652C12.4739 7.91552 12.3599 7.98652 12.2359 8.01352C12.1109 8.04152 11.9759 8.01352 11.8729 7.94252L10.7699 7.18352L10.5589 9.07852C10.5479 9.19852 10.4889 9.31352 10.3969 9.39452C10.3049 9.47652 10.1909 9.52052 10.0669 9.52052" fill="#333333"/>
<path d="M10.0719 9.52052C10.0019 9.52052 9.9369 9.50452 9.8719 9.47652C9.8069 9.44952 9.7529 9.40552 9.7039 9.35652C9.6559 9.30252 9.6229 9.24252 9.6019 9.17652C9.5799 9.11152 9.5749 9.04052 9.5799 8.96952L9.9689 5.43652L12.4199 7.12352C12.5219 7.20052 12.5929 7.31452 12.6199 7.44052C12.6409 7.56652 12.6199 7.69752 12.5439 7.80652C12.4739 7.91552 12.3599 7.98652 12.2359 8.01352C12.1109 8.04152 11.9759 8.01352 11.8729 7.94252L10.7699 7.18352L10.5589 9.07852C10.5479 9.19852 10.4889 9.31352 10.3969 9.39452C10.3049 9.47652 10.1909 9.52052 10.0669 9.52052" stroke="#333333" stroke-width="0.54" stroke-linejoin="round"/>
<path d="M25.6112 9.52052C25.4922 9.52052 25.3792 9.47652 25.2872 9.39452C25.1952 9.31352 25.1412 9.20352 25.1252 9.08352L24.8812 7.17352L23.7672 7.93752C23.6592 8.01352 23.5292 8.04152 23.3992 8.01352C23.2692 7.99152 23.1562 7.91552 23.0852 7.80652C23.0102 7.69752 22.9832 7.56652 23.0102 7.43552C23.0372 7.30452 23.1072 7.18952 23.2152 7.11852L25.6552 5.43652L26.0982 8.95852C26.1092 9.02952 26.0982 9.10052 26.0822 9.16552C26.0602 9.23152 26.0282 9.29652 25.9792 9.34552C25.9312 9.40052 25.8762 9.43852 25.8122 9.47152C25.7472 9.49852 25.6762 9.51552 25.6112 9.51552" fill="#333333"/>
<path d="M25.6112 9.52052C25.4922 9.52052 25.3792 9.47652 25.2872 9.39452C25.1952 9.31352 25.1412 9.20352 25.1252 9.08352L24.8812 7.17352L23.7672 7.93752C23.6592 8.01352 23.5292 8.04152 23.3992 8.01352C23.2692 7.99152 23.1562 7.91552 23.0852 7.80652C23.0102 7.69752 22.9832 7.56652 23.0102 7.43552C23.0372 7.30452 23.1072 7.18952 23.2152 7.11852L25.6552 5.43652L26.0982 8.95852C26.1092 9.02952 26.0982 9.10052 26.0822 9.16552C26.0602 9.23152 26.0282 9.29652 25.9792 9.34552C25.9312 9.40052 25.8762 9.43852 25.8122 9.47152C25.7472 9.49852 25.6762 9.51552 25.6112 9.51552" stroke="#333333" stroke-width="0.54" stroke-linecap="round" stroke-linejoin="round"/>
<path d="M75.2023 7.47363V13.6206H67.9493V7.47363H43.5703V22.0666H54.7073V19.7736H46.5403V15.9136H54.7133V13.6206H46.5403V9.76663H58.3803V22.0666H61.3443V9.76663H64.9853V22.0666H67.9543V15.9136H75.2083V22.0606H78.1723V7.47363H75.2083H75.2023Z" fill="#333333"/>
<path d="M80.1289 22.0668H82.4769V7.4248H80.1289V22.0668Z" fill="#333333"/>
<path d="M84.548 12.1519H86.825V13.0699C87.62 12.2779 88.513 11.8789 89.508 11.8789C90.65 11.8789 91.542 12.2449 92.18 12.9709C92.732 13.5879 93.008 14.5979 93.008 15.9959V22.0719H90.731V16.5359C90.731 15.5589 90.595 14.8819 90.325 14.5109C90.06 14.1289 89.584 13.9429 88.892 13.9429C88.14 13.9429 87.604 14.1939 87.285 14.6959C86.977 15.1929 86.82 16.0559 86.82 17.2899V22.0719H84.543V12.1519H84.548Z" fill="#333333"/>
<path d="M96.2877 17.0768C96.2877 18.0268 96.5417 18.8018 97.0447 19.3968C97.5637 20.0028 98.2127 20.3028 99.0027 20.3028C99.8417 20.3028 100.523 20.0138 101.042 19.4298C101.562 18.8238 101.821 18.0598 101.821 17.1318C101.821 16.2038 101.562 15.4338 101.042 14.8328C100.523 14.2438 99.8517 13.9488 99.0247 13.9488C98.2457 13.9488 97.5907 14.2488 97.0667 14.8438C96.5467 15.4498 96.2877 16.1928 96.2877 17.0818V17.0768ZM101.675 7.4248H103.953V22.0668H101.675V21.0298C100.783 21.9138 99.7707 22.3508 98.6407 22.3508C97.2937 22.3508 96.1797 21.8538 95.2927 20.8658C94.4107 19.8558 93.9727 18.5948 93.9727 17.0768C93.9727 15.5588 94.4107 14.3638 95.2927 13.3698C96.1687 12.3708 97.2667 11.8738 98.5917 11.8738C99.7437 11.8738 100.772 12.3488 101.681 13.2988V7.4248H101.675Z" fill="#333333"/>
<path d="M105.574 22.0671H107.841V12.1521H105.574V22.0671ZM105.234 8.90412C105.234 8.50612 105.38 8.15612 105.666 7.86712C105.801 7.72512 105.964 7.61612 106.142 7.53912C106.321 7.46312 106.51 7.42512 106.705 7.43012C107.116 7.43012 107.462 7.57712 107.754 7.86712C108.041 8.15112 108.187 8.50012 108.187 8.91512C108.187 9.33012 108.041 9.68512 107.754 9.97412C107.619 10.1161 107.462 10.2251 107.278 10.3021C107.1 10.3781 106.905 10.4161 106.716 10.4111C106.521 10.4111 106.326 10.3781 106.148 10.3021C105.969 10.2251 105.801 10.1161 105.666 9.97412C105.374 9.68512 105.234 9.32512 105.234 8.90412Z" fill="#333333"/>
<path d="M111.335 17.077C111.335 18.027 111.589 18.802 112.092 19.397C112.611 20.003 113.26 20.303 114.05 20.303C114.889 20.303 115.57 20.014 116.084 19.43C116.603 18.824 116.863 18.059 116.863 17.131C116.863 16.203 116.603 15.434 116.084 14.833C115.565 14.243 114.894 13.949 114.066 13.949C113.287 13.949 112.633 14.249 112.108 14.844C111.589 15.45 111.329 16.198 111.329 17.082L111.335 17.077ZM116.722 12.152H118.999V22.067H116.722V21.029C115.786 21.914 114.78 22.35 113.709 22.35C112.352 22.35 111.227 21.854 110.34 20.866C109.458 19.856 109.02 18.594 109.02 17.077C109.02 15.559 109.458 14.353 110.34 13.359C111.221 12.365 112.325 11.874 113.65 11.874C114.791 11.874 115.819 12.349 116.728 13.299V12.147L116.722 12.152Z" fill="#333333"/>
</g>
<defs>
<clipPath id="clip0_5621_40">
<rect width="119" height="28" fill="white"/>
</clipPath>
</defs>
</svg>
