<svg width="255" height="51" viewBox="0 0 255 51" fill="none" xmlns="http://www.w3.org/2000/svg">
<path d="M0 18.458V14.354H11.9167V18.458H8.3125V32.708H3.625V18.458H0Z" fill="#1D3B56"/>
<path d="M17.9888 25.354V32.708H13.3013V14.354H17.9888V21.25H23.9888V14.354H28.6763V32.708H23.9888V25.354H17.9888Z" fill="#1D3B56"/>
<path d="M41.7007 14.354V18.458H35.9924V21.312H41.534V25.437H35.9924V28.583H41.7007V32.708H31.5132V14.354H41.7007Z" fill="#1D3B56"/>
<path d="M57.2881 14.354C59.5381 14.354 61.3298 14.724 62.6631 15.458C63.9964 16.224 65.0381 17.302 65.7881 18.687C66.5381 20.078 66.9131 21.687 66.9131 23.521C66.9131 26.51 66.085 28.786 64.4339 30.354C62.7933 31.927 60.5225 32.708 57.6214 32.708H51.0381V14.354H57.2881ZM62.2256 23.562C62.2256 21.937 61.835 20.682 61.0589 19.792C60.2933 18.906 59.2256 18.458 57.8506 18.458H55.7256V28.583H57.8298C59.2048 28.583 60.2777 28.156 61.0589 27.292C61.835 26.432 62.2256 25.187 62.2256 23.562Z" fill="#1D3B56"/>
<path d="M68.4111 23.958C68.4111 22.083 68.8278 20.391 69.6611 18.875C70.4945 17.365 71.6455 16.177 73.1195 15.313C74.5882 14.438 76.2445 14 78.0778 14C79.8278 14 81.4424 14.417 82.932 15.25C84.432 16.083 85.6091 17.224 86.4736 18.667C87.3486 20.115 87.7861 21.688 87.7861 23.396C87.7861 25.188 87.3591 26.823 86.5153 28.292C85.6663 29.766 84.5205 30.932 83.0778 31.792C81.6299 32.641 80.0413 33.063 78.307 33.063C76.583 33.063 74.9632 32.682 73.4528 31.917C71.9372 31.141 70.7132 30.057 69.7861 28.667C68.8695 27.281 68.4111 25.708 68.4111 23.958ZM83.0986 23.563C83.0986 22.594 82.8799 21.688 82.4528 20.854C82.0205 20.021 81.4215 19.365 80.6611 18.875C79.8955 18.375 79.0361 18.125 78.0778 18.125C77.1195 18.125 76.2653 18.37 75.5153 18.854C74.7653 19.344 74.1715 19.995 73.7445 20.813C73.3122 21.635 73.0986 22.521 73.0986 23.479C73.0986 24.495 73.3122 25.417 73.7445 26.25C74.1715 27.073 74.7705 27.724 75.5361 28.208C76.2965 28.698 77.1715 28.938 78.1611 28.938C79.1038 28.938 79.9528 28.698 80.7028 28.208C81.4528 27.724 82.0361 27.073 82.4528 26.25C82.8799 25.432 83.0986 24.536 83.0986 23.563Z" fill="#1D3B56"/>
<path d="M96.0296 14.354C97.889 14.354 99.347 14.583 100.405 15.042C101.405 15.5 102.186 16.224 102.759 17.208C103.342 18.198 103.634 19.307 103.634 20.542C103.634 22.515 103.03 24.078 101.821 25.229C100.623 26.385 98.847 26.958 96.488 26.958H94.3005V32.708H89.8213V14.354H96.0296ZM99.155 20.625C99.155 19.875 98.91 19.328 98.425 18.979C97.9515 18.635 97.1963 18.458 96.1546 18.458H94.3005V22.833H96.3213C97.2796 22.833 97.988 22.661 98.446 22.312C98.915 21.969 99.155 21.406 99.155 20.625Z" fill="#1D3B56"/>
<path d="M115.293 14.354V18.458H109.585V21.312H115.126V25.437H109.585V28.583H115.293V32.708H105.105V14.354H115.293Z" fill="#1D3B56"/>
<path d="M130.401 17.917C129.953 17.917 129.573 18.063 129.256 18.354C128.948 18.635 128.797 18.969 128.797 19.354C128.797 19.87 129.011 20.286 129.443 20.604C129.87 20.911 130.657 21.313 131.797 21.813C133.141 22.396 134.177 22.958 134.901 23.5C135.62 24.042 136.131 24.625 136.422 25.25C136.714 25.865 136.86 26.583 136.86 27.417C136.86 29.198 136.287 30.583 135.151 31.583C134.011 32.573 132.448 33.063 130.464 33.063C128.422 33.063 126.802 32.542 125.61 31.5C124.427 30.458 123.839 28.969 123.839 27.021V26.625H128.506C128.516 27.391 128.698 28 129.047 28.458C129.391 28.906 129.86 29.125 130.443 29.125C130.912 29.125 131.323 28.958 131.672 28.625C132.016 28.292 132.193 27.875 132.193 27.375C132.193 26.792 131.912 26.323 131.36 25.958C130.802 25.583 130.016 25.198 129.006 24.792C128.933 24.766 128.849 24.74 128.756 24.708C128.672 24.682 128.589 24.646 128.506 24.604C126.99 23.979 125.881 23.26 125.172 22.438C124.474 21.604 124.131 20.599 124.131 19.417C124.131 18.406 124.422 17.49 125.006 16.667C125.599 15.833 126.386 15.182 127.36 14.708C128.344 14.24 129.401 14 130.526 14C131.703 14 132.787 14.26 133.776 14.771C134.776 15.286 135.511 15.938 135.985 16.729C136.453 17.51 136.698 18.5 136.714 19.708H132.068C131.969 19.057 131.787 18.599 131.526 18.333C131.261 18.057 130.886 17.917 130.401 17.917Z" fill="#1D3B56"/>
<path d="M137.185 18.458V14.354H149.102V18.458H145.498V32.708H140.81V18.458H137.185Z" fill="#1D3B56"/>
<path d="M149.695 23.958C149.695 22.083 150.111 20.391 150.945 18.875C151.778 17.365 152.929 16.177 154.403 15.313C155.872 14.438 157.528 14 159.361 14C161.111 14 162.726 14.417 164.216 15.25C165.716 16.083 166.893 17.224 167.757 18.667C168.632 20.115 169.07 21.688 169.07 23.396C169.07 25.188 168.643 26.823 167.799 28.292C166.95 29.766 165.804 30.932 164.361 31.792C162.914 32.641 161.325 33.063 159.591 33.063C157.867 33.063 156.247 32.682 154.736 31.917C153.221 31.141 151.997 30.057 151.07 28.667C150.153 27.281 149.695 25.708 149.695 23.958ZM164.382 23.563C164.382 22.594 164.164 21.688 163.736 20.854C163.304 20.021 162.705 19.365 161.945 18.875C161.179 18.375 160.32 18.125 159.361 18.125C158.403 18.125 157.549 18.37 156.799 18.854C156.049 19.344 155.455 19.995 155.028 20.813C154.596 21.635 154.382 22.521 154.382 23.479C154.382 24.495 154.596 25.417 155.028 26.25C155.455 27.073 156.054 27.724 156.82 28.208C157.58 28.698 158.455 28.938 159.445 28.938C160.388 28.938 161.236 28.698 161.986 28.208C162.736 27.724 163.32 27.073 163.736 26.25C164.164 25.432 164.382 24.536 164.382 23.563Z" fill="#1D3B56"/>
<path d="M175.584 26.771V32.708H171.105V14.354H177.105C178.98 14.354 180.423 14.578 181.438 15.021C182.449 15.469 183.261 16.198 183.876 17.208C184.501 18.224 184.813 19.375 184.813 20.667C184.813 22.14 184.397 23.411 183.563 24.479C182.74 25.552 181.636 26.208 180.251 26.458L185.251 32.708H179.876L175.647 26.771H175.584ZM180.334 20.937C180.334 20.161 180.063 19.557 179.522 19.125C178.98 18.682 178.261 18.458 177.376 18.458H175.584V23.583H177.334C178.277 23.583 179.011 23.364 179.542 22.917C180.069 22.458 180.334 21.802 180.334 20.937Z" fill="#1D3B56"/>
<path d="M196.999 14.354V18.458H191.29V21.312H196.832V25.437H191.29V28.583H196.999V32.708H186.811V14.354H196.999Z" fill="#1D3B56"/>
<mask id="mask0_19_3" style="mask-type:luminance" maskUnits="userSpaceOnUse" x="208" y="0" width="47" height="51">
<path d="M254.154 0H208V51H254.154V0Z" fill="white"/>
</mask>
<g mask="url(#mask0_19_3)">
<mask id="mask1_19_3" style="mask-type:luminance" maskUnits="userSpaceOnUse" x="208" y="0" width="47" height="47">
<path d="M208 0H254.154V46.1538H208V0Z" fill="white"/>
</mask>
<g mask="url(#mask1_19_3)">
<path d="M209.362 22.1082L230.119 1.35096C230.962 0.519231 232.115 0 233.385 0H249.538C252.089 0 254.154 2.06611 254.154 4.61538V20.7692C254.154 22.0505 253.635 23.2043 252.792 24.0348L232.023 44.8041C231.192 45.6346 230.038 46.1538 228.769 46.1538C227.5 46.1538 226.334 45.6346 225.504 44.8041L209.35 28.6502C208.519 27.8077 208 26.6538 208 25.3846C208 24.1045 208.519 22.9507 209.362 22.1082ZM246.077 11.5385C247.993 11.5385 249.538 9.99279 249.538 8.07692C249.538 6.16225 247.993 4.61538 246.077 4.61538C244.161 4.61538 242.615 6.16225 242.615 8.07692C242.615 9.99279 244.161 11.5385 246.077 11.5385Z" fill="#1D3B56"/>
</g>
<mask id="mask2_19_3" style="mask-type:alpha" maskUnits="userSpaceOnUse" x="208" y="0" width="47" height="47">
<mask id="mask3_19_3" style="mask-type:luminance" maskUnits="userSpaceOnUse" x="208" y="0" width="47" height="47">
<path d="M208 0H254.154V46.1538H208V0Z" fill="white"/>
</mask>
<g mask="url(#mask3_19_3)">
<path d="M209.362 22.1082L230.119 1.35096C230.962 0.519231 232.115 0 233.385 0H249.538C252.089 0 254.154 2.06611 254.154 4.61538V20.7692C254.154 22.0505 253.635 23.2043 252.792 24.0348L232.023 44.8041C231.192 45.6346 230.038 46.1538 228.769 46.1538C227.5 46.1538 226.334 45.6346 225.504 44.8041L209.35 28.6502C208.519 27.8077 208 26.6538 208 25.3846C208 24.1045 208.519 22.9507 209.362 22.1082ZM246.077 11.5385C247.993 11.5385 249.538 9.99279 249.538 8.07692C249.538 6.16225 247.993 4.61538 246.077 4.61538C244.161 4.61538 242.615 6.16225 242.615 8.07692C242.615 9.99279 244.161 11.5385 246.077 11.5385Z" fill="#1D3B56"/>
</g>
</mask>
<g mask="url(#mask2_19_3)">
<path d="M237.744 30.2105C237.744 30.2105 237.726 30.1756 237.697 30.1057C237.67 30.0374 237.627 29.9352 237.584 29.8018C237.542 29.6684 237.494 29.5062 237.451 29.3149C237.406 29.1249 237.364 28.9087 237.333 28.6696C237.315 28.5505 237.304 28.4266 237.291 28.2969C237.284 28.2321 237.28 28.1659 237.277 28.0999C237.272 28.0325 237.267 27.9639 237.266 27.8954C237.258 27.7572 237.257 27.6155 237.258 27.4701C237.257 27.3245 237.268 27.1768 237.274 27.0265C237.283 26.8749 237.295 26.7224 237.313 26.5673C237.331 26.4134 237.347 26.2572 237.375 26.1009C237.388 26.0229 237.401 25.9435 237.415 25.8653C237.429 25.7862 237.445 25.7079 237.462 25.6299C237.493 25.4723 237.534 25.3161 237.571 25.1599C237.61 25.0036 237.661 24.8497 237.704 24.696C237.751 24.5421 237.808 24.393 237.858 24.2428C237.913 24.0951 237.971 23.9483 238.03 23.8052C238.093 23.6635 238.154 23.5228 238.216 23.3859C238.284 23.2512 238.348 23.1189 238.416 22.9904C238.448 22.9255 238.484 22.8642 238.519 22.8029C238.554 22.7416 238.589 22.6803 238.623 22.6214C238.691 22.5013 238.762 22.3883 238.832 22.2801C238.868 22.226 238.903 22.1731 238.936 22.1202C238.97 22.0686 239.002 22.0169 239.04 21.9688C239.179 21.7753 239.306 21.5962 239.431 21.4484C239.555 21.2981 239.661 21.1671 239.758 21.0673C239.852 20.964 239.93 20.8871 239.981 20.833C240.034 20.7801 240.061 20.7524 240.061 20.7524C240.061 20.7524 240.046 20.7885 240.016 20.857C239.983 20.9243 239.94 21.0241 239.879 21.1479C239.817 21.2705 239.751 21.4243 239.669 21.5962C239.585 21.7669 239.502 21.9652 239.405 22.1755C239.356 22.2813 239.311 22.3943 239.262 22.5085C239.237 22.5661 239.212 22.6238 239.185 22.6827C239.159 22.7416 239.137 22.8029 239.112 22.8642C239.064 22.9868 239.007 23.1106 238.96 23.2403C238.913 23.3714 238.859 23.5013 238.81 23.6359C238.763 23.7718 238.713 23.9086 238.663 24.0469C238.641 24.1165 238.618 24.1876 238.595 24.2585C238.571 24.3282 238.547 24.399 238.524 24.4701C238.481 24.6143 238.436 24.7585 238.393 24.9039C238.353 25.0493 238.309 25.1947 238.273 25.3426C238.236 25.4903 238.195 25.6371 238.163 25.785C238.147 25.8582 238.13 25.9315 238.112 26.0061C238.097 26.0795 238.082 26.1526 238.066 26.226C238.035 26.3726 238.01 26.5182 237.982 26.6635C237.967 26.7344 237.958 26.8066 237.946 26.8786C237.935 26.9509 237.922 27.0217 237.911 27.0914C237.871 27.375 237.833 27.6492 237.809 27.9111C237.782 28.173 237.762 28.422 237.75 28.6528C237.737 28.8836 237.731 29.0961 237.727 29.2849C237.724 29.4748 237.726 29.6407 237.727 29.7778C237.731 29.9146 237.733 30.0229 237.738 30.0974C237.742 30.1719 237.744 30.2105 237.744 30.2105Z" fill="#1D3B56"/>
<mask id="mask4_19_3" style="mask-type:luminance" maskUnits="userSpaceOnUse" x="213" y="16" width="32" height="36">
<path d="M213.26 16.6406H244.149V51.1382H213.26V16.6406Z" fill="white"/>
</mask>
<g mask="url(#mask4_19_3)">
<path d="M238.26 32.244C238.293 32.3174 238.368 32.3617 238.447 32.3545C239.119 32.304 242.221 31.9867 244.034 30.4039C244.173 30.2825 244.218 30.084 244.15 29.9109L240.918 21.6911C240.758 21.2836 240.454 20.9495 240.061 20.7524C238.494 19.9651 234.407 17.887 234.038 17.4255C233.752 17.0673 233.465 16.8449 233.292 16.7272C233.194 16.661 233.073 16.643 232.96 16.6779C232.446 16.8341 230.778 17.2885 228.721 17.3101C226.663 17.2885 224.995 16.8341 224.482 16.6779C224.369 16.643 224.248 16.661 224.15 16.7272C223.976 16.8449 223.69 17.0673 223.403 17.4255C223.035 17.887 218.947 19.9651 217.38 20.7524C216.988 20.9495 216.683 21.2836 216.523 21.6911L213.291 29.9109C213.224 30.084 213.268 30.2825 213.409 30.4039C215.221 31.9867 218.322 32.304 218.994 32.3545C219.075 32.3617 219.148 32.3174 219.181 32.244C219.451 31.6525 219.697 30.9542 219.697 30.9542C220.044 31.7536 219.094 46.8739 218.923 49.5326C218.909 49.7633 219.06 49.9724 219.285 50.0289C222.684 50.8786 225.917 51.1514 228.721 51.1382C231.524 51.1514 234.757 50.8786 238.157 50.0289C238.381 49.9724 238.532 49.7633 238.518 49.5326C238.347 46.8739 237.397 31.7536 237.744 30.9542C237.744 30.9542 237.99 31.6525 238.26 32.244Z" fill="white"/>
</g>
<mask id="mask5_19_3" style="mask-type:luminance" maskUnits="userSpaceOnUse" x="213" y="29" width="7" height="4">
<path d="M213.226 29.5999H219.846V32.3691H213.226V29.5999Z" fill="white"/>
</mask>
<g mask="url(#mask5_19_3)">
<path d="M219.181 32.244C219.451 31.6525 219.697 30.9542 219.697 30.9542C219.74 31.0542 219.763 31.3775 219.77 31.8713C219.78 30.9602 219.76 30.3545 219.697 30.2102C219.697 30.2102 219.451 30.9099 219.181 31.5012C219.148 31.5734 219.075 31.6177 218.994 31.6117C218.322 31.5614 215.221 31.2441 213.409 29.661C213.404 29.6562 213.399 29.6515 213.394 29.6467L213.291 29.9112C213.224 30.0842 213.268 30.2825 213.409 30.4039C215.221 31.9867 218.322 32.304 218.994 32.3545C219.075 32.3617 219.148 32.3174 219.181 32.244Z" fill="#1D3B56"/>
</g>
<mask id="mask6_19_3" style="mask-type:luminance" maskUnits="userSpaceOnUse" x="237" y="29" width="8" height="4">
<path d="M237.659 29.6033H244.149V32.3691H237.659V29.6033Z" fill="white"/>
</mask>
<g mask="url(#mask6_19_3)">
<path d="M244.047 29.6467C244.042 29.6516 244.039 29.6562 244.034 29.661C242.221 31.2441 239.119 31.5614 238.447 31.6117C238.368 31.6177 238.293 31.5734 238.26 31.5012C237.991 30.91 237.744 30.2103 237.744 30.2103C237.682 30.3545 237.661 30.9603 237.671 31.8713C237.678 31.3775 237.701 31.0542 237.744 30.9543C237.744 30.9543 237.991 31.6526 238.26 32.244C238.293 32.3174 238.368 32.3617 238.447 32.3546C239.119 32.304 242.221 31.9867 244.034 30.4039C244.173 30.2825 244.218 30.0843 244.15 29.9112L244.047 29.6467Z" fill="#1D3B56"/>
</g>
<mask id="mask7_19_3" style="mask-type:luminance" maskUnits="userSpaceOnUse" x="223" y="16" width="12" height="3">
<path d="M223.231 16.6202H234.308V18.8306H223.231V16.6202Z" fill="white"/>
</mask>
<g mask="url(#mask7_19_3)">
<path d="M224.48 17.9147C224.993 18.071 226.662 18.5253 228.719 18.5469C230.776 18.5253 232.445 18.071 232.958 17.9147C233.071 17.8798 234.191 17.5986 234.036 17.4051C233.75 17.0469 233.464 16.8245 233.29 16.7068C233.192 16.6406 233.071 16.6226 232.958 16.6575C232.445 16.8137 230.776 17.2681 228.719 17.2897C226.662 17.2681 224.993 16.8137 224.48 16.6575C224.367 16.6226 224.246 16.6406 224.148 16.7068C223.974 16.8245 223.688 17.0469 223.401 17.4051C223.269 17.5709 224.367 17.8798 224.48 17.9147Z" fill="#1D3B56"/>
</g>
<path d="M219.697 30.2105C219.697 30.2105 219.702 30.1719 219.712 30.0986C219.721 30.0254 219.731 29.9183 219.742 29.7824C219.752 29.6456 219.762 29.4808 219.768 29.2909C219.774 29.1009 219.775 28.8882 219.773 28.6562C219.769 28.4232 219.756 28.173 219.737 27.9074C219.72 27.6432 219.689 27.3653 219.653 27.0794C219.644 27.0072 219.631 26.9363 219.621 26.8629C219.611 26.7909 219.602 26.7175 219.588 26.6442C219.563 26.4988 219.539 26.3497 219.507 26.202C219.493 26.1275 219.478 26.0529 219.464 25.9784C219.447 25.9039 219.43 25.8293 219.414 25.7548C219.382 25.6045 219.34 25.4569 219.303 25.3078C219.267 25.1587 219.221 25.0108 219.182 24.8631C219.136 24.7177 219.09 24.5709 219.046 24.4267C218.996 24.2836 218.947 24.1408 218.9 24C218.847 23.8606 218.797 23.7235 218.745 23.5879C218.691 23.4531 218.638 23.3222 218.585 23.1923C218.535 23.0626 218.475 22.9399 218.423 22.8174C218.397 22.756 218.373 22.6948 218.344 22.6371C218.316 22.5782 218.29 22.5205 218.263 22.464C218.209 22.351 218.162 22.2392 218.108 22.1359C218 21.9291 217.911 21.7332 217.819 21.5674C217.727 21.4003 217.655 21.25 217.587 21.1323C217.518 21.0133 217.468 20.9171 217.433 20.8522C217.398 20.7873 217.38 20.7524 217.38 20.7524C217.38 20.7524 217.405 20.7813 217.454 20.8378C217.501 20.8943 217.572 20.976 217.66 21.083C217.749 21.1876 217.849 21.3222 217.964 21.4772C218.081 21.6298 218.201 21.8113 218.331 22.0097C218.398 22.1082 218.459 22.2152 218.526 22.3246C218.594 22.4339 218.661 22.5481 218.725 22.6683C218.789 22.7885 218.858 22.9099 218.921 23.0385C218.984 23.1672 219.047 23.2994 219.111 23.4339C219.17 23.571 219.23 23.7104 219.29 23.8509C219.345 23.994 219.401 24.1394 219.456 24.2862C219.505 24.4352 219.558 24.5841 219.605 24.7357C219.648 24.8882 219.696 25.0396 219.736 25.1947C219.773 25.3498 219.814 25.5037 219.845 25.6599C219.861 25.7368 219.877 25.815 219.893 25.8919C219.906 25.9701 219.92 26.0481 219.933 26.1249C219.988 26.4339 220.02 26.7415 220.046 27.0385C220.066 27.3365 220.077 27.6249 220.072 27.8979C220.072 27.9665 220.069 28.0336 220.066 28.101C220.064 28.167 220.063 28.2321 220.058 28.2958C220.048 28.4243 220.04 28.548 220.028 28.6671C220.006 28.9039 219.971 29.1189 219.938 29.3089C219.905 29.4999 219.863 29.6635 219.829 29.7969C219.795 29.9315 219.76 30.0337 219.737 30.1046C219.713 30.1742 219.697 30.2105 219.697 30.2105Z" fill="white"/>
<path d="M237.744 30.2105C237.744 30.2105 237.73 30.1742 237.706 30.1046C237.682 30.0337 237.647 29.9315 237.613 29.7969C237.578 29.6635 237.537 29.4999 237.505 29.3089C237.47 29.1189 237.435 28.9039 237.415 28.6671C237.401 28.548 237.393 28.4243 237.383 28.2958C237.379 28.2321 237.377 28.167 237.375 28.101C237.373 28.0336 237.37 27.9665 237.37 27.8979C237.364 27.6249 237.375 27.3365 237.397 27.0385C237.421 26.7415 237.454 26.4339 237.508 26.1249C237.522 26.0481 237.535 25.9701 237.548 25.8919C237.565 25.815 237.58 25.7368 237.596 25.6599C237.627 25.5037 237.67 25.3498 237.707 25.1947C237.745 25.0396 237.793 24.8882 237.837 24.7357C237.883 24.5841 237.936 24.4352 237.985 24.2862C238.04 24.1394 238.096 23.994 238.151 23.8509C238.213 23.7104 238.272 23.571 238.33 23.4339C238.394 23.2994 238.458 23.1672 238.52 23.0385C238.584 22.9099 238.653 22.7885 238.716 22.6683C238.781 22.5481 238.849 22.4339 238.915 22.3246C238.983 22.2152 239.043 22.1082 239.11 22.0097C239.242 21.8113 239.361 21.6298 239.478 21.4772C239.593 21.3222 239.692 21.1876 239.781 21.083C239.869 20.976 239.94 20.8943 239.988 20.8378C240.036 20.7813 240.061 20.7524 240.061 20.7524C240.061 20.7524 240.043 20.7873 240.008 20.8522C239.974 20.9171 239.923 21.0133 239.856 21.1323C239.786 21.25 239.714 21.4003 239.623 21.5674C239.531 21.7332 239.441 21.9291 239.334 22.1359C239.279 22.2392 239.232 22.351 239.179 22.464C239.152 22.5205 239.125 22.5782 239.097 22.6371C239.068 22.6948 239.044 22.756 239.018 22.8174C238.966 22.9399 238.906 23.0626 238.856 23.1923C238.803 23.3222 238.75 23.4531 238.696 23.5879C238.645 23.7235 238.594 23.8606 238.542 24C238.494 24.1408 238.445 24.2836 238.396 24.4267C238.351 24.5709 238.305 24.7177 238.261 24.8631C238.22 25.0108 238.174 25.1587 238.138 25.3078C238.101 25.4569 238.059 25.6045 238.029 25.7548C238.012 25.8293 237.995 25.9039 237.978 25.9784C237.963 26.0529 237.948 26.1275 237.934 26.202C237.903 26.3497 237.88 26.4988 237.853 26.6442C237.84 26.7175 237.831 26.7909 237.82 26.8629C237.81 26.9363 237.798 27.0072 237.788 27.0794C237.754 27.3653 237.722 27.6432 237.704 27.9074C237.686 28.173 237.672 28.4232 237.67 28.6562C237.666 28.8882 237.667 29.1009 237.673 29.2909C237.68 29.4808 237.69 29.6456 237.7 29.7824C237.712 29.9183 237.721 30.0254 237.73 30.0986C237.739 30.1719 237.744 30.2105 237.744 30.2105Z" fill="white"/>
<path d="M225.663 34.0373V29.6947C225.663 29.2945 225.587 29.184 225.324 29.1418V29.0312H226.029C226.088 29.0312 226.266 29.0229 226.514 28.9975C226.683 28.9807 226.853 28.9724 227.032 28.9724C228.136 28.9724 228.952 29.286 229.47 29.9146C229.913 30.4507 230.167 31.1898 230.167 31.9627C230.167 32.8809 229.861 33.6203 229.309 34.0962C228.833 34.4952 228.119 34.6996 227.176 34.6996H225.324V34.5888C225.587 34.5468 225.663 34.4363 225.663 34.0373ZM226.216 29.7452V34.0276C226.216 34.2321 226.284 34.3678 226.42 34.428C226.589 34.512 226.836 34.5554 227.159 34.5554C227.907 34.5554 228.527 34.3595 228.901 34.0193C229.377 33.5781 229.615 32.8726 229.615 31.9122C229.615 30.7825 229.216 29.8978 228.535 29.4651C228.17 29.2357 227.669 29.1166 227.125 29.1166C226.81 29.1166 226.573 29.1586 226.411 29.244C226.266 29.3377 226.216 29.4471 226.216 29.7452Z" fill="#1D3B56"/>
<path d="M231.085 30.3065H230.958C230.916 29.5841 230.354 29.0566 229.59 29.0566C228.943 29.0566 228.493 29.5325 228.493 30.1876C228.493 30.5181 228.621 30.8497 228.833 31.0456C228.995 31.2067 229.352 31.3943 229.912 31.6057C230.651 31.887 230.966 32.0481 231.162 32.2271C231.434 32.4905 231.578 32.8306 231.578 33.2296C231.578 34.1467 230.814 34.8438 229.759 34.8438C229.046 34.8438 228.459 34.6408 227.872 34.1647L228.077 33.1442H228.213C228.221 33.4844 228.264 33.6706 228.425 33.9088C228.722 34.3846 229.25 34.6659 229.828 34.6659C230.584 34.6659 231.144 34.1298 231.144 33.4158C231.144 33 230.966 32.6767 230.601 32.4556C230.482 32.3882 230.413 32.3545 229.674 32.0649C229.062 31.827 228.595 31.5722 228.365 31.3595C228.137 31.1564 228 30.7908 228 30.4255C228 29.5241 228.689 28.887 229.666 28.887C230.219 28.887 230.609 29.0061 231.263 29.4134L231.085 30.3065Z" fill="#1D3B56"/>
</g>
</g>
</svg>
