<svg width="182" height="50" viewBox="0 0 182 50" fill="none" xmlns="http://www.w3.org/2000/svg">
<mask id="path-1-outside-1_5088_3" maskUnits="userSpaceOnUse" x="-2" y="-2" width="186" height="54" fill="black">
<rect fill="white" x="-2" y="-2" width="186" height="54"/>
<path d="M27.7188 49.4688C26.6875 49.4688 24.875 48.0312 23.4375 46.6875C22.4062 45.7188 21.8438 44.375 21.8438 43C21.8438 42.5625 21.875 42.1562 22 41.7188C23.4688 36.125 27.3125 23.75 27.6875 22.5C25.4375 22.5625 22.5938 23.0312 22.5938 23.0312C22.5938 23.0312 11.6562 45.1875 9.125 46.7188C8.625 47 7.875 47.125 6.96875 47.125C4.125 47.125 0.09375 45.9062 0.09375 44.75C0.09375 44.5625 0.21875 44.4062 0.4375 44.2188C3.125 42.2188 12.5625 28.875 15.625 24.3438C14.6875 24.5312 13.875 24.6562 12.2812 25.375C11.3125 25.8125 10 26.2812 9.96875 27.5625L9.59375 27.625C8.3125 27.625 7.5625 25.7188 7.5625 24.0938C7.5625 23.3125 7.75 22.5625 8.125 22.125C8.96875 21.2188 10.3125 20.4688 11.4688 20.0625C14.4375 19.0625 16.8438 19.2188 19.625 19.125C21.9375 16.1562 27.5625 7.90625 30.625 3.46875C25.6562 4.1875 20.6562 7.125 17.75 10.3125C19 10.125 20.8438 9.65625 21.9688 9.375H22C22.0625 9.375 22.125 9.4375 22.125 9.46875C22.125 9.5 22.0938 9.53125 22.0625 9.5625L16.25 12.4688C16.1562 12.5 16.0625 12.5312 15.9688 12.5312H15.8438L15.6875 12.4375C15.3438 12.125 15.0938 11.1562 15.0938 9.90625C15.0938 7.96875 15.7188 5.40625 17.5625 3.84375C20.4062 1.46875 24.4062 0.375 30.4375 0.375C31.3125 0.375 32.25 0.375 33.25 0.4375C33.4688 0.4375 33.875 0.53125 34.0625 0.65625C34.0625 0.65625 38.6562 3.59375 38.6562 4.5625V4.625C37.3125 8.9375 35.5625 15.3125 34.2812 19.875C34.5 19.9062 34.8125 20.0312 35.0625 20.125C35.4688 20.2812 35.6562 20.75 35.6562 21.25C35.6562 21.8125 35.4062 22.4688 35.0625 22.6562C34.9062 22.75 34.75 22.8125 34.625 22.8125L34.5 22.7812C34.0938 22.6875 33.6875 22.625 33.5 22.625C33.0938 24.5938 29.5 42.0938 28.4375 48.9688C28.3125 49.3438 28.0625 49.4688 27.7188 49.4688ZM28.3438 19.1875L33.7812 4.71875L24.5625 19.0938L28.3438 19.1875ZM37.7812 47.0938C35.2188 47.0938 32.4062 45.0938 32.4062 43.25C32.4062 43.0312 32.4375 42.8125 32.5 42.625C34.5 37.125 37.7812 30.0625 37.7812 29.1562V29.0938C37.7812 28.7812 38.125 28.625 38.625 28.625C40.2188 28.625 43.4375 29.9375 43.4375 31.25V31.375C43.4375 31.375 40.1875 40.0938 39.75 42.1562L39.7812 42.2188C40.4688 42.2188 50.8125 33.5938 53.75 30.6562C53.9062 30.5 54.0625 30.4375 54.2188 30.4375C54.8438 30.4375 55.5312 31.4375 55.5312 31.9375L55.4688 32.125C54.3438 33.5625 43.7812 42.8438 40.5 46.0312C39.75 46.7812 38.7812 47.0938 37.7812 47.0938ZM43.0938 27.1875C42.0625 27.1875 40.8125 26.1562 40.625 25.2188C40.5938 25.0625 40.5938 24.9062 40.5938 24.75C40.5938 22.875 42.0312 19.4688 43.625 19C43.7188 18.9688 43.8438 18.9688 43.9688 18.9688C44.9062 18.9688 46.3125 19.5938 46.3125 20.5312V20.5938C46.2188 22 45.0312 23.8125 44.4375 25.0625C44.1562 25.5938 44.0625 26.9688 43.4375 27.1562C43.3125 27.1875 43.2188 27.1875 43.0938 27.1875ZM51.9062 48.625C50.375 48.625 47.4375 46.1562 47.0625 44.0938L47.0312 43.6562C47.0312 39.2188 54.8438 22.6875 58.75 14.125C54.3125 14.5 50.0312 16.0312 49.5938 18.9375H49.4375C48.9375 18.9375 47.25 18.8438 46.6875 17.4062C46.5625 17.0938 46.5 16.7188 46.5 16.3438C46.5 15.4062 46.9375 14.3438 48.1875 13.3438C50.125 11.75 54.7188 10.875 59.3125 10.875H60.2188C60.4062 10.5 60.5312 10.1562 60.6562 9.875C61.25 8.40625 61.6875 6.8125 61.9375 6.125C61.9688 6 62.0938 5.90625 62.2188 5.90625C62.2812 5.90625 62.3438 5.9375 62.4062 5.96875C63.0312 6.40625 64.3125 7.5 64.3125 9.25C64.3125 9.65625 64.25 10.125 64.0938 10.5938C64.0312 10.7812 63.9688 11 63.875 11.2188C66.9062 11.7188 69.4688 12.7188 70.625 14.3125C70.6875 14.4062 70.75 14.5625 70.75 14.7188C70.75 15.5 70 16.8125 69.5312 17.2188C69.4688 17.3438 69.4375 17.375 69.3125 17.375L66.3438 16.625C66.3125 16.625 66.3125 16.5938 66.3125 16.5625C66.3125 16.5312 66.3438 16.4688 66.375 16.4688C67.0312 16.4375 68.2188 16.3438 68.7188 16.125C67.75 15.0312 65.5 14.375 62.875 14.125C60 22.25 54.5312 37.125 53.6875 41.4062C53.2188 43.7812 52.875 46.25 52.8438 47.5312C52.8438 48.3125 52.4688 48.625 51.9062 48.625ZM82.3438 49.5C81.7188 49.5 79.5938 48.3438 78.0625 47.4375C77.125 46.875 76.5312 45.8438 76.5312 44.75C76.5312 44.4688 76.5938 44.1875 76.6562 43.9062C77.5 40.5312 80.25 31.4688 81.125 27.8438C81.1875 27.6562 81.1875 27.4375 81.1875 27.2188C81.1875 25.9375 80.4375 24.25 80.2812 23.8438C80.0938 23.4375 80.0312 23.0312 80.0312 22.6562C80.0312 21.2188 81.1875 20.2188 81.75 20.2188C81.8438 20.2188 81.9062 20.2188 81.9688 20.2812L83.4688 21.1562C86 16 88.5938 8.84375 90.625 4.4375C86.4688 6.59375 81.625 11.6875 81.3125 16.4688C81.2812 17 81.125 17.2188 80.9062 17.2188C80.125 17.2188 78.5312 14.1562 78.5312 11.0625C78.5312 10.0625 78.6875 9.0625 79.0938 8.15625C81.0625 3.84375 88.5 0.34375 93.9062 0.34375H94.5938C97.875 0.34375 100.938 1.09375 103.375 2.96875C106.438 5.3125 107.594 8.625 107.594 12.0938C107.594 21.5625 100.031 30.6875 90.5 30.6875C89.0312 30.6875 87.5312 30.4688 86.0625 29.9688C84.6875 33.7188 82.5 43.2188 82.5 48.125L82.5312 49.3438C82.5312 49.4375 82.4688 49.5 82.3438 49.5ZM88.5938 24C94.625 24 98.75 20.5625 101.469 15.2188C102.25 13.7188 103.062 12.1562 103.062 10.5938C103.062 9.875 102.906 9.125 102.438 8.375C101.062 6.03125 98.75 5.4375 96.3438 5.4375C95.3125 8 90.125 19.1875 88.5938 24ZM117.062 46.75C114.5 46.75 111.719 44.6562 111.719 42.75C111.719 42.5625 111.75 42.3438 111.812 42.1562C112.344 40.7812 112.906 39.2812 113.5 37.8438C110.656 41.75 107.25 45.7812 104.906 46.3438C104.438 46.4688 104 46.5 103.562 46.5C100.906 46.5 98.8438 44.5312 98.8438 42C98.8438 41.4062 98.9688 40.7812 99.2188 40.125C101.281 34.6562 103.688 29.75 103.688 28.8438V28.7812C103.688 28.4688 104.031 28.3125 104.562 28.3125C106.156 28.3125 109.375 29.625 109.375 30.9375V31.0625C109.375 31.0625 105.438 39.125 105.438 41.3125C105.438 41.625 105.5 41.8125 105.688 41.8438H105.75C107.375 41.8438 113.969 31.8438 116.969 28.8438V28.7812C116.969 28.4688 117.312 28.3125 117.812 28.3125C119.406 28.3125 122.625 29.625 122.625 30.9062V31.0625C122.625 31.0625 119.375 39.7812 118.938 41.8438L118.969 41.9062C119.656 41.9062 130.25 32.8125 133.188 29.875C133.344 29.7188 133.5 29.6562 133.656 29.6562C134.281 29.6562 134.969 30.6562 134.969 31.1562L134.906 31.3438C133.812 32.7812 122.969 42.5312 119.688 45.7188C118.969 46.4375 118.031 46.75 117.062 46.75ZM130.562 47.1562C128.812 47.1562 125.344 45.5312 125.188 43.8438V43.5312C125.188 38.9688 132.906 29.125 133.156 27.7812C133.188 27.625 133.5 27.5625 133.969 27.5625C135.406 27.5625 138.312 28.2812 138.312 29.9688V30.0938C138.281 30.2188 138.125 30.5938 137.875 31.0938C140.094 28.9688 142.562 27.1562 143.906 26.6875L144.688 26.625C146.469 26.625 148.844 27.3125 150.031 29.6562L150.062 29.875C150.062 31.9375 146.031 39.5625 144.781 42.6875C147.219 40.9062 156.469 32.6875 158.844 30.7188C158.969 30.625 159.156 30.5625 159.344 30.5625C159.969 30.5625 160.75 31.0625 160.75 31.75C160.75 31.9062 160.719 32.0625 160.625 32.25C159.906 33.7812 147.312 44.1875 145.75 45.9062C145.094 46.625 144.281 46.9375 143.406 46.9375C140.719 46.9375 137.625 44.125 137.625 42.1562C137.625 41.9375 137.656 41.7812 137.719 41.5938C138.75 38.75 142.344 31.125 143.375 29.6562C141.969 30.625 136.812 34.7812 133.375 40.1562C132.438 42.4062 131.719 44.6875 131.562 46.5938C131.531 46.9688 131.156 47.1562 130.562 47.1562ZM160.781 46.9688C159.594 46.9688 158.469 46.6562 157.406 46.0312C154.938 44.5938 153.875 42.1875 153.875 39.625C153.875 35.0938 157.062 29.5 162.562 28.6562C163.125 28.5625 163.656 28.4375 164.156 28.4375C167 28.4375 169.125 30.5312 169.125 32.9062C169.125 33.5938 168.969 34.2812 168.594 34.9688C167.438 37.1562 165.844 38.75 164 38.75C163.188 38.75 162.344 38.4375 161.469 37.7188C160.969 38.4062 160.531 40.1562 160.531 41.5938C160.531 42.8438 160.844 43.875 161.781 43.875H161.812C166.875 43.8438 178.688 31.3125 179.875 30.4062C179.938 30.3438 180.031 30.3125 180.156 30.3125C180.688 30.3125 181.531 31 181.531 31.5312C181.531 31.625 181.5 31.6875 181.438 31.7812C173.281 39.9375 166.5 46.9688 160.781 46.9688ZM163.438 36.5625C163.938 36.5625 164.812 35.9688 165.125 35.5625C166.188 34.1562 166.656 32.6875 166.656 31.9062C166.656 31.5 166.531 31.25 166.344 31.25L166.25 31.2812C165.719 31.4688 164 33.1562 163.438 34.1875C163.281 34.5 162.875 35.3125 162.875 35.9062C162.875 36.1875 162.969 36.4062 163.219 36.5312C163.281 36.5625 163.344 36.5625 163.438 36.5625Z"/>
</mask>
<path d="M27.7188 49.4688C26.6875 49.4688 24.875 48.0312 23.4375 46.6875C22.4062 45.7188 21.8438 44.375 21.8438 43C21.8438 42.5625 21.875 42.1562 22 41.7188C23.4688 36.125 27.3125 23.75 27.6875 22.5C25.4375 22.5625 22.5938 23.0312 22.5938 23.0312C22.5938 23.0312 11.6562 45.1875 9.125 46.7188C8.625 47 7.875 47.125 6.96875 47.125C4.125 47.125 0.09375 45.9062 0.09375 44.75C0.09375 44.5625 0.21875 44.4062 0.4375 44.2188C3.125 42.2188 12.5625 28.875 15.625 24.3438C14.6875 24.5312 13.875 24.6562 12.2812 25.375C11.3125 25.8125 10 26.2812 9.96875 27.5625L9.59375 27.625C8.3125 27.625 7.5625 25.7188 7.5625 24.0938C7.5625 23.3125 7.75 22.5625 8.125 22.125C8.96875 21.2188 10.3125 20.4688 11.4688 20.0625C14.4375 19.0625 16.8438 19.2188 19.625 19.125C21.9375 16.1562 27.5625 7.90625 30.625 3.46875C25.6562 4.1875 20.6562 7.125 17.75 10.3125C19 10.125 20.8438 9.65625 21.9688 9.375H22C22.0625 9.375 22.125 9.4375 22.125 9.46875C22.125 9.5 22.0938 9.53125 22.0625 9.5625L16.25 12.4688C16.1562 12.5 16.0625 12.5312 15.9688 12.5312H15.8438L15.6875 12.4375C15.3438 12.125 15.0938 11.1562 15.0938 9.90625C15.0938 7.96875 15.7188 5.40625 17.5625 3.84375C20.4062 1.46875 24.4062 0.375 30.4375 0.375C31.3125 0.375 32.25 0.375 33.25 0.4375C33.4688 0.4375 33.875 0.53125 34.0625 0.65625C34.0625 0.65625 38.6562 3.59375 38.6562 4.5625V4.625C37.3125 8.9375 35.5625 15.3125 34.2812 19.875C34.5 19.9062 34.8125 20.0312 35.0625 20.125C35.4688 20.2812 35.6562 20.75 35.6562 21.25C35.6562 21.8125 35.4062 22.4688 35.0625 22.6562C34.9062 22.75 34.75 22.8125 34.625 22.8125L34.5 22.7812C34.0938 22.6875 33.6875 22.625 33.5 22.625C33.0938 24.5938 29.5 42.0938 28.4375 48.9688C28.3125 49.3438 28.0625 49.4688 27.7188 49.4688ZM28.3438 19.1875L33.7812 4.71875L24.5625 19.0938L28.3438 19.1875ZM37.7812 47.0938C35.2188 47.0938 32.4062 45.0938 32.4062 43.25C32.4062 43.0312 32.4375 42.8125 32.5 42.625C34.5 37.125 37.7812 30.0625 37.7812 29.1562V29.0938C37.7812 28.7812 38.125 28.625 38.625 28.625C40.2188 28.625 43.4375 29.9375 43.4375 31.25V31.375C43.4375 31.375 40.1875 40.0938 39.75 42.1562L39.7812 42.2188C40.4688 42.2188 50.8125 33.5938 53.75 30.6562C53.9062 30.5 54.0625 30.4375 54.2188 30.4375C54.8438 30.4375 55.5312 31.4375 55.5312 31.9375L55.4688 32.125C54.3438 33.5625 43.7812 42.8438 40.5 46.0312C39.75 46.7812 38.7812 47.0938 37.7812 47.0938ZM43.0938 27.1875C42.0625 27.1875 40.8125 26.1562 40.625 25.2188C40.5938 25.0625 40.5938 24.9062 40.5938 24.75C40.5938 22.875 42.0312 19.4688 43.625 19C43.7188 18.9688 43.8438 18.9688 43.9688 18.9688C44.9062 18.9688 46.3125 19.5938 46.3125 20.5312V20.5938C46.2188 22 45.0312 23.8125 44.4375 25.0625C44.1562 25.5938 44.0625 26.9688 43.4375 27.1562C43.3125 27.1875 43.2188 27.1875 43.0938 27.1875ZM51.9062 48.625C50.375 48.625 47.4375 46.1562 47.0625 44.0938L47.0312 43.6562C47.0312 39.2188 54.8438 22.6875 58.75 14.125C54.3125 14.5 50.0312 16.0312 49.5938 18.9375H49.4375C48.9375 18.9375 47.25 18.8438 46.6875 17.4062C46.5625 17.0938 46.5 16.7188 46.5 16.3438C46.5 15.4062 46.9375 14.3438 48.1875 13.3438C50.125 11.75 54.7188 10.875 59.3125 10.875H60.2188C60.4062 10.5 60.5312 10.1562 60.6562 9.875C61.25 8.40625 61.6875 6.8125 61.9375 6.125C61.9688 6 62.0938 5.90625 62.2188 5.90625C62.2812 5.90625 62.3438 5.9375 62.4062 5.96875C63.0312 6.40625 64.3125 7.5 64.3125 9.25C64.3125 9.65625 64.25 10.125 64.0938 10.5938C64.0312 10.7812 63.9688 11 63.875 11.2188C66.9062 11.7188 69.4688 12.7188 70.625 14.3125C70.6875 14.4062 70.75 14.5625 70.75 14.7188C70.75 15.5 70 16.8125 69.5312 17.2188C69.4688 17.3438 69.4375 17.375 69.3125 17.375L66.3438 16.625C66.3125 16.625 66.3125 16.5938 66.3125 16.5625C66.3125 16.5312 66.3438 16.4688 66.375 16.4688C67.0312 16.4375 68.2188 16.3438 68.7188 16.125C67.75 15.0312 65.5 14.375 62.875 14.125C60 22.25 54.5312 37.125 53.6875 41.4062C53.2188 43.7812 52.875 46.25 52.8438 47.5312C52.8438 48.3125 52.4688 48.625 51.9062 48.625ZM82.3438 49.5C81.7188 49.5 79.5938 48.3438 78.0625 47.4375C77.125 46.875 76.5312 45.8438 76.5312 44.75C76.5312 44.4688 76.5938 44.1875 76.6562 43.9062C77.5 40.5312 80.25 31.4688 81.125 27.8438C81.1875 27.6562 81.1875 27.4375 81.1875 27.2188C81.1875 25.9375 80.4375 24.25 80.2812 23.8438C80.0938 23.4375 80.0312 23.0312 80.0312 22.6562C80.0312 21.2188 81.1875 20.2188 81.75 20.2188C81.8438 20.2188 81.9062 20.2188 81.9688 20.2812L83.4688 21.1562C86 16 88.5938 8.84375 90.625 4.4375C86.4688 6.59375 81.625 11.6875 81.3125 16.4688C81.2812 17 81.125 17.2188 80.9062 17.2188C80.125 17.2188 78.5312 14.1562 78.5312 11.0625C78.5312 10.0625 78.6875 9.0625 79.0938 8.15625C81.0625 3.84375 88.5 0.34375 93.9062 0.34375H94.5938C97.875 0.34375 100.938 1.09375 103.375 2.96875C106.438 5.3125 107.594 8.625 107.594 12.0938C107.594 21.5625 100.031 30.6875 90.5 30.6875C89.0312 30.6875 87.5312 30.4688 86.0625 29.9688C84.6875 33.7188 82.5 43.2188 82.5 48.125L82.5312 49.3438C82.5312 49.4375 82.4688 49.5 82.3438 49.5ZM88.5938 24C94.625 24 98.75 20.5625 101.469 15.2188C102.25 13.7188 103.062 12.1562 103.062 10.5938C103.062 9.875 102.906 9.125 102.438 8.375C101.062 6.03125 98.75 5.4375 96.3438 5.4375C95.3125 8 90.125 19.1875 88.5938 24ZM117.062 46.75C114.5 46.75 111.719 44.6562 111.719 42.75C111.719 42.5625 111.75 42.3438 111.812 42.1562C112.344 40.7812 112.906 39.2812 113.5 37.8438C110.656 41.75 107.25 45.7812 104.906 46.3438C104.438 46.4688 104 46.5 103.562 46.5C100.906 46.5 98.8438 44.5312 98.8438 42C98.8438 41.4062 98.9688 40.7812 99.2188 40.125C101.281 34.6562 103.688 29.75 103.688 28.8438V28.7812C103.688 28.4688 104.031 28.3125 104.562 28.3125C106.156 28.3125 109.375 29.625 109.375 30.9375V31.0625C109.375 31.0625 105.438 39.125 105.438 41.3125C105.438 41.625 105.5 41.8125 105.688 41.8438H105.75C107.375 41.8438 113.969 31.8438 116.969 28.8438V28.7812C116.969 28.4688 117.312 28.3125 117.812 28.3125C119.406 28.3125 122.625 29.625 122.625 30.9062V31.0625C122.625 31.0625 119.375 39.7812 118.938 41.8438L118.969 41.9062C119.656 41.9062 130.25 32.8125 133.188 29.875C133.344 29.7188 133.5 29.6562 133.656 29.6562C134.281 29.6562 134.969 30.6562 134.969 31.1562L134.906 31.3438C133.812 32.7812 122.969 42.5312 119.688 45.7188C118.969 46.4375 118.031 46.75 117.062 46.75ZM130.562 47.1562C128.812 47.1562 125.344 45.5312 125.188 43.8438V43.5312C125.188 38.9688 132.906 29.125 133.156 27.7812C133.188 27.625 133.5 27.5625 133.969 27.5625C135.406 27.5625 138.312 28.2812 138.312 29.9688V30.0938C138.281 30.2188 138.125 30.5938 137.875 31.0938C140.094 28.9688 142.562 27.1562 143.906 26.6875L144.688 26.625C146.469 26.625 148.844 27.3125 150.031 29.6562L150.062 29.875C150.062 31.9375 146.031 39.5625 144.781 42.6875C147.219 40.9062 156.469 32.6875 158.844 30.7188C158.969 30.625 159.156 30.5625 159.344 30.5625C159.969 30.5625 160.75 31.0625 160.75 31.75C160.75 31.9062 160.719 32.0625 160.625 32.25C159.906 33.7812 147.312 44.1875 145.75 45.9062C145.094 46.625 144.281 46.9375 143.406 46.9375C140.719 46.9375 137.625 44.125 137.625 42.1562C137.625 41.9375 137.656 41.7812 137.719 41.5938C138.75 38.75 142.344 31.125 143.375 29.6562C141.969 30.625 136.812 34.7812 133.375 40.1562C132.438 42.4062 131.719 44.6875 131.562 46.5938C131.531 46.9688 131.156 47.1562 130.562 47.1562ZM160.781 46.9688C159.594 46.9688 158.469 46.6562 157.406 46.0312C154.938 44.5938 153.875 42.1875 153.875 39.625C153.875 35.0938 157.062 29.5 162.562 28.6562C163.125 28.5625 163.656 28.4375 164.156 28.4375C167 28.4375 169.125 30.5312 169.125 32.9062C169.125 33.5938 168.969 34.2812 168.594 34.9688C167.438 37.1562 165.844 38.75 164 38.75C163.188 38.75 162.344 38.4375 161.469 37.7188C160.969 38.4062 160.531 40.1562 160.531 41.5938C160.531 42.8438 160.844 43.875 161.781 43.875H161.812C166.875 43.8438 178.688 31.3125 179.875 30.4062C179.938 30.3438 180.031 30.3125 180.156 30.3125C180.688 30.3125 181.531 31 181.531 31.5312C181.531 31.625 181.5 31.6875 181.438 31.7812C173.281 39.9375 166.5 46.9688 160.781 46.9688ZM163.438 36.5625C163.938 36.5625 164.812 35.9688 165.125 35.5625C166.188 34.1562 166.656 32.6875 166.656 31.9062C166.656 31.5 166.531 31.25 166.344 31.25L166.25 31.2812C165.719 31.4688 164 33.1562 163.438 34.1875C163.281 34.5 162.875 35.3125 162.875 35.9062C162.875 36.1875 162.969 36.4062 163.219 36.5312C163.281 36.5625 163.344 36.5625 163.438 36.5625Z" fill="#FFF4DA"/>
<path d="M23.4375 46.6875L22.0681 48.1452L22.0717 48.1486L23.4375 46.6875ZM22 41.7188L23.923 42.2682L23.929 42.2475L23.9344 42.2267L22 41.7188ZM27.6875 22.5L29.6032 23.0747L30.3984 20.4239L27.632 20.5008L27.6875 22.5ZM22.5938 23.0312L22.2685 21.0579L21.255 21.2249L20.8004 22.1459L22.5938 23.0312ZM9.125 46.7188L10.1055 48.4619L10.1331 48.4464L10.1602 48.43L9.125 46.7188ZM0.4375 44.2188L-0.756522 42.6143L-0.811782 42.6554L-0.864083 42.7002L0.4375 44.2188ZM15.625 24.3438L17.282 25.4637L20.0102 21.4271L15.2328 22.3826L15.625 24.3438ZM12.2812 25.375L11.459 23.5518L11.4581 23.5523L12.2812 25.375ZM9.96875 27.5625L10.2975 29.5353L11.9279 29.2636L11.9682 27.6113L9.96875 27.5625ZM9.59375 27.625V29.625H9.75927L9.92255 29.5978L9.59375 27.625ZM8.125 22.125L6.66121 20.7622L6.63322 20.7922L6.60649 20.8234L8.125 22.125ZM11.4688 20.0625L10.8303 18.1671L10.818 18.1713L10.8058 18.1756L11.4688 20.0625ZM19.625 19.125L19.6924 21.1239L20.6277 21.0923L21.2028 20.354L19.625 19.125ZM30.625 3.46875L32.2711 4.60476L34.8739 0.833316L30.3387 1.48935L30.625 3.46875ZM17.75 10.3125L16.2721 8.96499L12.4786 13.1256L18.0467 12.2904L17.75 10.3125ZM21.9688 9.375V7.375H21.7225L21.4837 7.43472L21.9688 9.375ZM22.0625 9.5625L22.9569 11.3514L23.2472 11.2062L23.4767 10.9767L22.0625 9.5625ZM16.25 12.4688L16.8825 14.3661L17.0173 14.3212L17.1444 14.2576L16.25 12.4688ZM15.8438 12.5312L14.8148 14.2462L15.2898 14.5312H15.8438V12.5312ZM15.6875 12.4375L14.3422 13.9174L14.4887 14.0506L14.6585 14.1525L15.6875 12.4375ZM17.5625 3.84375L16.2805 2.30869L16.2749 2.3133L16.2695 2.31796L17.5625 3.84375ZM33.25 0.4375L33.1252 2.43361L33.1876 2.4375H33.25V0.4375ZM34.0625 0.65625L32.9531 2.32035L32.969 2.33093L32.985 2.34121L34.0625 0.65625ZM38.6562 4.625L40.5657 5.21997L40.6562 4.92938V4.625H38.6562ZM34.2812 19.875L32.3557 19.3343L31.7385 21.5321L33.9984 21.8549L34.2812 19.875ZM35.0625 20.125L35.7805 18.2583L35.7726 18.2553L35.7647 18.2523L35.0625 20.125ZM35.0625 22.6562L34.1048 20.9005L34.0687 20.9201L34.0335 20.9413L35.0625 22.6562ZM34.625 22.8125L34.1399 24.7528L34.3788 24.8125H34.625V22.8125ZM34.5 22.7812L34.9851 20.841L34.9674 20.8366L34.9497 20.8325L34.5 22.7812ZM33.5 22.625V20.625H31.8706L31.5413 22.2208L33.5 22.625ZM28.4375 48.9688L30.3349 49.6012L30.3883 49.4411L30.414 49.2742L28.4375 48.9688ZM28.3438 19.1875L28.2942 21.1869L29.7157 21.2221L30.2159 19.8911L28.3438 19.1875ZM33.7812 4.71875L35.6534 5.42233L32.0977 3.63908L33.7812 4.71875ZM24.5625 19.0938L22.879 18.0141L20.9608 21.0051L24.5129 21.0931L24.5625 19.0938ZM27.7188 47.4688C27.8807 47.4688 27.8816 47.5118 27.6552 47.4073C27.4586 47.3165 27.1942 47.1629 26.8689 46.9376C26.2195 46.4881 25.4866 45.8652 24.8033 45.2264L22.0717 48.1486C22.8259 48.8535 23.718 49.6213 24.592 50.2264C25.0285 50.5285 25.5004 50.8182 25.9786 51.039C26.427 51.246 27.0412 51.4688 27.7188 51.4688V47.4688ZM24.8069 45.2298C24.1852 44.6459 23.8438 43.8329 23.8438 43H19.8438C19.8438 44.9171 20.6273 46.7916 22.0681 48.1452L24.8069 45.2298ZM23.8438 43C23.8438 42.6638 23.868 42.4608 23.923 42.2682L20.077 41.1693C19.882 41.8517 19.8438 42.4612 19.8438 43H23.8438ZM23.9344 42.2267C25.3915 36.6775 29.2124 24.377 29.6032 23.0747L25.7718 21.9253C25.4126 23.123 21.546 35.5725 20.0656 41.2108L23.9344 42.2267ZM27.632 20.5008C26.4106 20.5347 25.0624 20.6768 24.0469 20.8047C23.5331 20.8695 23.0922 20.9322 22.7788 20.9788C22.6218 21.0022 22.4964 21.0216 22.4092 21.0353C22.3655 21.0422 22.3314 21.0477 22.3077 21.0515C22.2959 21.0534 22.2866 21.0549 22.28 21.056C22.2767 21.0565 22.2741 21.057 22.2722 21.0573C22.2712 21.0574 22.2704 21.0576 22.2698 21.0577C22.2695 21.0577 22.2692 21.0578 22.269 21.0578C22.2689 21.0578 22.2688 21.0578 22.2687 21.0578C22.2686 21.0579 22.2685 21.0579 22.5938 23.0312C22.919 25.0046 22.9189 25.0046 22.9189 25.0047C22.9188 25.0047 22.9188 25.0047 22.9188 25.0047C22.9187 25.0047 22.9187 25.0047 22.9187 25.0047C22.9188 25.0047 22.919 25.0046 22.9195 25.0046C22.9203 25.0044 22.9218 25.0042 22.9239 25.0038C22.9283 25.0031 22.9352 25.002 22.9447 25.0004C22.9638 24.9974 22.993 24.9927 23.0315 24.9866C23.1086 24.9745 23.2229 24.9568 23.3677 24.9352C23.6578 24.8921 24.0684 24.8337 24.5469 24.7734C25.5158 24.6513 26.7144 24.5278 27.743 24.4992L27.632 20.5008ZM22.5938 23.0312C20.8004 22.1459 20.8004 22.146 20.8003 22.1461C20.8002 22.1462 20.8001 22.1464 20.8 22.1467C20.7997 22.1473 20.7992 22.1483 20.7986 22.1495C20.7973 22.1521 20.7954 22.1559 20.7929 22.1611C20.7878 22.1714 20.7801 22.187 20.7698 22.2077C20.7494 22.249 20.7188 22.3107 20.6788 22.3913C20.5988 22.5526 20.4808 22.7899 20.3295 23.0928C20.027 23.6986 19.5917 24.5664 19.0613 25.6129C18 27.7068 16.5602 30.5115 15.0432 33.3609C13.5234 36.2157 11.9383 39.0923 10.5843 41.3394C9.90552 42.4659 9.30252 43.4045 8.80701 44.0932C8.55866 44.4384 8.35574 44.695 8.199 44.8712C8.0158 45.0772 7.98526 45.0707 8.0898 45.0075L10.1602 48.43C10.5811 48.1754 10.9327 47.8164 11.1878 47.5296C11.4694 47.213 11.761 46.8365 12.054 46.4293C12.6411 45.6133 13.3079 44.5698 14.0104 43.4038C15.4191 41.0659 17.0431 38.1163 18.574 35.2406C20.1078 32.3596 21.5606 29.5295 22.6292 27.4213C23.1637 26.3667 23.6026 25.4916 23.9082 24.8798C24.0609 24.5738 24.1804 24.3336 24.2618 24.1696C24.3025 24.0876 24.3337 24.0246 24.3548 23.982C24.3653 23.9607 24.3733 23.9445 24.3787 23.9335C24.3815 23.9281 24.3835 23.9239 24.3849 23.9211C24.3856 23.9196 24.3862 23.9185 24.3865 23.9178C24.3867 23.9174 24.3869 23.9171 24.387 23.9169C24.3871 23.9167 24.3871 23.9166 22.5938 23.0312ZM8.14448 44.9756C8.14556 44.975 8.0617 45.0193 7.83959 45.0599C7.62487 45.0992 7.33605 45.125 6.96875 45.125V49.125C7.98094 49.125 9.15124 48.9987 10.1055 48.4619L8.14448 44.9756ZM6.96875 45.125C5.78405 45.125 4.27676 44.8624 3.09076 44.4716C2.49271 44.2745 2.08242 44.0791 1.86449 43.9362C1.75439 43.864 1.7699 43.8546 1.8311 43.9307C1.89275 44.0074 2.09375 44.2916 2.09375 44.75H-1.90625C-1.90625 45.4974 -1.57927 46.0727 -1.28605 46.4374C-0.993285 46.8014 -0.640625 47.0769 -0.328359 47.2816C0.298443 47.6924 1.0737 48.0185 1.83892 48.2706C3.37949 48.7783 5.3097 49.125 6.96875 49.125V45.125ZM2.09375 44.75C2.09375 45.1441 1.9501 45.4438 1.83605 45.611C1.74595 45.7432 1.67429 45.7928 1.73908 45.7373L-0.864083 42.7002C-1.08727 42.8915 -1.90625 43.5789 -1.90625 44.75H2.09375ZM1.63152 45.8232C2.5362 45.15 3.78254 43.7377 5.06207 42.1726C6.40122 40.5346 7.94974 38.5092 9.49731 36.4215C12.5936 32.2446 15.7354 27.7521 17.282 25.4637L13.968 23.2238C12.4521 25.4667 9.34385 29.9117 6.28394 34.0394C4.75339 36.1041 3.24722 38.0728 1.96527 39.6409C0.623709 41.2818 -0.31745 42.2875 -0.756522 42.6143L1.63152 45.8232ZM15.2328 22.3826C14.2681 22.5755 13.2698 22.7352 11.459 23.5518L13.1035 27.1982C14.4802 26.5773 15.1069 26.487 16.0172 26.3049L15.2328 22.3826ZM11.4581 23.5523C11.1097 23.7096 10.2622 24.0475 9.59131 24.5391C8.82208 25.1028 8.0049 26.0559 7.96934 27.5137L11.9682 27.6113C11.9672 27.6507 11.9497 27.7262 11.9089 27.7923C11.879 27.8406 11.8712 27.8274 11.9556 27.7656C12.0427 27.7017 12.1769 27.6229 12.3856 27.5221C12.6176 27.41 12.7987 27.3358 13.1044 27.1977L11.4581 23.5523ZM9.63995 25.5897L9.26495 25.6522L9.92255 29.5978L10.2975 29.5353L9.63995 25.5897ZM9.59375 25.625C9.80681 25.625 9.95393 25.7144 9.99919 25.7513C10.0233 25.7709 9.96641 25.7304 9.87825 25.558C9.69657 25.2028 9.5625 24.6411 9.5625 24.0938H5.5625C5.5625 25.1714 5.80343 26.3753 6.31706 27.3795C6.79442 28.3128 7.82863 29.625 9.59375 29.625V25.625ZM9.5625 24.0938C9.5625 23.8552 9.59198 23.6542 9.63111 23.5123C9.67387 23.3573 9.70447 23.3555 9.64351 23.4266L6.60649 20.8234C5.78154 21.7859 5.5625 23.1047 5.5625 24.0938H9.5625ZM9.58879 23.4878C10.1446 22.8908 11.1717 22.2867 12.1317 21.9494L10.8058 18.1756C9.45334 18.6508 7.79285 19.5467 6.66121 20.7622L9.58879 23.4878ZM12.1072 21.9579C14.7195 21.0779 16.7199 21.2241 19.6924 21.1239L19.5576 17.1261C16.9676 17.2134 14.1555 17.0471 10.8303 18.1671L12.1072 21.9579ZM21.2028 20.354C23.5622 17.325 29.2418 8.99412 32.2711 4.60476L28.9789 2.33274C25.8832 6.81838 20.3128 14.9875 18.0472 17.896L21.2028 20.354ZM30.3387 1.48935C24.8755 2.27962 19.4649 5.46318 16.2721 8.96499L19.2279 11.66C21.8476 8.78682 26.437 6.09538 30.9113 5.44815L30.3387 1.48935ZM18.0467 12.2904C19.4155 12.0851 21.3728 11.5855 22.4538 11.3153L21.4837 7.43472C20.3147 7.72696 18.5845 8.16495 17.4533 8.33463L18.0467 12.2904ZM21.9688 11.375H22V7.375H21.9688V11.375ZM22 11.375C21.4038 11.375 20.9962 11.1054 20.8056 10.9466C20.6919 10.8519 20.5651 10.7227 20.4502 10.5503C20.373 10.4346 20.125 10.0439 20.125 9.46875H24.125C24.125 8.87796 23.8692 8.46779 23.7784 8.33152C23.6498 8.13862 23.5034 7.98796 23.3663 7.87371C23.1288 7.67581 22.6587 7.375 22 7.375V11.375ZM20.125 9.46875C20.125 8.83178 20.431 8.4149 20.5055 8.31562C20.5957 8.19532 20.6901 8.10652 20.6483 8.14829L23.4767 10.9767C23.4802 10.9732 23.5113 10.9424 23.5445 10.9069C23.5785 10.8707 23.6391 10.8041 23.7055 10.7156C23.8034 10.5851 24.125 10.137 24.125 9.46875H20.125ZM21.1681 7.77365L15.3556 10.6799L17.1444 14.2576L22.9569 11.3514L21.1681 7.77365ZM15.6175 10.5714C15.6051 10.5755 15.5978 10.578 15.5913 10.5801C15.5853 10.5821 15.5831 10.5828 15.5831 10.5827C15.5833 10.5827 15.5872 10.5815 15.5938 10.5796C15.6004 10.5777 15.6108 10.5748 15.6243 10.5714C15.6726 10.5594 15.7976 10.5312 15.9688 10.5312V14.5312C16.4456 14.5312 16.8559 14.375 16.8825 14.3661L15.6175 10.5714ZM15.9688 10.5312H15.8438V14.5312H15.9688V10.5312ZM16.8727 10.8163L16.7165 10.7225L14.6585 14.1525L14.8148 14.2462L16.8727 10.8163ZM17.0328 10.9576C17.1323 11.048 17.1917 11.128 17.2208 11.171C17.2364 11.1941 17.2469 11.2121 17.2532 11.2235C17.2596 11.2349 17.2627 11.2415 17.2631 11.2424C17.2635 11.2433 17.2567 11.2285 17.2453 11.1946C17.2342 11.1612 17.2205 11.1149 17.206 11.0547C17.145 10.8018 17.0938 10.4089 17.0938 9.90625H13.0938C13.0938 10.6536 13.1675 11.3701 13.3174 11.9922C13.4414 12.5066 13.7022 13.3356 14.3422 13.9174L17.0328 10.9576ZM17.0938 9.90625C17.0938 8.26848 17.6412 6.39863 18.8555 5.36954L16.2695 2.31796C13.7963 4.41387 13.0938 7.66902 13.0938 9.90625H17.0938ZM18.8445 5.37881C21.1673 3.43887 24.6098 2.375 30.4375 2.375V-1.625C24.2027 -1.625 19.6452 -0.501372 16.2805 2.30869L18.8445 5.37881ZM30.4375 2.375C31.3187 2.375 32.1965 2.37556 33.1252 2.43361L33.3748 -1.55861C32.3035 -1.62556 31.3063 -1.625 30.4375 -1.625V2.375ZM33.25 2.4375C33.2085 2.4375 33.18 2.4354 33.1674 2.43431C33.1602 2.43369 33.155 2.43311 33.152 2.43274C33.1488 2.43237 33.1471 2.43212 33.1468 2.43207C33.1465 2.43203 33.1494 2.43246 33.1548 2.43357C33.1602 2.43465 33.1659 2.43596 33.1712 2.43733C33.1851 2.4409 33.1825 2.4412 33.163 2.4336C33.1523 2.42944 33.13 2.42038 33.0987 2.40499C33.069 2.39032 33.0173 2.36317 32.9531 2.32035L35.1719 -1.00785C34.7965 -1.25813 34.3885 -1.37994 34.1647 -1.43733C33.9156 -1.50121 33.5832 -1.5625 33.25 -1.5625V2.4375ZM34.0625 0.65625C32.985 2.34121 32.9849 2.34114 32.9848 2.34108C32.9848 2.34108 32.9848 2.34103 32.9848 2.34103C32.9847 2.34101 32.9848 2.34104 32.9849 2.34111C32.9851 2.34125 32.9856 2.34157 32.9864 2.34206C32.9879 2.34304 32.9905 2.34472 32.9942 2.34706C33.0015 2.35176 33.0129 2.35914 33.0283 2.36906C33.059 2.3889 33.1051 2.41887 33.1646 2.45779C33.2836 2.53568 33.4552 2.64903 33.6618 2.78837C34.077 3.06848 34.6238 3.44712 35.1646 3.85001C35.7163 4.26098 36.2141 4.66192 36.5566 4.98927C36.7316 5.15659 36.8151 5.25666 36.8404 5.29143C36.9275 5.41145 36.6562 5.11741 36.6562 4.5625H40.6562C40.6562 3.76541 40.2415 3.16765 40.0774 2.9416C39.8514 2.6303 39.576 2.34195 39.3204 2.09764C38.8015 1.60175 38.1509 1.08667 37.5541 0.642175C36.9466 0.189595 36.3449 -0.226682 35.8988 -0.527632C35.6747 -0.678813 35.4874 -0.802522 35.3552 -0.889061C35.289 -0.932361 35.2365 -0.966445 35.1999 -0.990104C35.1816 -1.00194 35.1673 -1.01117 35.1572 -1.01765C35.1522 -1.02089 35.1482 -1.02345 35.1453 -1.0253C35.1438 -1.02622 35.1427 -1.02697 35.1418 -1.02754C35.1413 -1.02782 35.141 -1.02806 35.1407 -1.02826C35.1405 -1.02836 35.1403 -1.02847 35.1403 -1.02852C35.1401 -1.02862 35.14 -1.02871 34.0625 0.65625ZM36.6562 4.5625V4.625H40.6562V4.5625H36.6562ZM36.7468 4.03003C35.392 8.37809 33.6299 14.7971 32.3557 19.3343L36.2068 20.4157C37.4951 15.8279 39.233 9.49691 40.5657 5.21997L36.7468 4.03003ZM33.9984 21.8549C33.9421 21.8469 33.9155 21.8385 33.9305 21.8426C33.9418 21.8457 33.9675 21.8534 34.0115 21.8685C34.0547 21.8833 34.1046 21.9014 34.165 21.924C34.1949 21.9352 34.2252 21.9467 34.2582 21.9591C34.29 21.9712 34.3255 21.9846 34.3603 21.9977L35.7647 18.2523C35.6536 18.2107 35.0603 17.966 34.5641 17.8951L33.9984 21.8549ZM34.3445 21.9917C33.9809 21.8518 33.7904 21.591 33.7159 21.4389C33.65 21.3045 33.6562 21.231 33.6562 21.25H37.6562C37.6562 20.4434 37.3517 18.8626 35.7805 18.2583L34.3445 21.9917ZM33.6562 21.25C33.6562 21.2463 33.6562 21.2606 33.6509 21.2871C33.6456 21.3134 33.6392 21.3317 33.6372 21.3365C33.6336 21.3452 33.6467 21.3087 33.6945 21.2443C33.736 21.1884 33.8615 21.0331 34.1048 20.9005L36.0202 24.412C36.7931 23.9904 37.17 23.2651 37.3394 22.851C37.5391 22.3627 37.6562 21.8014 37.6562 21.25H33.6562ZM34.0335 20.9413C34.0336 20.9412 34.0696 20.919 34.1406 20.8928C34.2 20.871 34.3733 20.8125 34.625 20.8125V24.8125C35.3071 24.8125 35.8499 24.5162 36.0915 24.3712L34.0335 20.9413ZM35.1101 20.8722L34.9851 20.841L34.0149 24.7215L34.1399 24.7528L35.1101 20.8722ZM34.9497 20.8325C34.5222 20.7338 33.9289 20.625 33.5 20.625V24.625C33.4503 24.625 33.4352 24.6218 33.4724 24.6256C33.5019 24.6287 33.5482 24.6345 33.6106 24.6442C33.7358 24.6637 33.8914 24.6934 34.0503 24.73L34.9497 20.8325ZM31.5413 22.2208C31.1401 24.165 27.5331 41.726 26.461 48.6633L30.414 49.2742C31.4669 42.4615 35.0474 25.0225 35.4587 23.0292L31.5413 22.2208ZM26.5401 48.3363C26.5877 48.1934 26.7336 47.8996 27.0759 47.6788C27.3895 47.4764 27.6647 47.4688 27.7188 47.4688V51.4688C28.1165 51.4688 28.6886 51.3986 29.2444 51.04C29.8289 50.6629 30.1623 50.1191 30.3349 49.6012L26.5401 48.3363ZM30.2159 19.8911L35.6534 5.42233L31.9091 4.01517L26.4716 18.4839L30.2159 19.8911ZM32.0977 3.63908L22.879 18.0141L26.246 20.1734L35.4648 5.79841L32.0977 3.63908ZM24.5129 21.0931L28.2942 21.1869L28.3933 17.1881L24.6121 17.0944L24.5129 21.0931ZM32.5 42.625L30.6204 41.9415L30.6112 41.9669L30.6026 41.9925L32.5 42.625ZM43.4375 31.375L45.3115 32.0736L45.4375 31.7356V31.375H43.4375ZM39.75 42.1562L37.7935 41.7412L37.6484 42.4253L37.9611 43.0507L39.75 42.1562ZM39.7812 42.2188L37.9924 43.1132L38.5452 44.2188H39.7812V42.2188ZM55.5312 31.9375L57.4286 32.57L57.5312 32.2621V31.9375H55.5312ZM55.4688 32.125L57.0438 33.3576L57.2568 33.0854L57.3661 32.7575L55.4688 32.125ZM40.5 46.0312L39.1064 44.5967L39.096 44.6068L39.0858 44.617L40.5 46.0312ZM43.625 19L44.1893 20.9187L44.2236 20.9087L44.2575 20.8974L43.625 19ZM46.3125 20.5938L48.3081 20.7268L48.3125 20.6603V20.5938H46.3125ZM44.4375 25.0625L46.2051 25.9983L46.2254 25.9599L46.2441 25.9206L44.4375 25.0625ZM43.4375 27.1562L43.9226 29.0965L43.9677 29.0853L44.0122 29.0719L43.4375 27.1562ZM37.7812 45.0938C36.9806 45.0938 36.0351 44.7639 35.2947 44.2354C34.4661 43.644 34.4062 43.205 34.4062 43.25H30.4062C30.4062 45.1388 31.7526 46.6216 32.9709 47.4912C34.2774 48.4236 36.0194 49.0938 37.7812 49.0938V45.0938ZM34.4062 43.25C34.4062 43.2428 34.4065 43.236 34.4069 43.2302C34.4074 43.2243 34.4079 43.2205 34.4081 43.2189C34.4083 43.2172 34.4081 43.2192 34.4068 43.2249C34.4055 43.2304 34.4027 43.2414 34.3974 43.2575L30.6026 41.9925C30.4609 42.4178 30.4062 42.8551 30.4062 43.25H34.4062ZM34.3796 43.3085C35.3602 40.6119 36.6596 37.5201 37.7365 34.9378C38.2694 33.66 38.7525 32.4956 39.1025 31.5916C39.2768 31.1413 39.4288 30.7279 39.54 30.3829C39.5953 30.2111 39.6484 30.0323 39.6894 29.8603C39.7226 29.7208 39.7812 29.4547 39.7812 29.1562H35.7812C35.7812 28.9711 35.8142 28.8663 35.7984 28.9326C35.7904 28.9662 35.771 29.0375 35.7327 29.1562C35.6566 29.3924 35.5367 29.7225 35.3721 30.1477C35.0443 30.9946 34.5821 32.1095 34.0447 33.3981C32.9811 35.9486 31.6398 39.1381 30.6204 41.9415L34.3796 43.3085ZM39.7812 29.1562V29.0938H35.7812V29.1562H39.7812ZM39.7812 29.0938C39.7812 29.4042 39.689 29.7318 39.4941 30.0171C39.3105 30.2856 39.0924 30.4356 38.9471 30.512C38.6914 30.6466 38.5351 30.625 38.625 30.625V26.625C38.2149 26.625 37.6367 26.6815 37.0841 26.9724C36.4409 27.3109 35.7812 28.0279 35.7812 29.0938H39.7812ZM38.625 30.625C39.0199 30.625 39.916 30.8329 40.7485 31.2411C41.1466 31.4363 41.4084 31.6196 41.5385 31.7421C41.7151 31.9084 41.4375 31.7427 41.4375 31.25H45.4375C45.4375 30.101 44.7575 29.2791 44.2808 28.8301C43.7576 28.3375 43.1151 27.9465 42.5093 27.6495C41.334 27.0733 39.8239 26.625 38.625 26.625V30.625ZM41.4375 31.25V31.375H45.4375V31.25H41.4375ZM43.4375 31.375C41.5635 30.6764 41.5634 30.6765 41.5634 30.6766C41.5634 30.6767 41.5633 30.6768 41.5633 30.677C41.5632 30.6773 41.563 30.6777 41.5628 30.6783C41.5624 30.6794 41.5617 30.6811 41.5609 30.6833C41.5593 30.6876 41.5569 30.6941 41.5538 30.7025C41.5475 30.7194 41.5382 30.7444 41.5261 30.7769C41.5019 30.842 41.4665 30.9375 41.4213 31.0595C41.331 31.3036 41.2016 31.6541 41.0451 32.081C40.7322 32.9345 40.3099 34.0952 39.8735 35.3218C39.029 37.6955 38.047 40.5465 37.7935 41.7412L41.7065 42.5713C41.8905 41.7035 42.7522 39.1638 43.6421 36.6626C44.0729 35.4517 44.4905 34.3038 44.8006 33.458C44.9556 33.0354 45.0835 32.6886 45.1727 32.4478C45.2172 32.3274 45.2521 32.2335 45.2757 32.1699C45.2875 32.1381 45.2965 32.1138 45.3026 32.0976C45.3056 32.0895 45.3079 32.0834 45.3094 32.0794C45.3101 32.0774 45.3107 32.0759 45.311 32.0749C45.3112 32.0744 45.3113 32.0741 45.3114 32.0738C45.3115 32.0737 45.3115 32.0737 45.3115 32.0736C45.3115 32.0736 45.3115 32.0736 43.4375 31.375ZM37.9611 43.0507L37.9924 43.1132L41.5701 41.3243L41.5389 41.2618L37.9611 43.0507ZM39.7812 44.2188C40.2177 44.2188 40.5552 44.0761 40.6354 44.0431C40.7773 43.9846 40.9026 43.9186 40.9953 43.8667C41.1848 43.7608 41.3883 43.629 41.5849 43.4949C41.9858 43.2217 42.4925 42.8466 43.0592 42.4112C44.1995 41.5352 45.6702 40.3476 47.1995 39.0778C50.2378 36.555 53.6229 33.6117 55.1642 32.0705L52.3358 29.242C50.9396 30.6383 47.6841 33.4762 44.6442 36.0004C43.1345 37.2539 41.7067 38.4062 40.6224 39.2392C40.0768 39.6583 39.6397 39.98 39.3318 40.1899C39.174 40.2974 39.082 40.3538 39.043 40.3756C39.0215 40.3876 39.0493 40.3704 39.1115 40.3447C39.1121 40.3445 39.3877 40.2188 39.7812 40.2188V44.2188ZM55.1642 32.0705C55.1008 32.1339 54.9834 32.2319 54.8051 32.3121C54.6201 32.3954 54.418 32.4375 54.2188 32.4375V28.4375C53.4482 28.4375 52.8033 28.7745 52.3358 29.242L55.1642 32.0705ZM54.2188 32.4375C53.8483 32.4375 53.6241 32.2963 53.5781 32.2657C53.5199 32.2269 53.5179 32.2122 53.5476 32.2494C53.5588 32.2633 53.5698 32.279 53.5792 32.2942C53.5888 32.3097 53.5926 32.3181 53.5918 32.3165C53.5913 32.3153 53.5886 32.3093 53.5847 32.2985C53.5808 32.2879 53.5746 32.2697 53.5678 32.244C53.5564 32.2012 53.5312 32.0936 53.5312 31.9375H57.5312C57.5312 31.4123 57.368 30.9591 57.2363 30.6679C57.0895 30.3433 56.8944 30.0297 56.6711 29.7506C56.4509 29.4753 56.1598 29.1794 55.7969 28.9375C55.4463 28.7037 54.9017 28.4375 54.2188 28.4375V32.4375ZM53.6339 31.305L53.5714 31.4925L57.3661 32.7575L57.4286 32.57L53.6339 31.305ZM53.8937 30.8924C53.894 30.8921 53.8899 30.8973 53.8801 30.9089C53.8706 30.9202 53.8575 30.9354 53.8402 30.9549C53.8052 30.9943 53.7588 31.0449 53.6995 31.1075C53.5803 31.2332 53.4247 31.3912 53.2323 31.581C52.8479 31.9603 52.345 32.4393 51.7505 32.9954C50.5627 34.1063 49.0442 35.492 47.4483 36.9413C44.2809 39.818 40.7788 42.9721 39.1064 44.5967L41.8936 47.4658C43.5024 45.9029 46.9222 42.8226 50.1376 39.9024C51.7332 38.4533 53.2713 37.0499 54.4829 35.9167C55.6269 34.8467 56.6427 33.8701 57.0438 33.3576L53.8937 30.8924ZM39.0858 44.617C38.7807 44.9221 38.3586 45.0938 37.7812 45.0938V49.0938C39.2039 49.0938 40.7193 48.6404 41.9142 47.4455L39.0858 44.617ZM43.0938 25.1875C43.1606 25.1875 43.1543 25.2016 43.0736 25.1677C42.9979 25.1359 42.8993 25.0792 42.7987 24.9981C42.6978 24.9167 42.6255 24.8353 42.5843 24.7764C42.5382 24.7104 42.5655 24.7234 42.5862 24.8265L38.6638 25.611C38.8823 26.7032 39.615 27.569 40.2872 28.1113C40.9693 28.6616 41.9704 29.1875 43.0938 29.1875V25.1875ZM42.5862 24.8265C42.5954 24.873 42.5958 24.898 42.5952 24.8845C42.5948 24.878 42.5944 24.8653 42.5941 24.8422C42.5938 24.8177 42.5938 24.7911 42.5938 24.75H38.5938C38.5938 24.8753 38.5875 25.2291 38.6638 25.611L42.5862 24.8265ZM42.5938 24.75C42.5938 24.2099 42.8357 23.1948 43.3091 22.2249C43.5357 21.7605 43.7758 21.3903 43.9911 21.1416C44.229 20.8667 44.3116 20.8828 44.1893 20.9187L43.0607 17.0813C42.1416 17.3516 41.4468 17.9692 40.9669 18.5235C40.4644 19.1039 40.0463 19.7903 39.7144 20.4704C39.0706 21.7895 38.5938 23.4151 38.5938 24.75H42.5938ZM44.2575 20.8974C44.1572 20.9308 44.0751 20.9473 44.0237 20.9557C43.9714 20.9642 43.9338 20.9672 43.9182 20.9682C43.9022 20.9693 43.8963 20.9692 43.9072 20.969C43.9194 20.9688 43.9347 20.9688 43.9688 20.9688V16.9688C43.9572 16.9688 43.4614 16.9464 42.9925 17.1026L44.2575 20.8974ZM43.9688 20.9688C43.9936 20.9688 44.0759 20.975 44.1952 21.0081C44.3114 21.0404 44.4136 21.0847 44.4844 21.126C44.5626 21.1716 44.5456 21.1796 44.4929 21.111C44.4295 21.0286 44.3125 20.8259 44.3125 20.5312H48.3125C48.3125 18.9875 47.1857 18.0709 46.4999 17.6709C45.742 17.2288 44.8105 16.9688 43.9688 16.9688V20.9688ZM44.3125 20.5312V20.5938H48.3125V20.5312H44.3125ZM44.3169 20.4607C44.298 20.7454 44.1365 21.2478 43.7648 22.0102C43.5922 22.3643 43.4026 22.7198 43.2035 23.0928C43.0132 23.4492 42.8035 23.8411 42.6309 24.2044L46.2441 25.9206C46.3683 25.6589 46.5298 25.3555 46.7321 24.9766C46.9255 24.6142 47.15 24.1943 47.3602 23.7632C47.7541 22.9553 48.2333 21.8484 48.3081 20.7268L44.3169 20.4607ZM42.6699 24.1267C42.5678 24.3196 42.497 24.5054 42.4492 24.6438C42.3996 24.7873 42.3582 24.9287 42.3252 25.0458C42.2468 25.3245 42.2157 25.4571 42.159 25.6368C42.1056 25.8061 42.0856 25.8234 42.1165 25.7734C42.1438 25.7291 42.3595 25.3916 42.8628 25.2406L44.0122 29.0719C44.828 28.8272 45.2897 28.2475 45.5193 27.876C45.7523 27.4989 45.8905 27.1041 45.9738 26.8397C46.0539 26.5859 46.138 26.2634 46.1758 26.129C46.2378 25.9084 46.2476 25.9179 46.2051 25.9983L42.6699 24.1267ZM42.9524 25.216C42.9792 25.2093 43.0095 25.203 43.042 25.198C43.0744 25.1929 43.1022 25.1902 43.1231 25.1887C43.1427 25.1873 43.1533 25.1872 43.1481 25.1873C43.1402 25.1874 43.1286 25.1875 43.0938 25.1875V29.1875C43.2162 29.1875 43.5333 29.1939 43.9226 29.0965L42.9524 25.216ZM47.0625 44.0938L45.0676 44.2362L45.0753 44.3446L45.0948 44.4515L47.0625 44.0938ZM47.0312 43.6562H45.0312V43.7276L45.0363 43.7987L47.0312 43.6562ZM58.75 14.125L60.5696 14.9551L61.9888 11.8442L58.5816 12.1321L58.75 14.125ZM49.5938 18.9375V20.9375H51.3152L51.5715 19.2352L49.5938 18.9375ZM46.6875 17.4062L48.55 16.6775L48.5472 16.6705L48.5445 16.6635L46.6875 17.4062ZM48.1875 13.3438L49.4369 14.9055L49.4475 14.897L49.458 14.8883L48.1875 13.3438ZM60.2188 10.875V12.875H61.4548L62.0076 11.7694L60.2188 10.875ZM60.6562 9.875L62.4839 10.6873L62.4977 10.6562L62.5105 10.6246L60.6562 9.875ZM61.9375 6.125L63.8171 6.80849L63.8526 6.71086L63.8778 6.61007L61.9375 6.125ZM62.4062 5.96875L63.5532 4.33029L63.4325 4.24579L63.3007 4.1799L62.4062 5.96875ZM63.875 11.2188L62.0367 10.4309L61.0314 12.7767L63.5495 13.1921L63.875 11.2188ZM70.625 14.3125L72.2891 13.2031L72.2671 13.1701L72.2438 13.138L70.625 14.3125ZM69.5312 17.2188L68.2214 15.7074L67.9205 15.9682L67.7424 16.3243L69.5312 17.2188ZM69.3125 17.375L68.8226 19.3141L69.0638 19.375H69.3125V17.375ZM66.3438 16.625L66.8336 14.6859L66.5925 14.625H66.3438V16.625ZM66.375 16.4688V18.4688H66.4226L66.4701 18.4665L66.375 16.4688ZM68.7188 16.125L69.5204 17.9573L72.0378 16.8559L70.2159 14.7989L68.7188 16.125ZM62.875 14.125L63.0646 12.134L61.5104 11.986L60.9896 13.4578L62.875 14.125ZM53.6875 41.4062L55.6496 41.7935L55.6498 41.793L53.6875 41.4062ZM52.8438 47.5312L50.8443 47.4825L50.8438 47.5069V47.5312H52.8438ZM51.9062 46.625C51.9964 46.625 51.8663 46.6382 51.4941 46.4406C51.1633 46.265 50.7731 45.992 50.3884 45.6459C49.5456 44.8877 49.1011 44.1258 49.0302 43.736L45.0948 44.4515C45.3989 46.1242 46.6107 47.6279 47.7132 48.6197C48.3011 49.1486 48.9558 49.6217 49.6182 49.9735C50.2392 50.3032 51.0505 50.625 51.9062 50.625V46.625ZM49.0574 43.9513L49.0262 43.5138L45.0363 43.7987L45.0676 44.2362L49.0574 43.9513ZM49.0312 43.6562C49.0312 42.9285 49.3994 41.3653 50.2043 39.0243C50.9756 36.7811 52.0536 34.0801 53.2671 31.2182C55.6946 25.4932 58.6055 19.2605 60.5696 14.9551L56.9304 13.2949C54.9883 17.552 52.0398 23.8661 49.5845 29.6568C48.3565 32.5527 47.2373 35.3517 46.4217 37.7237C45.6397 39.998 45.0312 42.1653 45.0312 43.6562H49.0312ZM58.5816 12.1321C56.2214 12.3316 53.7862 12.8443 51.8181 13.7734C49.9063 14.676 47.9826 16.2048 47.616 18.6398L51.5715 19.2352C51.6424 18.7639 52.0781 18.074 53.5257 17.3906C54.9169 16.7338 56.8411 16.2934 58.9184 16.1179L58.5816 12.1321ZM49.5938 16.9375H49.4375V20.9375H49.5938V16.9375ZM49.4375 16.9375C49.2863 16.9375 49.0089 16.9191 48.7737 16.8329C48.6676 16.794 48.6124 16.7563 48.5887 16.736C48.5748 16.724 48.5641 16.7135 48.55 16.6775L44.825 18.135C45.3783 19.5489 46.493 20.2575 47.3982 20.589C48.2723 20.9091 49.0887 20.9375 49.4375 20.9375V16.9375ZM48.5445 16.6635C48.5313 16.6306 48.5 16.5157 48.5 16.3438H44.5C44.5 16.9218 44.5937 17.5569 44.8305 18.149L48.5445 16.6635ZM48.5 16.3438C48.5 16.1106 48.5802 15.5908 49.4369 14.9055L46.9381 11.782C45.2948 13.0967 44.5 14.7019 44.5 16.3438H48.5ZM49.458 14.8883C50.0481 14.403 51.2948 13.8669 53.17 13.4679C54.9767 13.0836 57.1318 12.875 59.3125 12.875V8.875C56.8995 8.875 54.4608 9.10387 52.3378 9.55549C50.2834 9.99251 48.2644 10.6908 46.917 11.7992L49.458 14.8883ZM59.3125 12.875H60.2188V8.875H59.3125V12.875ZM62.0076 11.7694C62.2097 11.3652 62.442 10.7816 62.4839 10.6873L58.8286 9.06272C58.6205 9.53092 58.6028 9.63483 58.4299 9.98057L62.0076 11.7694ZM62.5105 10.6246C62.8348 9.82228 63.1101 9.00212 63.3297 8.31941C63.5662 7.58425 63.7089 7.10603 63.8171 6.80849L60.0579 5.44151C59.9161 5.83147 59.7151 6.49388 59.5218 7.09465C59.3117 7.74788 59.0714 8.45897 58.802 9.12542L62.5105 10.6246ZM63.8778 6.61007C63.7703 7.04003 63.5214 7.35474 63.2624 7.554C63.0055 7.75162 62.6475 7.90625 62.2188 7.90625V3.90625C61.2005 3.90625 60.2569 4.60103 59.9972 5.63993L63.8778 6.61007ZM62.2188 7.90625C61.9224 7.90625 61.7032 7.83331 61.6103 7.79844C61.5257 7.76674 61.4616 7.73249 61.5118 7.7576L63.3007 4.1799C63.2884 4.17376 63.1618 4.10826 63.0147 4.05312C62.8593 3.99481 62.5776 3.90625 62.2188 3.90625V7.90625ZM61.2593 7.60721C61.4688 7.75386 61.755 7.98982 61.9773 8.2949C62.1883 8.5845 62.3125 8.89236 62.3125 9.25H66.3125C66.3125 6.46376 64.2929 4.84807 63.5532 4.33029L61.2593 7.60721ZM62.3125 9.25C62.3125 9.46041 62.2789 9.71386 62.1964 9.96129L65.9911 11.2262C66.2211 10.5361 66.3125 9.85209 66.3125 9.25H62.3125ZM62.1964 9.96129C62.1763 10.0214 62.1569 10.0822 62.1418 10.1295C62.1253 10.1808 62.1121 10.222 62.0987 10.2621C62.0722 10.3417 62.0529 10.3931 62.0367 10.4309L65.7133 12.0066C65.8507 11.6859 65.9637 11.3085 65.9911 11.2262L62.1964 9.96129ZM63.5495 13.1921C64.9557 13.424 66.1817 13.7615 67.1483 14.1864C68.1328 14.6192 68.7131 15.083 69.0062 15.487L72.2438 13.138C71.3807 11.9483 70.1015 11.1152 68.758 10.5246C67.3965 9.92605 65.8255 9.51346 64.2005 9.24541L63.5495 13.1921ZM68.9609 15.4219C68.8874 15.3116 68.8427 15.212 68.8136 15.1246C68.784 15.0361 68.75 14.8984 68.75 14.7188H72.75C72.75 14.0939 72.5258 13.5581 72.2891 13.2031L68.9609 15.4219ZM68.75 14.7188C68.75 14.6246 68.7665 14.631 68.7231 14.7645C68.6856 14.8802 68.6234 15.029 68.5394 15.1917C68.4561 15.353 68.3661 15.4994 68.2872 15.6108C68.1953 15.7406 68.167 15.7545 68.2214 15.7074L70.8411 18.7301C71.3576 18.2825 71.802 17.5915 72.0935 17.027C72.3764 16.4791 72.75 15.6034 72.75 14.7188H68.75ZM67.7424 16.3243C67.7343 16.3405 67.7658 16.274 67.8242 16.1865C67.8889 16.0894 68.0219 15.9113 68.2453 15.7437C68.7483 15.3665 69.2587 15.375 69.3125 15.375V19.375C69.4913 19.375 70.0798 19.3679 70.6453 18.9438C71.1065 18.5979 71.3114 18.1306 71.3201 18.1132L67.7424 16.3243ZM69.8024 15.4359L66.8336 14.6859L65.8539 18.5641L68.8226 19.3141L69.8024 15.4359ZM66.3438 14.625C66.6818 14.625 67.1361 14.7162 67.5536 15.0409C67.9538 15.3522 68.1342 15.7342 68.2138 15.973C68.2895 16.2001 68.3041 16.3862 68.3086 16.4524C68.3133 16.5236 68.3125 16.5845 68.3125 16.5625H64.3125C64.3125 16.5636 64.3125 16.5835 64.3128 16.6059C64.3132 16.6295 64.3142 16.6695 64.3174 16.7185C64.3228 16.7994 64.3394 16.9991 64.419 17.2379C64.5026 17.4885 64.6888 17.8802 65.0978 18.1983C65.5241 18.5299 65.9901 18.625 66.3438 18.625V14.625ZM68.3125 16.5625C68.3125 16.8465 68.2503 17.0621 68.2152 17.1671C68.1733 17.293 68.1175 17.4154 68.047 17.5329C67.9826 17.6403 67.8623 17.8167 67.6619 17.9904C67.4813 18.1469 67.0387 18.4688 66.375 18.4688V14.4688C65.6957 14.4688 65.2374 14.7984 65.0422 14.9676C64.8272 15.154 64.6932 15.348 64.617 15.4749C64.499 15.6717 64.3125 16.0551 64.3125 16.5625H68.3125ZM66.4701 18.4665C66.8281 18.4494 67.3429 18.415 67.8514 18.352C68.2829 18.2985 68.9729 18.1968 69.5204 17.9573L67.9171 14.2927C67.9779 14.2661 67.9656 14.2795 67.8254 14.3088C67.7047 14.3339 67.5468 14.3592 67.3596 14.3824C66.9852 14.4287 66.5782 14.4568 66.2799 14.471L66.4701 18.4665ZM70.2159 14.7989C69.3884 13.8647 68.1915 13.2857 67.0416 12.9083C65.8486 12.5168 64.4753 12.2684 63.0646 12.134L62.6854 16.116C63.8997 16.2316 64.9639 16.4363 65.7943 16.7089C66.6679 16.9956 67.0803 17.2916 67.2216 17.4511L70.2159 14.7989ZM60.9896 13.4578C59.5613 17.4943 57.4635 23.2779 55.6304 28.5503C53.8181 33.7632 52.1807 38.7084 51.7252 41.0195L55.6498 41.793C56.038 39.8228 57.5569 35.1899 59.4086 29.8638C61.2397 24.5971 63.3137 18.8807 64.7604 14.7922L60.9896 13.4578ZM51.7254 41.019C51.2513 43.4211 50.8799 46.0255 50.8443 47.4825L54.8432 47.58C54.8701 46.4745 55.1862 44.1414 55.6496 41.7935L51.7254 41.019ZM50.8438 47.5312C50.8438 47.6322 50.8183 47.3338 51.1238 47.0065C51.4513 46.6556 51.8245 46.625 51.9062 46.625V50.625C52.5505 50.625 53.3924 50.4382 54.048 49.7357C54.6817 49.0568 54.8438 48.2116 54.8438 47.5312H50.8438ZM78.0625 47.4375L77.0335 49.1525L77.0439 49.1587L78.0625 47.4375ZM76.6562 43.9062L74.716 43.4212L74.7096 43.4467L74.7039 43.4724L76.6562 43.9062ZM81.125 27.8438L79.2276 27.2113L79.2008 27.2919L79.1808 27.3745L81.125 27.8438ZM80.2812 23.8438L82.1479 23.1258L82.1245 23.0649L82.0972 23.0056L80.2812 23.8438ZM81.9688 20.2812L80.5545 21.6955L80.7375 21.8784L80.961 22.0088L81.9688 20.2812ZM83.4688 21.1562L82.461 22.8838L84.3171 23.9666L85.2641 22.0376L83.4688 21.1562ZM90.625 4.4375L92.4413 5.2748L94.8847 -0.0255642L89.704 2.66219L90.625 4.4375ZM81.3125 16.4688L79.3167 16.3383L79.3159 16.3513L81.3125 16.4688ZM79.0938 8.15625L77.2743 7.32565L77.2687 7.33814L79.0938 8.15625ZM103.375 2.96875L102.156 4.554L102.16 4.55701L103.375 2.96875ZM86.0625 29.9688L86.707 28.0755L84.8574 27.4458L84.1847 29.2802L86.0625 29.9688ZM82.5 48.125H80.5V48.1506L80.5007 48.1763L82.5 48.125ZM82.5312 49.3438H84.5312V49.3181L84.5306 49.2925L82.5312 49.3438ZM88.5938 24L86.6879 23.3936L85.8586 26H88.5938V24ZM101.469 15.2188L99.6949 14.2949L99.6905 14.3033L99.6862 14.3118L101.469 15.2188ZM102.438 8.375L100.712 9.38703L100.727 9.41122L100.742 9.435L102.438 8.375ZM96.3438 5.4375V3.4375H94.9927L94.4884 4.69082L96.3438 5.4375ZM82.3438 47.5C82.6124 47.5 82.6878 47.5737 82.3597 47.4444C82.1278 47.3531 81.8157 47.2098 81.4409 47.0215C80.6966 46.6476 79.8258 46.1571 79.0811 45.7163L77.0439 49.1587C77.8304 49.6242 78.7877 50.1649 79.6451 50.5957C80.071 50.8097 80.503 51.0122 80.8933 51.1659C81.1872 51.2818 81.7626 51.5 82.3438 51.5V47.5ZM79.0915 45.7225C78.746 45.5152 78.5312 45.1291 78.5312 44.75H74.5312C74.5312 46.5584 75.504 48.2348 77.0335 49.1525L79.0915 45.7225ZM78.5312 44.75C78.5312 44.7546 78.5309 44.73 78.5431 44.6569C78.5562 44.578 78.5753 44.4899 78.6086 44.3401L74.7039 43.4724C74.6504 43.7128 74.5312 44.2112 74.5312 44.75H78.5312ZM78.5965 44.3913C79.0075 42.7474 79.8921 39.685 80.8011 36.521C81.6979 33.3997 82.6191 30.1776 83.0692 28.313L79.1808 27.3745C78.7559 29.1349 77.8646 32.2566 76.9567 35.4165C76.061 38.5337 75.1487 41.6901 74.716 43.4212L78.5965 44.3913ZM83.0224 28.4762C83.2071 27.9219 83.1875 27.355 83.1875 27.2188H79.1875C79.1875 27.2468 79.1875 27.2697 79.1874 27.2918C79.1873 27.3134 79.1871 27.331 79.1869 27.3463C79.1863 27.3777 79.1854 27.3918 79.1852 27.3952C79.1849 27.3985 79.1859 27.3826 79.191 27.3535C79.1961 27.324 79.2066 27.2744 79.2276 27.2113L83.0224 28.4762ZM83.1875 27.2188C83.1875 26.2533 82.9181 25.2667 82.6938 24.5812C82.4663 23.8859 82.1884 23.2309 82.1479 23.1258L78.4146 24.5617C78.5304 24.8628 78.7055 25.2547 78.8921 25.825C79.0819 26.4051 79.1875 26.903 79.1875 27.2188H83.1875ZM82.0972 23.0056C82.0555 22.9152 82.0312 22.8067 82.0312 22.6562H78.0312C78.0312 23.2558 78.132 23.9598 78.4653 24.6819L82.0972 23.0056ZM82.0312 22.6562C82.0312 22.4851 82.1009 22.3166 82.2138 22.1815C82.27 22.1144 82.3085 22.0907 82.2978 22.0974C82.2913 22.1014 82.2529 22.1249 82.1801 22.1506C82.1143 22.1738 81.9643 22.2188 81.75 22.2188V18.2188C81.0844 18.2188 80.5331 18.4852 80.1905 18.6975C79.8047 18.9366 79.4488 19.2528 79.1455 19.6153C78.5397 20.3396 78.0312 21.3899 78.0312 22.6562H82.0312ZM81.75 22.2188C81.7852 22.2188 81.7554 22.2192 81.7175 22.2174C81.673 22.2152 81.5694 22.2083 81.4372 22.1789C81.2964 22.1477 81.1329 22.0932 80.9637 22.0009C80.7953 21.909 80.6597 21.8007 80.5545 21.6955L83.383 18.867C82.6664 18.1505 81.7691 18.2188 81.75 18.2188V22.2188ZM80.961 22.0088L82.461 22.8838L84.4765 19.4287L82.9765 18.5537L80.961 22.0088ZM85.2641 22.0376C86.5639 19.3898 87.8689 16.252 89.0859 13.2718C90.317 10.2572 91.4497 7.42585 92.4413 5.2748L88.8087 3.6002C87.7691 5.8554 86.5892 8.80531 85.3828 11.7595C84.1624 14.748 82.9048 17.7664 81.6734 20.2749L85.2641 22.0376ZM89.704 2.66219C87.3699 3.87312 84.9134 5.86274 82.9858 8.19448C81.0781 10.5022 79.5112 13.3626 79.3168 16.3383L83.3082 16.5992C83.4263 14.7936 84.4375 12.7165 86.0688 10.743C87.6804 8.79351 89.7239 7.15813 91.546 6.21281L89.704 2.66219ZM79.3159 16.3513C79.3077 16.4918 79.2904 16.3138 79.4501 16.0387C79.5426 15.8794 79.7116 15.6598 79.9944 15.4823C80.2886 15.2976 80.611 15.2188 80.9062 15.2188V19.2188C81.8419 19.2188 82.5419 18.6799 82.9093 18.0472C83.2096 17.53 83.2861 16.9769 83.3091 16.5862L79.3159 16.3513ZM80.9062 15.2188C81.4371 15.2188 81.7518 15.4598 81.7887 15.4877C81.858 15.5403 81.8536 15.5537 81.788 15.4688C81.6615 15.3051 81.4672 14.9848 81.2628 14.5099C80.8553 13.5634 80.5312 12.2933 80.5312 11.0625H76.5312C76.5312 12.9255 77.0041 14.7335 77.5888 16.0916C77.8804 16.7691 78.2311 17.4078 78.6231 17.915C78.8168 18.1655 79.0651 18.4423 79.3711 18.6745C79.6446 18.882 80.1801 19.2188 80.9062 19.2188V15.2188ZM80.5312 11.0625C80.5312 10.2608 80.6578 9.55658 80.9188 8.97436L77.2687 7.33814C76.7172 8.56842 76.5312 9.86415 76.5312 11.0625H80.5312ZM80.9131 8.98684C81.6238 7.4302 83.5052 5.74372 86.1174 4.41562C88.6809 3.11225 91.582 2.34375 93.9062 2.34375V-1.65625C90.8242 -1.65625 87.3035 -0.674746 84.3045 0.850008C81.3542 2.35004 78.5325 4.5698 77.2744 7.32566L80.9131 8.98684ZM93.9062 2.34375H94.5938V-1.65625H93.9062V2.34375ZM94.5938 2.34375C97.5858 2.34375 100.172 3.02781 102.156 4.554L104.594 1.3835C101.703 -0.840315 98.1642 -1.65625 94.5938 -1.65625V2.34375ZM102.16 4.55701C104.614 6.43515 105.594 9.08867 105.594 12.0938H109.594C109.594 8.16133 108.261 4.18985 104.59 1.38049L102.16 4.55701ZM105.594 12.0938C105.594 20.6845 98.713 28.6875 90.5 28.6875V32.6875C101.35 32.6875 109.594 22.4405 109.594 12.0938H105.594ZM90.5 28.6875C89.2299 28.6875 87.9496 28.4984 86.707 28.0755L85.418 31.862C87.1129 32.4391 88.8326 32.6875 90.5 32.6875V28.6875ZM84.1847 29.2802C83.4493 31.286 82.5353 34.7054 81.8075 38.2062C81.0831 41.6902 80.5 45.4575 80.5 48.125H84.5C84.5 45.8862 85.0106 42.4505 85.7238 39.0204C86.4334 35.6071 87.3007 32.4015 87.9403 30.6573L84.1847 29.2802ZM80.5007 48.1763L80.5319 49.395L84.5306 49.2925L84.4993 48.0737L80.5007 48.1763ZM80.5312 49.3438C80.5312 48.9256 80.6871 48.3721 81.1674 47.9519C81.6127 47.5622 82.0949 47.5 82.3438 47.5V51.5C82.7176 51.5 83.2935 51.4066 83.8014 50.9622C84.3442 50.4872 84.5312 49.8557 84.5312 49.3438H80.5312ZM88.5938 26C95.5924 26 100.301 21.9243 103.251 16.1257L99.6862 14.3118C97.1989 19.2007 93.6576 22 88.5938 22V26ZM103.243 16.1426C103.963 14.7599 105.062 12.7402 105.062 10.5938H101.062C101.062 11.5723 100.537 12.6776 99.6949 14.2949L103.243 16.1426ZM105.062 10.5938C105.062 9.56346 104.832 8.43258 104.133 7.315L100.742 9.435C100.981 9.81742 101.062 10.1865 101.062 10.5938H105.062ZM104.163 7.36297C102.259 4.11815 99.0441 3.4375 96.3438 3.4375V7.4375C98.4559 7.4375 99.8661 7.94435 100.712 9.38703L104.163 7.36297ZM94.4884 4.69082C93.9854 5.94066 92.4669 9.29525 90.8222 13.0774C89.2141 16.7751 87.4903 20.8719 86.6879 23.3936L90.4996 24.6064C91.2285 22.3156 92.864 18.4124 94.4903 14.6726C96.0799 11.0173 97.6709 7.49684 98.1991 6.18418L94.4884 4.69082ZM111.812 42.1562L109.947 41.4355L109.93 41.4793L109.915 41.5238L111.812 42.1562ZM113.5 37.8438L115.349 38.6073L111.883 36.6666L113.5 37.8438ZM104.906 46.3438L104.44 44.399L104.415 44.4048L104.391 44.4113L104.906 46.3438ZM99.2188 40.125L101.088 40.837L101.09 40.8308L99.2188 40.125ZM109.375 31.0625L111.172 31.9402L111.375 31.5248V31.0625H109.375ZM105.688 41.8438L105.359 43.8165L105.522 43.8438H105.688V41.8438ZM116.969 28.8438L118.383 30.258L118.969 29.6722V28.8438H116.969ZM122.625 31.0625L124.499 31.7611L124.625 31.4231V31.0625H122.625ZM118.938 41.8438L116.981 41.4287L116.836 42.1128L117.149 42.7382L118.938 41.8438ZM118.969 41.9062L117.18 42.8007L117.733 43.9062H118.969V41.9062ZM134.969 31.1562L136.866 31.7887L136.969 31.4808V31.1562H134.969ZM134.906 31.3438L136.498 32.5548L136.699 32.2908L136.804 31.9762L134.906 31.3438ZM119.688 45.7188L118.294 44.2842L118.284 44.2943L118.273 44.3045L119.688 45.7188ZM117.062 44.75C116.288 44.75 115.363 44.4149 114.63 43.8648C114.274 43.5981 114.022 43.3236 113.872 43.0919C113.719 42.8552 113.719 42.7402 113.719 42.75H109.719C109.719 44.6265 111.004 46.1459 112.23 47.0648C113.528 48.0382 115.275 48.75 117.062 48.75V44.75ZM113.719 42.75C113.719 42.7581 113.718 42.7615 113.718 42.7609C113.719 42.7604 113.719 42.7589 113.719 42.7572C113.719 42.7555 113.719 42.7562 113.718 42.7598C113.718 42.7633 113.715 42.773 113.71 42.7887L109.915 41.5238C109.778 41.9358 109.719 42.3703 109.719 42.75H113.719ZM113.678 42.877C114.219 41.4766 114.766 40.0165 115.349 38.6073L111.651 37.0802C111.046 38.546 110.468 40.0859 109.947 41.4355L113.678 42.877ZM111.883 36.6666C110.483 38.5892 108.981 40.4917 107.571 41.9644C106.866 42.7008 106.216 43.296 105.641 43.7255C105.043 44.1722 104.645 44.3496 104.44 44.399L105.373 48.2885C106.339 48.0566 107.246 47.5193 108.035 46.9298C108.847 46.3231 109.665 45.5609 110.46 44.7309C112.05 43.0708 113.673 41.0046 115.117 39.0209L111.883 36.6666ZM104.391 44.4113C104.15 44.4755 103.901 44.5 103.562 44.5V48.5C104.099 48.5 104.725 48.462 105.422 48.2762L104.391 44.4113ZM103.562 44.5C101.921 44.5 100.844 43.3388 100.844 42H96.8438C96.8438 45.7237 99.8916 48.5 103.562 48.5V44.5ZM100.844 42C100.844 41.6896 100.909 41.3065 101.088 40.837L97.3498 39.413C97.0286 40.256 96.8438 41.1229 96.8438 42H100.844ZM101.09 40.8308C102.104 38.1432 103.202 35.5918 104.067 33.5553C104.495 32.5492 104.874 31.6471 105.147 30.9353C105.283 30.5803 105.405 30.2411 105.495 29.9418C105.566 29.7051 105.688 29.2796 105.688 28.8438H101.688C101.688 28.6345 101.734 28.5605 101.665 28.787C101.616 28.9507 101.533 29.1863 101.412 29.5041C101.169 30.138 100.818 30.9742 100.386 31.9916C99.5319 34.002 98.3963 36.6381 97.3474 39.4192L101.09 40.8308ZM105.688 28.8438V28.7812H101.688V28.8438H105.688ZM105.688 28.7812C105.688 29.0922 105.595 29.4241 105.394 29.7139C105.206 29.9863 104.983 30.1352 104.838 30.2093C104.587 30.3382 104.442 30.3125 104.562 30.3125V26.3125C104.152 26.3125 103.569 26.3649 103.013 26.6501C102.358 26.986 101.688 27.7061 101.688 28.7812H105.688ZM104.562 30.3125C104.957 30.3125 105.853 30.5204 106.686 30.9286C107.084 31.1238 107.346 31.3071 107.476 31.4296C107.653 31.5959 107.375 31.4302 107.375 30.9375H111.375C111.375 29.7885 110.695 28.9666 110.218 28.5176C109.695 28.025 109.053 27.634 108.447 27.337C107.272 26.7608 105.761 26.3125 104.562 26.3125V30.3125ZM107.375 30.9375V31.0625H111.375V30.9375H107.375ZM109.375 31.0625C107.578 30.1848 107.578 30.185 107.578 30.1851C107.578 30.1852 107.578 30.1854 107.577 30.1856C107.577 30.1859 107.577 30.1864 107.577 30.1871C107.576 30.1883 107.575 30.19 107.574 30.1922C107.572 30.1966 107.569 30.2029 107.565 30.2111C107.557 30.2275 107.546 30.2514 107.531 30.2823C107.501 30.3441 107.457 30.4342 107.402 30.5491C107.292 30.7788 107.135 31.1082 106.948 31.5098C106.573 32.3118 106.072 33.4078 105.569 34.5771C105.068 35.7411 104.555 37.0037 104.163 38.1323C103.807 39.16 103.438 40.3798 103.438 41.3125H107.438C107.438 41.3159 107.438 41.2683 107.456 41.1547C107.474 41.0461 107.503 40.9052 107.547 40.73C107.635 40.3777 107.769 39.9436 107.942 39.4439C108.289 38.4456 108.76 37.2823 109.244 36.1573C109.725 35.0375 110.208 33.9812 110.572 33.2031C110.753 32.8147 110.904 32.497 111.009 32.2773C111.062 32.1675 111.103 32.0822 111.131 32.0249C111.145 31.9962 111.155 31.9745 111.162 31.9603C111.166 31.9531 111.168 31.9479 111.17 31.9445C111.171 31.9428 111.171 31.9416 111.172 31.9409C111.172 31.9405 111.172 31.9403 111.172 31.9402C111.172 31.9401 111.172 31.9401 111.172 31.9401C111.172 31.9401 111.172 31.9402 109.375 31.0625ZM103.438 41.3125C103.438 41.5412 103.451 42.0039 103.658 42.481C103.928 43.1012 104.504 43.6741 105.359 43.8165L106.016 39.871C106.286 39.916 106.584 40.0338 106.85 40.2551C107.106 40.4686 107.25 40.7095 107.326 40.8861C107.456 41.1836 107.438 41.3963 107.438 41.3125H103.438ZM105.688 43.8438H105.75V39.8438H105.688V43.8438ZM105.75 43.8438C106.326 43.8438 106.789 43.6361 107.054 43.4943C107.348 43.3371 107.615 43.1421 107.841 42.9567C108.296 42.585 108.776 42.0982 109.247 41.5786C110.199 40.5304 111.312 39.1309 112.425 37.6934C114.736 34.7088 117.002 31.6391 118.383 30.258L115.555 27.4295C113.936 29.0484 111.404 32.4787 109.263 35.2441C108.149 36.6816 107.121 37.9696 106.286 38.8901C105.864 39.3549 105.538 39.6729 105.31 39.8597C105.195 39.9536 105.15 39.9764 105.167 39.9672C105.179 39.961 105.23 39.9346 105.315 39.9078C105.398 39.8815 105.549 39.8438 105.75 39.8438V43.8438ZM118.969 28.8438V28.7812H114.969V28.8438H118.969ZM118.969 28.7812C118.969 29.0917 118.877 29.4193 118.682 29.7046C118.498 29.9731 118.28 30.1231 118.135 30.1995C117.879 30.3341 117.723 30.3125 117.812 30.3125V26.3125C117.402 26.3125 116.824 26.369 116.272 26.6599C115.628 26.9984 114.969 27.7154 114.969 28.7812H118.969ZM117.812 30.3125C118.208 30.3125 119.105 30.5207 119.942 30.9275C120.342 31.122 120.605 31.3045 120.737 31.4263C120.92 31.5969 120.625 31.4222 120.625 30.9062H124.625C124.625 29.7496 123.927 28.9304 123.458 28.4946C122.936 28.01 122.295 27.6241 121.691 27.3304C120.52 26.7605 119.011 26.3125 117.812 26.3125V30.3125ZM120.625 30.9062V31.0625H124.625V30.9062H120.625ZM122.625 31.0625C120.751 30.3639 120.751 30.364 120.751 30.3641C120.751 30.3642 120.751 30.3643 120.751 30.3645C120.751 30.3648 120.75 30.3652 120.75 30.3658C120.75 30.3669 120.749 30.3686 120.748 30.3708C120.747 30.3751 120.744 30.3816 120.741 30.39C120.735 30.4069 120.726 30.4319 120.714 30.4644C120.689 30.5295 120.654 30.625 120.609 30.747C120.519 30.9911 120.389 31.3416 120.233 31.7685C119.92 32.622 119.497 33.7827 119.061 35.0093C118.217 37.383 117.234 40.234 116.981 41.4287L120.894 42.2588C121.078 41.391 121.94 38.8513 122.83 36.3501C123.26 35.1392 123.678 33.9913 123.988 33.1455C124.143 32.7229 124.271 32.3761 124.36 32.1353C124.405 32.0149 124.44 31.921 124.463 31.8574C124.475 31.8256 124.484 31.8013 124.49 31.7851C124.493 31.777 124.495 31.7709 124.497 31.7669C124.498 31.7649 124.498 31.7634 124.499 31.7624C124.499 31.7619 124.499 31.7616 124.499 31.7613C124.499 31.7612 124.499 31.7612 124.499 31.7611C124.499 31.7611 124.499 31.7611 122.625 31.0625ZM117.149 42.7382L117.18 42.8007L120.758 41.0118L120.726 40.9493L117.149 42.7382ZM118.969 43.9062C119.424 43.9062 119.775 43.7505 119.851 43.7179C119.994 43.6565 120.12 43.5875 120.213 43.5335C120.403 43.423 120.609 43.2853 120.808 43.1449C121.215 42.8586 121.73 42.4651 122.308 42.008C123.471 41.0884 124.972 39.8427 126.531 38.515C129.633 35.8737 133.071 32.8202 134.602 31.2892L131.773 28.4608C130.367 29.8673 127.039 32.8294 123.938 35.4693C122.396 36.7823 120.936 37.9936 119.827 38.8709C119.269 39.3123 118.821 39.6521 118.505 39.8746C118.343 39.9886 118.248 40.0492 118.206 40.0733C118.183 40.0867 118.21 40.069 118.273 40.0422C118.305 40.0284 118.372 40.0011 118.464 39.975C118.544 39.9525 118.727 39.9062 118.969 39.9062V43.9062ZM134.602 31.2892C134.538 31.3527 134.421 31.4506 134.243 31.5309C134.058 31.6141 133.855 31.6562 133.656 31.6562V27.6562C132.886 27.6562 132.241 27.9932 131.773 28.4608L134.602 31.2892ZM133.656 31.6562C133.286 31.6562 133.062 31.5151 133.016 31.4844C132.957 31.4456 132.955 31.4309 132.985 31.4681C132.996 31.482 133.007 31.4977 133.017 31.5129C133.026 31.5284 133.03 31.5369 133.029 31.5353C133.029 31.534 133.026 31.5281 133.022 31.5173C133.018 31.5066 133.012 31.4884 133.005 31.4628C132.994 31.4199 132.969 31.3124 132.969 31.1562H136.969C136.969 30.6311 136.806 30.1778 136.674 29.8866C136.527 29.5621 136.332 29.2484 136.109 28.9694C135.888 28.6941 135.597 28.3981 135.234 28.1562C134.884 27.9224 134.339 27.6562 133.656 27.6562V31.6562ZM133.071 30.5238L133.009 30.7113L136.804 31.9762L136.866 31.7887L133.071 30.5238ZM133.315 30.1327C133.315 30.1317 133.301 30.1497 133.265 30.1913C133.231 30.231 133.185 30.2823 133.125 30.3464C133.006 30.4752 132.849 30.6379 132.654 30.8341C132.264 31.2261 131.753 31.7233 131.147 32.3013C129.938 33.4559 128.387 34.9 126.759 36.4073C123.523 39.4021 119.958 42.6681 118.294 44.2842L121.081 47.1533C122.699 45.5819 126.196 42.3791 129.476 39.3427C131.105 37.8343 132.676 36.3723 133.909 35.1948C135.072 34.0846 136.104 33.0728 136.498 32.5548L133.315 30.1327ZM118.273 44.3045C117.992 44.5854 117.597 44.75 117.062 44.75V48.75C118.466 48.75 119.945 48.2896 121.102 47.133L118.273 44.3045ZM125.188 43.8438H123.188V43.9361L123.196 44.0281L125.188 43.8438ZM133.156 27.7812L131.195 27.389L131.192 27.4022L131.19 27.4154L133.156 27.7812ZM138.312 30.0938L140.253 30.5788L140.312 30.34V30.0938H138.312ZM137.875 31.0938L136.086 30.1993L139.258 32.5382L137.875 31.0938ZM143.906 26.6875L143.747 24.6939L143.49 24.7144L143.248 24.7991L143.906 26.6875ZM144.688 26.625V24.625H144.608L144.528 24.6314L144.688 26.625ZM150.031 29.6562L152.011 29.3734L151.964 29.0467L151.815 28.7523L150.031 29.6562ZM150.062 29.875H152.062V29.7329L152.042 29.5922L150.062 29.875ZM144.781 42.6875L142.924 41.9447L140.337 48.4121L145.961 44.3023L144.781 42.6875ZM158.844 30.7188L157.644 29.1188L157.605 29.1479L157.567 29.179L158.844 30.7188ZM160.625 32.25L158.836 31.3556L158.825 31.3777L158.815 31.4002L160.625 32.25ZM145.75 45.9062L147.227 47.2548L147.23 47.2516L145.75 45.9062ZM137.719 41.5938L135.839 40.9119L135.83 40.9365L135.821 40.9613L137.719 41.5938ZM143.375 29.6562L145.012 30.8055L142.24 28.0092L143.375 29.6562ZM133.375 40.1562L131.69 39.0787L131.596 39.2258L131.529 39.387L133.375 40.1562ZM131.562 46.5938L133.556 46.7598L133.556 46.7571L131.562 46.5938ZM130.562 45.1562C130.147 45.1562 129.184 44.9067 128.252 44.3865C127.813 44.1412 127.486 43.8926 127.289 43.6873C127.069 43.4585 127.159 43.4447 127.179 43.6594L123.196 44.0281C123.294 45.0866 123.876 45.9087 124.405 46.4592C124.957 47.0332 125.636 47.5072 126.302 47.8791C127.582 48.5933 129.228 49.1562 130.562 49.1562V45.1562ZM127.188 43.8438V43.5312H123.188V43.8438H127.188ZM127.188 43.5312C127.188 42.8481 127.508 41.7104 128.215 40.1686C128.894 38.6901 129.818 37.0685 130.783 35.4944C131.75 33.9178 132.713 32.4579 133.489 31.2472C133.869 30.6547 134.213 30.1078 134.474 29.6573C134.604 29.4325 134.728 29.2054 134.83 28.9919C134.914 28.8172 135.056 28.5028 135.123 28.1471L131.19 27.4154C131.225 27.2277 131.278 27.1476 131.221 27.267C131.183 27.3476 131.115 27.4742 131.01 27.6561C130.801 28.0189 130.501 28.4972 130.122 29.0878C129.381 30.2433 128.368 31.7814 127.373 33.404C126.377 35.0291 125.356 36.8079 124.58 38.5003C123.832 40.1294 123.188 41.9332 123.188 43.5312H127.188ZM135.117 28.1735C134.993 28.7957 134.605 29.1656 134.353 29.3361C134.124 29.4919 133.93 29.542 133.884 29.5536C133.785 29.5781 133.787 29.5625 133.969 29.5625V25.5625C133.682 25.5625 133.293 25.5782 132.913 25.673C132.726 25.7197 132.419 25.8147 132.107 26.0262C131.774 26.2524 131.335 26.6887 131.195 27.389L135.117 28.1735ZM133.969 29.5625C134.439 29.5625 135.253 29.6955 135.888 29.9695C136.201 30.1042 136.352 30.223 136.399 30.2719C136.421 30.2943 136.312 30.18 136.312 29.9688H140.312C140.312 27.8172 138.488 26.7342 137.471 26.2962C136.294 25.7888 134.936 25.5625 133.969 25.5625V29.5625ZM136.312 29.9688V30.0938H140.312V29.9688H136.312ZM136.372 29.6087C136.385 29.5559 136.397 29.5221 136.398 29.5181C136.401 29.5102 136.401 29.5113 136.396 29.5236C136.387 29.5484 136.368 29.5936 136.34 29.6603C136.283 29.7926 136.197 29.9772 136.086 30.1993L139.664 31.9882C139.803 31.7103 139.921 31.4574 140.012 31.246C140.083 31.0824 140.193 30.8194 140.253 30.5788L136.372 29.6087ZM139.258 32.5382C140.31 31.5311 141.415 30.6044 142.4 29.8837C143.43 29.1295 144.186 28.7081 144.565 28.5759L143.248 24.7991C142.283 25.1357 141.132 25.8549 140.038 26.6554C138.898 27.4893 137.659 28.5314 136.492 29.6493L139.258 32.5382ZM144.066 28.6811L144.847 28.6186L144.528 24.6314L143.747 24.6939L144.066 28.6811ZM144.688 28.625C146.06 28.625 147.532 29.1493 148.247 30.5602L151.815 28.7523C150.155 25.4757 146.878 24.625 144.688 24.625V28.625ZM148.051 29.9391L148.083 30.1578L152.042 29.5922L152.011 29.3734L148.051 29.9391ZM148.062 29.875C148.062 29.8624 148.056 30.0015 147.958 30.3619C147.868 30.6913 147.729 31.1068 147.542 31.6018C147.169 32.5912 146.648 33.7864 146.071 35.0535C144.955 37.5028 143.571 40.3283 142.924 41.9447L146.638 43.4303C147.242 41.9217 148.499 39.3722 149.711 36.7121C150.297 35.4245 150.863 34.1314 151.284 33.0135C151.495 32.4547 151.681 31.9117 151.816 31.4171C151.943 30.9535 152.062 30.4032 152.062 29.875H148.062ZM145.961 44.3023C147.265 43.3499 150.266 40.7786 153.145 38.2854C156.085 35.7397 158.955 33.2246 160.12 32.2585L157.567 29.179C156.358 30.1816 153.415 32.7603 150.527 35.2615C147.578 37.8152 144.735 40.2439 143.601 41.0727L145.961 44.3023ZM160.044 32.3187C159.902 32.4253 159.772 32.481 159.677 32.5113C159.578 32.5429 159.467 32.5625 159.344 32.5625V28.5625C158.763 28.5625 158.145 28.7427 157.644 29.1188L160.044 32.3187ZM159.344 32.5625C159.241 32.5625 159.179 32.5437 159.154 32.5346C159.126 32.5246 159.096 32.5098 159.06 32.482C159.012 32.4449 158.75 32.2126 158.75 31.75H162.75C162.75 30.5999 162.098 29.7739 161.503 29.3149C160.913 28.8601 160.139 28.5625 159.344 28.5625V32.5625ZM158.75 31.75C158.75 31.6892 158.757 31.6106 158.777 31.525C158.797 31.4416 158.822 31.3833 158.836 31.3556L162.414 33.1444C162.644 32.6839 162.75 32.222 162.75 31.75H158.75ZM158.815 31.4002C158.882 31.2568 158.927 31.2266 158.811 31.367C158.724 31.4735 158.589 31.6243 158.399 31.8224C158.021 32.2168 157.496 32.7261 156.853 33.3252C155.572 34.5201 153.902 36.0005 152.186 37.5034C150.488 38.9905 148.718 40.5241 147.312 41.7607C145.944 42.9632 144.756 44.0269 144.27 44.5609L147.23 47.2516C147.526 46.9262 148.497 46.0446 149.953 44.7647C151.37 43.5189 153.086 42.0329 154.822 40.5122C156.54 39.0074 158.25 37.4916 159.581 36.2509C160.245 35.6323 160.833 35.0639 161.288 34.5895C161.514 34.3531 161.725 34.1216 161.902 33.9066C162.051 33.7255 162.278 33.4346 162.435 33.0998L158.815 31.4002ZM144.273 44.5577C144.021 44.8341 143.757 44.9375 143.406 44.9375V48.9375C144.805 48.9375 146.167 48.4159 147.227 47.2548L144.273 44.5577ZM143.406 44.9375C142.699 44.9375 141.698 44.5273 140.808 43.7655C140.386 43.404 140.061 43.0226 139.855 42.6871C139.635 42.33 139.625 42.1502 139.625 42.1562H135.625C135.625 43.1467 136.002 44.0567 136.446 44.7807C136.904 45.5262 137.521 46.2171 138.208 46.8048C139.536 47.9414 141.426 48.9375 143.406 48.9375V44.9375ZM139.625 42.1562C139.625 42.1494 139.625 42.1527 139.624 42.1635C139.623 42.1749 139.622 42.1896 139.619 42.206C139.616 42.2222 139.613 42.2342 139.612 42.24C139.61 42.245 139.611 42.2417 139.616 42.2262L135.821 40.9613C135.701 41.3227 135.625 41.693 135.625 42.1562H139.625ZM139.599 42.2756C140.08 40.9488 141.201 38.4043 142.355 35.9643C143.538 33.4623 144.616 31.3687 145.012 30.8055L141.738 28.507C141.102 29.4126 139.868 31.8658 138.739 34.2544C137.58 36.705 136.389 39.395 135.839 40.9119L139.599 42.2756ZM142.24 28.0092C140.697 29.0725 135.317 33.408 131.69 39.0787L135.06 41.2338C138.308 36.1545 143.241 32.1775 144.51 31.3033L142.24 28.0092ZM131.529 39.387C130.563 41.7043 129.751 44.2134 129.569 46.4304L133.556 46.7571C133.687 45.1616 134.312 43.1082 135.221 40.9255L131.529 39.387ZM129.569 46.4277C129.589 46.1918 129.671 45.9336 129.834 45.6991C129.992 45.472 130.177 45.3354 130.316 45.2598C130.557 45.1283 130.694 45.1562 130.562 45.1562V49.1562C131.025 49.1562 131.646 49.0905 132.231 48.7714C132.912 48.3998 133.477 47.7048 133.556 46.7598L129.569 46.4277ZM157.406 46.0312L158.42 44.3074L158.413 44.3029L157.406 46.0312ZM162.562 28.6562L162.866 30.6331L162.879 30.6312L162.891 30.629L162.562 28.6562ZM168.594 34.9688L166.838 34.011L166.832 34.0225L166.826 34.0341L168.594 34.9688ZM161.469 37.7188L162.738 36.1733L161.099 34.8268L159.851 36.5424L161.469 37.7188ZM161.812 43.875V45.875L161.825 45.875L161.812 43.875ZM179.875 30.4062L181.088 31.9962L181.195 31.915L181.289 31.8205L179.875 30.4062ZM181.438 31.7812L182.852 33.1955L182.992 33.0554L183.102 32.8907L181.438 31.7812ZM165.125 35.5625L166.71 36.7819L166.716 36.7751L166.721 36.7682L165.125 35.5625ZM166.344 31.25V29.25H166.019L165.711 29.3526L166.344 31.25ZM166.25 31.2812L165.618 29.3839L165.601 29.3894L165.584 29.3953L166.25 31.2812ZM163.438 34.1875L161.682 33.2298L161.665 33.2611L161.649 33.2931L163.438 34.1875ZM160.781 44.9688C159.964 44.9688 159.188 44.7588 158.42 44.3074L156.392 47.7551C157.75 48.5537 159.223 48.9688 160.781 48.9688V44.9688ZM158.413 44.3029C156.665 43.2851 155.875 41.6069 155.875 39.625H151.875C151.875 42.7681 153.21 45.9024 156.4 47.7596L158.413 44.3029ZM155.875 39.625C155.875 37.7927 156.532 35.6663 157.782 33.9232C159.017 32.1997 160.749 30.9579 162.866 30.6331L162.259 26.6794C158.876 27.1983 156.264 29.1753 154.531 31.5924C152.812 33.9899 151.875 36.9261 151.875 39.625H155.875ZM162.891 30.629C163.647 30.5031 163.877 30.4375 164.156 30.4375V26.4375C163.436 26.4375 162.603 26.6219 162.234 26.6835L162.891 30.629ZM164.156 30.4375C166.045 30.4375 167.125 31.7796 167.125 32.9062H171.125C171.125 29.2829 167.955 26.4375 164.156 26.4375V30.4375ZM167.125 32.9062C167.125 33.2722 167.047 33.6286 166.838 34.011L170.35 35.9265C170.891 34.9339 171.125 33.9153 171.125 32.9062H167.125ZM166.826 34.0341C165.729 36.1081 164.644 36.75 164 36.75V40.75C167.044 40.75 169.146 38.2044 170.362 35.9034L166.826 34.0341ZM164 36.75C163.745 36.75 163.336 36.6643 162.738 36.1733L160.199 39.2642C161.352 40.2107 162.63 40.75 164 40.75V36.75ZM159.851 36.5424C159.367 37.2079 159.059 38.1257 158.87 38.9001C158.666 39.7345 158.531 40.6918 158.531 41.5938H162.531C162.531 41.0582 162.616 40.4218 162.755 39.8499C162.824 39.5682 162.9 39.3281 162.973 39.1438C163.051 38.9433 163.099 38.8769 163.086 38.8951L159.851 36.5424ZM158.531 41.5938C158.531 42.3264 158.614 43.2463 158.996 44.0564C159.198 44.4841 159.517 44.9534 160.021 45.3165C160.545 45.6947 161.156 45.875 161.781 45.875V41.875C161.938 41.875 162.158 41.9264 162.36 42.0722C162.542 42.2029 162.607 42.3362 162.614 42.3499C162.619 42.3606 162.593 42.3075 162.569 42.1591C162.546 42.0164 162.531 41.8276 162.531 41.5938H158.531ZM161.781 45.875H161.812V41.875H161.781V45.875ZM161.825 45.875C162.835 45.8687 163.854 45.5606 164.782 45.1625C165.731 44.7552 166.716 44.1961 167.693 43.5622C169.645 42.2948 171.714 40.6278 173.61 38.9774C175.514 37.3198 177.289 35.6406 178.651 34.3297C179.388 33.6202 179.858 33.1607 180.352 32.6854C180.573 32.4727 180.752 32.3025 180.89 32.1744C181.047 32.0298 181.099 31.9882 181.088 31.9962L178.662 28.8163C178.399 29.0167 177.984 29.4133 177.579 29.8024C177.18 30.186 176.493 30.8544 175.877 31.4477C174.532 32.7422 172.814 34.3677 170.984 35.9601C169.146 37.5597 167.238 39.088 165.514 40.2073C164.653 40.7668 163.875 41.1989 163.205 41.4865C162.513 41.7832 162.056 41.8735 161.8 41.875L161.825 45.875ZM181.289 31.8205C180.844 32.2653 180.34 32.3125 180.156 32.3125V28.3125C179.723 28.3125 179.031 28.4222 178.461 28.992L181.289 31.8205ZM180.156 32.3125C179.891 32.3125 179.742 32.2372 179.74 32.2362C179.717 32.2253 179.723 32.2257 179.74 32.2397C179.758 32.2558 179.737 32.2436 179.697 32.1804C179.67 32.1365 179.531 31.908 179.531 31.5312H183.531C183.531 30.8889 183.287 30.3752 183.085 30.053C182.87 29.7115 182.605 29.4278 182.346 29.2057C181.916 28.8355 181.118 28.3125 180.156 28.3125V32.3125ZM179.531 31.5312C179.531 31.3292 179.57 31.1157 179.651 30.9135C179.716 30.7517 179.788 30.6493 179.773 30.6718L183.102 32.8907C183.231 32.6973 183.531 32.2262 183.531 31.5312H179.531ZM180.023 30.367C175.908 34.4822 172.264 38.1848 168.937 40.8793C165.541 43.629 162.892 44.9688 160.781 44.9688V48.9688C164.389 48.9688 167.99 46.7929 171.454 43.9879C174.986 41.1277 178.811 37.2366 182.852 33.1955L180.023 30.367ZM163.438 38.5625C163.918 38.5625 164.333 38.4302 164.602 38.3239C164.897 38.2077 165.171 38.0603 165.408 37.9132C165.843 37.6427 166.355 37.2435 166.71 36.7819L163.54 34.3431C163.564 34.312 163.575 34.3019 163.565 34.3118C163.557 34.3201 163.539 34.3371 163.511 34.361C163.452 34.4103 163.376 34.4663 163.295 34.5165C163.212 34.5686 163.154 34.595 163.134 34.6029C163.126 34.6061 163.143 34.5987 163.183 34.5893C163.219 34.5807 163.309 34.5625 163.438 34.5625V38.5625ZM166.721 36.7682C167.957 35.1315 168.656 33.2493 168.656 31.9062H164.656C164.656 31.9054 164.656 31.9113 164.655 31.9242C164.655 31.937 164.653 31.9552 164.65 31.9789C164.644 32.0268 164.633 32.091 164.615 32.171C164.579 32.3322 164.518 32.5364 164.426 32.7729C164.241 33.2475 163.947 33.8044 163.529 34.3568L166.721 36.7682ZM168.656 31.9062C168.656 31.5373 168.605 31.0407 168.371 30.5563C168.136 30.0678 167.503 29.25 166.344 29.25V33.25C165.372 33.25 164.896 32.5572 164.769 32.2953C164.701 32.153 164.675 32.0418 164.666 31.9901C164.661 31.9609 164.658 31.9393 164.657 31.9264C164.656 31.9133 164.656 31.9064 164.656 31.9062H168.656ZM165.711 29.3526L165.618 29.3839L166.882 33.1786L166.976 33.1474L165.711 29.3526ZM165.584 29.3953C165.081 29.573 164.629 29.9333 164.397 30.1232C164.086 30.3784 163.752 30.6891 163.432 31.0135C162.828 31.6255 162.099 32.4645 161.682 33.2298L165.193 35.1452C165.338 34.8792 165.75 34.3588 166.279 33.8225C166.526 33.5727 166.756 33.3619 166.934 33.2157C167.024 33.1421 167.083 33.0995 167.111 33.0807C167.164 33.0454 167.085 33.1075 166.916 33.1672L165.584 29.3953ZM161.649 33.2931C161.57 33.4504 161.389 33.8093 161.23 34.2265C161.087 34.5989 160.875 35.2311 160.875 35.9062H164.875C164.875 35.9718 164.866 35.9788 164.883 35.9094C164.898 35.8475 164.925 35.7622 164.966 35.6563C165.048 35.4407 165.149 35.2371 165.226 35.0819L161.649 33.2931ZM160.875 35.9062C160.875 36.2573 160.932 36.7242 161.178 37.198C161.439 37.7022 161.846 38.0808 162.324 38.3201L164.113 34.7424C164.342 34.8567 164.577 35.0634 164.729 35.3567C164.865 35.6195 164.875 35.8364 164.875 35.9062H160.875ZM162.324 38.3201C162.614 38.4651 162.885 38.523 163.096 38.5464C163.263 38.565 163.423 38.5625 163.438 38.5625V34.5625C163.408 34.5625 163.412 34.5624 163.421 34.5626C163.433 34.5629 163.477 34.5641 163.537 34.5708C163.677 34.5864 163.886 34.6287 164.113 34.7424L162.324 38.3201Z" fill="black" mask="url(#path-1-outside-1_5088_3)"/>
</svg>
