<svg width="808" height="100" viewBox="0 0 808 100" fill="none" xmlns="http://www.w3.org/2000/svg">
<path d="M794.5 94C831 94 778 82 778 82C743.12 83.4338 610.368 9.98877 573.5 14.5C565.703 15.9418 555.826 14.859 548 9.89536C535.754 0.837573 523.161 -0.0821788 498 0.234997C488.435 -0.612338 483.915 0.642238 478 7.13525C472.135 14.9851 462.754 10.9353 446.5 4.37515C435.879 -0.819517 430.311 -2.01781 423 7.13525C419.437 12.2118 415.943 14.1864 405 14.9555C378.065 17.4645 363.159 19.5018 337.5 25.996L0 9.89536L195 100C195 100 758 94 794.5 94Z" fill="#FFB260"/>
</svg>
