<svg width="1453" height="155" viewBox="0 0 1453 155" fill="none" xmlns="http://www.w3.org/2000/svg">
<path d="M264.506 107C283.541 103.863 385.58 33.8234 403.947 32.2372C408.098 31.5151 410.632 29.9288 415.932 22.6346C421.29 15.8589 425.391 16.4354 433.31 19.891C445.146 25.7968 451.119 27.3983 461.475 29.4936C464.531 28.9065 466.625 27.421 471.063 22.6346C475.482 17.7661 477.983 17.335 482.449 17.1474C494.87 17.0618 500.981 17.0572 510.015 17.1474C519.932 18.0288 524.585 19.1848 530.989 22.6346C542.65 30.4788 547.068 32.1945 552.562 32.2372C631.731 23.0327 677.579 17.0426 713.762 32.2372C725.25 36.4858 753.132 35.0396 815.635 30.1795C844.622 26.9133 852.942 22.9123 855.186 12.3462C892.198 2.54461 891.725 4.29495 896.534 5.48718L906.722 12.3462C910.853 13.1067 916.098 11.1518 934.887 0C939.003 6.15313 941.659 9.33482 949.868 12.3462C956.231 12.506 959.444 12.8433 961.853 15.7756C964.504 18.728 966.255 19.4746 969.644 19.891C973.89 20.3038 975.155 20.1565 977.382 19.897L977.434 19.891C981.538 18.7104 983.775 18.1275 988.82 15.7756C1000.26 8.76147 1003.65 11.867 1010.39 15.7756L1026.57 28.1218C1030.47 31.6834 1039.83 32.3785 1067.92 31.5513C1093 35.2697 1104.93 34.8178 1121.26 28.1218C1155.69 15.2161 1169.99 19.423 1194.96 28.1218C1224.13 43.6225 1241.44 46.8204 1273.47 45.9551C1331.79 40.2456 1373.19 98.157 1431.06 106.486C1434.96 104.14 1439.1 101.647 1443.51 99C1444.54 98.71 1444.9 100.673 1444.84 103.754C1445.88 103.878 1446.91 104.038 1447.87 104.198C1448.47 103.995 1448.93 103.941 1448.49 104.304C1448.8 104.356 1449.09 104.408 1449.37 104.457C1451.01 104.037 1452.14 103.96 1452.62 104.305C1453.41 105.018 1452.49 104.972 1450.73 104.688C1450.48 104.736 1450.24 104.78 1450.02 104.82C1448.81 105.058 1447.62 105.294 1446.43 105.529C1445.96 105.782 1445.39 106.074 1444.71 106.409C1444.71 106.433 1444.71 106.457 1444.71 106.481C1446.69 106.47 1448.19 106.59 1449.11 106.861C1449.66 106.665 1449.82 106.698 1449.51 107C1448.66 107.539 1446.85 108.597 1444.37 110.01C1442.61 125.533 1436.9 148.013 1442.88 110.857C1421.76 122.824 1363.82 154.283 1406.32 128.848C1385.76 139.471 1370.06 146.963 1392.29 131.86C1370.8 143.212 1364.31 146.685 1421.87 112.017C1416.04 113.075 1410.32 114.112 1404.7 115.13C1348.65 127.483 1248.12 146.515 1389.61 117.865C1143.31 162.465 1114.48 166.719 1312.98 130.625C1288.29 134.08 1384.43 113.374 1428.84 107.823C1429.29 107.551 1429.74 107.276 1430.2 107H264.506Z" fill="#FFBA81"/>
</svg>
