<svg width="55" height="141" viewBox="0 0 55 141" fill="none" xmlns="http://www.w3.org/2000/svg">
<path d="M19.7995 140.678H34.0172L35.9398 112.573L51.9646 100.863L54.011 72.915L52.2534 68.4839L47.5086 67.3451L43.9192 69.6474L42.6402 74.1775L42.2193 94.5592L36.1131 98.949L37.0043 7.47103C37.0043 7.47103 33.5468 2.29725 33.192 1.85991C32.8372 1.42257 27.3581 0.473633 27.3581 0.473633L20.93 2.61907L18.0997 8.28796V78.0146L13.8006 75.6381L11.8202 51.9063L10.83 49.6536L7.37253 47.3266L2.66083 49.6536L0.886719 52.5169L2.96614 78.5014L3.84907 80.7789L6.91869 84.6407L18.1987 91.1677L19.7995 140.678Z" fill="#700505"/>
</svg>
