<svg width="133" height="190" viewBox="0 0 133 190" fill="none" xmlns="http://www.w3.org/2000/svg">
<path d="M46.601 189.999H81.6791L86.399 132.292L125.998 116.228L133 52.6271L128.568 46.5228L116.868 44.9535L108.004 48.1169L104.858 54.3571L101.866 107.566L86.7979 113.596L89.0138 9.62507C89.0138 9.62507 80.5933 2.4457 79.6183 1.902C78.6433 1.35829 65.2148 -0.000976562 65.2148 -0.000976562L49.3487 2.93998L42.3685 10.7496V84.7922L31.7764 81.53L26.8792 37.9348L24.4417 34.8332L15.9103 31.6451L4.43186 34.8332L0 38.775L5.11879 85.4718L7.33472 88.5981L14.9132 93.9116L42.7452 102.895L46.601 189.999Z" fill="#640E0B"/>
</svg>
