<svg width="138" height="140" viewBox="0 0 138 140" fill="none" xmlns="http://www.w3.org/2000/svg">
<path d="M26.5125 3.98179C22.8234 7.64186 22.0391 8.74569 22.2425 9.87857C22.3296 10.2562 24.3049 12.4639 26.6868 14.8458L31.015 19.174L29.5336 20.8588C26.4544 24.4317 26.5125 27.5108 29.7659 30.9675L31.1312 32.42L29.795 33.8143C28.023 35.7314 27.4711 36.8934 27.4421 38.8396C27.413 41.483 28.1102 42.3835 36.2146 50.3136C43.0119 56.9657 43.68 57.5176 44.6096 57.5176C45.5391 57.5176 46.0039 57.14 49.5187 53.567C52.9173 50.1103 53.4112 49.5003 53.4112 48.6579C53.4112 47.8155 52.8883 47.2055 49.0249 43.284L44.6096 38.8396L45.9167 37.3872C47.6596 35.47 48.1825 34.279 48.1825 32.3038C48.1825 30.2704 47.4853 28.818 45.6553 27.0751L44.3191 25.7679L45.9458 24.025C47.6596 22.1659 48.1825 20.9459 48.1825 18.9125C48.1534 16.7339 47.3691 15.7172 39.5552 7.93234C32.6998 1.13506 31.9446 0.466956 31.0441 0.466956C30.2017 0.466956 29.6497 0.902679 26.5125 3.98179ZM37.3766 12.3186C42.2567 17.0825 43.5348 18.4768 43.5348 19.0578C43.5348 19.5516 43.0991 20.2488 42.2276 21.0912L40.9204 22.3693L34.3846 15.8625L27.8488 9.32665L29.3593 7.81614C30.2017 6.97375 30.9569 6.27659 31.0441 6.27659C31.1312 6.27659 33.9779 9.00712 37.3766 12.3186ZM39.5552 27.4527C44.2319 32.0714 44.3481 32.3619 42.2857 34.3952L41.0366 35.6153L36.4761 31.0256C33.3679 27.8884 31.9155 26.2327 31.9155 25.797C31.9155 25.4193 32.4674 24.5479 33.1065 23.8507C34.5589 22.2821 33.8908 21.9045 39.5552 27.4527ZM46.1201 50.3136L44.4643 51.9694L38.1899 45.7531C34.5879 42.2092 31.9155 39.3044 31.9155 39.0139C31.9155 38.7234 32.5255 37.852 33.2808 37.0386L34.646 35.5862L41.1819 42.122L47.7468 48.6869L46.1201 50.3136Z" fill="#F0D9B9"/>
<path d="M82.0241 5.84094C81.5593 6.30571 81.2979 6.85763 81.2979 7.49669C81.2979 8.28099 81.7336 8.86195 84.2898 11.4182C86.8461 13.9744 87.427 14.4102 88.2113 14.4102C89.4894 14.4102 90.5933 13.3063 90.5933 12.0282C90.5933 11.2439 90.1575 10.6629 87.6013 8.1067C85.0451 5.55046 84.4641 5.11474 83.6798 5.11474C83.0407 5.11474 82.4888 5.37617 82.0241 5.84094Z" fill="#F0D9B9"/>
<path d="M115.749 5.40616C113.919 5.87094 111.305 7.43954 110.027 8.8048C109.388 9.50196 108.429 10.9544 107.935 12.0291C107.093 13.8011 107.006 14.2368 107.006 16.764C107.006 19.3783 107.064 19.6398 108.081 21.7312C109.388 24.3746 111.073 26.0013 113.774 27.2794C115.546 28.1218 115.982 28.209 118.48 28.209C120.978 28.209 121.414 28.1218 123.186 27.2794C125.887 26.0013 127.572 24.3746 128.879 21.7312C129.896 19.6398 129.954 19.3783 129.954 16.735C129.954 14.0916 129.896 13.8301 128.879 11.7387C126.904 7.78811 123.418 5.43521 119.119 5.23188C117.899 5.17378 116.388 5.26092 115.749 5.40616ZM120.629 10.112C123.128 10.8672 125.451 14.0625 125.451 16.735C125.451 20.3369 122.082 23.7065 118.48 23.7065C116.65 23.7065 115.168 23.0384 113.687 21.5279C110.724 18.594 110.724 14.8759 113.687 11.942C115.72 9.87958 117.899 9.32767 120.629 10.112Z" fill="#F0D9B9"/>
<path d="M65.0298 14.7874C63.6064 15.2521 61.1664 17.7503 60.7307 19.2317C59.9173 21.9623 60.4983 24.1409 62.5607 26.1742C65.5236 29.1662 69.6194 29.1081 72.379 26.029C75.0805 23.037 74.9933 19.406 72.1466 16.5883C70.1132 14.5259 67.7313 13.945 65.0298 14.7874ZM68.9513 19.7836C69.4161 20.2194 69.6775 20.8294 69.6775 21.3813C69.6775 21.9332 69.4161 22.5432 68.9513 22.9789C67.5279 24.4313 65.0298 23.4147 65.0298 21.3813C65.0298 20.1903 66.1627 19.0574 67.3536 19.0574C67.9056 19.0574 68.5156 19.3189 68.9513 19.7836Z" fill="#F0D9B9"/>
<path d="M65.0298 14.7874C63.6064 15.2521 61.1664 17.7503 60.7307 19.2317C59.9173 21.9623 60.4983 24.1409 62.5607 26.1742C65.5236 29.1662 69.6194 29.1081 72.379 26.029C75.0805 23.037 74.9933 19.406 72.1466 16.5883C70.1132 14.5259 67.7313 13.945 65.0298 14.7874ZM68.9513 19.7836C69.4161 20.2194 69.6775 20.8294 69.6775 21.3813C69.6775 21.9332 69.4161 22.5432 68.9513 22.9789C67.5279 24.4313 65.0298 23.4147 65.0298 21.3813C65.0298 20.1903 66.1627 19.0574 67.3536 19.0574C67.9056 19.0574 68.5156 19.3189 68.9513 19.7836Z" fill="#F0D9B9"/>
<path d="M9.25831 19.4352C8.70639 19.6095 7.57351 20.4229 6.78921 21.2362C4.72679 23.2696 4.14583 25.4482 4.95918 28.1787C5.42395 29.7764 7.83494 32.1874 9.43259 32.6522C12.1631 33.4655 14.3417 32.8845 16.3751 30.8221C19.338 27.8883 19.338 24.1701 16.3751 21.2362C14.3417 19.1738 11.9598 18.5928 9.25831 19.4352ZM13.1798 24.4315C14.6322 25.8549 13.6155 28.353 11.5822 28.353C10.3912 28.353 9.25831 27.2201 9.25831 26.0292C9.25831 24.8382 10.3912 23.7053 11.5822 23.7053C12.1341 23.7053 12.7441 23.9667 13.1798 24.4315Z" fill="#F0D9B9"/>
<path d="M9.25831 19.4352C8.70639 19.6095 7.57351 20.4229 6.78921 21.2362C4.72679 23.2696 4.14583 25.4482 4.95918 28.1787C5.42395 29.7764 7.83494 32.1874 9.43259 32.6522C12.1631 33.4655 14.3417 32.8845 16.3751 30.8221C19.338 27.8883 19.338 24.1701 16.3751 21.2362C14.3417 19.1738 11.9598 18.5928 9.25831 19.4352ZM13.1798 24.4315C14.6322 25.8549 13.6155 28.353 11.5822 28.353C10.3912 28.353 9.25831 27.2201 9.25831 26.0292C9.25831 24.8382 10.3912 23.7053 11.5822 23.7053C12.1341 23.7053 12.7441 23.9667 13.1798 24.4315Z" fill="#F0D9B9"/>
<path d="M88.8211 28.7321C88.124 29.284 79.5838 39.9157 79.2062 40.6709C78.5962 42.0362 79.119 42.7334 83.4182 46.2191C89.1987 50.9249 88.5016 51.0992 94.5727 43.6048C97.187 40.4095 99.3947 37.5047 99.4818 37.1271C99.8594 35.7908 99.3366 35.1518 95.0955 31.7531C90.7674 28.2674 89.925 27.8607 88.8211 28.7321ZM91.1159 40.4676C89.1987 42.8495 88.0949 43.9824 87.8625 43.8081C85.8001 42.2686 84.7834 41.2809 84.8996 40.9324C84.9868 40.729 86.2649 39.0442 87.7463 37.2432L90.3897 33.9318L92.2198 35.3842L94.0498 36.8656L91.1159 40.4676Z" fill="#F0D9B9"/>
<path d="M88.8211 28.7321C88.124 29.284 79.5838 39.9157 79.2062 40.6709C78.5962 42.0362 79.119 42.7334 83.4182 46.2191C89.1987 50.9249 88.5016 51.0992 94.5727 43.6048C97.187 40.4095 99.3947 37.5047 99.4818 37.1271C99.8594 35.7908 99.3366 35.1518 95.0955 31.7531C90.7674 28.2674 89.925 27.8607 88.8211 28.7321ZM91.1159 40.4676C89.1987 42.8495 88.0949 43.9824 87.8625 43.8081C85.8001 42.2686 84.7834 41.2809 84.8996 40.9324C84.9868 40.729 86.2649 39.0442 87.7463 37.2432L90.3897 33.9318L92.2198 35.3842L94.0498 36.8656L91.1159 40.4676Z" fill="#F0D9B9"/>
<path d="M122.429 35.9639C122.023 36.3415 120.396 38.2587 118.769 40.263C114.557 45.4917 114.412 44.9108 121.819 50.9237C125.015 53.5381 127.919 55.7167 128.297 55.8329C129.633 56.2105 130.272 55.6876 133.671 51.4466C137.157 47.1184 137.563 46.276 136.692 45.1722C136.227 44.5622 125.77 36.0801 124.957 35.6734C123.998 35.1506 123.243 35.2377 122.429 35.9639ZM128.181 44.0974L131.463 46.7698L130.011 48.5708L128.559 50.4009L124.957 47.467C122.575 45.5498 121.442 44.446 121.616 44.2136C123.156 42.1512 124.143 41.1345 124.492 41.2507C124.695 41.3378 126.38 42.6159 128.181 44.0974Z" fill="#F0D9B9"/>
<path d="M122.429 35.9639C122.023 36.3415 120.396 38.2587 118.769 40.263C114.557 45.4917 114.412 44.9108 121.819 50.9237C125.015 53.5381 127.919 55.7167 128.297 55.8329C129.633 56.2105 130.272 55.6876 133.671 51.4466C137.157 47.1184 137.563 46.276 136.692 45.1722C136.227 44.5622 125.77 36.0801 124.957 35.6734C123.998 35.1506 123.243 35.2377 122.429 35.9639ZM128.181 44.0974L131.463 46.7698L130.011 48.5708L128.559 50.4009L124.957 47.467C122.575 45.5498 121.442 44.446 121.616 44.2136C123.156 42.1512 124.143 41.1345 124.492 41.2507C124.695 41.3378 126.38 42.6159 128.181 44.0974Z" fill="#F0D9B9"/>
<path d="M3.01331 43.0245C2.54854 43.4893 2.28711 44.0412 2.28711 44.6803C2.28711 45.4646 2.72283 46.0455 5.27907 48.6018C7.83531 51.158 8.41628 51.5938 9.20058 51.5938C10.4787 51.5938 11.5825 50.4899 11.5825 49.2118C11.5825 48.4275 11.1468 47.8465 8.59056 45.2903C6.03432 42.7341 5.45336 42.2983 4.66906 42.2983C4.03 42.2983 3.47808 42.5598 3.01331 43.0245Z" fill="#F0D9B9"/>
<path d="M65.409 48.9505C64.7409 49.2701 63.9566 49.8801 63.6661 50.3158C63.3756 50.7515 62.3589 53.5401 61.3713 56.5031L59.6284 61.906L53.354 62.0513C47.5734 62.1965 46.9924 62.2546 46.2662 62.8065C44.2619 64.288 43.6519 66.3213 44.6105 68.4709C45.1043 69.5747 45.8014 70.2138 49.3744 72.77C51.6692 74.4548 53.8478 76.0234 54.1673 76.2849L54.7773 76.7496L53.0635 81.9493C51.1463 87.817 50.943 89.3275 51.9306 90.9252C52.6278 92.058 54.574 93.1328 55.9102 93.1328C57.1302 93.1328 58.2341 92.4938 63.0851 88.9789L67.3842 85.8417L71.9739 89.1823C76.6506 92.6099 77.5802 93.1328 78.8873 93.1328C80.1364 93.1328 82.0826 91.9999 82.7798 90.9252C83.7674 89.3275 83.5641 87.817 81.6178 81.9493C80.6883 79.0735 79.904 76.7206 79.9331 76.6915C79.9621 76.6625 82.1407 75.1229 84.7551 73.2348C88.9089 70.2428 89.577 69.6328 90.0709 68.5C91.0585 66.3213 90.4775 64.317 88.4442 62.8065C87.718 62.2546 87.137 62.1965 81.3564 62.0513L75.082 61.906L73.3391 56.5031C72.3515 53.5401 71.3348 50.7515 71.0443 50.3158C70.4343 49.4153 68.4881 48.3986 67.3552 48.3986C66.9485 48.3986 66.0771 48.6601 65.409 48.9505ZM69.2433 58.9141C71.1605 65.0142 71.5672 65.9728 72.2353 66.3213C72.4967 66.4375 75.6339 66.6118 79.2069 66.699L85.6555 66.8442L81.2693 70.0105C75.663 74.0482 74.9077 74.7163 74.9077 75.6168C74.9077 76.0234 75.7501 78.9573 76.7959 82.1816C77.8416 85.3769 78.6259 88.0494 78.5968 88.1075C78.5387 88.1365 76.1568 86.4808 73.3101 84.4184C69.8533 81.9202 67.849 80.6421 67.3552 80.6421C66.8614 80.6421 64.8861 81.9202 61.4294 84.4184C58.5826 86.5098 56.1716 88.1656 56.1426 88.1075C56.0845 88.0494 56.8688 85.3769 57.9145 82.1816C58.9603 78.9573 59.8027 76.0234 59.8027 75.6168C59.8027 74.7163 59.1346 74.1353 53.4992 70.0395L49.1129 66.8442L55.5326 66.699C59.0765 66.6118 62.2137 66.4375 62.4751 66.3213C63.1432 65.9728 63.5499 65.0142 65.4671 58.9141C66.3966 56.0092 67.268 53.6273 67.3552 53.6273C67.4423 53.6273 68.3138 56.0092 69.2433 58.9141Z" fill="#F0D9B9"/>
<path d="M102.328 51.8518C100.934 52.2004 98.4647 53.6528 97.6804 54.5823C97.2737 55.0761 96.6056 56.1219 96.1699 56.9352C95.5308 58.1843 95.4146 58.7943 95.4146 60.8858C95.3856 62.9192 95.5308 63.6163 96.1118 64.8073C97.0123 66.6664 98.7552 68.4093 100.614 69.3098C102.677 70.3264 106.337 70.3264 108.457 69.3098C110.316 68.4093 112.059 66.6664 112.96 64.8073C113.976 62.6868 113.976 59.0267 112.96 56.9643C112.03 55.1052 110.287 53.3623 108.457 52.4909C106.889 51.7356 103.926 51.4451 102.328 51.8518ZM106.366 56.6447C109.387 57.8938 110.084 61.7282 107.731 64.0811C105.814 65.9983 103.2 66.0273 101.311 64.1101C97.7094 60.5372 101.689 54.6695 106.366 56.6447Z" fill="#F0D9B9"/>
<path d="M15.8226 58.8534C13.9926 59.3182 11.3782 60.8868 10.1001 62.2521C9.46105 62.9492 8.50246 64.4016 8.00864 65.4764C7.16625 67.2484 7.0791 67.6841 7.0791 70.2113C7.0791 72.8256 7.1372 73.087 8.15388 75.1785C9.46105 77.8219 11.1458 79.4486 13.8473 80.7267C15.6193 81.5691 16.055 81.6562 18.5531 81.6562C21.0513 81.6562 21.487 81.5691 23.2589 80.7267C25.9604 79.4486 27.6452 77.8219 28.9524 75.1785C29.9691 73.087 30.0272 72.8256 30.0272 70.1822C30.0272 67.5388 29.9691 67.2774 28.9524 65.1859C26.9771 61.2354 23.4913 58.8825 19.1922 58.6791C17.9722 58.621 16.4617 58.7082 15.8226 58.8534ZM20.7027 63.5592C22.3003 64.024 24.7113 66.435 25.1761 68.0327C25.9895 70.7632 25.4085 72.9418 23.3461 74.9752C20.4122 77.9381 16.694 77.9381 13.7602 74.9752C10.7973 72.0413 10.7973 68.3231 13.7602 65.3893C15.7936 63.3268 17.9722 62.7749 20.7027 63.5592Z" fill="#F0D9B9"/>
<path d="M119.146 68.5266C116.59 71.0829 116.154 71.6638 116.154 72.4481C116.154 73.7262 117.258 74.8301 118.536 74.8301C119.321 74.8301 119.902 74.3944 122.458 71.8381C125.014 69.2819 125.45 68.7009 125.45 67.9166C125.45 67.2776 125.188 66.7256 124.724 66.2609C124.259 65.7961 123.707 65.5347 123.068 65.5347C122.283 65.5347 121.702 65.9704 119.146 68.5266Z" fill="#F0D9B9"/>
<path d="M123.127 79.8558C121.704 80.3205 119.264 82.8187 118.828 84.3001C118.015 87.0307 118.596 89.2093 120.658 91.2427C123.592 94.2056 127.31 94.2056 130.244 91.2427C133.091 88.425 133.178 84.794 130.477 81.802C128.589 79.7105 125.887 78.9843 123.127 79.8558ZM127.049 84.8521C128.501 86.2754 127.485 88.7736 125.451 88.7736C124.26 88.7736 123.127 87.6407 123.127 86.4497C123.127 85.2587 124.26 84.1259 125.451 84.1259C126.003 84.1259 126.613 84.3873 127.049 84.8521Z" fill="#F0D9B9"/>
<path d="M123.127 79.8558C121.704 80.3205 119.264 82.8187 118.828 84.3001C118.015 87.0307 118.596 89.2093 120.658 91.2427C123.592 94.2056 127.31 94.2056 130.244 91.2427C133.091 88.425 133.178 84.794 130.477 81.802C128.589 79.7105 125.887 78.9843 123.127 79.8558ZM127.049 84.8521C128.501 86.2754 127.485 88.7736 125.451 88.7736C124.26 88.7736 123.127 87.6407 123.127 86.4497C123.127 85.2587 124.26 84.1259 125.451 84.1259C126.003 84.1259 126.613 84.3873 127.049 84.8521Z" fill="#F0D9B9"/>
<path d="M94.0194 86.5951C90.5627 89.9356 90.0107 90.6037 90.0107 91.388C90.0107 92.1723 90.6498 92.9566 94.368 96.82L98.7542 101.323L97.418 102.746C94.1937 106.203 94.1065 109.572 97.1856 112.884L98.6961 114.539L97.5342 115.672C95.1523 117.996 94.3099 121.221 95.4718 123.719C96.0818 125.026 110.49 139.55 111.419 139.782C111.768 139.869 112.291 139.869 112.581 139.782C112.901 139.695 114.847 137.865 116.967 135.745C120.076 132.607 120.802 131.707 120.802 131.039C120.802 130.371 120.105 129.499 117.229 126.565C115.283 124.561 113.307 122.47 112.814 121.947L111.971 121.017L113.482 119.478C114.295 118.664 115.166 117.473 115.428 116.892C116.416 114.452 115.66 111.722 113.307 109.311L111.971 107.945L113.453 106.406C114.295 105.593 115.166 104.402 115.428 103.821C116.009 102.397 115.98 100.219 115.341 98.8825C115.05 98.2144 111.826 94.7576 107.323 90.2261C100.7 83.5741 99.6838 82.6736 98.8995 82.6736C98.1442 82.7026 97.3599 83.3126 94.0194 86.5951ZM111.216 101.352C111.216 101.874 110.809 102.601 109.996 103.472L108.776 104.779L102.153 98.1563L95.5299 91.5333L97.2147 89.8485L98.8704 88.1927L105.029 94.38C110.054 99.4053 111.216 100.712 111.216 101.352ZM111.216 114.568C111.216 114.946 110.693 115.789 109.996 116.544L108.776 117.851L104.186 113.261C100.73 109.805 99.5966 108.497 99.5966 107.945C99.5966 107.51 100.061 106.784 100.817 105.999L102.037 104.75L106.626 109.311C109.88 112.564 111.216 114.075 111.216 114.568ZM114.992 131.039C114.992 131.416 112.32 134.089 111.942 134.089C111.768 134.089 108.921 131.358 105.61 128.047C98.7252 121.133 98.7542 121.191 100.817 119.071L102.037 117.822L108.514 124.271C112.087 127.843 114.992 130.865 114.992 131.039Z" fill="#F0D9B9"/>
<path d="M22.1554 91.8522C17.5368 94.8441 13.3829 97.6037 12.9181 98.0394C11.7852 99.0851 11.0009 100.857 11.0009 102.513C11.0009 104.11 11.4657 105.36 12.7148 107.19L13.6152 108.468L12.5114 109.136C10.3909 110.472 8.99659 112.012 8.53182 113.58C7.92181 115.614 8.21229 117.124 9.6066 119.448C10.5361 120.987 10.6814 121.452 10.3909 121.627C7.16655 123.515 0.601665 128.046 0.282135 128.598C0.0497494 129.034 -0.0373951 129.644 0.0497494 130.051C0.282135 130.922 5.33652 138.765 5.97558 139.23C7.1956 140.159 8.038 139.753 16.9558 133.972C24.6826 128.976 25.7574 128.191 26.5417 126.942C27.2969 125.751 27.4131 125.287 27.4131 123.515C27.4131 121.627 27.326 121.307 26.2512 119.593C25.1474 117.792 25.1183 117.734 25.6702 117.356C29.4756 114.684 30.3179 113.464 30.2889 110.646C30.2889 109.078 30.1146 108.613 29.156 107.015C28.546 105.999 27.9941 105.098 27.965 105.011C27.907 104.895 30.2018 103.297 33.0485 101.438C35.9242 99.579 38.3352 97.8361 38.4224 97.6037C38.8291 96.558 38.4514 95.6865 35.9823 91.8231C33.2228 87.4949 32.2932 86.4492 31.2184 86.4492C30.8699 86.4492 26.7741 88.8892 22.1554 91.8522ZM32.9904 95.9189C32.9613 95.9479 29.4756 98.2137 25.2636 100.944C20.3254 104.14 17.4787 105.795 17.2753 105.621C16.5491 105.011 15.5615 102.774 15.7358 102.106C15.881 101.583 17.7691 100.218 23.2592 96.7032L30.5794 91.9683L31.7994 93.9436C32.4966 94.9894 33.0194 95.9189 32.9904 95.9189ZM25.8155 110.733C25.8155 110.937 25.525 111.431 25.1764 111.837C24.3921 112.651 15.4162 118.46 14.8353 118.518C14.6029 118.547 14.0219 117.85 13.5281 116.979C12.7148 115.555 12.6857 115.352 13.0633 114.713C13.2957 114.335 15.8229 112.534 18.6987 110.704L23.9273 107.364L24.8569 108.874C25.3798 109.717 25.8155 110.559 25.8155 110.733ZM22.0102 121.539C23.0269 123.137 23.143 124.212 22.4168 124.851C21.5744 125.548 8.09609 134.175 7.9799 134.059C7.92181 134.001 7.34084 133.13 6.67273 132.113L5.45271 130.312L8.73515 128.191C10.5361 127.059 14.0219 124.764 16.5201 123.137C18.9892 121.51 21.0516 120.174 21.0516 120.174C21.0806 120.145 21.5164 120.784 22.0102 121.539Z" fill="#F0D9B9"/>
<path d="M47.5726 98.3611C46.7302 98.8549 41.792 106.611 41.792 107.453C41.792 109.051 43.7963 110.184 45.2487 109.428C46.1202 108.964 51.0874 101.179 51.0874 100.307C51.0874 98.7097 48.9959 97.5478 47.5726 98.3611Z" fill="#F0D9B9"/>
<path d="M64.3337 98.7081C63.927 99.0857 62.3003 101.003 60.6736 103.007C56.4616 108.236 56.3164 107.655 63.7237 113.668C66.919 116.282 69.8238 118.461 70.2014 118.577C71.5376 118.955 72.1767 118.432 75.5753 114.191C79.0611 109.863 79.4678 109.02 78.5963 107.916C78.1316 107.306 67.6742 98.8242 66.8609 98.4176C65.9023 97.8947 65.147 97.9819 64.3337 98.7081ZM70.0852 106.842L73.3677 109.514L71.9153 111.315L70.4629 113.145L66.8609 110.211C64.4789 108.294 63.346 107.19 63.5203 106.958C65.0599 104.895 66.0475 103.879 66.3961 103.995C66.5994 104.082 68.2842 105.36 70.0852 106.842Z" fill="#F0D9B9"/>
<path d="M46.439 119.362C45.0156 119.826 42.5756 122.324 42.1398 123.806C41.3265 126.536 41.9075 128.715 43.9699 130.748C46.9328 133.74 51.0286 133.682 53.7882 130.603C56.4896 127.611 56.4025 123.98 53.5558 121.163C51.5224 119.1 49.1405 118.519 46.439 119.362ZM50.3605 124.358C51.8129 125.781 50.7962 128.279 48.7628 128.279C47.5718 128.279 46.439 127.146 46.439 125.956C46.439 125.404 46.7004 124.794 47.1652 124.358C47.6009 123.893 48.2109 123.632 48.7628 123.632C49.3147 123.632 49.9248 123.893 50.3605 124.358Z" fill="#F0D9B9"/>
<path d="M46.439 119.362C45.0156 119.826 42.5756 122.324 42.1398 123.806C41.3265 126.536 41.9075 128.715 43.9699 130.748C46.9328 133.74 51.0286 133.682 53.7882 130.603C56.4896 127.611 56.4025 123.98 53.5558 121.163C51.5224 119.1 49.1405 118.519 46.439 119.362ZM50.3605 124.358C51.8129 125.781 50.7962 128.279 48.7628 128.279C47.5718 128.279 46.439 127.146 46.439 125.956C46.439 125.404 46.7004 124.794 47.1652 124.358C47.6009 123.893 48.2109 123.632 48.7628 123.632C49.3147 123.632 49.9248 123.893 50.3605 124.358Z" fill="#F0D9B9"/>
<path d="M82.0241 122.034C81.5593 122.499 81.2979 123.051 81.2979 123.69C81.2979 124.474 81.7336 125.055 84.2898 127.612C86.8461 130.168 87.427 130.604 88.2113 130.604C89.4894 130.604 90.5933 129.5 90.5933 128.222C90.5933 127.437 90.1575 126.856 87.6013 124.3C85.0451 121.744 84.4641 121.308 83.6798 121.308C83.0407 121.308 82.4888 121.57 82.0241 122.034Z" fill="#F0D9B9"/>
</svg>
