<svg width="285" height="89" viewBox="0 0 285 89" fill="none" xmlns="http://www.w3.org/2000/svg">
<path d="M8.4 45.5L0.5 38L8.4 30.6V17.7C8.4 15.1 7.9 12.9 6.8 11C5.5 8.7 3.6 7.6 1.1 7.79999V1.5H2.7L55.6 1.39999L58.5 22.8L50.6 23.9C46.5 14.2 40.8 9.3 33.5 9.3C29.1 9.3 25.8 11.9 25.8 16.3V32.5C26.3 32.6 27 32.7 27.7 32.7C32.9 32.7 36 29.8 37.1 23.9H44.7V47.8L37.4 48C36.2 44.4 33.2 41.2 29.7 41.2C27.8 41.2 26.6 41.3 26.2 41.5L26.1 54.3C26.1 57.9 26.8 61 28.3 63.5C30 66.5 32.6 68 36 68.1V75.1L1.6 75V68.3C3.7 67.8 5.4 66.6 6.7 64.6C7.8 62.8 8.4 60.7 8.4 58.4V45.5ZM90.8648 43.8L111.165 43.9L99.8648 21.3L90.8648 43.8ZM116.565 17.4L123.865 31.5L134.965 37.9L129.965 43.3L139.265 61.3C141.865 66.3 144.565 68.6 147.365 68.3V75.2L112.465 74.9V68.3C114.465 68.3 116.365 68 118.065 67.4C120.365 66.6 121.565 65.4 121.565 63.8C121.565 62.7 120.965 61.1 119.765 59C119.265 58.1 118.465 56.6 117.165 54.5H86.1648C84.4648 58.6 83.5648 61.2 83.5648 62.3C83.5648 66.4 86.6648 68.4 92.7648 68.3V74.7L62.2648 74.5V67.9C67.1648 67.7 70.4648 65.5 72.2648 61.3L79.8648 43.8L74.1648 38L85.7648 30C90.0648 19.9 92.1648 14.1 92.1648 12.7C92.1648 10.6 90.8648 9.6 88.1648 9.6C87.3648 9.6 86.5648 9.69999 85.6648 9.8L85.7648 1.1H122.065V9C120.365 9.1 118.965 9.5 117.765 10.3C116.265 11.2 115.565 12.5 115.565 14C115.565 15 115.865 16.1 116.565 17.4ZM193.312 45.4L186.012 38L192.912 31C192.612 28 192.212 25.2 191.612 22.5C189.712 13.9 186.612 9.6 182.412 9.6C175.412 9.6 171.412 16.7 170.312 31L177.012 37.9L170.212 45.2C170.512 49.1 171.312 53 172.512 56.9C174.812 64.6 178.112 68.4 182.412 68.4H182.912C181.712 65.9 180.012 61.7 177.712 55.9L184.512 52.6C185.712 55.1 187.612 58.3 190.112 62.2C191.912 58.2 193.012 52.6 193.312 45.4ZM213.312 31L220.012 37.9L213.312 45C212.712 49.3 211.512 53.4 209.712 57.3C206.812 63.6 202.912 68.4 197.912 71.9C200.112 74 201.912 75.1 203.412 75.1C205.212 75.1 206.912 74.2 208.512 72.3C209.812 70.8 210.812 69 211.512 67C214.912 70.1 216.612 73.5 216.612 77.1C216.612 83.5 211.612 88.8 205.212 88.8C198.512 88.8 192.512 84.6 187.212 76.3C185.412 76.6 183.612 76.8 181.712 76.8C172.312 76.8 164.512 72.7 158.412 64.5C153.912 58.6 151.312 51.9 150.412 44.5L144.012 38L150.512 31.4C151.612 24.4 154.212 18.1 158.512 12.4C164.712 4.2 172.712 0.0999987 182.412 0.0999987C191.812 0.0999987 199.512 4.2 205.612 12.4C209.712 17.9 212.212 24.1 213.312 31ZM271.681 32.8L284.281 37.9L280.381 42.1C281.981 45.2 282.781 48.4 282.781 51.8C282.781 58.9 279.881 64.8 273.981 69.5C268.581 73.9 262.181 76.1 254.881 76.1C252.381 76.1 243.981 75.4 229.481 74L228.381 47.6L235.481 47.1C236.681 51.2 239.281 55.5 243.181 59.8C247.581 64.7 251.681 67.1 255.381 67.1C261.381 67.1 266.381 62.7 266.381 56.7C266.381 51.8 262.981 48.3 256.281 46.4L225.281 38L229.681 33.6C228.081 30.6 227.281 27 227.281 22.9C227.281 16.1 229.781 10.6 234.881 6.49999C239.581 2.6 245.481 0.599998 252.381 0.599998C258.781 0.599998 267.581 0.899994 278.881 1.39999L279.981 27L273.981 27.5C271.081 14.8 265.381 8.5 256.681 8.5C253.581 8.5 250.881 9.69999 248.681 12.1C246.581 14.4 245.481 17.2 245.481 20.4C245.481 23.1 247.481 25.1 251.581 26.4C251.581 26.4 255.881 27.6 264.381 30C267.281 30.8 269.681 31.7 271.681 32.8Z" fill="#FC7716"/>
</svg>
