<svg width="261" height="383" viewBox="0 0 261 383" fill="none" xmlns="http://www.w3.org/2000/svg">
<path d="M0.935547 382.854L46.518 373.276L82.135 343.732L128.53 319.372L152.588 248.339L156.192 221.973H164.19L170.605 225.386L176.208 211.606V170.074L178.208 139.741V108.598L185.821 101.409V134.152L184.217 176.474L188.216 205.207L200.63 211.606L198.62 115.786L206.629 7.97788H216.669L220.24 0L253.056 15.1665L258.669 23.9551L269.875 25.5549L275.478 134.152L277.873 159.75V205.25L283.08 210.049L288.288 202.861V119.775L289.357 103.393L295.163 115.573C295.163 115.573 294.864 141.533 295.163 142.322C295.462 143.112 295.965 166.875 295.965 166.875L296.863 205.612L301.375 197.421V186.755L302.167 159.409L306.871 162.992V186.755L307.941 203.33L318.035 227.178L322.44 241.939L325.177 281.061L345.985 364.488L370 382.854H0.935547Z" fill="#3A281E" fill-opacity="0.98"/>
</svg>
