<svg width="254" height="222" viewBox="0 0 254 222" fill="none" xmlns="http://www.w3.org/2000/svg">
<path d="M0.332031 221.198C0.332031 221.198 22.6537 204.472 26.6498 204.472C30.6459 204.472 53.5596 194.427 53.5596 194.427C53.5596 194.427 60.2197 137.538 60.2197 135.144V103.1L58.2957 84.9349L60.3005 65.3301H63.6777L62.7627 82.7913C62.7627 82.7913 68.1447 91.6315 68.1447 92.1009C68.1447 92.5703 69.1538 120.436 69.1538 120.436L75.222 128.682L77.1326 82.1812L80.2945 75.9227V20.9886L85.784 12.6179L112.6 4.01246L117.591 8.70633L121.09 0.570312L136.738 7.86147L138.406 76.0009L144.73 85.0913L145.147 51.0138L147.569 44.0825L150.394 43.6132L150.731 67.8805L155.978 93.6968L156.732 141.746L162.248 156.689L171.236 148.865L185.122 154.608L186.225 176.121L210.444 198.746L217.44 210.23L253.405 221.182L0.332031 221.198Z" fill="#3A281E" fill-opacity="0.8"/>
</svg>
