<svg width="277" height="276" viewBox="0 0 277 276" fill="none" xmlns="http://www.w3.org/2000/svg">
<path d="M191.077 51.1738C192.103 50.7396 193.208 50.5209 194.322 50.5311C195.385 50.3452 196.447 49.9044 197.541 49.7503C198.273 49.6339 199.015 49.5895 199.756 49.6175V49.6653C198.035 50.4568 196.171 50.4515 194.343 50.7277C193.302 51.1266 192.191 51.3074 191.077 51.2588V51.2057V51.1738Z" fill="#263238"/>
<path d="M186.126 8.87736C186.514 8.03826 187.103 7.30828 187.842 6.7527C188.437 6.05687 188.824 5.19107 189.435 4.5218C189.84 4.05672 190.298 3.64128 190.8 3.28418L190.843 3.31605C190.232 4.78738 189 5.73286 187.959 6.86424C187.538 7.69084 186.917 8.39924 186.153 8.92517L186.11 8.8933L186.126 8.87736Z" fill="#263238"/>
<path d="M156.997 79.0286C157.921 78.9483 158.851 79.1017 159.701 79.4747C160.598 79.6553 161.544 79.5703 162.431 79.7828C163.036 79.9102 163.625 80.1081 164.184 80.3724V80.4255C162.59 80.6114 161.172 80.0006 159.68 79.6447C158.762 79.6767 157.85 79.4834 157.024 79.0817V79.0286H156.997Z" fill="#263238"/>
<path d="M189.4 93.9434C190.319 93.8118 191.256 93.9142 192.125 94.2409C193.033 94.3684 193.968 94.2409 194.871 94.4002C195.482 94.4932 196.079 94.659 196.65 94.8942V94.9473C195.057 95.2182 193.617 94.6817 192.109 94.4162C191.186 94.5048 190.255 94.3625 189.4 94.0019V93.9434Z" fill="#263238"/>
<path d="M190.668 169.64C191.587 169.514 192.523 169.616 193.393 169.938C194.296 170.07 195.236 169.938 196.134 170.102C196.745 170.192 197.342 170.356 197.913 170.591V170.644C196.347 170.915 194.886 170.384 193.377 170.113C192.452 170.205 191.519 170.062 190.663 169.699V169.646L190.668 169.64Z" fill="#263238"/>
<path d="M213.727 66.2591C214.631 66.0507 215.572 66.069 216.468 66.3122C217.381 66.36 218.305 66.1422 219.214 66.2272C219.83 66.2662 220.44 66.3767 221.03 66.5565V66.6097C219.495 67.024 217.992 66.6097 216.462 66.4822C215.551 66.6571 214.61 66.5987 213.727 66.3122V66.2591Z" fill="#263238"/>
<path d="M220.064 69.4776C219.15 69.6376 218.21 69.5682 217.329 69.2758C216.42 69.1749 215.491 69.3449 214.583 69.2121C213.969 69.1387 213.367 68.9943 212.787 68.7818V68.7287C214.343 68.3994 215.825 68.8827 217.339 69.1058C218.26 68.9826 219.197 69.0922 220.064 69.4245V69.4776Z" fill="#263238"/>
<path d="M190.727 53.3305C191.439 53.0806 192.212 53.0601 192.937 53.2721C193.675 53.2721 194.413 53.0277 195.151 53.0755C195.652 53.0879 196.148 53.1738 196.623 53.3305V53.3836C195.401 53.8564 194.179 53.5217 192.937 53.442C192.211 53.647 191.44 53.6266 190.727 53.3836V53.3305Z" fill="#263238"/>
<path d="M158.958 81.7846C159.673 81.5405 160.446 81.5201 161.173 81.7262C161.911 81.7262 162.644 81.4818 163.382 81.5296C163.884 81.5444 164.381 81.6303 164.859 81.7846V81.8377C163.637 82.3105 162.41 81.9758 161.173 81.9015C160.446 82.1089 159.672 82.0866 158.958 81.8377V81.7846Z" fill="#263238"/>
<path d="M237.645 36.004C237.172 36.8007 236.507 37.467 235.712 37.9427C235.043 38.5695 234.564 39.3875 233.869 39.9877C233.414 40.3985 232.913 40.755 232.376 41.0501L232.339 41.0129C233.104 39.6159 234.432 38.8085 235.59 37.8259C236.098 37.0486 236.792 36.4098 237.608 35.9668L237.645 36.0093V36.004Z" fill="#263238"/>
<path d="M234.256 36.0037C234.039 36.7259 233.607 37.365 233.018 37.8362C232.577 38.4311 232.36 39.18 231.892 39.7537C231.591 40.1566 231.233 40.5144 230.83 40.816L230.787 40.7842C231.111 39.5147 232.099 38.7126 232.88 37.7512C233.132 37.0382 233.597 36.4204 234.213 35.9824L234.261 36.0143L234.256 36.0037Z" fill="#263238"/>
<path d="M158.06 19.0063C158.995 19.0307 159.908 19.2901 160.716 19.7605C161.587 20.0367 162.538 20.0633 163.372 20.382C163.955 20.5796 164.513 20.8453 165.034 21.1734V21.2266C163.441 21.2266 162.092 20.4564 160.652 19.9305C159.728 19.8592 158.836 19.556 158.06 19.0488V19.001V19.0063Z" fill="#263238"/>
<path d="M159.691 21.9709C160.428 21.8084 161.198 21.877 161.895 22.1674C162.628 22.263 163.388 22.093 164.115 22.2258C164.613 22.2961 165.098 22.4393 165.555 22.6508V22.7039C164.285 23.0332 163.106 22.5551 161.879 22.3374C161.135 22.4599 160.371 22.3505 159.691 22.024V21.9709Z" fill="#263238"/>
<path d="M189.4 48.5073C190.112 48.2573 190.885 48.2369 191.61 48.4488C192.348 48.4488 193.086 48.2045 193.825 48.2523C194.327 48.2646 194.824 48.3505 195.301 48.5073V48.5604C194.08 49.0331 192.853 48.6985 191.61 48.6188C190.884 48.8238 190.114 48.8034 189.4 48.5604V48.5073Z" fill="#263238"/>
<path d="M130.148 105.464C130.521 104.415 131.107 103.455 131.869 102.644C132.464 101.714 132.841 100.652 133.463 99.7434C133.869 99.1242 134.337 98.5476 134.86 98.0225H134.902C134.318 99.8231 133.054 101.209 132.002 102.707C131.592 103.743 130.972 104.681 130.18 105.464L130.138 105.438L130.148 105.464Z" fill="#263238"/>
<path d="M131.4 106.479C131.719 105.794 132.242 105.224 132.898 104.848C133.429 104.317 133.748 103.616 134.3 103.122C134.659 102.77 135.067 102.473 135.511 102.24L135.549 102.277C135.017 103.483 133.955 104.131 133.02 104.965C132.664 105.636 132.107 106.178 131.427 106.516L131.39 106.479H131.4Z" fill="#263238"/>
<path d="M128.368 102.691C128.281 101.941 128.43 101.182 128.793 100.519C128.968 99.8019 128.878 99.0264 129.085 98.3146C129.209 97.8289 129.402 97.3638 129.659 96.9336H129.712C129.903 98.2296 129.308 99.3504 128.963 100.546C129.006 101.291 128.821 102.033 128.432 102.67H128.384L128.368 102.691Z" fill="#263238"/>
<path d="M158.83 188.725C159.855 188.291 160.958 188.072 162.07 188.082C163.133 187.896 164.195 187.455 165.289 187.301C166.022 187.186 166.763 187.14 167.504 187.163V187.216C165.788 188.008 163.919 187.997 162.092 188.252C161.053 188.651 159.942 188.832 158.83 188.783V188.73V188.725Z" fill="#263238"/>
<path d="M162.351 190.477C163.063 190.227 163.836 190.207 164.561 190.419C165.299 190.419 166.037 190.169 166.776 190.217C167.276 190.234 167.771 190.322 168.247 190.477V190.53C167.025 191.003 165.804 190.663 164.561 190.589C163.835 190.794 163.065 190.773 162.351 190.53V190.477Z" fill="#263238"/>
<path d="M161.035 185.654C161.748 185.404 162.52 185.384 163.245 185.596C163.983 185.596 164.722 185.346 165.46 185.394C165.962 185.41 166.459 185.498 166.937 185.654V185.707C165.715 186.18 164.488 185.84 163.218 185.766C162.493 185.971 161.722 185.95 161.009 185.707V185.654H161.035Z" fill="#263238"/>
<path d="M244.163 100.849C243.05 100.849 241.948 100.617 240.929 100.169C239.866 99.914 238.724 99.914 237.662 99.6378C236.942 99.4593 236.241 99.2102 235.569 98.8942V98.8411C237.46 98.7933 239.176 99.5263 240.955 100.015C242.06 100.059 243.145 100.329 244.142 100.806V100.86L244.163 100.849Z" fill="#263238"/>
<path d="M216.187 125.814C215.585 124.875 215.182 123.823 215.002 122.722C214.636 121.66 214.025 120.736 213.69 119.684C213.442 118.984 213.264 118.262 213.159 117.527H213.207C214.269 119.089 214.588 120.927 215.146 122.685C215.71 123.644 216.071 124.709 216.208 125.814H216.155H216.187Z" fill="#263238"/>
<path d="M241.852 94.5598C241.153 94.844 240.384 94.9088 239.647 94.7457C238.909 94.7723 238.187 95.0697 237.448 95.0644C236.947 95.0765 236.446 95.0175 235.961 94.8891V94.836C237.151 94.3048 238.394 94.5651 239.637 94.5704C240.351 94.3245 241.124 94.3023 241.852 94.5067V94.5598Z" fill="#263238"/>
<path d="M240.921 102.798C240.168 102.743 239.449 102.46 238.86 101.986C238.186 101.683 237.405 101.63 236.736 101.3C236.28 101.088 235.856 100.813 235.477 100.482V100.435C236.789 100.477 237.782 101.268 238.898 101.826C239.645 101.919 240.347 102.239 240.905 102.745V102.798H240.921Z" fill="#263238"/>
<path d="M199.831 120.279C200.28 121.298 200.511 122.4 200.511 123.514C200.707 124.576 201.164 125.639 201.323 126.701C201.449 127.432 201.502 128.174 201.483 128.916H201.435C200.627 127.205 200.611 125.341 200.341 123.514C199.933 122.478 199.743 121.37 199.783 120.258H199.831V120.279Z" fill="#263238"/>
<path d="M202.928 122.446C203.184 123.158 203.213 123.932 203.013 124.661C203.013 125.4 203.273 126.133 203.231 126.871C203.224 127.372 203.144 127.87 202.992 128.348H202.939C202.455 127.131 202.774 125.904 202.838 124.661C202.625 123.936 202.638 123.164 202.875 122.446H202.928Z" fill="#263238"/>
<path d="M122.594 134.232C121.687 134.878 120.656 135.329 119.567 135.56C118.547 135.975 117.623 136.623 116.592 137.01C115.906 137.284 115.194 137.488 114.468 137.621V137.573C115.976 136.431 117.798 136.038 119.53 135.401C120.46 134.788 121.507 134.374 122.605 134.185V134.232H122.594Z" fill="#263238"/>
<path d="M121.102 137.706C120.463 138.093 119.722 138.278 118.977 138.238C118.255 138.381 117.591 138.769 116.852 138.907C116.359 139 115.854 139.022 115.354 138.971V138.917C116.449 138.195 117.718 138.259 118.945 138.068C119.608 137.707 120.367 137.56 121.118 137.648V137.701L121.102 137.706Z" fill="#263238"/>
<path d="M191.339 162.995C192.051 162.746 192.823 162.724 193.548 162.931C194.287 162.931 195.025 162.687 195.763 162.735C196.266 162.749 196.763 162.837 197.24 162.995V163.048C196.018 163.521 194.791 163.181 193.548 163.107C192.823 163.311 192.052 163.291 191.339 163.048V162.995Z" fill="#263238"/>
<path d="M195.859 165.381C195.11 165.477 194.349 165.34 193.681 164.988C192.959 164.828 192.183 164.929 191.472 164.733C190.984 164.624 190.516 164.445 190.08 164.201V164.148C191.371 163.931 192.502 164.51 193.702 164.839C194.456 164.782 195.209 164.958 195.859 165.343V165.397V165.381Z" fill="#263238"/>
<path d="M144.302 141.632C144.473 140.895 144.864 140.228 145.423 139.719C145.821 139.103 145.997 138.344 146.427 137.738C146.705 137.32 147.043 136.946 147.431 136.628L147.473 136.654C147.229 137.94 146.294 138.779 145.572 139.815C145.359 140.54 144.931 141.183 144.345 141.658L144.302 141.632Z" fill="#263238"/>
<path d="M148.706 139.056C148.391 139.738 147.874 140.307 147.224 140.686C146.693 141.217 146.38 141.919 145.838 142.418C145.48 142.771 145.074 143.071 144.632 143.31L144.595 143.273C145.094 142.062 146.188 141.409 147.097 140.564C147.454 139.893 148.011 139.349 148.69 139.008L148.727 139.045L148.706 139.056Z" fill="#263238"/>
<path d="M161.035 132.288C161.748 132.039 162.519 132.017 163.245 132.224C163.983 132.224 164.722 131.98 165.46 132.028C165.962 132.042 166.46 132.13 166.937 132.288V132.341C165.715 132.814 164.488 132.474 163.218 132.399C162.493 132.604 161.722 132.584 161.009 132.341V132.288H161.035Z" fill="#263238"/>
<path d="M146.629 158.746C147.077 159.354 147.329 160.084 147.352 160.839C147.564 161.545 148.032 162.172 148.207 162.889C148.344 163.373 148.412 163.874 148.409 164.376H148.356C147.538 163.351 147.49 162.082 147.187 160.876C146.771 160.247 146.559 159.505 146.581 158.751H146.629V158.746Z" fill="#263238"/>
<path d="M156.925 36.0463C157.638 35.8033 158.409 35.7829 159.134 35.9879C159.873 35.9879 160.611 35.7436 161.349 35.7914C161.857 35.8025 162.359 35.8884 162.842 36.0463V36.0994C161.62 36.5722 160.393 36.2375 159.15 36.1579C158.426 36.3698 157.653 36.3493 156.94 36.0994V36.0463H156.925Z" fill="#263238"/>
<path d="M164.02 162.002C164.02 162.002 146.646 162.985 140.415 160.579C134.184 158.172 125.447 153.588 122.164 148.229C118.882 142.87 117.161 135.226 117.161 131.072C117.161 126.919 117.028 120.502 117.161 116.784C117.293 113.066 115.631 98.8624 126.339 98.6446C137.047 98.4268 135.847 110.229 135.735 115.913C135.624 121.596 134.753 132.305 138.359 137.329C141.966 142.354 150.709 142.36 153.232 142.577C155.755 142.795 164.052 142.71 164.052 142.71C165.252 143.178 168.668 148.479 168.859 152.521C169.05 156.563 165.146 161.933 164.02 162.002Z" fill="#91CD94"/>
<path opacity="0.5" d="M164.02 162.002C164.02 162.002 146.646 162.985 140.415 160.579C134.184 158.172 125.447 153.588 122.164 148.229C118.882 142.87 117.161 135.226 117.161 131.072C117.161 126.919 117.028 120.502 117.161 116.784C117.293 113.066 115.631 98.8624 126.339 98.6446C137.047 98.4268 135.847 110.229 135.735 115.913C135.624 121.596 134.753 132.305 138.359 137.329C141.966 142.354 150.709 142.36 153.232 142.577C155.755 142.795 164.052 142.71 164.052 142.71C165.252 143.178 168.668 148.479 168.859 152.521C169.05 156.563 165.146 161.933 164.02 162.002Z" fill="black"/>
<path d="M122.186 101.805C121.204 103.436 120.731 105.327 120.269 107.159C119.345 110.877 119.318 114.691 119.562 118.505C119.727 121.92 119.839 126.61 120.04 129.962C120.152 131.869 120.269 133.776 120.54 135.661C120.811 137.547 121.549 139.326 122.34 141.058C124.311 145.09 126.68 149.073 130.01 152.122C130.915 152.87 131.917 153.49 132.99 153.965C136.446 155.585 140.036 156.9 143.72 157.896C147.401 158.847 151.273 158.778 155.05 159.091C158.863 159.277 162.683 159.505 166.502 159.426C160.914 159.904 154.986 159.426 149.297 159.208C147.367 159.162 145.448 158.898 143.576 158.422C139.861 157.442 136.249 156.103 132.794 154.422C131.906 154.022 131.068 153.519 130.297 152.924C128.05 151.102 126.377 148.675 124.874 146.216C123.381 143.758 122.115 141.169 121.092 138.482C120.74 137.584 120.49 136.648 120.349 135.693C119.817 131.895 119.573 128.076 119.339 124.257C119.127 118.537 118.41 112.688 119.987 107.09C120.419 105.221 121.135 103.429 122.112 101.778L122.154 101.81L122.186 101.805Z" fill="#91CD94"/>
<path d="M128.511 100.015C131.571 100.928 132.283 104.955 132.824 107.679C133.262 110.709 133.501 113.765 133.541 116.826C133.318 122.876 132.352 129.107 134.211 134.992C135.05 137.951 137.159 140.256 139.719 141.86C142.279 143.464 145.259 144.208 148.26 144.516C154.321 145.238 160.397 145.626 166.484 146.141C160.378 146.098 154.277 145.743 148.207 145.079C142.184 144.68 135.533 141.334 133.935 135.104C132.304 129.149 133.095 122.934 133.101 116.863C132.931 113.825 132.877 110.771 132.421 107.77C131.937 104.949 131.358 101.284 128.511 100.041V100.015Z" fill="#91CD94"/>
<path d="M168.535 150.625C158.974 151.044 148.93 150.837 140.208 146.481C136.697 144.686 132.878 142.418 131.359 138.578C129.707 133.638 128.14 128.523 128.05 123.269C128.076 122.86 128.076 122.451 128.14 122.042C128.744 118.908 129.066 115.726 129.102 112.535C129.043 109.417 129.102 105.991 127.391 103.26L127.434 103.229C127.679 103.55 127.894 103.893 128.076 104.254C129.298 106.814 129.431 109.746 129.516 112.535C129.561 115.742 129.281 118.945 128.682 122.096C128.353 126.844 129.744 131.598 130.998 136.156C131.471 137.659 131.811 139.247 132.772 140.538C134.62 143.14 137.436 144.936 140.288 146.295C149.052 150.428 159.15 150.279 168.535 150.609V150.625Z" fill="#91CD94"/>
<path d="M124.485 103.876C123.422 107.201 123.422 110.819 123.141 114.287C122.971 117.798 122.806 121.293 123.391 124.778C123.922 129.138 124.097 133.568 125.436 137.77C126.408 140.197 127.927 142.423 129.239 144.675C130.137 146.167 131.3 147.483 132.67 148.558C137.068 151.405 142.311 152.759 147.405 153.747C154.352 154.778 161.412 154.932 168.418 155.304C165.029 155.474 161.348 155.24 157.858 155.144C154.33 155.066 150.809 154.78 147.314 154.289C143.82 153.702 140.402 152.731 137.121 151.394C135.459 150.753 133.882 149.909 132.426 148.882C131.042 147.754 129.879 146.38 128.994 144.829C128.07 143.321 127.295 141.738 126.418 140.219C125.949 139.466 125.568 138.662 125.282 137.823C123.954 133.616 123.555 129.176 122.955 124.831C122.312 121.362 122.514 117.771 122.737 114.26C122.895 111.62 123.212 108.991 123.688 106.389C123.837 105.516 124.088 104.663 124.437 103.85H124.485V103.876Z" fill="#91CD94"/>
<path opacity="0.2" d="M168.826 152.488C169.017 156.541 165.145 161.948 164.019 162.002C164.019 162.002 162.569 162.081 160.349 162.145L156.997 142.678C160.232 142.72 164.014 142.678 164.014 142.678C165.225 143.15 168.635 148.446 168.826 152.488Z" fill="black"/>
<path d="M165.986 226.278C165.986 226.278 166.645 208.139 165.986 205.733C165.328 203.327 162.056 172.296 162.709 159.617C163.362 146.938 164.069 106.5 162.624 98.4265C161.179 90.3528 161.179 60.6127 161.615 46.1916C162.05 31.7704 156.372 1.82322 174.729 0.51124C193.086 -0.800741 193.963 21.2002 194.181 32.3281C194.398 43.4561 192.433 69.7701 192.869 76.7655C193.304 83.761 194.181 135.141 194.181 140.824C194.181 146.508 194.181 188.905 194.398 191.965C194.616 195.024 197.24 226.278 197.24 226.278H165.986Z" fill="#91CD94"/>
<path opacity="0.5" d="M165.986 226.278C165.986 226.278 166.645 208.139 165.986 205.733C165.328 203.327 162.056 172.296 162.709 159.617C163.362 146.938 164.069 106.5 162.624 98.4265C161.179 90.3528 161.179 60.6127 161.615 46.1916C162.05 31.7704 156.372 1.82322 174.729 0.51124C193.086 -0.800741 193.963 21.2002 194.181 32.3281C194.398 43.4561 192.433 69.7701 192.869 76.7655C193.304 83.761 194.181 135.141 194.181 140.824C194.181 146.508 194.181 188.905 194.398 191.965C194.616 195.024 197.24 226.278 197.24 226.278H165.986Z" fill="black"/>
<path d="M174.739 0.538086C169.374 3.33202 166.607 9.39794 165.364 15.0655C164.355 20.9083 165.252 27.0061 165.555 32.9127C166.304 42.3993 165.125 52.0666 165.189 61.5957C165.024 68.7824 166.251 75.8841 166.702 83.0389C167.462 91.4632 168.445 103.324 168.684 111.669C168.885 118.845 169.385 126.037 168.684 133.213C167.871 140.315 167.866 147.522 167.728 154.672C167.728 160.637 167.584 166.618 167.977 172.572C168.88 180.89 169.571 189.246 170.15 197.59C170.723 207.098 171.504 216.84 171.042 226.273C171.169 216.712 170.468 207.151 169.767 197.622C169.146 189.501 168.306 180.752 167.435 172.625C167.042 166.644 167.122 160.653 167.175 154.667C167.345 147.485 167.361 140.293 168.237 133.149C168.976 126.042 168.54 118.808 168.391 111.685C167.956 97.3432 166.612 83.0442 165.066 68.7877C164.466 59.2267 165.162 49.6391 165.369 40.1047C165.491 35.3242 164.891 30.5437 164.716 25.7897C164.541 21.0358 164.328 16.0853 166.028 11.5332C167.621 7.15111 170.383 2.43435 174.728 0.538086H174.739Z" fill="#91CD94"/>
<path d="M181.511 1.38184C183.269 2.52916 184.496 4.28732 185.479 6.10922C186.682 8.49504 187.6 11.0142 188.214 13.6146C189.358 18.2281 189.934 22.964 189.93 27.7171C189.967 37.1878 189.638 46.6532 189.298 56.1132C189.091 64.5004 188.331 76.2285 188.809 84.4882C189.128 92.7053 189.728 104.518 190.111 112.852C190.642 127.029 191.996 141.238 191.269 155.431C190.891 169.613 189.144 183.779 190.312 197.956C190.844 206.386 191.773 217.8 192.411 226.278C191.348 216.998 190.679 207.389 189.93 197.983C189.59 193.26 189.224 188.517 189.431 183.779C189.734 174.314 190.355 164.87 190.716 155.41C191.492 146.029 190.185 122.594 189.818 112.863C189.463 104.476 189.022 92.7531 188.607 84.4935C188.076 76.271 188.746 64.4313 188.894 56.0973C189.043 47.7633 189.558 35.913 189.564 27.7171C189.617 19.9674 187.896 6.23139 181.538 1.38184H181.511Z" fill="#91CD94"/>
<path d="M186.244 226.278C185.458 207.57 184.375 188.799 185.368 170.081C185.559 165.406 185.602 160.721 185.644 156.037C185.761 142.662 185.506 127.354 185.214 113.883C184.816 90.0391 182.489 65.7541 182.234 41.9207C182.123 33.1352 183.987 24.3922 183.514 15.6226C183.222 11.0387 182.452 6.06165 179.159 2.625C182.574 5.812 183.445 11.0652 183.78 15.6067C184.338 24.4081 182.558 33.1352 182.744 41.9154C183.1 61.2339 184.46 80.5206 185.214 99.8125C185.618 121.713 186.223 148.244 185.772 170.086C184.842 188.517 185.931 207.894 186.244 226.267V226.278Z" fill="#91CD94"/>
<path d="M174.621 2.6255C172.932 4.26149 172.29 6.67299 171.567 8.84015C169.533 15.5913 169.15 22.6505 169.538 29.6672C169.883 39.0263 170.749 48.3642 170.632 57.7659C170.494 62.4348 170.76 67.1197 171.015 71.794C171.482 81.1532 172.566 90.4698 172.996 99.829C173.272 113.878 172.884 127.949 172.959 141.993C173.49 160.419 174.759 179.743 174.988 198.169C174.961 207.512 174.988 217.047 174.701 226.278C174.701 217.78 174.701 206.487 174.605 198.174C174.18 179.722 172.906 160.462 172.454 141.998C172.417 133.925 172.693 122.095 172.784 113.889C172.81 106.862 173.017 99.829 172.39 92.8282C171.509 81.2169 170.144 69.3984 170.266 57.7712C170.345 53.0969 170.037 48.4121 169.814 43.7431C169.427 32.1052 167.737 20.0956 171.408 8.80297C171.907 7.11117 172.602 5.48358 173.479 3.95342C173.769 3.43835 174.142 2.97518 174.584 2.58301L174.621 2.6255Z" fill="#91CD94"/>
<path d="M177.523 4.37793C175.154 18.1033 175.6 32.057 176.817 45.878C178.001 64.3573 178.001 82.8843 179.069 101.369C180.466 119.843 179.186 138.397 179.403 156.886C180.269 177.692 181.045 198.519 180.997 219.346C180.997 221.067 180.928 222.836 180.837 224.552C180.8 225.131 180.721 225.71 180.662 226.283H180.609C180.803 223.987 180.876 221.682 180.827 219.378C180.62 198.78 179.669 177.559 178.856 156.934C178.67 138.423 180.168 119.901 178.856 101.411C177.921 82.9268 177.507 64.4104 176.354 45.9364C175.292 32.1633 174.718 17.9227 177.518 4.4098L177.523 4.37793Z" fill="#91CD94"/>
<path opacity="0.2" d="M197.238 226.278H176.778C180.629 226.278 185.34 141.09 185.085 129.898C184.83 118.706 188.463 83.559 188.803 75.6925C189.143 67.8259 193.292 32.2537 192.367 15.2988C193.887 21.2213 194.088 27.7175 194.179 32.328C194.396 43.4825 192.431 69.7806 192.867 76.7707C193.302 83.7609 194.179 135.141 194.179 140.819C194.179 146.497 194.179 188.905 194.397 191.965C194.614 195.024 197.238 226.278 197.238 226.278Z" fill="black"/>
<path d="M192.357 125.027C192.357 125.027 208.966 125.245 213.848 124.374C218.729 123.503 233.958 114.813 235.339 112.789C236.72 110.765 238.398 107.031 238.908 101.571C239.418 96.1103 242.26 79.4211 241.681 74.9805C241.102 70.54 241.824 59.9485 240.39 51.8854C238.956 43.8223 234.34 36.8746 226.548 36.2957C218.756 35.7167 217.439 42.266 216.785 46.919C216.132 51.572 217.003 89.8319 216.419 92.5249C215.834 95.218 206.73 101.411 204.106 101.778C201.482 102.144 192.378 102.07 192.378 102.07C188.155 101.778 186.434 106.218 185.967 108.407C185.5 110.595 185.861 116.348 186.95 118.972C187.688 120.815 191.188 125.016 192.357 125.027Z" fill="#91CD94"/>
<path opacity="0.5" d="M192.357 125.027C192.357 125.027 208.966 125.245 213.848 124.374C218.729 123.503 233.958 114.813 235.339 112.789C236.72 110.765 238.398 107.031 238.908 101.571C239.418 96.1103 242.26 79.4211 241.681 74.9805C241.102 70.54 241.824 59.9485 240.39 51.8854C238.956 43.8223 234.34 36.8746 226.548 36.2957C218.756 35.7167 217.439 42.266 216.785 46.919C216.132 51.572 217.003 89.8319 216.419 92.5249C215.834 95.218 206.73 101.411 204.106 101.778C201.482 102.144 192.378 102.07 192.378 102.07C188.155 101.778 186.434 106.218 185.967 108.407C185.5 110.595 185.861 116.348 186.95 118.972C187.688 120.815 191.188 125.016 192.357 125.027Z" fill="black"/>
<path d="M223.198 38.5327C220.569 41.5284 219.82 45.4962 220.011 49.3738C220.202 53.2513 220.494 57.15 220.516 61.0594C220.606 67.9646 220.988 77.5999 220.909 84.4308C220.902 86.3842 220.776 88.3354 220.531 90.2736C220.192 92.2231 219.489 94.0916 218.46 95.7818C216.463 99.1547 213.913 102.342 210.434 104.28C208.671 105.247 206.588 105.226 204.644 105.401C202.7 105.576 200.746 105.603 198.801 105.646C194.919 105.646 190.967 105.932 187.116 105.274C190.882 105.603 194.924 105.401 198.775 105.274C202.137 105.072 205.574 105.008 208.867 104.344C211.14 103.606 212.946 101.901 214.572 100.169C217.09 97.3381 219.384 93.9811 220.091 90.2045C221.259 80.5532 220.457 70.7691 220.091 61.0754C219.984 57.1819 219.676 53.3203 219.559 49.3897C219.476 47.4214 219.689 45.4518 220.192 43.5469C220.738 41.6518 221.754 39.9253 223.145 38.5273L223.198 38.5327Z" fill="#91CD94"/>
<path d="M229.683 38.4951C234.071 41.1509 236.402 46.2342 237.39 51.0997C238.288 56.0236 237.544 61.1919 237.656 66.2114C237.433 78.7416 238.612 91.5852 235 103.77C234.299 105.863 233.454 108.11 231.68 109.539C229.295 111.074 227.08 112.8 224.802 114.526C220.791 117.527 216.276 120.412 211.14 120.799C203.606 121.398 196.047 121.611 188.491 121.437C193.521 121.309 198.551 121.155 203.576 120.906C218.274 120.518 219.293 117.495 230.607 109.671C234.442 107.494 235.547 100.413 236.328 96.3498C238.134 86.3957 237.284 76.2823 237.226 66.2326C237.226 63.7149 237.25 61.1972 237.3 58.6794C237.488 56.1825 237.379 53.672 236.976 51.2006C236.094 46.3458 233.752 41.3369 229.678 38.5164L229.683 38.4951Z" fill="#91CD94"/>
<path d="M185.771 110.139C189.952 110.452 194.142 110.67 198.333 110.723C201.446 110.723 204.622 110.76 207.661 110.064C214.46 107.886 221.402 103.69 224.302 96.8701C225.085 94.9259 225.498 92.8523 225.518 90.7564C225.594 86.566 225.448 82.3746 225.083 78.1996C224.796 74.0193 224.387 69.8443 224.021 65.6641C223.558 59.4016 222.576 53.0914 223.245 46.8023C223.484 44.7627 223.542 42.4362 225.003 40.832L225.04 40.8692C224.391 41.689 223.981 42.6726 223.856 43.711C223.582 45.7849 223.417 47.8716 223.362 49.9628C223.404 54.823 224.191 60.7189 224.573 65.6163C225.285 73.9715 226.119 82.3693 225.757 90.767C225.614 100.7 216.595 107.764 207.799 110.51C204.697 111.238 201.494 111.143 198.339 111.116C194.14 111.024 189.949 110.696 185.787 110.133L185.771 110.139Z" fill="#91CD94"/>
<path d="M229.339 41.2891C231.782 45.1453 232.727 49.7877 232.733 54.292C232.871 58.8122 232.818 63.3218 232.706 67.8421C232.595 71.2256 232.446 78.0086 232.388 81.3868C232.255 85.907 232.276 90.4485 231.559 94.9209C230.497 99.3721 227.793 103.25 224.739 106.607C223.205 108.304 221.429 109.766 219.47 110.946C217.451 112.007 215.33 112.858 213.138 113.485C208.811 114.851 204.347 115.741 199.827 116.141C195.291 116.141 190.797 116.077 186.272 116.003C186.149 115.87 199.816 115.806 199.806 115.769C202.044 115.565 204.266 115.211 206.456 114.707C210.79 113.692 215.257 112.582 219.204 110.489C224.425 107.398 229.694 100.796 231.251 94.8997C232.637 85.992 232.186 76.8825 232.356 67.8952C232.356 63.3803 232.393 58.8654 232.308 54.3558C232.319 52.1114 232.097 49.872 231.644 47.6737C231.133 45.4804 230.364 43.3552 229.355 41.3422L229.339 41.2891Z" fill="#91CD94"/>
<path d="M170.669 245.288H276.735C276.735 245.288 262.898 214.499 247.123 208.341C231.348 202.183 194.747 213.876 186.098 222.525C179.912 229.35 174.718 237.013 170.669 245.288Z" fill="#B2B0B0"/>
<path d="M119.449 168.515C119.706 168.596 119.973 168.642 120.242 168.653H120.922C127.445 167.784 134.46 157.622 134.623 153.542C134.787 149.462 130.342 149.449 128.805 149.348C127.269 149.248 125.216 146.263 121.867 146.49C118.517 146.716 117.132 153.781 117.132 153.781C116.83 155.015 114.802 167.13 119.449 168.515Z" fill="#669475"/>
<path opacity="0.1" d="M119.449 168.515C119.706 168.596 119.973 168.642 120.242 168.653H120.922C127.445 167.784 134.46 157.622 134.623 153.542C134.787 149.462 130.342 149.449 128.805 149.348C127.269 149.248 125.216 146.263 121.867 146.49C118.517 146.716 117.132 153.781 117.132 153.781C116.83 155.015 114.802 167.13 119.449 168.515Z" fill="white"/>
<path d="M119.449 168.515C119.706 168.595 119.973 168.642 120.242 168.653L120.355 168.552C122.798 167.364 124.981 165.706 126.781 163.673C128.581 161.639 129.962 159.271 130.845 156.702C129.04 160.808 126.089 164.306 122.345 166.777C125.628 162.984 127.97 158.471 129.183 153.605C129.183 153.605 129.095 153.529 129.07 153.605C128.039 156.591 126.706 159.465 125.09 162.18C123.81 164.197 122.278 166.042 120.532 167.671C123.05 164.006 124.221 159.851 125.569 155.896C125.569 155.821 125.456 155.796 125.43 155.896C123.881 159.993 122.025 163.967 119.877 167.784C120.91 162.86 121.338 157.874 123.894 153.239C123.894 153.239 123.831 153.151 123.793 153.239C121.517 157.248 120.102 161.687 119.638 166.273C119.145 163.096 119.334 159.851 120.192 156.753C120.192 156.753 120.091 156.677 120.066 156.753C118.853 160.491 118.645 164.482 119.461 168.326C119.461 168.426 119.461 168.527 119.461 168.64L119.449 168.515Z" fill="#669475"/>
<path d="M109.086 168.817C109.677 168.63 110.199 168.27 110.584 167.784L110.647 167.696C110.769 167.532 110.863 167.349 110.924 167.154C112.272 163.376 104.867 155.456 103.986 154.637C103.986 154.637 98.6966 149.272 95.5483 150.569C92.4001 151.867 92.2742 155.279 90.9519 156.047C89.6297 156.816 85.6629 158.843 88.1185 162.168C90.5741 165.492 102.726 170.97 109.086 168.817Z" fill="#669475"/>
<path opacity="0.1" d="M109.086 168.817C109.677 168.63 110.199 168.27 110.584 167.784L110.647 167.696C110.769 167.532 110.863 167.349 110.924 167.154C112.272 163.376 104.867 155.456 103.986 154.637C103.986 154.637 98.6966 149.272 95.5483 150.569C92.4001 151.867 92.2742 155.279 90.9519 156.047C89.6297 156.816 85.6629 158.843 88.1185 162.168C90.5741 165.492 102.726 170.97 109.086 168.817Z" fill="white"/>
<path d="M110.697 167.684C110.818 167.52 110.912 167.337 110.974 167.142C108.29 162.647 104.716 158.748 100.471 155.683C100.471 155.683 100.32 155.683 100.37 155.771C104.243 159.347 107.706 163.343 110.697 167.684Z" fill="#669475"/>
<path d="M92.6396 161.751C97.5417 165.307 103.179 167.716 109.136 168.803C109.728 168.616 110.249 168.257 110.635 167.771C108.444 166.209 106.139 164.749 104.011 163.149C101.102 160.996 98.2057 158.805 95.4352 156.525C97.9538 158.868 100.586 161.16 103.394 163.288C105.308 164.736 107.247 166.272 109.313 167.632C104.779 165.847 100.455 163.571 96.4175 160.845C96.4175 160.845 96.3042 160.845 96.3545 160.845C100.241 163.868 104.536 166.327 109.111 168.149C106.719 167.659 104.363 167.006 102.059 166.197C98.7901 165.009 95.6644 163.459 92.7404 161.575C92.7404 161.575 92.6144 161.726 92.6396 161.751Z" fill="#669475"/>
<path d="M111.919 164.271C112.257 164.32 112.6 164.32 112.939 164.271C113.095 164.25 113.247 164.208 113.392 164.145L113.644 164.006L113.845 163.843V163.78C116.956 160.732 116.754 145.142 113.757 144.286C110.76 143.43 107.171 145.847 104.804 146.804C103.544 147.308 100.27 147.598 97.248 150.419C94.6538 152.912 106.567 163.465 111.919 164.271Z" fill="#669475"/>
<path opacity="0.2" d="M111.919 164.271C112.257 164.32 112.6 164.32 112.939 164.271C113.095 164.25 113.247 164.208 113.392 164.145L113.644 164.006L113.845 163.843V163.78C116.956 160.732 116.754 145.142 113.757 144.286C110.76 143.43 107.171 145.847 104.804 146.804C103.544 147.308 100.27 147.598 97.248 150.419C94.6538 152.912 106.567 163.465 111.919 164.271Z" fill="white"/>
<g opacity="0.9">
<path d="M113.404 164.158L113.655 164.019L113.857 163.856V163.793C114.046 158.995 112.396 154.335 110.961 149.94C110.961 149.94 110.86 149.94 110.872 149.94C112.089 154.606 112.935 159.359 113.404 164.158Z" fill="#669475"/>
<path d="M111.918 164.271C112.256 164.32 112.599 164.32 112.938 164.271C113.094 164.25 113.246 164.207 113.391 164.145C111.838 160.392 110.6 156.517 109.689 152.559C109.689 152.496 109.563 152.559 109.563 152.559C109.956 156.046 110.803 159.467 112.081 162.734C109.563 158.629 106.893 154.612 105.483 150.003H105.382C106.525 154.653 108.585 159.028 111.439 162.873C108.765 160.62 106.443 157.98 104.551 155.04C104.551 155.04 104.437 155.04 104.463 155.04C106.177 158.667 108.733 161.831 111.918 164.271Z" fill="#669475"/>
</g>
<path d="M115.393 164.081C115.654 164.302 115.947 164.48 116.262 164.61C116.408 164.67 116.56 164.712 116.715 164.736H117.018H117.269C117.281 164.742 117.294 164.745 117.307 164.745C117.32 164.745 117.333 164.742 117.345 164.736C121.564 163.678 129.245 150.09 127.067 147.836C124.888 145.582 120.594 145.872 118.063 145.519C116.728 145.343 113.743 143.945 109.689 144.839C106.112 145.57 111.162 160.706 115.393 164.081Z" fill="#669475"/>
<path opacity="0.2" d="M115.393 164.081C115.654 164.302 115.947 164.48 116.262 164.61C116.408 164.67 116.56 164.712 116.715 164.736H117.018H117.269C117.281 164.742 117.294 164.745 117.307 164.745C117.32 164.745 117.333 164.742 117.345 164.736C121.564 163.678 129.245 150.09 127.067 147.836C124.888 145.582 120.594 145.872 118.063 145.519C116.728 145.343 113.743 143.945 109.689 144.839C106.112 145.57 111.162 160.706 115.393 164.081Z" fill="white"/>
<g opacity="0.9">
<path d="M116.741 164.737H117.019H117.27C117.282 164.743 117.295 164.746 117.308 164.746C117.321 164.746 117.334 164.743 117.346 164.737C119.927 160.682 120.847 155.834 121.816 151.3C121.816 151.3 121.741 151.237 121.728 151.3C120.421 155.903 118.754 160.396 116.741 164.737Z" fill="#669475"/>
<path d="M115.394 164.082C115.655 164.302 115.948 164.481 116.263 164.611C116.409 164.67 116.561 164.712 116.716 164.737C117.26 160.713 118.136 156.741 119.336 152.862C119.336 152.799 119.248 152.761 119.222 152.862C117.801 156.076 116.806 159.463 116.263 162.936C116.099 158.1 115.86 153.302 116.956 148.605C116.956 148.605 116.88 148.542 116.855 148.605C115.501 153.193 115.073 158.005 115.596 162.76C114.415 159.476 113.736 156.033 113.581 152.547C113.581 152.547 113.467 152.547 113.48 152.547C113.204 156.489 113.86 160.44 115.394 164.082Z" fill="#669475"/>
</g>
<path d="M101.617 167.382C106.755 171.336 111.251 172.419 114.336 172.331C115.299 172.323 116.254 172.149 117.157 171.814C119.81 170.758 122.168 169.078 124.034 166.916C125.899 164.755 127.216 162.176 127.874 159.398C129.737 151.678 124.096 150.003 121.275 150.419C118.454 150.834 113.883 152.862 110.785 153.29C107.687 153.718 101.164 152.673 98.0159 154.839C94.8677 157.005 95.9129 162.974 101.617 167.382Z" fill="#669475"/>
<path opacity="0.3" d="M101.617 167.382C106.755 171.336 111.251 172.419 114.336 172.331C115.299 172.323 116.254 172.149 117.157 171.814C119.81 170.758 122.168 169.078 124.034 166.916C125.899 164.755 127.216 162.176 127.874 159.398C129.737 151.678 124.096 150.003 121.275 150.419C118.454 150.834 113.883 152.862 110.785 153.29C107.687 153.718 101.164 152.673 98.0159 154.839C94.8677 157.005 95.9129 162.974 101.617 167.382Z" fill="white"/>
<path opacity="0.9" d="M114.336 172.33C115.299 172.323 116.253 172.148 117.156 171.814C121.069 167.992 123.523 162.923 124.095 157.483C124.095 157.483 124.007 157.42 124.007 157.483C123.378 160.511 122.232 163.408 120.619 166.046C119.931 167.165 119.148 168.223 118.277 169.207C119.74 165.047 120.356 160.638 120.091 156.236H119.952C119.922 159.036 119.558 161.822 118.869 164.535C118.329 166.46 117.656 168.345 116.854 170.177C117.577 166.791 117.705 163.305 117.232 159.876C117.298 163.445 116.96 167.011 116.225 170.504C115.822 165.958 115.066 161.412 115.041 156.841C114.686 161.23 114.716 165.642 115.129 170.026C113.9 167.12 112.89 164.128 112.107 161.072C112.107 161.072 111.993 161.072 112.006 161.072C112.435 164.25 113.282 167.358 114.524 170.315C111.049 166.449 107.812 162.545 106.062 157.936C106.062 157.873 105.898 157.936 105.911 157.936C107.857 163.284 111.047 168.092 115.217 171.965C113.266 170.899 111.412 169.664 109.676 168.275C107.445 166.459 105.512 164.305 103.946 161.891C103.946 161.891 103.808 161.891 103.846 161.891C106.283 166.294 109.92 169.914 114.336 172.33Z" fill="#669475"/>
<path d="M50.1502 218.081C51.8346 217.691 53.5995 217.85 55.1873 218.534C56.8622 218.761 58.6126 218.358 60.2245 218.66C61.3692 218.826 62.4819 219.165 63.5238 219.667V219.793C60.6023 220.574 57.8948 219.453 55.0866 218.937C53.3713 219.234 51.606 218.974 50.0494 218.194V218.081H50.1502Z" fill="#263238"/>
<path d="M52.228 224.289C53.3589 223.426 54.7847 223.046 56.1947 223.231C57.5296 222.941 58.7133 222.047 60.0859 221.845C61.0143 221.675 61.9658 221.675 62.8942 221.845V221.971C60.8541 223.596 58.6126 223.294 56.2577 223.646C55.0702 224.428 53.6233 224.713 52.228 224.44V224.314V224.289Z" fill="#263238"/>
<path d="M181.859 193.373C182.046 191.964 182.778 190.684 183.899 189.809C184.642 188.663 184.831 187.178 185.649 186.032C186.173 185.251 186.835 184.573 187.601 184.029L187.715 184.092C187.438 186.686 185.637 188.059 184.239 189.986C184.104 190.676 183.835 191.333 183.446 191.918C183.057 192.504 182.556 193.007 181.972 193.398L181.859 193.335V193.373Z" fill="#263238"/>
<path d="M191.618 191.686C190.664 192.737 189.334 193.371 187.916 193.449C186.657 193.965 185.637 195.061 184.327 195.501C183.453 195.847 182.522 196.026 181.582 196.03V195.917C183.282 193.952 185.548 193.852 187.803 193.071C188.82 192.1 190.174 191.562 191.58 191.572V191.686H191.618Z" fill="#263238"/>
<path d="M65.5885 209.039C64.1673 208.928 62.8465 208.263 61.9114 207.187C60.7277 206.52 59.2417 206.394 58.1335 205.638C57.3275 205.152 56.6152 204.525 56.0305 203.787L56.0935 203.687C58.6876 203.812 60.161 205.538 62.1633 206.835C63.5662 207.045 64.8315 207.795 65.6893 208.925V209.039H65.5885Z" fill="#263238"/>
<path d="M177.453 251.477C178.858 251.712 180.115 252.49 180.953 253.643C182.074 254.423 183.548 254.675 184.631 255.531C185.39 256.089 186.047 256.775 186.57 257.559L186.494 257.66C183.913 257.294 182.591 255.443 180.727 253.983C179.343 253.655 178.144 252.796 177.39 251.59L177.453 251.477Z" fill="#263238"/>
<path d="M115.847 167.167C115.847 167.167 97.6759 168.288 82.4133 177.921C68.75 186.547 57.8571 202.377 57.5801 224.263C56.9882 270.605 93.9862 270.731 99.0611 271.323C99.0611 271.323 101.819 274.987 120.003 274.396C120.003 274.396 130.14 277.72 138.892 273.804C138.892 273.804 146.247 275.957 154.47 270.101C154.47 270.101 189.906 266.323 193.823 228.545C197.739 190.766 167.226 171.058 147.67 167.154C137.175 164.968 126.341 164.972 115.847 167.167Z" fill="#669475"/>
<path opacity="0.1" d="M115.847 167.167C109.282 185.57 106.344 205.07 107.195 224.591C108.001 241.327 108.455 256.665 120.002 274.396C120.002 274.396 108.946 274.396 101.113 258.931C91.7314 240.42 91.0388 209.341 97.8137 193.171C101.97 183.354 108.109 174.501 115.847 167.167Z" fill="black"/>
<path opacity="0.1" d="M99.0606 271.323C99.0606 271.323 82.1483 257.572 80.0957 229.213C78.043 200.853 88.5203 176.398 112.837 168.527C112.837 168.527 81.355 170.265 72.8547 208.585C64.3545 246.906 85.3721 264.951 99.0606 271.323Z" fill="black"/>
<path opacity="0.1" d="M117.082 167.167C133.227 182.782 143.582 203.422 146.449 225.699C150.894 262.508 138.893 273.804 138.893 273.804C138.893 273.804 157.09 264.989 161.648 244.664C166.207 224.339 154.206 196.521 144.799 186.396C131.299 171.789 117.082 167.167 117.082 167.167Z" fill="black"/>
<path d="M119.954 274.434C108.13 260.116 105.8 240.71 104.289 222.803C103.719 213.691 104.264 204.544 105.913 195.564C107.639 186.749 110.157 177.279 114.728 169.736C111.196 178.094 108.659 186.84 107.173 195.791C104.931 209.152 104.1 222.941 106.127 236.391C108.47 249.689 112.776 263.201 119.98 274.472L119.954 274.434Z" fill="#263238"/>
<path d="M118.228 167.985C133.088 177.38 142.029 193.612 146.915 210.096C151.801 226.58 153.879 245.041 146.726 261.173C144.682 265.699 142.084 269.954 138.994 273.841C141.21 269.749 144.182 265.366 145.807 260.795C151.285 247.018 150.932 231.831 148.225 217.4C144.56 198.095 133.113 180.226 118.228 167.985Z" fill="#263238"/>
<path d="M99.0237 271.374C85.7759 260.204 81.3936 247.938 80.3862 231.076C78.0187 211.091 83.2196 188.626 99.1874 175.277C103.116 172.192 108.103 169.321 112.838 168.641C103.091 171.638 95.4473 178.979 90.2716 187.53C78.5476 206.986 77.389 232.121 86.0656 253.013C88.8864 260.04 94.2258 265.971 99.0237 271.462V271.374Z" fill="#263238"/>
<path d="M121.263 167.104C138.339 168.364 154.156 178.803 163.676 192.794C168.502 199.886 171.799 207.905 173.357 216.341C174.916 224.777 174.703 233.444 172.73 241.793C169.978 252.975 163.574 262.919 154.533 270.051C162.812 262.356 168.693 252.434 171.471 241.478C175.135 225.296 173.196 206.835 163.361 193.058C153.126 179.414 138.11 170.143 121.326 167.104H121.263Z" fill="#263238"/>
<path d="M121.3 186.409C123.737 196.179 125.637 206.075 126.992 216.053C129.813 232.562 133.289 249.134 132.911 265.971H132.81C131.551 249.273 129.284 232.65 126.678 216.103C124.814 206.281 122.484 196.181 121.3 186.409Z" fill="#263238"/>
<path opacity="0.1" d="M123.354 167.432C123.354 167.432 166.006 174.383 172.73 215.713C179.027 254.31 155.025 269.547 155.025 269.547C155.025 269.547 176.634 259.221 180.676 238.884C184.719 218.546 179.241 192.353 162.82 180.956C146.399 169.56 123.354 167.432 123.354 167.432Z" fill="black"/>
<path d="M159.256 250.054C158.419 251.195 157.166 251.959 155.768 252.182C154.509 252.824 153.678 254.021 152.431 254.587C151.595 255.011 150.692 255.284 149.761 255.393L149.698 255.28C151.197 253.139 153.476 252.824 155.567 251.829C156.017 251.293 156.57 250.851 157.192 250.529C157.815 250.207 158.495 250.011 159.193 249.953L159.256 250.054Z" fill="#263238"/>
<path d="M158.36 256.112C157.786 256.494 157.087 256.639 156.408 256.515C156.118 256.34 155.794 256.229 155.458 256.187C155.122 256.146 154.78 256.176 154.456 256.275C153.823 256.518 153.142 256.61 152.466 256.544C151.791 256.479 151.14 256.257 150.565 255.897V255.772C151.164 255.426 151.839 255.236 152.53 255.217C153.512 255.129 154.456 255.759 155.439 255.759C155.901 255.53 156.416 255.43 156.931 255.469C157.445 255.509 157.939 255.688 158.36 255.986V256.112Z" fill="#263238"/>
<path d="M154.257 245.57C154.267 246.272 154.135 246.968 153.869 247.618C153.603 248.267 153.208 248.856 152.708 249.348C152.129 250.607 152.129 252.03 151.449 253.214C151.031 254.042 150.463 254.785 149.774 255.405H149.661C149.661 252.799 151.185 251.3 152.331 249.235C152.377 248.543 152.561 247.868 152.87 247.248C153.179 246.627 153.608 246.074 154.131 245.621H154.245L154.257 245.57Z" fill="#263238"/>
<path d="M182.566 216.128C182.241 216.75 181.797 217.301 181.259 217.75C180.721 218.2 180.099 218.539 179.43 218.747C178.347 219.553 177.642 220.876 176.496 221.619C175.738 222.17 174.884 222.576 173.977 222.815L173.902 222.714C175.06 220.372 177.201 219.73 179.191 218.42C179.556 217.824 180.036 217.305 180.602 216.895C181.168 216.484 181.81 216.189 182.49 216.027L182.566 216.128Z" fill="#263238"/>
<path d="M176.697 214.555C176.856 215.225 176.757 215.931 176.42 216.532C176.158 216.745 175.945 217.012 175.793 217.313C175.641 217.615 175.554 217.945 175.538 218.282C175.555 218.962 175.412 219.636 175.121 220.25C174.83 220.865 174.399 221.403 173.863 221.821H173.75C173.634 221.139 173.682 220.44 173.889 219.781C174.141 218.824 175.06 218.144 175.387 217.262C175.325 216.752 175.402 216.234 175.611 215.764C175.819 215.294 176.151 214.889 176.571 214.592H176.697V214.555Z" fill="#263238"/>
<path d="M184.694 222.5C184.073 222.809 183.397 222.992 182.705 223.037C182.013 223.083 181.319 222.99 180.664 222.765C179.329 222.765 177.994 223.419 176.647 223.344C175.72 223.342 174.802 223.167 173.939 222.827V222.702C176.256 221.442 178.296 222.248 180.651 222.349C181.291 222.081 181.978 221.943 182.672 221.943C183.366 221.943 184.053 222.081 184.694 222.349V222.475V222.5Z" fill="#263238"/>
<path d="M75.5492 254.512C75.9941 254.004 76.5366 253.59 77.1445 253.296C77.7524 253.002 78.4133 252.833 79.0878 252.799C80.3471 252.296 81.2412 251.213 82.4753 250.784C83.3168 250.451 84.2148 250.285 85.1198 250.293V250.407C83.4575 252.384 81.3419 252.396 79.2011 253.177C78.7245 253.653 78.1561 254.027 77.5304 254.276C76.9047 254.524 76.2349 254.643 75.5618 254.625V254.512H75.5492Z" fill="#263238"/>
<path d="M80.6638 257.356C80.6568 257.025 80.7156 256.695 80.8366 256.386C80.9576 256.077 81.1386 255.795 81.369 255.556C81.923 255.203 82.4771 254.851 82.6282 254.133C82.7616 253.494 83.0477 252.896 83.4622 252.392C83.8767 251.888 84.4072 251.491 85.0083 251.236L85.1216 251.312C85.0824 251.977 84.8791 252.621 84.5298 253.188C84.0764 254.019 83.0438 254.448 82.5275 255.216C82.4782 255.711 82.2884 256.181 81.9805 256.571C81.6726 256.962 81.2594 257.256 80.7897 257.419L80.6889 257.356H80.6638Z" fill="#263238"/>
<path d="M75.0601 248.077C75.7039 247.93 76.3707 247.916 77.0201 248.035C77.6695 248.154 78.288 248.404 78.838 248.769C80.0973 249.071 81.4825 248.769 82.7292 249.134C83.5927 249.36 84.4049 249.749 85.1218 250.28V250.406C82.6032 251.023 80.9787 249.827 78.8254 249.147C78.1628 249.256 77.4848 249.227 76.8343 249.06C76.1839 248.893 75.5754 248.592 75.0475 248.177V248.051L75.0601 248.077Z" fill="#263238"/>
<path d="M166.255 182.77C166.257 183.537 165.999 184.283 165.525 184.886C164.895 185.296 164.445 185.931 164.266 186.661C164.12 187.404 163.82 188.107 163.386 188.728C162.953 189.348 162.394 189.871 161.747 190.263L161.634 190.2C161.668 189.437 161.874 188.692 162.238 188.021C162.704 187.014 163.787 186.397 164.316 185.44C164.376 184.872 164.571 184.326 164.887 183.851C165.203 183.375 165.629 182.982 166.13 182.707H166.243L166.255 182.77Z" fill="#263238"/>
<path d="M161.396 183.286C161.586 183.494 161.726 183.743 161.805 184.014C161.883 184.285 161.899 184.57 161.85 184.848C161.687 185.073 161.586 185.336 161.555 185.612C161.524 185.887 161.565 186.166 161.673 186.422C161.931 186.915 162.042 187.472 161.99 188.026C161.939 188.58 161.728 189.108 161.384 189.545H161.258C160.912 189.092 160.702 188.551 160.653 187.983C160.54 187.19 161.157 186.409 161.119 185.628C160.876 185.278 160.759 184.856 160.787 184.431C160.814 184.006 160.985 183.602 161.27 183.286H161.396Z" fill="#263238"/>
<path d="M127.999 170.58C128.205 170.772 128.364 171.01 128.463 171.275C128.561 171.539 128.596 171.823 128.566 172.104C128.42 172.338 128.338 172.607 128.327 172.882C128.316 173.158 128.376 173.432 128.503 173.678C128.805 174.145 128.966 174.689 128.966 175.246C128.966 175.802 128.805 176.346 128.503 176.813H128.377C127.998 176.388 127.749 175.864 127.659 175.302C127.483 174.522 128.037 173.703 127.949 172.922C127.682 172.588 127.537 172.173 127.537 171.745C127.537 171.317 127.682 170.902 127.949 170.567L127.999 170.58Z" fill="#263238"/>
<path d="M134.133 174.824C134.05 175.081 133.906 175.314 133.712 175.502C133.519 175.691 133.283 175.83 133.024 175.907C132.483 175.907 131.954 175.907 131.627 176.423C131.331 176.866 130.908 177.21 130.414 177.408C129.919 177.606 129.376 177.649 128.856 177.531L128.793 177.431C129.001 176.912 129.367 176.471 129.838 176.171C130.468 175.718 131.387 175.932 132.03 175.567C132.571 174.874 133.024 174.396 134.082 174.673V174.786L134.133 174.824Z" fill="#263238"/>
<path d="M81.9221 184.004C82.667 184.195 83.3218 184.641 83.7732 185.263C84.0103 185.985 84.515 186.589 85.1836 186.951C85.863 187.275 86.4677 187.737 86.9596 188.307C87.4516 188.877 87.8202 189.543 88.0422 190.263L87.9541 190.351C87.2216 190.127 86.5497 189.74 85.9896 189.217C85.1332 188.525 84.8058 187.316 84.0251 186.56C83.4886 186.362 83.0086 186.036 82.6267 185.61C82.2449 185.185 81.9727 184.672 81.8339 184.117L81.9221 184.029V184.004Z" fill="#263238"/>
<path d="M86.7959 183.425C87.03 183.586 87.225 183.797 87.3666 184.043C87.5083 184.29 87.593 184.565 87.6144 184.848C87.5036 185.101 87.4627 185.38 87.4959 185.654C87.5291 185.929 87.6353 186.19 87.8033 186.409C88.1696 186.829 88.408 187.345 88.4906 187.896C88.5731 188.448 88.4963 189.011 88.2693 189.52H88.1433C87.6953 189.162 87.3625 188.68 87.1863 188.135C86.8967 187.404 87.2996 186.497 87.0855 185.754C86.7662 185.471 86.5515 185.088 86.4761 184.668C86.4007 184.248 86.469 183.814 86.67 183.437H86.7959V183.425Z" fill="#263238"/>
<path d="M82.1502 189.267C82.3705 189.111 82.6249 189.01 82.8923 188.973C83.1596 188.936 83.432 188.963 83.6865 189.053C84.1272 189.368 84.5428 189.695 85.1221 189.469C85.6242 189.292 86.1682 189.27 86.6827 189.407C87.1972 189.544 87.6584 189.833 88.0059 190.237V190.363C87.528 190.635 86.9799 190.757 86.4318 190.715C85.6636 190.715 85.0465 189.985 84.3161 189.897C83.4724 190.124 82.8302 190.249 82.1376 189.393V189.267H82.1502Z" fill="#263238"/>
<path d="M113.178 223.18C112.602 223.687 111.867 223.977 111.101 223.998C110.373 223.781 109.589 223.849 108.909 224.187C108.255 224.564 107.53 224.799 106.78 224.88C106.03 224.96 105.271 224.883 104.552 224.653V224.527C105.152 224.049 105.855 223.718 106.605 223.558C107.663 223.268 108.834 223.684 109.904 223.47C110.373 223.141 110.915 222.931 111.484 222.858C112.052 222.786 112.629 222.853 113.166 223.054V223.18H113.178Z" fill="#263238"/>
<path d="M109.614 219.83C109.58 220.111 109.483 220.38 109.331 220.617C109.178 220.855 108.974 221.055 108.733 221.203C108.179 221.341 107.65 221.48 107.474 222.084C107.268 222.594 106.922 223.034 106.476 223.355C106.031 223.676 105.503 223.864 104.955 223.898L104.867 223.81C104.988 223.25 105.262 222.735 105.66 222.324C106.189 221.732 107.171 221.681 107.751 221.152C108.128 220.347 108.519 219.729 109.627 219.729L109.703 219.83H109.614Z" fill="#263238"/>
<path d="M103.859 228.23C103.378 228.639 102.812 228.937 102.203 229.102C101.593 229.268 100.955 229.297 100.333 229.187C99.149 229.439 98.0912 230.308 96.8823 230.446C96.0513 230.616 95.1947 230.616 94.3637 230.446V230.32C95.6999 229.296 97.3703 228.806 99.0483 228.948C99.473 228.983 99.9006 228.936 100.308 228.809C100.818 228.438 101.405 228.183 102.025 228.063C102.645 227.944 103.284 227.962 103.897 228.117V228.243L103.859 228.23Z" fill="#263238"/>
<path d="M102.84 232.839C102.222 233.17 101.501 233.251 100.825 233.066C100.55 232.866 100.237 232.727 99.9045 232.658C99.5725 232.589 99.2295 232.59 98.8981 232.663C98.2379 232.845 97.5447 232.873 96.872 232.744C96.1994 232.615 95.5655 232.333 95.0195 231.92V231.794C95.656 231.51 96.3508 231.38 97.0469 231.416C98.0417 231.416 98.9484 232.146 99.9181 232.234C100.403 232.044 100.93 231.988 101.445 232.072C101.959 232.156 102.441 232.378 102.84 232.713V232.839Z" fill="#263238"/>
<path d="M7.67437 220.989C7.00526 220.791 6.44023 220.339 6.10025 219.73C6.04903 219.393 5.9272 219.071 5.74274 218.784C5.55827 218.498 5.31534 218.254 5.02987 218.067C4.43585 217.728 3.92808 217.255 3.54591 216.688C3.16375 216.12 2.91745 215.472 2.82611 214.793L2.92686 214.718C3.57463 214.968 4.15319 215.37 4.6143 215.889C5.3195 216.607 5.43283 217.753 6.06248 218.508C6.5382 218.718 6.9485 219.052 7.24998 219.475C7.55145 219.898 7.7329 220.395 7.77511 220.913L7.67437 220.989Z" fill="#263238"/>
<path d="M0.647583 220.398C1.3116 220.18 2.03451 220.229 2.66244 220.536C2.89896 220.783 3.18513 220.977 3.50205 221.105C3.81897 221.233 4.15944 221.292 4.50101 221.279C5.18193 221.219 5.86747 221.317 6.50493 221.563C7.14239 221.81 7.71479 222.2 8.17813 222.702V222.828C7.49949 222.992 6.79154 222.992 6.1129 222.828C5.14324 222.652 4.37507 221.783 3.4306 221.569C2.92015 221.667 2.39277 221.626 1.90334 221.451C1.4139 221.276 0.980285 220.973 0.647583 220.574V220.448V220.398Z" fill="#263238"/>
<path d="M92.0341 222.802C92.2686 222.142 92.7523 221.599 93.3816 221.291C93.7187 221.257 94.045 221.153 94.3399 220.986C94.6347 220.819 94.8916 220.593 95.0942 220.321C95.4645 219.745 95.9629 219.263 96.5505 218.911C97.1381 218.559 97.7991 218.348 98.4817 218.294V218.395C98.2014 219.031 97.769 219.589 97.2224 220.019C96.4794 220.674 95.3209 220.75 94.5401 221.278C94.3015 221.744 93.9414 222.136 93.498 222.413C93.0545 222.69 92.5443 222.842 92.0215 222.853L91.9586 222.752L92.0341 222.802Z" fill="#263238"/>
<path d="M15.5834 262.18C15.3935 262.866 14.9411 263.45 14.3241 263.804C13.99 263.867 13.6728 263.999 13.393 264.193C13.1132 264.386 12.877 264.635 12.6996 264.925C12.3855 265.533 11.9339 266.058 11.3808 266.461C10.8277 266.863 10.1883 267.131 9.51362 267.242L9.42548 267.142C9.65817 266.486 10.0422 265.895 10.5462 265.416C11.2263 264.699 12.3722 264.535 13.0648 263.88C13.2594 263.397 13.581 262.976 13.9956 262.661C14.4102 262.346 14.9023 262.15 15.4197 262.092L15.4952 262.18H15.5834Z" fill="#263238"/>
<path d="M52.846 196.962C52.846 196.962 65.93 196.32 77.5911 201.999C88.0432 207.036 97.0849 217.526 98.999 233.141C103.092 266.21 76.6718 269.245 73.0828 270.064C73.0828 270.064 71.4079 272.91 58.3617 273.93C58.3617 273.93 51.3852 277.103 44.7866 275.013C40.4535 275.356 36.1158 274.41 32.3196 272.293C32.3196 272.293 7.76342 273.64 1.97068 247.031C-3.82205 220.423 16.4148 203.838 30.0781 199.493C37.4103 197.082 45.1633 196.22 52.846 196.962Z" fill="#669475"/>
<path opacity="0.3" d="M52.846 196.962C52.846 196.962 65.93 196.32 77.5911 201.999C88.0432 207.036 97.0849 217.526 98.999 233.141C103.092 266.21 76.6718 269.245 73.0828 270.064C73.0828 270.064 71.4079 272.91 58.3617 273.93C58.3617 273.93 51.3852 277.103 44.7866 275.013C40.4535 275.356 36.1158 274.41 32.3196 272.293C32.3196 272.293 7.76342 273.64 1.97068 247.031C-3.82205 220.423 16.4148 203.838 30.0781 199.493C37.4103 197.082 45.1633 196.22 52.846 196.962Z" fill="black"/>
<path opacity="0.1" d="M52.8441 196.962C58.9929 209.575 62.6407 223.259 63.5859 237.259C64.3414 249.273 65.2229 260.279 58.385 273.867C58.385 273.867 66.2933 273.023 70.6757 261.274C75.9143 247.308 73.9372 225.032 67.8171 214.025C64.0525 207.368 58.9553 201.56 52.8441 196.962Z" fill="black"/>
<path opacity="0.1" d="M73.1066 270.051C73.1066 270.051 84.1002 258.881 83.3194 238.455C82.5387 218.03 73.1066 201.394 55.1239 197.692C55.1239 197.692 77.7911 196.433 86.8706 223.142C95.9501 249.852 82.3875 264.422 73.1066 270.051Z" fill="black"/>
<path opacity="0.1" d="M51.9628 197.062C41.6547 209.496 35.8817 225.065 35.592 241.213C35.3276 267.872 44.7722 275 44.7722 275C44.7722 275 31.0712 270.152 26.1977 255.972C21.3243 241.792 27.6963 220.989 33.6149 213.005C38.4044 206.333 44.6876 200.874 51.9628 197.062Z" fill="black"/>
<path d="M58.3344 273.879C62.679 265.064 64.3916 255.292 65.2353 245.633C65.3697 235.853 63.9804 226.111 61.1174 216.758C59.3712 210.482 56.9298 204.421 53.8387 198.687L53.9521 198.624C63.5101 212.174 66.3561 229.351 65.6383 245.646C65.722 252.241 64.7614 258.807 62.7923 265.102C61.7859 268.238 60.3219 271.209 58.4478 273.917L58.3344 273.841V273.879Z" fill="#263238"/>
<path d="M51.2848 197.818C43.917 205.464 38.5266 214.792 35.5814 224.994C32.1813 238.342 32.7984 253.768 39.0067 266.172C40.6677 269.294 42.6289 272.246 44.8624 274.987L44.7617 275.063C42.2026 272.564 39.9763 269.745 38.1378 266.676C31.6272 255.708 31.6776 242.259 33.9947 230.157C35.6444 221.405 38.3519 212.665 43.792 205.487C45.8761 202.575 48.3749 199.982 51.2092 197.793L51.2848 197.881V197.818Z" fill="#263238"/>
<path d="M73.0577 270.014C87.0233 252.963 85.7136 226.719 72.5792 209.568C68.2472 203.85 62.2782 199.216 55.1129 197.743C58.4878 197.68 62.4167 199.43 65.4768 201.269C78.0697 209.479 83.4721 225.195 83.321 239.765C83.6484 247.044 83.3209 254.738 79.6942 261.261C77.9318 264.487 75.7324 267.453 73.1585 270.076L73.0577 269.988V270.014Z" fill="#263238"/>
<path d="M48.9923 197.453C37.4689 200.927 27.6146 208.497 21.2879 218.735C14.45 230.522 15.0796 246.691 20.9227 258.755C23.6439 264.061 27.5472 268.671 32.3319 272.23C27.027 269.198 22.6877 264.727 19.8146 259.335C11.3647 243.027 15.3063 221.77 27.9873 208.749C30.8333 205.863 34.0671 203.388 37.5957 201.395C41.0462 199.581 45.1515 197.554 48.9293 197.453H48.9923Z" fill="#263238"/>
<path d="M50.5779 211.154C50.5779 220.826 48.8905 230.358 48.7771 240.017C48.7142 248.517 48.3364 260.531 48.6008 268.918H48.5127C46.6615 256.929 48.0089 244.79 48.7393 232.776C49.0164 225.611 49.1549 218.043 50.5779 211.154Z" fill="#263238"/>
<path opacity="0.1" d="M47.506 197.742C47.506 197.742 17.5852 206.104 16.0237 236.201C14.5881 264.283 31.8908 271.965 31.8908 271.965C31.8908 271.965 16.6785 267.595 12.1703 253.39C7.66202 239.185 9.51318 220.019 20.3431 210.574C31.173 201.13 47.506 197.742 47.506 197.742Z" fill="black"/>
<path d="M28.4535 259.536C29.1318 259.395 29.8385 259.516 30.4306 259.876C30.6427 260.14 30.9059 260.359 31.2045 260.519C31.5031 260.679 31.831 260.777 32.1684 260.808C32.8488 260.815 33.5182 260.98 34.1236 261.29C34.7291 261.601 35.2539 262.048 35.6566 262.596V262.709C34.9703 262.806 34.2709 262.736 33.6166 262.508C32.6721 262.231 32.0173 261.249 31.098 260.934C30.5846 260.982 30.0678 260.89 29.6022 260.669C29.1367 260.447 28.7397 260.103 28.4535 259.675V259.561V259.536Z" fill="#263238"/>
<path d="M29.5107 263.78C29.6516 263.578 29.8402 263.413 30.0599 263.301C30.2795 263.189 30.5235 263.133 30.77 263.138C31.2611 263.314 31.7271 263.503 32.1804 263.138C32.58 262.826 33.0679 262.649 33.5745 262.63C34.0811 262.612 34.5804 262.755 35.0012 263.037V263.163C34.671 263.549 34.232 263.825 33.7419 263.957C33.0116 264.158 32.2686 263.654 31.5885 263.78C30.8959 264.246 30.3293 264.549 29.4855 263.931V263.806L29.5107 263.78Z" fill="#263238"/>
<path d="M31.6881 256.01C32.3211 256.285 32.8224 256.795 33.0859 257.433C33.0923 257.767 33.1698 258.096 33.3131 258.397C33.4564 258.699 33.6623 258.967 33.917 259.183C34.458 259.585 34.8978 260.107 35.2017 260.708C35.5055 261.309 35.665 261.973 35.6674 262.646L35.5541 262.709C34.9446 262.395 34.4246 261.931 34.043 261.362C33.4385 260.581 33.4763 259.448 32.9474 258.629C32.5148 258.371 32.16 258 31.9206 257.557C31.6812 257.114 31.566 256.614 31.5873 256.11H31.6881V256.01Z" fill="#263238"/>
<path d="M9.10997 237.121C9.80442 237.083 10.4877 237.308 11.0241 237.751C11.1887 238.048 11.4139 238.306 11.6851 238.51C11.9563 238.714 12.2674 238.859 12.5982 238.935C13.2687 239.044 13.9049 239.307 14.4575 239.702C15.01 240.097 15.464 240.615 15.7842 241.214L15.7212 241.327C15.0275 241.319 14.3456 241.147 13.7316 240.824C12.8375 240.408 12.3211 239.375 11.4774 238.884C10.9609 238.855 10.4621 238.686 10.0341 238.396C9.60609 238.105 9.26494 237.704 9.047 237.235V237.121H9.10997Z" fill="#263238"/>
<path d="M13.2288 235.597C13.4793 235.663 13.7085 235.792 13.8939 235.973C14.0792 236.154 14.2145 236.38 14.2866 236.629C14.2866 237.146 14.2866 237.649 14.7777 237.952C15.2083 238.22 15.542 238.619 15.73 239.09C15.918 239.561 15.9506 240.08 15.8229 240.571H15.7096C15.2227 240.387 14.8077 240.051 14.5258 239.614C14.0851 238.997 14.3117 238.128 13.9591 237.536C13.2917 237.032 12.8258 236.629 13.1154 235.609H13.2288V235.597Z" fill="#263238"/>
<path d="M8.04072 241.855C8.56878 241.417 9.2444 241.196 9.92966 241.238C10.2337 241.378 10.5645 241.451 10.8993 241.451C11.2341 241.451 11.5649 241.378 11.869 241.238C12.4701 240.934 13.1345 240.775 13.8083 240.775C14.4821 240.775 15.1464 240.934 15.7476 241.238V241.364C15.1875 241.764 14.5397 242.023 13.8586 242.12C12.9016 242.309 11.8942 241.78 10.9371 241.893C10.5055 242.17 10.0071 242.324 9.4948 242.339C8.98254 242.355 8.47566 242.231 8.02814 241.981V241.855H8.04072Z" fill="#263238"/>
<path d="M88.5453 256.288C87.9068 256.497 87.2121 256.452 86.606 256.162C86.3902 255.916 86.122 255.722 85.8213 255.593C85.5206 255.465 85.1949 255.405 84.8682 255.419C84.2154 255.483 83.5566 255.39 82.9473 255.147C82.338 254.904 81.7962 254.517 81.3674 254.021V253.907C82.0163 253.744 82.6955 253.744 83.3445 253.907C84.2763 254.084 84.9941 254.953 85.863 255.167C86.3516 255.067 86.8582 255.107 87.3256 255.28C87.793 255.454 88.2024 255.755 88.5075 256.149V256.275L88.5453 256.288Z" fill="#263238"/>
<path d="M85.0695 258.692C84.816 258.696 84.566 258.633 84.3448 258.509C84.1236 258.385 83.9392 258.205 83.8102 257.987C83.6969 257.496 83.6339 257.03 83.0546 256.866C82.5878 256.721 82.1813 256.427 81.8971 256.029C81.613 255.631 81.4666 255.151 81.4805 254.662L81.5687 254.574C82.0741 254.629 82.5497 254.84 82.9287 255.179C83.4954 255.67 83.445 256.526 83.911 257.005C84.6665 257.294 85.1702 257.559 85.1702 258.604L85.0821 258.692H85.0695Z" fill="#263238"/>
<path d="M88.4575 251.64C88.2727 251.912 88.0345 252.144 87.7574 252.321C87.4804 252.499 87.1702 252.618 86.8456 252.672C86.5285 252.604 86.2002 252.607 85.8845 252.681C85.5687 252.755 85.2733 252.898 85.0196 253.1C84.5389 253.534 83.9598 253.845 83.3323 254.005C82.7049 254.165 82.0479 254.17 81.418 254.02V253.906C81.8345 253.388 82.3763 252.985 82.9921 252.735C83.8359 252.32 84.9063 252.609 85.7752 252.282C86.105 251.915 86.5321 251.649 87.0069 251.516C87.4817 251.382 87.9847 251.386 88.4575 251.526V251.64Z" fill="#263238"/>
<path d="M18.1525 212.048C18.4333 212.095 18.699 212.208 18.9286 212.376C19.1582 212.544 19.3452 212.764 19.4748 213.017C19.5881 213.572 19.6889 214.113 20.2807 214.378C20.7882 214.614 21.2171 214.991 21.5163 215.465C21.8154 215.938 21.9723 216.487 21.9682 217.047L21.8674 217.123C21.3153 216.97 20.8176 216.665 20.4318 216.241C19.8651 215.675 19.8652 214.692 19.374 214.088C18.5807 213.647 17.9888 213.232 18.0518 212.123L18.1525 212.048Z" fill="#263238"/>
<path d="M21.6902 212.086C22.5087 212.665 22.3073 213.068 22.0176 213.748C22.0176 214.29 22.685 214.693 22.6724 215.373C22.6724 215.612 22.4835 216.506 22.068 216.569C21.7084 216.318 21.4496 215.948 21.3376 215.524C21.1739 214.856 21.728 214.265 21.6146 213.786C21.1739 213.207 20.8968 212.842 21.6146 212.099L21.6902 212.086Z" fill="#263238"/>
<path d="M44.5466 200.362C45.3147 201.005 45.1006 201.395 44.748 202.037C44.748 202.579 45.3399 203.032 45.2769 203.712C45.2769 203.951 45.0125 204.82 44.5843 204.858C44.2425 204.584 44.0138 204.194 43.9421 203.762C43.8287 203.082 44.4206 202.591 44.3451 202.05C43.9547 201.433 43.7028 201.055 44.4206 200.362H44.5466Z" fill="#263238"/>
<path d="M40.4292 203.775C41.2981 203.309 41.5374 203.661 41.9781 204.215C42.4315 204.455 43.0611 204.039 43.6404 204.354C43.8419 204.455 44.5093 205.009 44.3708 205.424C43.9896 205.643 43.5401 205.711 43.1115 205.613C42.4567 205.45 42.2804 204.732 41.7766 204.593C41.5683 204.615 41.362 204.653 41.1596 204.707C40.87 204.707 40.2277 204.178 40.3788 203.775H40.4292Z" fill="#263238"/>
<path d="M78.5223 206.369C78.5428 206.654 78.4978 206.939 78.3908 207.203C78.2839 207.467 78.1177 207.703 77.9052 207.893C77.4015 208.145 76.8978 208.372 76.7971 209.014C76.6902 209.562 76.4299 210.068 76.0464 210.474C75.663 210.88 75.1721 211.168 74.6311 211.306L74.5303 211.23C74.5396 210.656 74.7145 210.096 75.034 209.618C75.4244 208.926 76.3941 208.687 76.8474 208.057C77.0741 207.188 77.326 206.508 78.4215 206.294L78.5223 206.369Z" fill="#263238"/>
<path d="M75.0089 206.294C75.6638 207.049 75.3867 207.402 74.9334 207.981C74.8201 208.51 75.3615 209.052 75.1852 209.719C75.1852 209.946 74.7445 210.764 74.3164 210.739C74.0252 210.407 73.8602 209.984 73.8504 209.543C73.8504 208.863 74.5178 208.472 74.5304 207.931C74.2408 207.263 74.0645 206.848 74.883 206.269H75.0089V206.294Z" fill="#263238"/>
<path d="M78.7118 210.171C78.2963 211.078 77.8933 210.927 77.2133 210.738C76.7096 210.826 76.4451 211.531 75.8029 211.632C75.5636 211.632 74.7073 211.632 74.5436 211.204C74.7187 210.819 75.0274 210.51 75.4125 210.335C76.017 210.071 76.5962 210.537 77.0747 210.335C77.2385 210.247 77.3518 210.008 77.5029 209.882C77.654 209.756 78.5733 209.756 78.6867 210.159L78.7118 210.171Z" fill="#263238"/>
<path d="M59.2169 236.667C59.4336 236.485 59.6904 236.357 59.9662 236.294C60.2421 236.23 60.5291 236.233 60.8036 236.302C61.0202 236.475 61.2771 236.589 61.5502 236.636C61.8233 236.682 62.1037 236.658 62.3651 236.567C62.8759 236.338 63.4413 236.261 63.9946 236.344C64.548 236.426 65.0661 236.665 65.4881 237.032V237.158C65.0178 237.485 64.4612 237.664 63.8888 237.675C63.0955 237.738 62.3399 237.083 61.5591 237.07C61.1938 237.292 60.7648 237.386 60.3403 237.335C59.9158 237.285 59.5203 237.094 59.2169 236.793V236.667Z" fill="#263238"/>
<path d="M61.5472 234.011C62.5169 233.771 62.7058 234.187 63.0206 234.842C63.4362 235.194 64.1666 234.955 64.6703 235.409C64.8592 235.56 65.4133 236.277 65.1866 236.668C64.7652 236.777 64.3186 236.733 63.9273 236.542C63.3228 236.24 63.2851 235.472 62.8065 235.207C62.0761 235.207 61.6228 235.132 61.5472 234.137L61.6228 234.036L61.5472 234.011Z" fill="#263238"/>
<path d="M228.391 242.159C228.174 242.4 227.91 242.593 227.616 242.728C227.321 242.862 227.002 242.934 226.678 242.939C226.38 242.823 226.06 242.776 225.741 242.803C225.423 242.829 225.114 242.927 224.839 243.091C224.309 243.445 223.7 243.664 223.065 243.727C222.431 243.791 221.79 243.698 221.2 243.456V243.33C221.674 242.883 222.255 242.566 222.887 242.411C223.769 242.133 224.776 242.574 225.671 242.411C226.041 242.095 226.496 241.894 226.978 241.831C227.461 241.769 227.952 241.848 228.391 242.058V242.184V242.159Z" fill="#263238"/>
<path d="M227.434 245.595C227.217 245.754 226.965 245.857 226.699 245.894C226.433 245.932 226.162 245.902 225.91 245.809C225.469 245.482 225.054 245.167 224.487 245.381C223.987 245.559 223.445 245.581 222.932 245.444C222.419 245.307 221.96 245.017 221.616 244.613V244.487C222.085 244.217 222.625 244.094 223.165 244.135C223.933 244.135 224.55 244.878 225.28 244.966C226.112 244.739 226.754 244.613 227.434 245.469V245.595Z" fill="#263238"/>
<path d="M156.586 233.129C156.315 233.086 156.058 232.978 155.839 232.813C155.619 232.649 155.443 232.433 155.327 232.184C155.251 231.655 155.188 231.126 154.622 230.925C154.146 230.693 153.751 230.322 153.491 229.861C153.23 229.4 153.115 228.871 153.161 228.343L153.262 228.28C153.787 228.422 154.257 228.721 154.609 229.137C155.125 229.691 155.05 230.635 155.49 231.214C156.246 231.643 156.75 232.02 156.649 233.103L156.548 233.179L156.586 233.129Z" fill="#263238"/>
<path d="M151.322 232.385C151.564 232.27 151.831 232.216 152.099 232.23C152.367 232.243 152.628 232.322 152.858 232.461C153.236 232.851 153.588 233.241 154.193 233.128C154.713 233.044 155.246 233.119 155.723 233.343C156.2 233.568 156.597 233.932 156.862 234.387V234.513C156.348 234.696 155.79 234.718 155.263 234.576C154.52 234.425 154.004 233.607 153.349 233.38C152.48 233.455 151.825 233.455 151.309 232.498V232.373L151.322 232.385Z" fill="#263238"/>
<path d="M219.715 237.638C219.777 237.376 219.901 237.134 220.076 236.93C220.252 236.726 220.473 236.567 220.722 236.467C221.264 236.467 221.78 236.391 222.07 235.837C222.323 235.373 222.712 234.998 223.185 234.762C223.658 234.526 224.191 234.44 224.714 234.515L224.79 234.615C224.614 235.12 224.289 235.559 223.858 235.875C223.278 236.378 222.347 236.24 221.73 236.655C221.264 237.386 220.861 237.915 219.79 237.713L219.715 237.6V237.638Z" fill="#263238"/>
<path d="M160.979 264.283C160.945 264.55 160.846 264.805 160.69 265.025C160.534 265.244 160.326 265.422 160.085 265.542C159.556 265.643 159.04 265.719 158.826 266.285C158.614 266.771 158.26 267.18 157.81 267.459C157.36 267.738 156.836 267.873 156.307 267.847L156.232 267.746C156.345 267.213 156.628 266.732 157.038 266.373C157.579 265.819 158.511 265.87 159.078 265.404C159.493 264.636 159.846 264.145 160.929 264.145L161.004 264.245L160.979 264.283Z" fill="#263238"/>
<path d="M191.355 216.82C197.743 217.005 204.011 218.61 209.702 221.518C217.334 225.724 223.718 233.884 224.575 245.658C226.388 270.592 206.491 271.864 203.771 272.343C203.771 272.343 202.411 274.408 192.601 274.672C192.601 274.672 187.249 276.788 182.388 274.975C179.126 275.071 175.908 274.194 173.145 272.456C173.145 272.456 154.671 272.582 151.347 252.395C148.022 232.209 163.801 220.586 174.19 217.841C179.78 216.317 185.624 215.969 191.355 216.82Z" fill="#669475"/>
<path opacity="0.2" d="M191.355 216.82C197.743 217.005 204.011 218.61 209.702 221.518C217.334 225.724 223.718 233.884 224.575 245.658C226.388 270.592 206.491 271.864 203.771 272.343C203.771 272.343 202.411 274.408 192.601 274.672C192.601 274.672 187.249 276.788 182.388 274.975C179.126 275.071 175.908 274.194 173.145 272.456C173.145 272.456 154.671 272.582 151.347 252.395C148.022 232.209 163.801 220.586 174.19 217.841C179.78 216.317 185.624 215.969 191.355 216.82Z" fill="black"/>
<path opacity="0.1" d="M191.354 216.821C195.496 226.511 197.724 236.911 197.915 247.447C198.016 256.489 198.268 264.762 192.639 274.673C192.639 274.673 198.583 274.346 202.31 265.745C206.768 255.469 206.088 238.708 201.957 230.233C199.387 225.078 195.777 220.512 191.354 216.821Z" fill="black"/>
<path opacity="0.1" d="M203.772 272.381C203.772 272.381 212.435 264.422 212.587 249.096C212.738 233.771 206.29 220.939 193.005 217.488C193.005 217.488 210.005 217.4 215.823 237.75C221.641 258.1 210.924 268.464 203.772 272.381Z" fill="black"/>
<path opacity="0.1" d="M190.687 216.858C182.522 225.796 177.638 237.244 176.835 249.323C175.576 269.283 182.439 274.975 182.439 274.975C182.439 274.975 172.365 270.819 169.229 260.027C166.094 249.235 171.672 233.871 176.407 228.104C180.228 223.296 185.118 219.446 190.687 216.858Z" fill="black"/>
<path d="M192.55 274.634C195.769 268.066 197.863 261.004 198.746 253.742C199.315 241.517 197.012 229.329 192.021 218.155L192.122 218.092C199.035 228.519 200.357 241.59 199.136 253.78C199.029 258.739 198.084 263.644 196.34 268.287C195.453 270.607 194.208 272.774 192.651 274.709L192.55 274.634Z" fill="#263238"/>
<path d="M190.158 217.413C184.474 222.96 180.113 229.718 177.402 237.184C174.208 247.304 174.586 258.213 178.472 268.087C179.581 270.488 180.909 272.781 182.439 274.938L182.338 275.013C180.464 273.078 178.862 270.896 177.578 268.528C173.007 260.065 173.649 249.928 175.928 240.912C177.528 234.426 179.706 227.878 184.152 222.74C185.844 220.642 187.843 218.812 190.083 217.312L190.158 217.413Z" fill="#263238"/>
<path d="M203.72 272.293C214.6 259.889 214.839 240.471 205.52 227.11C202.615 222.535 198.186 219.136 193.016 217.514V217.4C195.779 217.796 198.41 218.836 200.697 220.435C209.966 227.021 213.29 239.161 212.572 250.041C212.572 255.519 212.195 261.375 209.122 266.072C207.66 268.421 205.861 270.542 203.783 272.368L203.694 272.28L203.72 272.293Z" fill="#263238"/>
<path d="M188.446 217.06C179.766 219.367 172.168 224.643 166.975 231.97C162.038 239.45 161.723 249.222 163.827 257.698C165.397 263.422 168.658 268.539 173.183 272.381L173.107 272.482C170.563 270.807 168.331 268.702 166.509 266.261C153.664 248.631 166.773 218.723 188.446 217.022V217.06Z" fill="#263238"/>
<path d="M189.101 227.361C188.912 234.64 187.061 241.679 186.708 248.92C186.406 255.292 185.701 264.271 185.449 270.555C184.039 261.74 185.902 252.383 186.872 243.493C187.275 238.141 187.603 232.386 189.114 227.361H189.101Z" fill="#263238"/>
<path opacity="0.1" d="M187.313 217.199C187.313 217.199 164.583 222.337 162.303 244.828C160.162 265.808 172.843 272.218 172.843 272.218C172.843 272.218 161.611 268.364 158.777 257.56C155.944 246.755 158.034 232.462 166.509 225.813C174.984 219.164 187.313 217.199 187.313 217.199Z" fill="black"/>
<path d="M170.715 262.759C170.969 262.669 171.24 262.642 171.506 262.682C171.771 262.721 172.023 262.826 172.239 262.986C172.567 263.414 172.869 263.842 173.498 263.792C174.027 263.75 174.554 263.877 175.006 264.152C175.458 264.428 175.812 264.84 176.017 265.328V265.441C175.49 265.57 174.937 265.535 174.43 265.341C173.687 265.114 173.322 264.258 172.655 263.968C171.786 263.968 171.144 263.88 170.728 262.872V262.759H170.715Z" fill="#263238"/>
<path d="M171.345 265.983C171.924 265.177 172.277 265.391 172.906 265.706C173.41 265.706 173.775 265.063 174.43 265.101C174.657 265.101 175.488 265.315 175.538 265.731C175.314 266.084 174.962 266.336 174.556 266.436C173.914 266.575 173.435 266.008 172.944 266.109C172.768 266.109 172.617 266.373 172.44 266.474C172.264 266.575 171.383 266.398 171.345 265.983Z" fill="#263238"/>
<path d="M173.308 260.229C173.561 260.304 173.791 260.439 173.98 260.624C174.169 260.808 174.31 261.035 174.391 261.286C174.391 261.828 174.391 262.344 174.92 262.659C175.361 262.938 175.705 263.347 175.903 263.83C176.102 264.313 176.145 264.845 176.028 265.354H175.915C175.397 265.168 174.955 264.819 174.655 264.359C174.202 263.742 174.403 262.848 174.038 262.218C173.358 261.714 172.88 261.286 173.144 260.241H173.257L173.308 260.229Z" fill="#263238"/>
<path d="M157.078 245.255C157.342 245.208 157.613 245.224 157.87 245.303C158.126 245.381 158.36 245.521 158.551 245.709C158.816 246.175 159.042 246.653 159.659 246.691C160.188 246.728 160.691 246.93 161.098 247.269C161.505 247.608 161.795 248.067 161.926 248.58L161.851 248.681C161.313 248.734 160.772 248.62 160.302 248.353C159.609 248.013 159.37 247.094 158.74 246.729C157.896 246.59 157.267 246.427 157.015 245.369L157.078 245.255Z" fill="#263238"/>
<path d="M160.226 244.262C161.183 244.526 161.095 244.942 161.02 245.634C161.171 246.113 161.901 246.251 162.103 246.894C162.178 247.108 162.241 247.964 161.863 248.153C161.459 248.056 161.108 247.808 160.881 247.46C160.529 246.906 160.881 246.264 160.642 245.836C160.541 245.685 160.277 245.609 160.138 245.483C160 245.357 159.849 244.463 160.226 244.287V244.262Z" fill="#263238"/>
<path d="M156.082 248.744C156.261 248.547 156.485 248.398 156.736 248.31C156.987 248.222 157.255 248.198 157.518 248.24C157.996 248.467 158.462 248.706 158.978 248.378C159.423 248.104 159.942 247.975 160.463 248.009C160.984 248.043 161.482 248.238 161.887 248.567V248.693C161.487 249.053 160.986 249.281 160.452 249.348C159.696 249.474 158.991 248.895 158.273 248.945C157.505 249.335 156.913 249.575 156.082 248.87V248.744Z" fill="#263238"/>
<path d="M215.848 262.622C215.615 262.736 215.357 262.79 215.098 262.779C214.838 262.768 214.585 262.692 214.363 262.559C214.023 262.181 213.695 261.791 213.103 261.904C212.605 261.982 212.094 261.902 211.643 261.677C211.192 261.451 210.822 261.09 210.585 260.645V260.532C211.071 260.345 211.604 260.315 212.108 260.444C212.851 260.607 213.267 261.413 213.934 261.627C214.766 261.539 215.383 261.527 215.861 262.496V262.61L215.848 262.622Z" fill="#263238"/>
<path d="M213.14 264.284C212.157 264.284 212.17 263.881 212.082 263.189C211.83 262.786 211.1 262.849 210.822 262.307C210.709 262.118 210.445 261.338 210.822 261.048C211.226 261.033 211.62 261.178 211.918 261.451C212.384 261.904 212.157 262.584 212.51 262.924C212.636 263.038 212.9 263.038 213.077 263.113C213.253 263.189 213.568 264.007 213.24 264.272L213.14 264.284Z" fill="#263238"/>
<path d="M215.96 259.145C215.842 259.381 215.663 259.581 215.441 259.725C215.22 259.869 214.964 259.951 214.701 259.964C214.197 259.863 213.706 259.737 213.303 260.178C212.954 260.54 212.498 260.782 212.002 260.868C211.506 260.954 210.996 260.88 210.545 260.656V260.53C210.831 260.097 211.245 259.762 211.729 259.573C212.421 259.271 213.215 259.674 213.87 259.46C214.487 258.893 214.978 258.528 215.91 259.019V259.145H215.96Z" fill="#263238"/>
<path d="M164.808 226.794C165.816 226.958 165.853 227.424 165.916 228.179C166.206 228.67 166.987 228.746 167.302 229.438C167.428 229.653 167.705 230.559 167.365 230.824C166.915 230.751 166.502 230.53 166.194 230.194C165.728 229.678 165.942 228.935 165.589 228.469C164.909 228.141 164.481 227.927 164.708 226.932L164.808 226.857V226.794Z" fill="#263238"/>
<path d="M167.453 226.971C168.297 227.5 167.97 227.726 167.667 228.23C167.667 228.62 168.259 228.897 168.222 229.489C168.222 229.691 167.957 230.32 167.542 230.371C167.379 230.292 167.235 230.179 167.12 230.04C167.005 229.901 166.921 229.739 166.874 229.565C166.773 229.011 167.353 228.671 167.264 228.306C167.264 228.167 167.013 228.028 166.924 227.903C166.898 227.81 166.891 227.713 166.904 227.617C166.917 227.522 166.949 227.43 166.998 227.347C167.048 227.265 167.114 227.193 167.192 227.137C167.27 227.081 167.359 227.042 167.453 227.021V226.971Z" fill="#263238"/>
<path d="M185.019 219.05C185.825 219.641 185.472 219.843 185.145 220.309C185.069 220.699 185.674 221.014 185.598 221.568C185.598 221.77 185.271 222.374 184.843 222.399C184.689 222.307 184.556 222.183 184.454 222.035C184.352 221.887 184.283 221.72 184.251 221.543C184.251 220.976 184.792 220.687 184.742 220.284C184.742 220.145 184.503 220.007 184.427 219.856C184.352 219.704 184.604 219.024 185.019 219.024V219.05Z" fill="#263238"/>
<path d="M181.795 221.443C182.639 220.926 182.677 221.329 182.954 221.795C183.269 222.009 183.773 221.569 184.213 221.858C184.377 221.959 184.805 222.45 184.654 222.853C184.515 222.957 184.356 223.03 184.187 223.069C184.018 223.108 183.842 223.112 183.672 223.08C183.143 222.929 183.13 222.261 182.765 222.173C182.627 222.173 182.412 222.287 182.261 222.299C182.11 222.312 181.607 221.833 181.77 221.443H181.795Z" fill="#263238"/>
<path d="M210.231 224.843C210.345 225.863 209.891 226.014 209.186 226.266C208.771 226.669 208.897 227.45 208.38 227.916C208.191 228.08 207.385 228.583 207.045 228.319C206.999 227.875 207.111 227.429 207.36 227.059C207.751 226.468 208.531 226.493 208.871 226.027C209.035 225.296 209.123 224.768 210.131 224.768L210.219 224.843H210.231Z" fill="#263238"/>
<path d="M207.612 224.641C208.305 225.359 207.94 225.51 207.537 225.9C207.398 226.278 207.94 226.694 207.763 227.235C207.7 227.424 207.323 227.991 206.894 227.94C206.759 227.822 206.649 227.677 206.571 227.514C206.493 227.352 206.449 227.176 206.441 226.996C206.441 226.429 207.121 226.24 207.134 225.837C207.134 225.686 206.945 225.51 206.894 225.359C206.844 225.208 207.209 224.565 207.612 224.628V224.641Z" fill="#263238"/>
<path d="M210.232 227.714C209.867 228.633 209.602 228.319 209.098 228.117C208.721 228.117 208.57 228.784 208.028 228.835C207.827 228.835 207.197 228.709 207.084 228.293C207.132 228.128 207.215 227.975 207.325 227.843C207.436 227.711 207.572 227.603 207.726 227.525C208.242 227.336 208.645 227.865 208.985 227.714C209.111 227.714 209.199 227.424 209.313 227.311C209.426 227.198 210.118 227.311 210.219 227.714H210.232Z" fill="#263238"/>
<path d="M194.616 246.792C195.397 246.125 195.774 246.402 196.391 246.792C196.958 246.905 197.525 246.351 198.205 246.515C198.444 246.515 199.313 246.943 199.288 247.371C198.942 247.681 198.493 247.852 198.028 247.85C197.323 247.85 196.895 247.208 196.328 247.195C195.636 247.485 195.195 247.673 194.578 246.867V246.742L194.616 246.792Z" fill="#263238"/>
<path d="M196.479 244.891C197.424 244.602 197.386 244.992 197.575 245.546C197.839 245.836 198.456 245.546 198.834 245.936C198.985 246.075 199.3 246.679 199.061 247.032C198.897 247.1 198.722 247.135 198.545 247.135C198.367 247.135 198.192 247.1 198.028 247.032C197.537 246.742 197.65 246.075 197.298 245.886C197.159 245.886 196.933 245.886 196.769 245.886C196.682 245.846 196.604 245.789 196.54 245.717C196.476 245.645 196.428 245.561 196.399 245.47C196.369 245.379 196.359 245.283 196.368 245.188C196.378 245.092 196.407 245 196.454 244.916L196.479 244.891Z" fill="#263238"/>
</svg>
