<svg width="109" height="114" viewBox="0 0 109 114" fill="none" xmlns="http://www.w3.org/2000/svg">
<path d="M31.9423 51.4152C31.2524 51.0874 31.3692 50.8181 31.4088 50.104C31.9498 49.1349 33.6991 45.1057 35.5332 45.4122C35.5181 45.5611 35.4936 45.7099 35.4691 45.8658C33.9027 46.9006 32.5455 49.5459 32.1628 51.3107C32.0912 51.3408 32.0215 51.378 31.9423 51.4152Z" fill="#443E3E"/>
<path d="M29.5507 50.7897C26.9946 50.081 31.0078 45.8888 31.0078 44.6964C31.4621 43.8619 32.3329 43.5412 33.0775 42.9246C33.3357 42.3274 33.7203 41.1208 34.5987 41.9554C34.5987 42.3062 34.5912 42.6552 34.5836 43.0061C35.7033 43.4295 33.6505 44.5174 33.2585 44.7495C32.8419 45.2988 32.8664 46.0678 32.1765 46.2822C30.9456 47.4888 30.1539 49.2093 29.5507 50.7897Z" fill="#443E3E"/>
<path d="M36.7309 40.0348C36.5744 40.0118 36.418 39.9887 36.2615 39.9675C35.9241 39.2517 36.3313 38.6864 35.9467 37.882C35.892 37.882 35.7676 38.0007 35.7507 38.0681C35.5245 38.0752 35.2964 38.0911 35.0608 38.1053C35.0457 37.836 35.0231 37.5684 34.9986 37.3009C34.8496 37.2406 34.7007 37.1892 34.5518 37.1361C34.1842 36.1527 35.0231 35.7523 34.3011 34.9018C33.6979 33.844 32.7875 32.9368 32.4896 31.7603C32.8892 31.6842 33.0306 31.4839 33.4302 31.5424C34.8251 32.8323 35.8694 34.8876 36.7931 36.5035C37.7657 37.354 37.2323 39.0727 36.7309 40.0348Z" fill="#443E3E"/>
<path d="M23.9928 38.3798C23.5535 38.3213 23.5535 38.3213 23.1935 38.1052C22.9654 36.5105 22.7072 34.9761 22.3151 33.4204C21.891 32.6674 21.4612 31.9161 21.0295 31.1631C20.9673 31.156 20.9032 31.1489 20.8335 31.1419C20.268 28.438 16.5225 26.6272 14.17 25.5783C12.7902 24.579 12.7902 24.579 12.5621 24.5205C12.155 23.8348 11.0428 22.7097 11.4726 21.9283C11.8421 21.9283 12.2021 21.9283 12.5621 21.9283C12.6639 22.2331 13.1823 22.575 13.4877 22.7185C13.8722 22.4793 14.4057 22.2933 14.5923 21.8911C15.1031 21.7795 15.2124 21.7334 15.5725 21.3684C15.8948 21.3684 16.2152 21.3684 16.5282 21.3684C16.6545 22.1214 16.6545 22.1214 16.7091 24.5577C17.3048 24.6977 17.7044 24.8253 18.2228 25.1389C18.3641 26.039 18.826 26.4341 19.6422 26.792C19.6573 26.8505 19.6648 26.9107 19.6723 26.971C21.218 27.8498 22.1662 29.3541 23.0427 30.7981C23.6874 31.1259 24.792 30.8885 25.5215 30.9328C25.4272 32.0118 24.5884 32.2067 24.3848 33.1068C24.4942 34.6643 24.3999 36.2128 24.5017 37.7703C24.1737 38.0609 24.1737 38.0609 23.9928 38.3798Z" fill="#443E3E"/>
<path d="M31.2912 30.2099C31.1348 30.1887 30.9783 30.1656 30.8125 30.1426C30.3808 29.138 29.6456 28.5497 28.8521 27.7595C28.6183 27.3272 28.4147 26.6432 27.9114 26.4855C27.9039 26.4182 27.8964 26.3597 27.8888 26.2995C27.6306 26.1294 27.3704 25.9575 27.1122 25.7927C26.9407 24.937 27.3007 24.572 28.2413 24.9299C28.3205 25.2346 28.6409 25.3905 28.8992 25.5925C29.8794 26.6574 30.9312 27.8056 31.6758 29.0565C31.6588 29.3683 31.6362 29.6819 31.6117 30.0009C31.393 30.0611 31.393 30.0611 31.2912 30.2099Z" fill="#443E3E"/>
<path d="M24.2114 24.416C23.9928 24.3256 23.727 23.9234 23.6478 23.7161C22.7468 23.3724 21.9701 22.2703 21.0522 22.0329C21.0446 21.9726 21.0371 21.9124 21.0295 21.8539C20.2605 21.5102 19.4838 20.7873 18.7317 20.3124C18.7487 20.0219 18.7638 19.7313 18.7713 19.4478C20.7317 18.755 21.3745 19.8571 23.1313 20.5197C23.3726 20.8706 23.3726 20.8706 23.71 21.0566C24.2039 21.9957 25.0352 22.8072 25.0352 23.9022C24.7618 24.0723 24.4866 24.2441 24.2114 24.416Z" fill="#443E3E"/>
<path d="M51.7754 13.723L50.5577 13.3066C50.5728 13.2747 50.5803 13.2606 50.5803 13.2606L48.6821 12.6174C47.8301 12.3286 47.7321 12.2683 47.7 12.0114C47.6774 11.8218 47.6454 11.5702 47.7358 11.4409C47.9206 11.1716 49.8508 11.6252 50.011 11.7084C50.7066 12.0699 51.1364 13.133 51.7754 13.723Z" fill="#443E3E"/>
<path fill-rule="evenodd" clip-rule="evenodd" d="M46.9104 5.22881C47.0424 6.664 47.048 6.68171 47.2007 7.21149C49.5833 7.7519 52.1696 6.81992 54.4956 6.24761C54.7369 6.07397 54.7369 6.07397 54.9462 6.06334C54.9594 5.9907 54.9726 5.92514 54.9839 5.85781C55.129 5.84364 55.2647 5.82946 55.4004 5.8206C55.3759 5.10655 55.3439 4.39073 55.3137 3.67491C55.1705 3.64302 55.0272 3.6129 54.884 3.581C52.7068 4.67068 49.7945 5.11718 47.3798 5.00201C47.3836 4.95595 47.3892 4.90988 47.3949 4.86558L47.2799 4.91519L46.9104 5.22881ZM46.803 9.14634C44.9368 9.4316 42.8237 9.0666 40.9783 8.76539C40.1772 8.52088 39.3742 8.27637 38.5655 8.03008C38.4053 7.73241 38.2451 7.43474 38.0849 7.1353C39.1065 5.10301 42.7163 5.30677 44.6051 5.05517C45.1348 5.04454 46.5579 5.22349 46.852 4.63702C46.918 4.64765 46.982 4.65828 47.0461 4.66891C47.1875 4.02573 47.3213 3.38256 47.4552 2.73938C48.13 1.90485 48.13 1.90485 48.2375 1.60363C48.5598 1.54339 48.6465 1.35381 48.8482 1.07563C48.9198 1.08803 49.9962 0.531674 50.1394 0.237549C50.211 0.24818 50.3675 0.129467 50.3788 0.0639094C52.3807 -0.318807 54.0753 1.09157 55.4815 2.31768C57.4796 1.92611 60.62 0.2092 62.3429 2.01647C62.7538 3.37015 61.7095 5.12604 60.3976 5.58495C60.3863 5.65228 60.3731 5.71784 60.3599 5.79048C58.9461 6.45315 57.5456 6.98647 56.1036 7.47727L55.555 7.69166V8.35433C55.555 9.21898 55.5286 9.32529 55.2911 9.41743C54.7011 9.64954 54.6634 9.63005 54.6087 9.09141C54.588 8.88233 54.5541 8.8593 54.2638 8.8593H53.6172V9.77002H53.1328V8.20904C53.1328 8.20904 46.9877 9.1924 46.803 9.14634Z" fill="#443E3E"/>
<path fill-rule="evenodd" clip-rule="evenodd" d="M40.6365 42.7829C40.4386 43.0876 40.0201 43.3711 39.6016 43.504C38.8816 44.7266 38.8816 44.7266 38.6139 45.003C38.3877 44.9799 38.1596 44.9569 37.924 44.9356C37.7355 44.6079 37.5489 44.2801 37.3528 43.9523C37.3905 42.8715 37.0701 43.0203 36.0748 42.5508C36.0503 42.3275 36.0277 42.1131 36.0032 41.8969C36.3651 41.7765 36.7176 41.6648 37.0701 41.5532C37.3604 40.9277 37.3208 40.2208 37.3679 39.5422C37.3283 39.5493 37.6261 38.961 38.0653 38.8281C38.3481 39.1931 39.1473 40.4954 39.7694 41.4876C39.7788 41.5479 40.0955 41.7623 40.0955 41.8296C40.3047 41.8952 40.4574 41.9749 40.563 42.0635C40.8118 42.2743 40.7967 42.5366 40.6365 42.7829Z" fill="#443E3E"/>
<mask id="mask0_5064_32" style="mask-type:luminance" maskUnits="userSpaceOnUse" x="0" y="9" width="109" height="105">
<path d="M109 9.0719H0V114H109V9.0719Z" fill="white"/>
</mask>
<g mask="url(#mask0_5064_32)">
<path fill-rule="evenodd" clip-rule="evenodd" d="M55.8977 68.1326C56.1182 67.7233 56.0956 67.3955 55.9411 66.949C55.8166 66.949 55.6866 66.949 55.5546 66.949C55.4227 67.3654 55.466 67.6932 55.4943 68.1326C55.6338 68.1326 55.7658 68.1326 55.8977 68.1326ZM36.2994 108.311C36.2994 108.236 36.2994 108.169 36.2994 108.102C37.1476 107.73 37.2098 106.826 38.0882 106.564C38.158 106.608 38.2296 106.486 38.2918 106.537C38.322 105.779 38.0241 105.198 37.7659 104.482C37.7433 104.542 37.5001 104.624 37.0138 104.154C37.0609 103.022 36.6217 96.2445 36.4653 95.2842C36.4653 94.2778 35.4379 83.4342 35.4851 82.5553C36.1128 80.4327 35.2325 77.2434 34.552 76.3433C33.2419 76.4921 33.2419 76.4921 32.3409 76.7153C32.5068 81.6907 33.617 86.65 34.5501 91.6165C34.5878 92.7859 34.912 93.8986 34.9441 95.0751C35.5944 99.1131 35.8149 100.043 35.9243 101.176C36.4653 102.203 36.535 104.133 36.3465 105.302C35.9714 106.023 35.159 106.695 34.7763 107.425C35.3003 107.62 35.8696 108.116 36.2994 108.311ZM16.7274 44.0321C16.4258 42.5632 16.3712 41.8952 15.9961 40.3555C15.9244 40.2209 15.8547 40.0862 15.7849 39.9515C15.5493 40.1535 15.3759 40.5628 15.3137 40.5699C15.3646 42.161 15.1572 43.4279 14.9838 45.0137C14.9838 45.0137 16.6558 43.8017 16.7274 44.0321ZM56.4293 74.575C56.4425 74.1285 56.5537 73.7263 56.3256 73.3311C56.1936 73.3311 56.0617 73.3311 55.9241 73.3311C55.8657 73.4428 55.7997 73.5544 55.7337 73.666C55.8204 73.6961 56.1277 74.2631 56.1861 74.5076C56.2672 74.5307 56.3482 74.5519 56.4293 74.575ZM56.3256 71.5735C56.5461 71.1642 56.5235 70.8364 56.3708 70.3881C56.2464 70.3881 56.1145 70.3881 55.9825 70.3881C55.8506 70.8063 55.8939 71.1341 55.9241 71.5735C56.0617 71.5735 56.1936 71.5735 56.3256 71.5735ZM101.181 54.7216C101.32 54.4469 101.407 54.3938 101.665 54.2449C101.824 53.8799 101.973 53.5149 102.122 53.157C101.353 50.6782 101.353 50.6782 101.226 50.0227C101.141 49.9996 101.055 49.9766 100.968 49.9624C101.375 51.2736 100.985 53.4848 100.968 54.7216C101.04 54.7216 101.109 54.7216 101.181 54.7216ZM99.2206 55.6535C99.2357 54.9678 99.1659 54.3495 99.5411 53.7612C99.4864 53.724 99.4242 53.6868 99.362 53.6567C99.3695 53.1287 99.2753 52.6503 99.6202 52.2268C99.4713 51.8547 99.5656 51.5854 99.6202 51.1921C99.5335 51.1478 99.4468 51.1106 99.362 51.0716C99.2508 50.2973 99.2131 49.3139 98.7889 48.6211C98.6796 48.6211 98.5703 48.6211 98.4591 48.6211C98.1462 50.6322 98.2253 52.4572 98.3969 54.4983C98.8361 55.1309 98.8361 55.1309 98.9699 55.5862C99.0547 55.6075 99.1414 55.6305 99.2206 55.6535ZM98.8983 62.1704C98.9379 62.1172 98.9699 62.0658 99.0001 62.0215C99.2036 62.0144 99.3997 62.0056 99.5957 61.9985C100.129 61.0151 99.9407 59.0183 99.9331 57.9321C99.5656 58.1979 99.7296 58.5044 99.4166 60.076C99.2677 60.0991 99.1188 60.1292 98.9699 60.1593C98.9454 60.7015 98.7494 61.8426 98.6796 61.8638C98.7494 62.103 98.7494 62.103 98.8983 62.1704ZM95.6297 67.2413C95.5128 66.4706 96.9548 63.2919 97.2131 62.5283C97.2376 62.3723 98.084 57.9445 97.7861 57.6788C97.362 59.8368 96.7192 61.8213 96.0444 63.889C95.9822 63.8979 95.92 63.9068 95.8483 63.9245C95.952 64.5588 95.5354 65.303 95.3319 65.9001C95.3469 66.2775 95.3639 66.6531 95.3714 67.0305C95.4563 67.0961 95.543 67.1687 95.6297 67.2413ZM97.5901 71.0703C98.099 69.729 98.7739 68.2548 98.8983 66.825C98.8134 66.8391 98.7267 66.8622 98.64 66.8834C98.4119 67.3317 98.4119 67.3317 98.1933 68.3665C97.8634 69.0522 97.5354 69.7361 97.198 70.4289C97.4412 71.003 97.4412 71.003 97.5901 71.0703ZM106.629 71.0703C107.028 69.1106 106.527 67.1971 106.698 65.1789C106.549 63.5099 106.401 61.8497 106.252 60.1877C106.041 59.89 106.041 59.89 105.805 59.2273C105.569 59.1387 105.336 59.0484 105.1 58.9669C105.303 59.9361 105.507 60.9035 105.711 61.8709C105.711 63.0332 105.703 64.1956 105.696 65.365C105.626 66.3625 105.092 70.1985 106.276 70.6752C106.306 70.7797 106.338 70.8913 106.37 71.003C106.455 71.026 106.542 71.049 106.629 71.0703ZM98.0293 73.9672C99.3997 71.5469 100.161 68.9476 101.03 66.3182C101.156 65.753 101.635 64.5464 101.156 64.0396C100.176 66.5273 99.558 69.1035 98.5232 71.5699C98.3102 72.3442 97.9501 73.1628 98.0293 73.9672ZM100.31 79.4493C100.514 79.1286 101.305 78.1683 101.211 77.8334C101.705 77.6473 102.834 74.5342 102.96 73.9903C103.023 73.9814 103.085 73.9743 103.14 73.9672C103.32 73.2231 103.32 73.2231 103.313 72.4187C103.547 71.7329 103.767 70.5405 104.293 70.0426C104.293 69.4987 104.293 69.4987 103.924 67.8969C103.79 68.0015 103.854 68.4267 103.641 68.6712C103.641 70.5777 102.663 72.672 101.995 74.474C101.36 75.5991 99.7145 78.0708 100.099 79.4493C100.169 79.4493 100.239 79.4493 100.31 79.4493ZM92.5798 82.8601C92.7061 82.5482 92.7136 82.4738 93.019 82.3462C93.2847 81.1184 94.5628 80.4256 94.7909 79.1587C95.1509 78.9355 95.4563 78.1169 95.5204 78.1009C95.9124 77.1778 95.9124 77.1778 96.0142 76.5523C95.5241 76.6604 95.4619 76.8925 95.2753 77.3621C94.461 78.8805 93.56 80.0606 92.6815 81.5578C92.6118 81.572 92.5402 81.595 92.4704 81.6162C92.2895 82.0787 92.3441 82.2949 92.4308 82.7927C92.4855 82.8158 92.5326 82.8388 92.5798 82.8601ZM104.998 83.9994C105.038 83.5298 105.162 83.381 105.39 82.1301C105.594 82.0698 105.594 82.0698 106.08 82.1372C106.167 81.5117 106.527 81.0953 106.698 80.4911C106.269 79.5751 106.001 78.6679 105.735 77.6987C104.74 78.9426 104.904 80.0889 104.842 81.6021C104.668 82.4366 104.348 83.2995 104.998 83.9994ZM99.2206 84.3059C101.36 83.2251 101.345 80.0305 102.991 78.5262C103.281 77.9379 103.571 77.3479 103.861 76.7685C104.293 75.1136 105.46 73.6182 105.711 71.9863C105.641 71.8145 105.562 71.6426 105.484 71.4796C104.621 73.1327 104.246 74.9205 103.313 76.5364C102.764 78.6892 100.789 80.4096 99.8558 82.4207C99.7767 82.4437 99.6975 82.4738 99.6202 82.5022C99.558 82.7112 99.0641 84.0809 99.0095 84.3059C99.0792 84.3059 99.149 84.3059 99.2206 84.3059ZM78.6421 84.4104C79.3546 83.5157 80.2179 82.9504 80.8362 81.9742C80.9079 81.96 80.9776 81.944 81.0398 81.9299C80.8984 81.4001 80.6571 81.0882 80.3273 80.64C80.2255 80.64 80.1237 80.64 80.0219 80.64C79.5827 81.1627 79.5827 81.1627 78.9475 82.2116C78.0219 82.8016 76.9399 84.1712 78.6421 84.4104ZM94.9794 88.1348C95.3319 87.7379 96.3347 86.2638 96.1933 85.8031C96.116 85.7641 96.0368 85.7287 95.952 85.6915C95.7315 86.0565 94.674 87.419 94.7211 87.97C94.8059 88.0214 94.8926 88.0746 94.9794 88.1348ZM92.3611 88.7585C92.9323 88.0958 93.5053 87.4403 94.0689 86.7847C95.1207 84.8339 97.017 82.9416 97.7616 80.9022C97.7465 80.7232 97.722 80.5514 97.6994 80.3795C97.6297 80.3795 97.558 80.3795 97.4808 80.3795C96.116 82.5411 96.116 82.5411 95.8106 82.8158C95.0736 84.3431 94.0934 86.3311 92.8625 87.5005C92.6891 87.8354 92.2122 88.5353 92.1481 88.5512C92.1481 88.6168 92.1481 88.6841 92.1481 88.7585C92.2197 88.7585 92.2895 88.7585 92.3611 88.7585ZM85.7202 102.926C86.003 100.662 85.9879 99.7758 86.4422 95.8795C86.3008 93.1686 86.9757 90.0484 86.4177 87.4704C85.9955 87.2259 85.9955 87.2259 85.9012 87.2631C85.7598 89.7649 85.6731 92.2154 85.6731 94.7402C85.494 95.9096 85.3131 97.079 85.1321 98.2556C84.4422 99.999 82.8362 102.449 85.7202 102.926ZM52.6084 42.6341C52.1579 44.1437 52.0127 45.8819 51.9128 46.7341C51.5754 47.6945 51.2399 48.6637 50.8949 49.6311C50.5292 52.1258 50.0599 54.2272 51.3115 56.5058C51.3926 56.5288 51.4736 56.5501 51.5471 56.5731C51.6056 55.0086 51.6056 55.0086 51.5019 52.0301C51.6414 51.4791 51.7809 50.9281 51.9128 50.377C52.2314 47.5013 53.451 45.0597 54.3294 42.3736C54.3369 42.3524 54.3426 42.3311 54.3501 42.3099C54.7592 40.4477 54.7592 40.4477 54.8044 39.9197C53.6847 40.0685 53.0193 41.2556 52.6084 42.6341ZM41.338 35.0418C41.6886 34.3189 42.8441 33.5233 43.4379 33.0609C42.7649 31.445 42.9327 31.3847 41.3304 31.9818C39.0251 33.3373 40.4294 33.2398 41.338 35.0418ZM28.7236 66.0347C28.7236 66.0347 27.6868 69.0823 27.6227 68.9707C27.5436 68.9618 27.4568 68.9547 27.3701 68.9476C25.8735 70.645 23.0742 71.6585 20.9423 72.4629C18.4409 73.7068 17.3514 74.1161 16.5672 74.5555C15.6266 75.8365 16.7331 77.7519 16.5917 79.2402C16.669 79.2402 17.0385 80.3582 17.2967 80.5815C18.1525 83.0762 19.9583 85.509 20.3881 88.071C20.4522 88.0941 21.0761 89.0119 21.7114 89.1696C21.6548 88.7213 21.6002 88.2748 21.5455 87.8283C20.1977 85.2503 16.5993 79.3146 17.7906 76.2387C17.8622 76.2387 20.2222 74.474 21.4908 74.3765C21.9225 75.7479 25.2778 74.9276 26.2806 74.7947C26.2806 74.7203 26.9328 74.4297 27.0422 74.3251C28.241 74.2348 29.8414 74.3624 30.7726 73.5721C30.7763 73.5243 30.7763 73.4782 30.7763 73.4304L34.618 73.1823C34.6802 73.3294 34.7424 73.4764 34.8027 73.6253C35.2023 73.5951 35.2023 73.5951 35.6189 73.4162C36.3314 72.2025 36.7009 71.1961 36.2768 69.8495C36.1976 69.8194 36.1203 69.7892 36.0411 69.7591C35.3041 68.657 34.5124 68.0759 34.5124 66.7807C35.1948 66.1552 35.9243 66.5273 35.9243 65.4925C34.7706 64.2328 33.6981 62.9446 32.5539 61.6937C32.4973 61.4032 32.4427 61.1126 32.3805 60.8291C33.7452 60.6732 34.6613 61.2171 35.4304 62.2076C35.6811 62.3936 36.3239 63.012 36.3314 63.0704C37.9695 63.8093 38.6236 66.1623 38.9761 66.1021C39.2664 66.8551 39.2362 67.0854 39.0647 67.8597C38.9629 67.8757 38.6519 68.9919 38.535 69.3711C38.9497 69.8938 39.2871 70.1844 39.3738 70.8311C39.4681 70.8311 39.5623 70.8311 39.6471 70.8311C39.8677 69.1638 39.781 65.753 39.781 65.6857C39.8507 65.6786 40.0392 65.5138 40.0713 65.4394C40.4709 65.2906 40.7216 65.3047 41.1363 65.4394C41.2626 65.9833 41.2626 65.9833 41.3719 68.0086C41.7093 67.8668 41.8262 67.9713 42.1806 68.0688C42.2428 68.4781 42.2974 68.8874 42.3521 69.2967C43.1513 68.9707 42.6744 68.2247 43.1212 67.7109C43.387 67.6879 43.6527 67.6666 43.9204 67.6506C44.092 68.5153 44.092 68.5153 44.092 69.2967C44.9308 69.6546 44.4935 70.5866 45.779 70.5866C46.0524 70.2287 46.0524 70.2287 46.4124 69.9753C46.4595 69.1638 46.2409 68.5596 46.7102 67.92C46.9854 67.904 46.9854 67.904 47.3379 68.0245C47.6358 68.836 47.6829 69.364 47.6829 70.2287C47.8865 70.4005 47.8865 70.4005 48.09 70.9356C48.6687 71.0189 49.091 70.7141 49.1192 70.7053C48.5783 69.7077 49.2908 69.6634 48.7253 68.8838C48.4915 68.7439 48.3521 68.7279 48.2974 68.4675C48.4444 68.4976 48.7724 68.4178 48.9119 68.4551C48.9666 68.6624 49.3096 69.302 49.3794 69.302C49.598 69.6316 49.9392 70.3899 50.337 70.5972C50.3106 70.6043 51.2342 72.2397 51.7281 73.0104C51.992 73.4251 52.2578 73.8379 52.5122 74.2631C52.7328 74.9772 52.9439 75.6912 53.1569 76.4071C53.9693 75.7444 54.0636 75.4379 54.1447 74.4191C53.9147 73.806 53.6282 73.2284 53.3077 72.672C52.844 71.8712 52.3087 71.1146 51.762 70.3669C51.2795 69.706 50.7875 69.0486 50.3313 68.37C50.2653 68.37 50.1258 68.23 50.1258 68.1627C50.0542 68.1326 49.7828 67.7818 49.7168 67.64C49.6508 67.64 49.5698 67.4168 49.5924 67.3051C49.6734 67.275 49.7451 67.2537 49.8186 67.2307C49.8412 66.3661 49.8563 65.5032 49.8695 64.6456C49.1607 61.2047 47.7997 57.9428 47.2286 54.5019C47.2644 54.4646 47.3021 54.4363 47.3304 54.4062C47.4322 53.8853 47.4322 53.8853 47.6885 50.2636C47.1909 50.3983 46.5688 50.6658 46.0561 50.5772C46.0278 50.4355 45.9901 50.2937 45.9543 50.1609C45.6546 50.0191 45.3474 49.8845 45.0401 49.7498C44.6367 48.5361 44.0222 46.7483 42.8064 46.2274C42.6462 45.8996 42.55 45.4301 42.1768 45.3184C41.4115 44.5884 40.9836 43.7114 40.8234 42.7829C40.8271 42.3063 40.7649 42.4817 40.7499 42.0636C40.7329 41.5108 40.7989 40.9491 40.9365 40.398C39.2871 38.1939 38.2164 35.4387 36.7084 33.2274C36.6443 33.2186 36.5821 33.2115 36.5124 33.2044C35.3833 31.4538 35.3833 31.4538 35.1721 31.2749C34.7706 30.1285 33.6434 29.3081 33.1175 28.2663C33.0553 28.2592 32.6236 27.6337 32.4672 27.3361C32.405 27.3272 32.1222 27.1111 32.0506 27.104C31.5567 26.2925 30.5388 25.2861 30.2881 24.4374C30.224 24.4303 29.4097 23.5656 29.1741 22.9703C27.6378 21.2569 25.0591 19.1502 22.6916 18.725C22.6746 18.6665 22.0243 18.3529 21.9696 18.3015C19.947 18.1597 16.5126 16.6253 14.8915 18.2412C14.3033 18.5619 13.276 18.6594 12.9461 19.113C12.3184 19.09 11.6926 19.0758 11.0649 19.0598C11.0329 19.113 9.44946 20.4614 9.08943 20.6315C9.06493 20.7289 8.7916 20.9894 8.67284 21.0195C8.66531 21.0797 8.46927 21.1612 8.38445 21.1453C8.16389 21.7123 6.59558 21.6449 6.09417 21.668C5.58522 22.1216 6.07155 22.9774 6.27513 23.4558C6.83875 23.6329 6.94996 23.8952 6.94996 24.4533C6.26005 24.7651 6.26005 24.7651 5.38918 24.9742C5.3741 25.5625 5.34959 26.1507 5.32697 26.7478C5.53056 27.0597 5.53056 27.0597 5.7643 27.7082C6.28267 27.9243 6.35242 28.1688 6.63516 28.6384C6.90283 28.6685 7.16108 28.6986 7.41932 28.7287C7.50603 28.4825 7.50603 27.7454 7.4344 27.7826C7.39671 27.1111 7.39671 27.1111 7.55315 24.5206C8.65777 24.8768 9.21384 25.7184 10.3825 25.9647C10.2958 26.8134 9.7718 27.4176 9.57576 28.3567C9.62289 29.5845 10.1639 31.7444 8.65777 32.3327C8.67284 32.4301 8.68227 32.5276 8.68981 32.6232C7.9377 32.9882 7.45137 32.9298 6.605 32.9209C6.68229 33.2115 6.75392 33.5021 6.82366 33.7997C6.88587 33.8068 6.94996 33.8157 7.01216 33.8299C7.20821 34.2994 7.32507 34.6786 7.70961 35.0223C7.70961 35.118 7.70961 35.2154 7.70961 35.3129C6.98012 35.6318 6.62009 35.3129 6.09417 34.9018C6.12621 34.6945 6.12621 34.6945 6.30717 34.59C6.22047 34.4553 5.91886 34.3171 5.76995 34.3012C5.76241 34.2055 5.57768 33.9415 5.57014 33.8529C5.44385 33.8529 5.31755 33.8529 5.1856 33.8529C5.7643 35.8781 5.7643 35.8781 5.84347 36.4894C7.85853 36.8916 6.68983 41.532 8.35994 42.5597C8.43911 42.5065 8.50885 42.4551 8.58048 42.4091C8.59556 41.8811 8.59556 41.8811 8.97067 40.0348C9.03477 40.0189 9.09697 40.0118 9.15918 40.0047C9.37029 38.7006 9.30809 37.0776 8.27322 36.1386C8.27322 35.5574 8.27322 34.9762 8.27322 34.4039C8.54844 34.2764 8.59556 34.1807 8.75201 33.9344C9.08189 34.0017 9.22327 34.069 9.5456 34.1364C9.53052 34.4996 9.57576 35.0223 9.80196 35.32C10.6653 34.799 8.54844 32.6463 9.9358 32.2069C11.0724 32.7721 10.9311 33.8901 11.097 35.0506C11.2459 35.4316 11.3948 35.8108 11.5343 36.1899C13.0555 37.6358 14.8198 35.5946 16.0187 34.8363C16.7256 33.3834 16.4108 32.1466 15.9414 30.6795C15.5097 30.233 14.7501 29.1752 14.0281 29.2497C12.4447 28.4311 10.8293 27.88 11.2534 25.8601C12.2958 25.5784 12.3901 25.9044 12.8443 26.7762C13.5493 26.9853 16.3957 28.564 16.4032 28.6242C16.9442 28.8616 17.1327 29.2798 17.6813 29.48C17.9715 30.2472 18.4183 30.8425 18.7237 31.6399C18.7237 34.3437 19.242 37.1361 19.4833 39.8328C19.0535 40.9952 19.3438 42.4179 19.374 43.6387C19.8056 45.3751 21.225 46.7678 21.225 48.5255C20.1431 50.5666 20.0017 52.8966 19.046 54.9377C18.8254 56.4119 18.8254 56.4119 18.8254 57.3953C19.1308 58.6391 19.7585 59.7642 20.3542 60.9194C21.7887 61.0382 22.0563 60.3737 22.2524 59.0714C22.4635 59.0112 22.4635 59.0112 22.5728 58.795C23.0667 58.9066 23.1609 59.0555 23.4984 59.4222C23.9847 59.1901 24.0544 58.974 24.1016 58.446C24.3447 58.3928 25.2929 57.3067 25.5907 58.1253C25.2929 58.9155 24.9178 60.6944 24.2825 61.2313C23.8904 62.6682 24.635 62.3263 25.2458 63.1608C25.3174 63.1378 25.3871 63.1147 25.4588 63.0935C26.0073 60.4056 26.6576 56.8602 28.7198 54.819C29.159 54.1634 29.9187 53.4476 30.2014 52.7548C30.5539 52.629 30.6236 52.5989 30.8121 52.3012C30.8838 52.3012 30.946 52.3012 31.0082 52.3012C31.2438 52.7477 31.0704 53.3059 31.0233 53.7984C30.4823 55.5561 30.045 57.5211 29.159 60.6572C28.3975 62.0694 28.1034 64.3178 28.7236 66.0347ZM86.6401 82.3959L86.331 81.5259C85.6109 81.2938 85.4526 80.6825 85.1566 79.8816C83.6034 78.9868 83.462 77.0662 82.7174 75.7178C82.4045 75.4875 82.0822 75.2554 81.7618 75.0321C81.5337 73.767 82.1934 71.1961 80.5931 70.8027C80.1539 70.5263 80.0049 70.2499 79.9107 69.7822C79.9107 69.7822 85.0115 64.9592 84.3989 63.8075C84.2745 62.0534 84.6552 59.906 84.3725 59.0945C83.9484 59.4807 83.7127 59.6597 83.5412 60.2036C83.4865 60.2107 83.2283 60.6501 83.1567 60.8663C82.5139 61.1126 81.4243 63.9581 81.2132 64.5092C81.3621 64.798 81.5808 65.1187 81.3075 65.4181C79.4093 65.4695 78.7043 64.9787 78.7043 67.0181C79.0247 67.7481 80.4366 68.5153 79.7787 69.1408C78.2651 69.1408 77.8504 67.8083 77.3867 66.6247C76.8381 66.8462 76.2104 67.5107 76.0314 68.0688C75.7637 67.9713 75.4979 67.8828 75.2321 67.7942C75.0738 66.8994 75.0587 66.6159 75.2698 65.6857C75.5375 65.5811 75.5375 65.5811 76.1011 65.023C76.8381 64.5464 77.0587 64.2328 78.2802 63.2654C79.5582 62.5867 78.9625 62.4981 79.4809 61.4032C81.675 60.9336 82.3027 58.5718 82.3027 56.6724C82.4517 55.3842 82.6006 54.0961 82.742 52.8151C83.0322 52.6804 83.1265 52.7105 83.4394 52.7548C83.9182 54.1262 83.7222 55.2513 83.7127 56.6724C83.8861 57.149 84.0577 57.6274 84.2311 58.1111C84.2858 58.1111 84.3404 58.1111 84.3951 58.1111C84.4667 57.9995 84.5289 57.8878 84.5911 57.7833C84.6854 57.7744 84.7796 57.7673 84.8663 57.7673C85.8692 58.9066 85.8145 61.0523 87.4375 61.4173C87.7127 60.6643 87.7278 60.5615 87.5242 59.8014C86.6458 58.2971 85.8296 57.0746 85.9408 55.347C86.003 55.3258 86.0577 55.3027 86.1123 55.2797C85.971 54.8934 85.9559 54.4912 85.5487 54.3194C85.5167 53.8658 85.4846 53.4193 85.4545 52.971C84.8814 51.9805 84.6929 51.5854 84.6929 50.4692C85.1566 49.36 86.348 48.8462 85.5487 47.5935C85.5638 47.1168 85.5412 46.9538 85.3357 46.5375C85.4149 46.4329 85.494 46.3284 85.5638 46.2238C85.281 45.5683 83.9484 45.2989 83.2905 45.2405C82.9455 45.0544 82.593 44.8684 82.2405 44.6894C82.2405 44.413 82.2405 44.1384 82.2405 43.862C82.6628 43.7433 83.0473 43.4527 83.1095 43.0363C83.2113 43.0204 83.3131 43.0133 83.4149 43.0062C83.4243 42.9459 83.4319 42.8875 83.4394 42.8272C84.1142 42.6554 88.9662 43.6618 89.4356 43.9081C89.8672 43.9594 90.2989 44.0108 90.7306 44.0711C91.4902 44.98 92.6514 46.0449 92.1481 47.2745C92.0859 47.2816 92.0237 47.2887 91.9615 47.2958C91.068 49.0978 89.7428 51.0131 90.7777 53.1287C90.8795 54.1705 90.6288 54.7659 91.7956 54.5887C91.7108 52.8009 91.3413 50.96 91.3413 49.1952C91.7013 48.9578 92.0783 48.8001 92.2593 48.4138C93.0114 48.2951 92.9869 47.9886 93.1924 47.3117C92.7683 45.8659 92.4007 44.3103 91.773 42.9389C90.887 42.0972 89.4997 42.1274 88.3555 42.2691C87.4054 41.9555 85.3828 41.3903 85.3753 41.2999C84.4969 40.9579 84.0973 40.8304 83.8711 39.9303C84.8965 39.7283 88.8192 40.3839 91.3055 40.9686C92.2348 41.1865 94.412 43.1887 94.7682 44.6221C95.411 44.6593 96.0915 43.6316 96.6023 43.2897C98.6872 43.334 101.055 46.6633 101.509 46.8635C101.643 47.1541 101.643 47.2515 101.948 47.3773C101.963 47.4375 101.973 47.4978 101.98 47.5563C102.497 47.8256 103.008 48.0931 103.517 48.3695C103.752 48.9117 108.525 56.9488 108.197 59.5321C108.329 60.6129 108.416 60.6802 108.542 61.536C109.27 63.2795 108.926 73.3559 108.87 76.1431C108.495 77.9379 108.031 80.2537 107.013 81.8324C106.418 84.2598 106.448 86.6819 105.539 89.065C105.288 88.9977 105.038 88.9304 104.778 88.8631C104.646 88.4768 104.614 88.3421 104.301 88.0657C104.174 86.2496 103.869 84.7152 103.336 82.9876C103.179 83.016 103.015 83.0532 102.849 83.0904C102.827 84.0153 102.802 84.9384 102.772 85.8687C102.536 86.8308 102.301 87.7911 102.058 88.7585C100.005 88.5583 101.29 86.9193 100.906 85.4523C100.844 85.4824 100.779 85.5125 100.71 85.5409C99.9407 87.8354 99.7296 88.126 98.3026 91.8645C98.3177 91.962 98.2253 92.1852 98.1612 92.1923C97.722 93.2731 97.5354 93.4592 97.4808 94.7544C97.0321 94.7615 96.5854 94.7774 96.1386 94.7916C95.9049 94.4798 95.8728 94.2264 95.8012 93.8455C95.6919 94.0404 95.3319 94.2636 95.1358 94.5843C94.6891 94.6056 94.2819 94.4798 93.9596 94.1732C93.9747 93.95 94.5251 92.513 95.0661 92.4528C95.6372 91.1647 96.0067 89.8695 96.0444 88.4679C95.0491 90.0927 95.0491 90.0927 94.9794 90.4134C94.7287 90.5463 94.4139 90.8369 94.3517 90.844C93.952 91.5598 93.952 91.5598 93.4978 92.1037C92.6985 92.148 92.7607 91.4925 92.8625 90.9131C93.6071 90.2185 94.329 89.3255 94.7117 88.4024C94.6646 88.3864 94.6193 88.3723 94.5722 88.3652C94.2272 88.8046 94.1405 88.9162 93.592 89.0863C93.2772 89.8322 92.9794 90.0927 92.8474 90.4506C92.5798 90.4506 92.3064 90.4506 92.0312 90.4577C91.4582 89.6834 91.232 88.8188 91.0114 87.9169C92.9172 86.5614 94.0067 83.7247 95.0491 81.781C95.739 80.8047 96.657 79.6867 96.8757 78.5102C96.7739 78.4518 96.7739 78.4518 96.5703 78.5102C95.7466 80.1492 94.6646 81.6021 93.8257 83.2109C93.4035 83.7991 92.9718 84.7294 92.7607 84.9225C92.642 85.5568 92.642 85.5568 92.5176 85.6915C91.0114 85.5409 91.428 82.8831 91.1773 81.781C90.9813 81.6322 90.7852 81.4904 90.5817 81.3487C90.5817 80.3724 91.8898 79.3217 92.4704 78.5173C93.034 78.3614 93.3639 77.6686 93.6297 77.2292C94.87 76.1129 97.543 72.7766 96.3422 70.9888C95.92 71.7861 95.6919 72.4187 95.2998 73.1327C95.2451 73.1398 95.1829 73.1486 95.1207 73.1557C94.7682 73.9974 94.6966 75.3457 93.8502 75.8223C93.4506 77.1548 91.7956 77.5871 91.3809 78.8238C91.1698 78.854 90.9492 78.8912 90.7306 78.9284C90.7136 78.861 90.4949 78.652 90.4007 78.6218C90.346 77.5127 90.4949 77.7873 90.9492 77.0662C91.0209 77.0502 91.0831 77.0431 91.1453 77.0361C91.6636 76.1785 93.8031 73.0654 93.3488 71.9562C93.3017 71.9633 93.2546 71.9792 93.1999 71.9934C92.7456 73.6394 91.3564 75.1437 90.4478 76.5896C90.0407 76.5896 89.9766 76.5063 89.641 76.4478C89.3338 75.553 89.5298 74.8691 89.4205 73.9672C89.7428 73.8698 89.805 73.6253 89.969 73.3418C90.0407 73.3258 90.1029 73.3187 90.1651 73.3117C90.1651 73.3117 91.5996 71.0703 91.9068 71.0402C92.6815 69.9452 94.4308 67.3388 93.6222 65.916C92.6269 68.2105 92.6269 68.2105 91.9294 69.5128C91.8672 69.5217 91.8031 69.5288 91.7409 69.5359C91.3338 70.3474 91.3338 70.3474 90.9021 70.9728C90.7306 71.5327 90.6439 71.9934 90.1349 72.3814C88.5591 71.6727 91.0586 68.7456 91.5374 67.9572C92.4233 65.6697 92.4233 65.6697 93.2942 63.8837C93.2697 63.4213 93.247 62.9588 93.215 62.5052C93.1603 62.5052 93.1057 62.5052 93.051 62.5052C92.5873 63.2866 92.1255 64.0769 91.6636 64.8671C91.0981 66.4741 90.3064 68.1202 89.9068 69.7591C89.1849 70.4448 88.7702 68.813 88.6137 68.3895C88.5421 68.3824 88.4723 68.3736 88.4007 68.3736L89.6203 66.0259C89.6128 65.8717 86.9493 69.9239 85.9276 71.0189L88.4723 71.7914C88.4837 71.8587 88.495 71.9243 88.5044 71.9863C89.1 73.0654 88.2518 73.6926 87.4224 74.3694C87.4054 74.4368 87.2339 74.6016 87.1717 74.6086C86.0972 76.1643 85.0548 76.0527 86.5987 77.8263C87.2961 78.2657 87.7975 78.7565 89.1472 79.8143C90.1349 81.1556 90.2047 81.4373 89.8597 82.8601C88.4573 83.6042 88.5195 84.7967 89.0529 85.9519C89.0529 86.4126 89.0454 86.8751 89.036 87.3446C88.7928 87.7468 88.5421 88.149 88.2914 88.5583C88.167 90.4648 88.167 90.4648 88.1821 92.4687C88.0011 95.3214 87.7429 98.1138 87.7429 100.974C87.6561 101.794 87.7674 103.394 87.3583 104.17C86.2688 104.214 85.6185 104.422 84.6458 104.937C84.6307 106.023 84.6081 107.118 84.5836 108.213C83.8616 108.683 82.4988 108.683 81.5978 108.764C80.4517 109.011 78.7665 109.771 77.6223 109.278C77.6223 109.108 77.6223 108.943 77.6223 108.78C79.2679 106.516 78.578 103.879 81.4564 102.591C81.4639 102.531 81.4715 102.471 81.479 102.411C82.4517 102.217 82.6402 100.304 82.8437 99.4994C83.6354 98.0394 83.6581 96.326 83.8315 94.7101C84.9606 92.6388 84.0973 89.2068 83.6976 86.9867C83.7052 86.6146 83.7127 86.2425 83.7127 85.8687C82.8117 85.0129 82.4517 83.8133 81.6279 82.9044C81.5582 82.9274 81.479 82.9575 81.4017 82.9876C81.0794 83.7619 80.0992 84.336 79.5752 85.043C79.9503 85.4523 80.5063 85.959 80.4046 86.5402C79.7467 86.5402 79.2057 86.8378 78.5554 87.0469C78.2029 87.0469 77.9823 86.9424 77.841 86.9938C77.8334 87.5005 77.8334 87.5005 78.0615 88.2305C78.3443 88.2535 78.6251 88.2748 78.9079 88.2978C78.9776 88.5051 79.4168 88.1632 79.4809 87.784C79.9107 87.784 80.6798 87.8956 81.0323 87.6564C81.1265 87.6936 81.2208 87.7379 81.3075 87.784C81.7146 88.879 81.8145 92.9347 80.2161 93.344C80.2311 93.4415 79.8768 93.4131 79.7995 93.4273C79.0775 92.0134 77.6543 91.0902 76.6346 89.8021C76.6346 89.1164 77.0813 88.6628 76.8777 87.9541C75.4112 87.4031 75.4112 84.8871 75.3169 83.6733C75.4508 82.9132 75.4508 82.9132 75.4432 82.3321C75.8579 81.8554 76.3594 81.8466 76.6817 81.207C77.2302 81.051 78.0464 79.956 78.2104 79.4493C78.3518 79.405 78.4837 79.3589 78.6176 79.3146C78.6176 79.2633 78.4215 79.1445 78.3197 79.1375C78.2255 78.6821 77.9899 78.2427 77.6223 77.9291C77.0191 76.5825 76.5177 75.1136 75.6789 73.8857C74.6817 73.5349 73.4904 73.3861 72.4329 73.3861C71.021 73.1185 69.8618 72.5002 68.6233 71.8375C67.4 71.6656 65.4942 71.4353 65.0795 70.1312C64.514 69.6333 64.4763 68.8945 64.3576 68.1964C63.3774 67.6223 62.4613 69.015 61.4735 69.3339C61.466 69.3941 61.2304 69.55 61.121 69.5731C60.0635 70.1826 58.9891 70.6929 57.8958 71.1376C57.8015 73.1593 57.3755 74.9045 58.105 76.8465C58.2144 77.5091 58.5876 78.5297 58.2879 79.1481C57.2549 79.8923 57.4019 80.057 57.5999 81.0918C56.8308 81.8732 57.1889 82.5217 55.9241 82.4331C55.7035 82.0007 55.6376 81.6659 55.2059 81.4497C53.0759 82.1797 52.058 82.3799 49.7168 83.1631C48.7064 83.14 47.5132 83.2818 46.5481 82.9752C46.3502 82.3143 46.3351 81.8962 46.3653 81.1963C49.1098 80.8154 51.6131 78.1346 51.4001 75.2447C51.0853 74.4332 50.3973 73.9867 49.615 73.7475C49.583 73.5863 49.5585 73.3914 49.5434 73.1788C49.1946 73.2124 48.8478 73.2514 48.5066 73.2975C45.0646 73.2744 41.796 73.0512 38.4332 72.3442C37.3192 75.204 37.7112 79.2845 37.7734 82.3321C37.994 84.0897 38.1033 84.2899 38.2202 85.1245C38.2202 87.1284 38.2202 89.1306 38.2126 91.1416C38.4879 94.4939 38.4879 97.8232 38.9742 101.153C39.0515 103.431 39.404 105.658 39.404 107.901C37.6321 109.585 36.5425 111.356 36.0807 113.896C36.011 113.926 35.9393 113.963 35.8621 114C33.6811 113.821 31.4794 113.635 29.291 113.621C29.2212 113.546 29.1515 113.479 29.0723 113.412C29.2533 111.952 30.1467 110.708 30.6953 109.331C30.7424 109.264 32.207 107.09 32.6783 107.037C33.11 106.404 33.5492 105.972 33.9639 105.295C34.716 100.274 33.4078 95.3799 32.224 90.525C32.224 87.233 30.8046 84.1943 30.4823 81.005C30.045 79.7399 30.2014 78.4145 29.8489 77.192C29.504 77.1991 29.1515 77.2079 28.7971 77.215C26.8932 77.6916 24.6275 77.7218 22.7067 77.9379C21.5851 77.9663 20.456 78.0052 19.3269 78.0425C19.1157 79.1375 20.0809 80.6116 20.4729 81.6092C21.8528 83.8204 23.2797 85.7198 24.0544 88.2234C24.0544 89.795 23.4192 91.4109 22.9027 92.8922C21.4211 93.0038 21.1157 91.1416 20.3542 90.1069C19.0837 87.4863 17.8151 84.864 16.5446 82.2488C16.3806 81.7722 16.2939 81.1627 15.8943 80.8278C15.5418 79.0843 14.882 77.1991 14.2562 75.5247C14.4428 74.6458 14.686 74.0948 15.1327 73.2975C15.981 72.9254 15.981 72.9254 16.6784 72.486C16.686 72.4257 20.9423 70.7425 22.8009 69.6546C23.5304 68.1964 23.3966 67.555 22.1035 66.4529C21.3268 65.1045 20.2769 63.8377 19.5776 62.4751C17.7906 60.8521 17.078 56.83 16.5446 54.7286C16.5446 53.5451 16.5446 53.5451 16.6539 52.4359C17.5361 50.3611 17.6228 48.3748 17.3608 46.3833L14.7915 46.9857C14.7915 47.0247 14.7897 47.0637 14.7878 47.1027C14.5446 47.4003 14.2939 47.698 14.0432 47.9957C13.1893 48.0701 12.735 48.9046 12.1695 49.4858C10.2958 50.074 8.40706 48.3979 7.1837 47.3117C6.96504 46.5587 6.96504 46.5587 6.71433 46.0821C6.78408 45.2546 6.52583 43.7433 6.09417 43.0735C5.48343 39.5653 4.82557 36.1527 3.91512 32.6977C3.91512 32.0864 3.90757 31.4769 3.90003 30.8727C3.67949 31.0746 3.67949 31.0746 3.48344 31.0817C3.29494 31.8046 2.35433 31.693 1.74359 31.693C1.70401 30.8514 2.58996 31.0073 2.58996 30.1515C2.21484 30.1356 1.83784 30.1214 1.45331 30.1055C2.04143 29.3365 1.69647 29.2798 2.3713 29.0636C2.65216 28.5498 2.90475 28.1245 2.95942 27.5363C2.20542 27.5735 1.62672 28.036 0.763397 27.655C0.763397 26.9994 1.10835 27.1748 1.57206 26.7248C1.8058 26.4271 2.04142 26.1365 2.27705 25.846C2.72379 23.128 2.93491 22.8445 2.91983 22.6513C2.03388 21.7123 1.04614 20.9894 0.0037384 20.208C-0.00379944 19.9546 -0.00379944 19.9546 0.214859 19.6109C1.82276 19.8944 3.25725 20.2824 4.8086 20.7661C5.63235 19.3735 7.23837 18.4804 8.14127 17.1693C11.3307 15.114 15.3212 14.547 19.1082 14.8376C20.5351 15.1512 21.9621 15.463 23.389 15.7837C23.8584 16.0442 24.7764 16.4606 24.7839 16.5208C25.9206 17.0789 26.8216 17.5786 27.8093 18.3458C28.8687 18.6807 29.5982 20.5872 30.5313 20.6917C30.7254 21.2498 31.4549 21.7796 31.9413 22.1375C32.0826 22.5468 32.4596 22.8657 32.8272 23.112C34.0657 24.6766 35.2268 26.0993 36.3635 27.8127C36.8743 28.9201 37.5265 29.9673 38.1976 31.0038V30.8549C38.1976 30.6423 38.2541 30.5537 38.7574 29.9743C39.4077 29.2249 40.8988 28.2698 41.6942 28.2202C42.0317 28.199 42.4501 28.2202 42.4501 28.2202L41.3323 30.7097C40.3389 29.9885 39.7772 29.8415 39.4285 30.1373C39.1363 30.3854 38.5765 30.9471 38.3239 31.2004C38.6519 31.7019 38.9817 32.2015 39.3041 32.7065L39.338 32.7083C39.3719 32.6622 39.4096 32.6091 39.4549 32.5435C39.8564 32.3344 40.0618 32.1342 41.0797 31.7161C41.453 31.3369 41.6283 31.1136 42.1259 30.9648C42.1561 30.8833 42.1768 30.8089 42.1994 30.7345C43.6565 30.2862 44.812 27.7064 45.9543 26.521C46.4671 26.11 46.4671 26.11 47.9374 25.2311C48.1805 24.285 47.828 23.2644 47.7621 22.3041C47.1984 22.0223 47.2946 21.0762 46.6725 20.8901C46.6933 20.7183 46.7178 20.5482 46.746 20.3781L56.2615 10.8243C56.2822 10.9023 56.3049 10.9803 56.3256 11.0582C56.7214 11.1557 57.1682 10.9767 57.4453 10.6932C58.1635 10.4328 58.8722 10.1723 59.5829 9.91894C59.6206 9.77719 59.6488 9.64253 59.6771 9.50964C59.8826 9.53799 60.0881 9.5752 60.2935 9.61241C60.2784 9.78428 60.2634 9.95615 60.2426 10.1262C59.3265 11.914 58.991 12.0487 57.0362 11.9884C57.2492 12.9576 57.4981 13.3439 57.3737 14.2901C58.3746 14.3344 59.1135 14.3273 59.4811 15.3035C59.5471 15.3035 59.613 15.3035 59.6771 15.3035C59.7299 15.5038 60.1389 16.0265 60.5499 16.7494C60.8194 17.5077 61.0909 18.2678 61.3623 19.0279C61.4641 19.5932 61.4641 19.5932 61.5602 22.7506C62.0428 24.5756 61.7205 26.9374 61.3623 28.7465C60.629 29.4924 60.1107 31.5247 59.7808 32.4709C60.1107 32.485 60.3086 32.4106 60.3953 32.7845C62.3086 33.091 63.5734 34.7672 64.1182 36.6134C65.104 36.3618 66.0465 35.8728 67.0946 35.6247C68.5366 35.8409 68.5366 35.8409 70.497 35.9383C72.1275 36.2502 75.3961 37.0776 77.677 37.494C79.0964 38.0078 79.0964 38.0078 82.0671 39.2676C82.7721 40.1021 83.6109 40.6975 83.9804 41.6879C83.6581 41.7464 83.5883 41.8297 82.8833 41.8368C82.0445 41.0394 80.2877 41.7925 79.4262 42.2532C79.2057 42.2691 79.2773 41.6064 79.5978 40.9881C79.1586 41.0182 78.595 41.4417 78.0068 41.4275C77.5281 41.8137 77.4036 41.9342 76.791 42.0016C76.7514 41.2485 76.6817 40.7719 77.5526 40.5929C77.5827 40.5185 77.6148 40.4441 77.6374 40.3697C77.5752 40.3396 77.513 40.3095 77.4413 40.2882C77.3716 40.3254 77.3 40.3626 77.2227 40.4069C77.2151 40.3697 77.1982 40.3325 77.1831 40.3024C76.5724 40.3024 75.3169 40.6745 75.0983 41.2113C74.6817 41.3229 74.6817 41.3229 74.2896 41.2786C74.2444 41.0767 74.2444 41.0767 74.0314 40.8003C73.9918 40.8534 73.9447 40.6071 74.2274 40.5487C74.2821 40.2421 74.3292 39.9374 74.3763 39.6397C73.9767 39.5724 73.5696 39.5121 73.1624 39.4537C72.0333 38.6935 70.1049 39.133 68.8571 39.2517C68.2539 39.4537 67.8542 39.87 67.2039 39.87C67.1247 39.7584 67.0475 39.6468 66.9683 39.5422C66.874 39.5352 66.7723 39.5281 66.6705 39.521C66.9928 38.3658 66.0899 38.0238 65.6676 37.1591C65.5018 37.1591 65.3378 37.1591 65.1738 37.1591C64.514 38.1726 65.5809 39.2145 64.9702 40.3839C64.8307 40.4246 64.6912 40.4654 64.5517 40.5079C64.5272 41.4948 64.1295 42.177 63.3378 43.233C63.3152 43.233 63.2907 43.233 63.268 43.233C63.2605 43.3924 63.253 43.5537 63.2454 43.7132C63.5037 44.2429 63.4641 44.7036 63.4641 45.2919C64.0126 46.1636 63.6375 46.626 62.6724 46.8865C62.2728 47.8468 62.1634 48.6442 62.2011 49.6577C61.7638 49.702 61.7638 49.702 61.5112 49.5903C61.4415 49.2997 61.3623 49.0163 61.285 48.7328C61.285 47.8468 61.6451 47.0956 61.5037 46.2238C61.5395 45.5541 61.6092 45.0916 61.6262 44.7408C61.3887 44.8914 61.1682 45.0137 61.0042 45.0952C60.974 45.2298 60.9382 45.3645 60.9005 45.5045C60.2426 45.5576 60.2426 45.5576 59.6771 45.7667C58.9533 45.7667 58.024 45.1997 57.3944 45.7136C56.9043 46.9574 56.7064 48.2987 56.1729 49.5425C55.5207 51.6953 54.3727 54.1971 54.8553 56.4686C55.9637 58.1394 56.2709 60.783 56.6724 62.3741L56.6913 62.3759C56.9853 62.1402 57.2549 61.8815 57.4114 61.552C57.483 61.536 58.0636 60.643 58.2822 60.2036C58.9175 60.0176 59.5753 59.339 59.811 58.7578C59.8732 58.7436 59.9373 58.7365 59.9995 58.7295C60.1389 58.3928 60.7836 57.9906 60.7912 57.9321C61.8411 57.3669 61.4019 55.9583 61.4886 56.0097C61.4886 54.8403 61.5753 53.7683 61.6601 52.5546C62.4763 52.3243 62.2652 51.0716 62.9382 50.6623C62.9476 50.6038 62.9551 50.5436 62.9627 50.4833C63.1738 50.4249 63.1738 50.4249 63.9429 50.4833C63.9184 51.7272 63.7393 53.1198 64.2332 54.2963C64.9231 53.9703 64.9136 53.5681 65.0946 52.8452C66.4273 51.5783 64.4763 49.4415 65.2115 47.9585C66.2633 48.1002 66.35 49.7533 66.6233 50.5737C66.7176 51.9132 67.023 54.1705 66.2784 55.3842C65.4791 55.891 65.072 56.1443 65.5018 57.0746C66.3651 56.9931 66.9608 56.4349 67.9089 56.4349C68.137 56.83 67.956 57.3208 67.9089 57.7603C67.5885 57.9693 66.5687 58.1997 66.2633 58.3645C66.2558 58.4229 66.1068 58.5647 66.0428 58.5718C66.4744 60.6873 66.8985 59.9573 68.5668 59.9573C68.5517 60.2107 68.5366 60.4641 68.5215 60.7245C68.3877 60.7617 68.2539 60.806 68.1125 60.8521C68.0899 61.2171 68.0654 61.5892 68.0427 61.9613C68.5442 62.9074 69.006 63.5169 69.76 64.3001C70.0503 65.6485 70.9664 67.5479 72.2369 68.3222C73.366 68.471 74.5422 68.3824 75.7015 68.4781C75.6864 68.6641 75.6619 68.8502 75.6393 69.0362C75.168 69.2683 75.168 69.2683 74.5799 69.8194C74.3763 70.6982 74.7684 70.638 75.5997 70.9657C75.6072 71.026 75.6148 71.0862 75.6242 71.1447C76.3763 71.3449 76.9173 71.2333 77.709 71.5398C78.3744 72.6419 78.9399 74.0186 79.8014 74.9807C79.5507 75.4201 79.2924 75.8596 79.0342 76.299C79.151 76.5523 79.2604 76.6108 79.5186 76.7596C79.528 76.8128 79.7316 76.9315 79.8183 76.9315C79.9277 76.7898 80.0294 76.648 80.1312 76.5063C80.5158 76.4921 80.5158 76.4921 80.9305 76.6569C80.9625 77.2079 80.9229 77.7359 81.1586 78.2427C82.184 79.219 83.1416 79.4794 83.3923 80.9837C83.8616 81.5277 83.9879 82.7272 84.1218 83.4483C84.184 83.4554 84.3574 83.6042 84.3725 83.6733C84.4498 83.7017 84.5289 83.7318 84.6081 83.7619C84.6383 83.6503 84.6703 83.5387 84.7024 83.4342C85.1868 83.218 85.3527 83.016 85.6807 82.6067C86.0011 82.5358 86.3197 82.465 86.6401 82.3959ZM28.241 96.3118C27.2307 96.0053 26.3353 95.5446 25.3004 95.2771C25.2929 95.2098 24.5483 94.7101 24.2109 94.6499C24.2033 94.5914 24.062 94.4567 23.9922 94.4496C23.9847 94.3522 23.7491 94.0988 23.6322 94.0705C23.6152 93.22 23.8113 92.513 23.7736 91.6572C23.8433 91.6413 24.062 90.0555 24.1016 89.2723C24.3146 89.2139 24.3146 89.2139 24.7519 89.2723C24.7688 89.3326 25.8188 89.6462 26.3277 89.749C26.3598 89.8163 26.3918 89.8925 26.422 89.9669C28.3032 90.4418 29.0176 94.8891 28.241 96.3118ZM56.1654 15.4559C55.6677 16.115 54.9401 16.7299 54.5989 17.2083C53.0909 18.1757 52.3087 20.1655 51.5622 21.7513C51.5622 22.6903 51.6338 23.7924 50.9534 24.5437C50.9534 25.1851 50.9534 25.1851 51.057 25.683C50.7271 26.273 50.5292 26.6964 50.3822 27.352C50.4557 27.352 50.5217 27.352 50.5877 27.352C50.6838 27.0987 50.8365 26.9799 50.9609 26.622C51.9128 25.6546 52.5122 24.0529 52.893 22.6903C53.3775 21.6928 53.8525 20.7094 54.5631 19.8589C54.8628 19.8589 54.8628 19.8589 55.0023 20.0007C55.0023 21.0585 53.4717 21.707 53.9335 22.965C54.6348 21.4979 54.8176 21.5351 56.384 21.1488C56.4726 20.5889 56.5612 20.0379 56.6479 19.4868C57.1324 19.338 57.1324 19.6286 57.417 19.8589C57.4396 19.3522 57.4528 18.8472 57.4679 18.3476C57.7601 18.2288 57.7544 18.1243 57.8713 17.8266C57.9882 17.8107 58.105 17.7965 58.2219 17.7894C58.6253 18.1987 58.5292 18.7126 58.5725 19.2707C58.3765 22.8905 58.3765 22.8905 58.171 24.4409C57.9505 25.0734 57.7601 25.3711 57.7978 25.5501C58.4556 24.6571 59.2832 23.7694 59.6639 22.7204C59.7224 22.7116 59.7808 22.7045 59.8392 22.6974C59.8845 22.6088 59.9203 22.5185 59.9561 22.4299C60.352 22.4299 60.5932 22.437 60.9589 22.5929C60.9156 21.5882 60.8647 20.5818 60.8138 19.5772C60.1842 17.7806 59.3718 14.2883 56.8025 15.2947C56.7554 15.261 56.7082 15.2256 56.6574 15.1919L56.1654 15.4559ZM51.9562 40.0242C52.0297 38.9877 51.6414 37.7669 52.7686 37.5436C52.9213 36.6116 52.9213 36.6116 53.0759 36.2998C54.942 35.9419 57.4396 34.5723 57.8487 32.5754C57.3435 32.7313 57.3435 32.7313 56.7365 33.1406C55.9599 33.9308 54.0429 34.4234 52.9741 34.6981C51.3492 35.5255 51.3492 35.5255 51.1437 35.7328C49.8412 36.1208 48.4143 36.6276 47.074 36.9182C47.074 37.0209 47.074 37.1255 47.074 37.23C48.1277 37.6092 49.0363 37.96 49.8487 38.7502C50.0391 38.1319 50.09 37.6694 50.1258 37.0209C51.517 36.314 51.6131 39.2782 51.7507 40.0242C51.8242 40.0242 51.8902 40.0242 51.9562 40.0242Z" fill="#443E3E"/>
</g>
</svg>
