<?xml version="1.0" standalone="no"?>
<!DOCTYPE svg PUBLIC "-//W3C//DTD SVG 20010904//EN"
 "http://www.w3.org/TR/2001/REC-SVG-20010904/DTD/svg10.dtd">
<svg version="1.0" xmlns="http://www.w3.org/2000/svg"
 width="1196.000000pt" height="1280.000000pt" viewBox="0 0 1196.000000 1280.000000"
 preserveAspectRatio="xMidYMid meet">
<metadata>
Created by potrace 1.15, written by Peter Selinger 2001-2017
</metadata>
<g transform="translate(0.000000,1280.000000) scale(0.100000,-0.100000)"
fill="#3A281E" stroke="none">
<path d="M5415 12777 c-102 -28 -183 -82 -235 -155 -38 -52 -80 -160 -80 -203
0 -11 -18 -36 -39 -57 -38 -36 -39 -39 -44 -123 -6 -105 4 -171 39 -260 23
-58 26 -76 18 -106 -8 -32 -14 -39 -47 -46 -29 -7 -39 -15 -43 -36 -12 -46
-57 -114 -114 -171 -40 -39 -64 -75 -85 -123 -25 -60 -35 -72 -91 -110 -94
-63 -233 -194 -275 -260 -52 -81 -73 -147 -74 -242 -1 -65 -6 -90 -28 -133
l-27 -53 9 -307 c9 -301 9 -309 40 -415 36 -125 38 -166 11 -226 -23 -49 -19
-61 16 -61 45 0 30 -54 -37 -127 -22 -24 -39 -51 -39 -62 0 -11 22 -46 48 -78
27 -32 62 -78 79 -103 17 -25 45 -58 62 -74 42 -40 42 -83 0 -131 -17 -19 -37
-35 -44 -35 -7 0 -28 16 -47 36 -18 19 -46 42 -61 50 -19 10 -37 34 -52 68
-24 55 -77 116 -100 116 -17 0 -64 -56 -69 -83 -3 -12 -7 -50 -10 -85 -3 -48
-11 -74 -33 -105 l-28 -42 3 -162 c3 -159 2 -162 -20 -176 -13 -8 -110 -34
-216 -57 -183 -40 -200 -42 -330 -39 -75 2 -189 0 -252 -5 -98 -7 -124 -6
-175 9 -118 34 -354 -5 -535 -90 -165 -77 -570 -248 -675 -285 -123 -43 -229
-101 -333 -183 -92 -72 -184 -130 -266 -166 -27 -11 -78 -43 -115 -70 -36 -26
-93 -65 -125 -86 -33 -20 -80 -54 -104 -74 -137 -113 -382 -495 -549 -856
l-74 -160 6 -65 c10 -86 10 -85 -13 -230 -11 -69 -27 -168 -35 -220 -9 -52
-20 -134 -26 -181 -5 -47 -29 -151 -52 -230 -64 -222 -68 -243 -79 -413 -7
-113 -6 -181 2 -230 14 -93 4 -341 -21 -488 -22 -131 -37 -571 -42 -1198 -1
-188 2 -235 16 -285 14 -48 17 -82 12 -173 -3 -72 -1 -123 5 -138 6 -13 34
-34 64 -48 63 -30 84 -65 120 -195 17 -60 32 -94 53 -115 34 -36 91 -150 91
-184 0 -52 46 -103 65 -72 13 21 37 9 51 -27 9 -20 22 -68 30 -106 8 -38 22
-83 30 -99 14 -28 17 -29 33 -14 22 20 61 21 86 2 18 -13 19 -26 16 -188 -5
-235 -5 -238 16 -267 10 -14 49 -41 87 -59 58 -29 70 -40 85 -76 18 -40 52
-66 86 -66 23 0 18 -34 -16 -113 -24 -55 -32 -89 -34 -147 -2 -41 1 -82 6 -91
9 -18 164 -138 241 -186 28 -18 85 -47 127 -64 l76 -32 49 18 c27 9 106 41
175 71 184 78 214 120 148 206 -19 24 -51 71 -72 104 -20 32 -54 82 -75 109
-21 28 -43 68 -50 90 -17 56 -49 96 -155 200 -77 75 -96 100 -115 150 -73 197
-70 540 10 1121 20 140 69 353 91 396 6 13 42 64 80 113 37 50 103 151 147
225 80 138 112 169 112 111 0 -51 21 -174 36 -208 8 -20 28 -40 52 -52 69 -35
140 -131 157 -211 4 -19 22 -65 40 -101 18 -36 39 -85 46 -110 10 -32 30 -60
77 -104 86 -81 200 -259 324 -506 118 -233 178 -408 185 -539 3 -41 11 -93 19
-114 8 -22 19 -62 25 -90 7 -37 19 -61 48 -91 43 -45 81 -105 81 -127 0 -9 7
-21 15 -28 24 -20 18 -41 -35 -109 -58 -75 -64 -89 -50 -125 15 -41 13 -52
-20 -89 -16 -19 -30 -45 -30 -57 0 -13 20 -60 44 -105 24 -45 46 -92 48 -105
2 -16 12 -26 30 -31 15 -4 53 -27 85 -52 77 -59 128 -84 188 -92 28 -4 105
-22 172 -41 138 -38 160 -40 223 -16 31 12 46 25 51 42 14 48 9 92 -16 146
-35 77 -93 306 -100 400 -10 117 -29 166 -89 232 -60 65 -76 91 -76 124 0 13
-10 39 -21 57 -12 19 -41 113 -65 209 -49 193 -53 203 -99 252 -89 94 -177
219 -210 298 -19 45 -48 103 -65 127 -17 25 -63 111 -101 192 -38 80 -90 175
-116 211 -54 76 -73 132 -73 220 0 35 -6 106 -14 156 -8 50 -19 159 -25 242
-6 84 -16 165 -22 180 -15 40 -17 323 -2 349 6 12 16 59 23 105 17 132 38 233
80 385 21 77 42 165 45 195 4 30 20 105 36 165 16 61 34 127 40 147 7 29 33
57 133 142 87 75 139 128 175 181 29 41 58 75 64 76 7 1 28 1 47 0 59 -2 140
46 180 106 52 78 74 74 266 -54 65 -44 151 -100 189 -123 118 -72 381 -208
433 -224 92 -27 112 -42 112 -84 0 -21 -7 -65 -16 -97 -8 -33 -30 -132 -49
-220 -18 -88 -44 -205 -58 -260 -14 -55 -37 -156 -52 -225 -14 -69 -42 -164
-61 -212 -29 -70 -33 -91 -24 -107 14 -27 70 -29 92 -3 23 26 55 133 77 257
11 61 24 130 30 155 5 25 15 83 21 130 20 156 109 554 127 567 17 13 30 11
120 -14 33 -9 54 -21 58 -33 17 -54 171 -86 372 -76 116 6 146 4 255 -18 115
-23 271 -47 398 -61 89 -9 87 -3 61 -162 -13 -76 -48 -257 -78 -403 -30 -146
-60 -303 -68 -350 -53 -325 -89 -657 -90 -820 0 -81 2 -95 17 -98 9 -2 22 6
27 17 6 11 22 141 36 288 21 234 56 470 85 583 5 19 18 100 30 179 11 79 29
178 39 220 11 42 22 108 25 146 4 39 14 102 22 140 8 39 22 106 30 150 20 110
34 118 139 78 22 -8 83 -23 136 -33 58 -11 127 -33 171 -54 78 -37 153 -60
235 -72 85 -12 86 -14 80 -108 -3 -44 -16 -142 -30 -216 -25 -139 -52 -333
-88 -640 -23 -200 -86 -533 -126 -665 -29 -98 -30 -118 -24 -435 4 -152 1
-195 -12 -240 -10 -30 -31 -109 -48 -175 -37 -147 -44 -167 -85 -230 -21 -32
-37 -73 -44 -115 -15 -86 -90 -292 -148 -409 l-47 -94 0 -126 c0 -110 3 -132
23 -172 12 -25 22 -53 22 -61 0 -30 48 -75 87 -83 21 -4 51 -20 68 -35 16 -16
45 -42 63 -58 41 -39 42 -78 2 -149 -43 -75 -41 -135 5 -227 19 -38 42 -77 50
-86 18 -20 76 -33 240 -55 61 -8 180 -32 265 -54 85 -22 192 -45 237 -52 73
-11 84 -10 107 5 37 24 32 50 -23 125 -27 36 -63 91 -80 121 -17 30 -53 77
-80 104 -48 48 -73 92 -86 149 -3 15 -38 62 -77 104 -112 122 -168 193 -168
214 0 11 -11 46 -25 79 -29 69 -55 232 -59 370 -7 250 146 738 295 941 78 107
119 203 126 296 2 43 11 95 19 115 7 21 34 112 59 203 73 266 158 509 256 732
50 114 107 246 125 293 19 47 59 125 88 175 29 49 59 105 66 123 14 36 73 82
103 82 11 0 52 -21 92 -47 40 -27 124 -77 187 -113 106 -61 127 -78 348 -296
129 -126 303 -285 385 -351 282 -227 320 -269 475 -524 114 -188 128 -220 145
-323 7 -45 21 -110 29 -144 39 -150 67 -317 75 -443 4 -75 11 -141 15 -147 4
-6 9 -123 12 -259 2 -141 9 -263 16 -283 6 -19 24 -51 39 -71 16 -20 34 -54
41 -75 9 -27 26 -47 56 -67 23 -15 42 -33 42 -39 0 -6 -31 -44 -69 -84 -72
-75 -74 -78 -100 -209 -7 -33 -15 -70 -18 -81 -4 -16 11 -39 57 -89 59 -66
318 -284 390 -330 94 -59 257 -92 304 -61 31 20 42 72 28 124 -6 20 -25 87
-43 147 -29 100 -32 123 -33 255 l-1 145 -47 135 c-64 184 -84 285 -69 358 16
78 14 112 -9 168 -11 27 -35 113 -55 191 -19 78 -47 179 -61 224 -31 100 -122
520 -131 605 -4 43 1 93 17 173 l22 112 -22 67 c-12 37 -44 108 -71 158 -27
50 -57 115 -68 145 -34 101 -122 248 -301 504 -107 153 -123 182 -151 263 -10
30 -30 69 -42 86 -48 63 -138 227 -231 421 -53 110 -111 221 -127 247 -38 59
-34 85 20 122 92 64 184 180 228 288 13 32 48 90 78 129 60 77 112 180 169
331 73 195 81 292 44 519 -16 101 -22 179 -22 319 l-1 185 109 205 c125 236
141 260 166 260 10 0 171 -76 358 -169 235 -117 346 -178 357 -195 9 -14 31
-28 48 -32 18 -3 80 -28 139 -55 126 -57 177 -71 246 -62 68 8 175 -25 238
-74 27 -20 81 -51 121 -69 53 -24 76 -41 88 -63 22 -43 66 -62 155 -68 93 -7
129 8 184 72 42 51 81 73 181 103 78 23 123 61 149 123 8 20 24 99 35 175 12
77 34 219 51 317 35 206 40 376 15 504 -42 213 -25 566 36 743 16 46 29 102
29 125 0 22 9 87 20 145 11 58 20 122 20 142 0 28 5 40 23 49 32 18 34 22 47
143 15 143 1 462 -23 519 -9 21 -37 62 -62 91 -68 80 -71 96 -39 207 33 116
54 158 106 215 23 25 38 51 36 61 -5 27 -82 65 -131 65 -55 1 -150 -41 -197
-87 -41 -40 -111 -73 -172 -81 -42 -6 -45 -5 -56 22 -37 92 -42 229 -12 314
25 72 25 96 -2 114 -32 23 -58 20 -109 -13 -70 -45 -105 -89 -153 -192 l-45
-97 -153 5 c-157 6 -186 13 -222 52 -17 19 -26 20 -170 14 -132 -5 -158 -8
-208 -31 -46 -20 -67 -23 -104 -18 -26 3 -91 3 -146 -1 -89 -5 -103 -9 -136
-35 -31 -25 -42 -28 -74 -23 -35 6 -231 16 -308 15 -19 0 -61 -14 -93 -31 -32
-16 -81 -38 -109 -49 -28 -10 -106 -51 -173 -90 -68 -39 -167 -88 -220 -110
-54 -22 -118 -51 -142 -65 -25 -14 -89 -44 -142 -67 -53 -23 -123 -59 -157
-80 -34 -21 -70 -38 -80 -38 -34 -1 -102 -38 -164 -90 -71 -58 -126 -88 -225
-120 -146 -48 -227 -101 -329 -221 -31 -36 -84 -83 -117 -104 -33 -21 -64 -46
-70 -56 -23 -45 -105 -14 -394 146 -258 143 -397 230 -473 295 -41 36 -95 81
-120 102 -56 45 -71 71 -72 126 0 53 12 78 56 117 l34 30 -16 44 c-8 24 -19
52 -25 63 -11 21 -68 52 -159 84 -36 13 -72 34 -81 46 -17 21 -18 21 -119 8
-87 -12 -103 -11 -112 1 -6 9 -7 76 -2 184 11 263 11 284 -14 335 -12 25 -54
83 -93 130 -39 47 -88 114 -109 150 -46 80 -170 386 -170 422 0 15 16 56 35
92 19 37 35 73 35 82 0 8 -25 42 -56 74 -31 32 -53 64 -49 69 3 6 38 26 78 44
83 39 89 44 112 116 31 95 112 257 140 279 34 27 45 95 45 283 0 110 -4 150
-20 203 -24 77 -105 202 -156 241 -42 32 -111 55 -164 55 -21 0 -57 9 -81 20
-55 24 -74 24 -174 -3z m850 -3295 c28 -26 132 -92 230 -147 139 -78 195 -116
259 -175 44 -41 151 -136 236 -211 85 -75 166 -148 179 -163 24 -25 24 -27 8
-44 -22 -21 -204 -37 -226 -18 -8 6 -38 43 -67 83 -30 39 -84 98 -121 130 -37
32 -103 92 -148 134 -97 91 -100 93 -200 114 -88 17 -203 53 -222 68 -7 5 -13
26 -13 45 0 20 -7 77 -16 128 -9 51 -14 99 -11 108 9 24 49 5 112 -52z m-2220
-837 c0 -14 -11 -22 -45 -31 -102 -28 -270 -43 -270 -25 0 9 275 81 300 78 8
-1 15 -11 15 -22z m91 -80 c8 -19 15 -55 17 -80 l2 -45 -80 -29 c-210 -76
-200 -70 -223 -119 -11 -24 -25 -38 -40 -40 -32 -5 -130 29 -287 98 -74 33
-175 74 -225 91 -51 18 -89 37 -87 43 2 7 63 13 173 17 103 4 192 12 229 22
51 13 432 73 488 76 12 1 23 -11 33 -34z m5887 -600 c27 -44 67 -99 89 -123
39 -43 44 -65 17 -70 -26 -4 -281 82 -292 100 -18 27 90 182 122 176 8 -2 37
-39 64 -83z m-103 -236 c69 -22 165 -49 214 -60 133 -30 143 -36 151 -109 4
-34 4 -64 1 -67 -15 -15 -119 23 -308 112 -111 53 -208 103 -215 112 -14 18
-1 53 20 53 7 0 69 -18 137 -41z m22 -198 c117 -54 259 -117 316 -141 111 -46
209 -106 248 -153 21 -25 24 -37 19 -68 -8 -48 4 -71 72 -136 64 -63 92 -120
93 -189 0 -83 -4 -84 -201 -30 -258 71 -471 162 -709 303 -63 38 -150 88 -192
112 -42 24 -80 51 -83 59 -3 8 8 37 23 66 147 264 155 276 178 276 12 0 118
-44 236 -99z m-8940 -1430 c42 -115 110 -203 173 -224 6 -2 13 -46 16 -98 l6
-94 122 -195 c68 -107 146 -226 173 -264 79 -109 102 -166 102 -261 0 -101
-28 -198 -85 -285 -55 -84 -139 -258 -139 -288 0 -14 -17 -40 -44 -65 -24 -24
-58 -71 -75 -106 -37 -73 -179 -248 -245 -304 -61 -50 -72 -90 -57 -192 6 -42
11 -102 11 -134 0 -65 -25 -150 -47 -158 -30 -12 -38 17 -44 170 -6 161 -25
302 -59 457 -18 82 -21 125 -19 310 1 118 1 280 0 358 -1 107 3 158 15 200 15
51 16 73 4 211 -17 206 -16 309 3 411 16 85 41 338 40 395 -1 17 -5 65 -8 107
-6 59 -4 82 6 94 19 23 49 34 89 31 33 -2 35 -4 62 -76z"/>
</g>
</svg>
