<svg width="106" height="114" viewBox="0 0 106 114" fill="none" xmlns="http://www.w3.org/2000/svg">
<path d="M74.9374 51.4152C75.6083 51.0874 75.4947 50.8181 75.4562 50.104C74.9301 49.1349 73.2289 45.1057 71.4453 45.4122C71.46 45.5611 71.4838 45.7099 71.5076 45.8658C73.031 46.9006 74.3508 49.5459 74.7229 51.3107C74.7926 51.3408 74.8604 51.378 74.9374 51.4152Z" fill="#443E3E"/>
<path d="M77.2627 50.7897C79.7484 50.081 75.8457 45.8888 75.8457 44.6964C75.4039 43.8619 74.557 43.5412 73.8329 42.9246C73.5818 42.3274 73.2078 41.1208 72.3536 41.9554C72.3536 42.3062 72.3609 42.6552 72.3682 43.0061C71.2794 43.4295 73.2756 44.5174 73.6569 44.7495C74.062 45.2988 74.0382 46.0678 74.7091 46.2822C75.9061 47.4888 76.6761 49.2093 77.2627 50.7897Z" fill="#443E3E"/>
<path d="M70.2798 40.0347C70.432 40.0117 70.5841 39.9886 70.7363 39.9674C71.0644 39.2515 70.6684 38.6863 71.0424 37.8819C71.0956 37.8819 71.2165 38.0006 71.233 38.068C71.453 38.075 71.6748 38.091 71.904 38.1052C71.9186 37.8358 71.9406 37.5683 71.9645 37.3008C72.1093 37.2405 72.2541 37.1891 72.3989 37.136C72.7564 36.1526 71.9406 35.7522 72.6427 34.9017C73.2293 33.8439 74.1147 32.9367 74.4043 31.7602C74.0157 31.684 73.8782 31.4838 73.4896 31.5423C72.1331 32.8322 71.1176 34.8875 70.2193 36.5034C69.2734 37.3539 69.7922 39.0726 70.2798 40.0347Z" fill="#443E3E"/>
<path d="M82.6683 38.3798C83.0954 38.3213 83.0954 38.3213 83.4455 38.1052C83.6673 36.5105 83.9185 34.9761 84.2998 33.4204C84.7122 32.6674 85.1302 31.9161 85.55 31.1631C85.6105 31.156 85.6728 31.1489 85.7406 31.1419C86.2905 28.438 89.9329 26.6272 92.2207 25.5783C93.5625 24.579 93.5625 24.579 93.7843 24.5205C94.1803 23.8348 95.2618 22.7097 94.8439 21.9283C94.4846 21.9283 94.1344 21.9283 93.7843 21.9283C93.6853 22.2331 93.1812 22.575 92.8843 22.7185C92.5103 22.4793 91.9915 22.2933 91.8101 21.8911C91.3133 21.7795 91.207 21.7334 90.8568 21.3684C90.5434 21.3684 90.2317 21.3684 89.9274 21.3684C89.8046 22.1214 89.8046 22.1214 89.7515 24.5577C89.1722 24.6977 88.7836 24.8253 88.2795 25.1389C88.142 26.039 87.6929 26.4341 86.8991 26.792C86.8845 26.8505 86.8771 26.9107 86.8698 26.971C85.3666 27.8498 84.4446 29.3541 83.5922 30.7981C82.9653 31.1259 81.8911 30.8885 81.1816 30.9328C81.2733 32.0118 82.089 32.2067 82.287 33.1068C82.1807 34.6643 82.2723 36.2128 82.1734 37.7703C82.4923 38.0609 82.4923 38.0609 82.6683 38.3798Z" fill="#443E3E"/>
<path d="M75.5693 30.2099C75.7214 30.1887 75.8736 30.1656 76.0349 30.1426C76.4547 29.138 77.1696 28.5497 77.9413 27.7595C78.1686 27.3272 78.3666 26.6432 78.856 26.4855C78.8634 26.4182 78.8707 26.3597 78.878 26.2995C79.1292 26.1294 79.3822 25.9575 79.6333 25.7927C79.8001 24.937 79.45 24.572 78.5353 24.9299C78.4583 25.2346 78.1466 25.3905 77.8955 25.5925C76.9423 26.6574 75.9194 27.8056 75.1953 29.0565C75.2118 29.3683 75.2338 29.6819 75.2576 30.0009C75.4703 30.0611 75.4703 30.0611 75.5693 30.2099Z" fill="#443E3E"/>
<path d="M82.4554 24.416C82.668 24.3256 82.9265 23.9234 83.0035 23.7161C83.8797 23.3724 84.6349 22.2703 85.5277 22.0329C85.535 21.9726 85.5423 21.9124 85.5497 21.8539C86.2976 21.5102 87.0528 20.7873 87.7842 20.3124C87.7677 20.0219 87.7531 19.7313 87.7457 19.4478C85.8393 18.755 85.2142 19.8571 83.5057 20.5197C83.2711 20.8706 83.2711 20.8706 82.943 21.0566C82.4627 21.9957 81.6543 22.8072 81.6543 23.9022C81.9201 24.0723 82.1877 24.2441 82.4554 24.416Z" fill="#443E3E"/>
<path d="M55.6504 13.723L56.8346 13.3066C56.8199 13.2747 56.8126 13.2606 56.8126 13.2606L58.6585 12.6174C59.4871 12.3286 59.5824 12.2683 59.6136 12.0114C59.6356 11.8218 59.6668 11.5702 59.5788 11.4409C59.3991 11.1716 57.522 11.6252 57.3662 11.7084C56.6898 12.0699 56.2718 13.133 55.6504 13.723Z" fill="#443E3E"/>
<path fill-rule="evenodd" clip-rule="evenodd" d="M60.3811 5.22881C60.2528 6.664 60.2473 6.68171 60.0988 7.21149C57.7817 7.7519 55.2667 6.81992 53.0046 6.24761C52.77 6.07397 52.77 6.07397 52.5665 6.06334C52.5537 5.9907 52.5408 5.92514 52.5298 5.85781C52.3887 5.84364 52.2567 5.82946 52.1247 5.8206C52.1486 5.10655 52.1797 4.39073 52.2091 3.67491C52.3484 3.64302 52.4877 3.6129 52.627 3.581C54.7443 4.67068 57.5764 5.11718 59.9246 5.00201C59.921 4.95595 59.9155 4.90988 59.91 4.86558L60.0218 4.91519L60.3811 5.22881ZM60.4856 9.14634C62.3004 9.4316 64.3553 9.0666 66.1499 8.76539C66.929 8.52088 67.7099 8.27637 68.4963 8.03008C68.6521 7.73241 68.8079 7.43474 68.9637 7.1353C67.9702 5.10301 64.4598 5.30677 62.623 5.05517C62.1079 5.04454 60.7239 5.22349 60.4379 4.63702C60.3738 4.64765 60.3114 4.65828 60.2491 4.66891C60.1116 4.02573 59.9815 3.38256 59.8513 2.73938C59.1951 1.90485 59.1951 1.90485 59.0906 1.60363C58.7771 1.54339 58.6928 1.35381 58.4966 1.07563C58.427 1.08803 57.3803 0.531674 57.241 0.237549C57.1713 0.24818 57.0192 0.129467 57.0082 0.0639094C55.0614 -0.318807 53.4134 1.09157 52.0459 2.31768C50.1028 1.92611 47.0488 0.2092 45.3734 2.01647C44.9737 3.37015 45.9893 5.12604 47.2651 5.58495C47.2761 5.65228 47.289 5.71784 47.3018 5.79048C48.6766 6.45315 50.0386 6.98647 51.441 7.47727L51.9744 7.69166V8.35433C51.9744 9.21898 52.0001 9.32529 52.2311 9.41743C52.8048 9.64954 52.8415 9.63005 52.8946 9.09141C52.9148 8.88233 52.9478 8.8593 53.2301 8.8593H53.8589V9.77002H54.33V8.20904C54.33 8.20904 60.3059 9.1924 60.4856 9.14634Z" fill="#443E3E"/>
<path fill-rule="evenodd" clip-rule="evenodd" d="M66.4814 42.7829C66.6739 43.0876 67.0808 43.3711 67.4878 43.504C68.188 44.7266 68.188 44.7266 68.4483 45.003C68.6683 44.9799 68.8901 44.9569 69.1192 44.9356C69.3025 44.6079 69.484 44.2801 69.6747 43.9523C69.638 42.8715 69.9496 43.0203 70.9175 42.5508C70.9414 42.3275 70.9633 42.1131 70.9872 41.8969C70.6352 41.7765 70.2924 41.6648 69.9496 41.5532C69.6673 40.9277 69.7058 40.2208 69.66 39.5422C69.6985 39.5493 69.4089 38.961 68.9817 38.8281C68.7068 39.1931 67.9295 40.4954 67.3246 41.4876C67.3154 41.5479 67.0075 41.7623 67.0075 41.8296C66.804 41.8952 66.6555 41.9749 66.5529 42.0635C66.3109 42.2743 66.3256 42.5366 66.4814 42.7829Z" fill="#443E3E"/>
<mask id="mask0_4962_4" style="mask-type:luminance" maskUnits="userSpaceOnUse" x="0" y="9" width="106" height="105">
<path d="M0 9.0719H106V114H0V9.0719Z" fill="white"/>
</mask>
<g mask="url(#mask0_4962_4)">
<path fill-rule="evenodd" clip-rule="evenodd" d="M51.6408 68.1326C51.4263 67.7233 51.4483 67.3955 51.5986 66.949C51.7196 66.949 51.8461 66.949 51.9744 66.949C52.1027 67.3654 52.0606 67.6932 52.0331 68.1326C51.8974 68.1326 51.7691 68.1326 51.6408 68.1326ZM70.6997 108.311C70.6997 108.236 70.6997 108.169 70.6997 108.102C69.8748 107.73 69.8143 106.826 68.9601 106.564C68.8922 106.608 68.8226 106.486 68.7621 106.537C68.7328 105.779 69.0224 105.198 69.2735 104.482C69.2955 104.542 69.532 104.624 70.0049 104.154C69.9591 103.022 70.3862 96.2445 70.5384 95.2842C70.5384 94.2778 71.5374 83.4342 71.4916 82.5553C70.8812 80.4327 71.7372 77.2434 72.399 76.3433C73.673 76.4921 73.673 76.4921 74.5492 76.7153C74.3879 81.6907 73.3082 86.65 72.4008 91.6165C72.3642 92.7859 72.0489 93.8986 72.0177 95.0751C71.3853 99.1131 71.1708 100.043 71.0645 101.176C70.5384 102.203 70.4706 104.133 70.6539 105.302C71.0187 106.023 71.8087 106.695 72.1808 107.425C71.6712 107.62 71.1176 108.116 70.6997 108.311ZM89.7329 44.0321C90.0262 42.5632 90.0794 41.8952 90.4442 40.3555C90.5139 40.2209 90.5817 40.0862 90.6495 39.9515C90.8786 40.1535 91.0473 40.5628 91.1078 40.5699C91.0583 42.161 91.2599 43.4279 91.4286 45.0137C91.4286 45.0137 89.8026 43.8017 89.7329 44.0321ZM51.1238 74.575C51.111 74.1285 51.0028 73.7263 51.2246 73.3311C51.353 73.3311 51.4813 73.3311 51.6151 73.3311C51.6719 73.4428 51.7361 73.5544 51.8002 73.666C51.7159 73.6961 51.4171 74.2631 51.3603 74.5076C51.2815 74.5307 51.2027 74.5519 51.1238 74.575ZM51.2246 71.5735C51.0102 71.1642 51.0322 70.8364 51.1807 70.3881C51.3016 70.3881 51.43 70.3881 51.5583 70.3881C51.6866 70.8063 51.6444 71.1341 51.6151 71.5735C51.4813 71.5735 51.353 71.5735 51.2246 71.5735ZM7.6038 54.7216C7.46815 54.4469 7.38382 54.3938 7.13269 54.2449C6.9787 53.8799 6.83389 53.5149 6.68907 53.157C7.43698 50.6782 7.43698 50.6782 7.5598 50.0227C7.64229 49.9996 7.72661 49.9766 7.81094 49.9624C7.41498 51.2736 7.79444 53.4848 7.81094 54.7216C7.74128 54.7216 7.67345 54.7216 7.6038 54.7216ZM9.51024 55.6535C9.49557 54.9678 9.5634 54.3495 9.19861 53.7612C9.25177 53.724 9.31226 53.6868 9.37275 53.6567C9.36542 53.1287 9.45708 52.6503 9.12162 52.2268C9.26643 51.8547 9.17478 51.5854 9.12162 51.1921C9.20594 51.1478 9.29026 51.1106 9.37275 51.0716C9.48091 50.2973 9.51757 49.3139 9.93002 48.6211C10.0363 48.6211 10.1427 48.6211 10.2508 48.6211C10.5551 50.6322 10.4781 52.4572 10.3113 54.4983C9.88419 55.1309 9.88419 55.1309 9.75404 55.5862C9.67155 55.6075 9.58723 55.6305 9.51024 55.6535ZM9.8237 62.1704C9.7852 62.1172 9.75404 62.0658 9.72471 62.0215C9.52674 62.0144 9.33609 62.0056 9.14545 61.9985C8.62668 61.0151 8.80999 59.0183 8.81732 57.9321C9.17478 58.1979 9.0153 58.5044 9.31959 60.076C9.46441 60.0991 9.60923 60.1292 9.75404 60.1593C9.77787 60.7015 9.96852 61.8426 10.0363 61.8638C9.96852 62.103 9.96852 62.103 9.8237 62.1704ZM13.0023 67.2413C13.116 66.4706 11.7136 63.2919 11.4625 62.5283C11.4387 62.3723 10.6156 57.9445 10.9052 57.6788C11.3177 59.8368 11.9428 61.8213 12.599 63.889C12.6595 63.8979 12.72 63.9068 12.7897 63.9245C12.6889 64.5588 13.094 65.303 13.292 65.9001C13.2773 66.2775 13.2608 66.6531 13.2535 67.0305C13.171 67.0961 13.0866 67.1687 13.0023 67.2413ZM11.0959 71.0703C10.6009 69.729 9.94469 68.2548 9.8237 66.825C9.90619 66.8391 9.99051 66.8622 10.0748 66.8834C10.2966 67.3317 10.2966 67.3317 10.5093 68.3665C10.8301 69.0522 11.149 69.7361 11.4772 70.4289C11.2407 71.003 11.2407 71.003 11.0959 71.0703ZM2.30609 71.0703C1.91747 69.1106 2.40508 67.1971 2.23826 65.1789C2.38308 63.5099 2.52789 61.8497 2.67271 60.1877C2.87802 59.89 2.87802 59.89 3.10716 59.2273C3.3363 59.1387 3.56361 59.0484 3.79275 58.9669C3.59477 59.9361 3.39679 60.9035 3.19882 61.8709C3.19882 63.0332 3.20615 64.1956 3.21348 65.365C3.28131 66.3625 3.80008 70.1985 2.64888 70.6752C2.61955 70.7797 2.58839 70.8913 2.55722 71.003C2.47473 71.026 2.39041 71.049 2.30609 71.0703ZM10.6688 73.9672C9.33609 71.5469 8.59551 68.9476 7.75044 66.3182C7.62763 65.753 7.16201 64.5464 7.62763 64.0396C8.58085 66.5273 9.18211 69.1035 10.1885 71.5699C10.3956 72.3442 10.7458 73.1628 10.6688 73.9672ZM8.4507 79.4493C8.25272 79.1286 7.48281 78.1683 7.57447 77.8334C7.09419 77.6473 5.99615 74.5342 5.87333 73.9903C5.81284 73.9814 5.75235 73.9743 5.69919 73.9672C5.52321 73.2231 5.52321 73.2231 5.53054 72.4187C5.30323 71.7329 5.08876 70.5405 4.57732 70.0426C4.57732 69.4987 4.57732 69.4987 4.93661 67.8969C5.06676 68.0015 5.00444 68.4267 5.21158 68.6712C5.21158 70.5777 6.16297 72.672 6.81189 74.474C7.42965 75.5991 9.02996 78.0708 8.656 79.4493C8.58818 79.4493 8.52035 79.4493 8.4507 79.4493ZM15.9683 82.8601C15.8455 82.5482 15.8382 82.4738 15.5412 82.3462C15.2827 81.1184 14.0399 80.4256 13.8181 79.1587C13.4679 78.9355 13.171 78.1169 13.1086 78.1009C12.7274 77.1778 12.7274 77.1778 12.6284 76.5523C13.105 76.6604 13.1655 76.8925 13.347 77.3621C14.1389 78.8805 15.0151 80.0606 15.8693 81.5578C15.9371 81.572 16.0068 81.595 16.0746 81.6162C16.2506 82.0787 16.1974 82.2949 16.1131 82.7927C16.06 82.8158 16.0141 82.8388 15.9683 82.8601ZM3.89173 83.9994C3.85324 83.5298 3.73225 83.381 3.51045 82.1301C3.31247 82.0698 3.31247 82.0698 2.83952 82.1372C2.7552 81.5117 2.40508 81.0953 2.23826 80.4911C2.65621 79.5751 2.91652 78.6679 3.17498 77.6987C4.14287 78.9426 3.98339 80.0889 4.04388 81.6021C4.21253 82.4366 4.52416 83.2995 3.89173 83.9994ZM9.51024 84.3059C7.42965 83.2251 7.44431 80.0305 5.844 78.5262C5.5617 77.9379 5.2794 77.3479 4.9971 76.7685C4.57732 75.1136 3.44262 73.6182 3.19882 71.9863C3.26664 71.8145 3.34363 71.6426 3.41879 71.4796C4.25836 73.1327 4.62315 74.9205 5.53054 76.5364C6.06398 78.6892 7.98508 80.4096 8.89248 82.4207C8.96947 82.4437 9.04646 82.4738 9.12162 82.5022C9.18211 82.7112 9.66239 84.0809 9.71555 84.3059C9.64772 84.3059 9.5799 84.3059 9.51024 84.3059ZM29.5224 84.4104C28.8295 83.5157 27.9899 82.9504 27.3886 81.9742C27.319 81.96 27.2511 81.944 27.1907 81.9299C27.3281 81.4001 27.5628 81.0882 27.8836 80.64C27.9826 80.64 28.0815 80.64 28.1805 80.64C28.6077 81.1627 28.6077 81.1627 29.2254 82.2116C30.1255 82.8016 31.1777 84.1712 29.5224 84.4104ZM13.6348 88.1348C13.292 87.7379 12.3167 86.2638 12.4542 85.8031C12.5294 85.7641 12.6064 85.7287 12.6889 85.6915C12.9033 86.0565 13.9317 87.419 13.8859 87.97C13.8034 88.0214 13.7191 88.0746 13.6348 88.1348ZM16.181 88.7585C15.6255 88.0958 15.0682 87.4403 14.5201 86.7847C13.4973 84.8339 11.6532 82.9416 10.9291 80.9022C10.9437 80.7232 10.9676 80.5514 10.9896 80.3795C11.0574 80.3795 11.127 80.3795 11.2022 80.3795C12.5294 82.5411 12.5294 82.5411 12.8263 82.8158C13.5431 84.3431 14.4963 86.3311 15.6933 87.5005C15.862 87.8354 16.3258 88.5353 16.3881 88.5512C16.3881 88.6168 16.3881 88.6841 16.3881 88.7585C16.3184 88.7585 16.2506 88.7585 16.181 88.7585ZM22.639 102.926C22.3641 100.662 22.3787 99.7758 21.9369 95.8795C22.0744 93.1686 21.4182 90.0484 21.9608 87.4704C22.3714 87.2259 22.3714 87.2259 22.463 87.2631C22.6005 89.7649 22.6849 92.2154 22.6849 94.7402C22.859 95.9096 23.035 97.079 23.211 98.2556C23.8819 99.999 25.4437 102.449 22.639 102.926ZM54.8396 42.6341C55.2777 44.1437 55.4188 45.8819 55.516 46.7341C55.8441 47.6945 56.1704 48.6637 56.5059 49.6311C56.8615 52.1258 57.3179 54.2272 56.1007 56.5058C56.0219 56.5288 55.9431 56.5501 55.8716 56.5731C55.8148 55.0086 55.8148 55.0086 55.9156 52.0301C55.7799 51.4791 55.6443 50.9281 55.516 50.377C55.2062 47.5013 54.0202 45.0597 53.1659 42.3736C53.1586 42.3524 53.1531 42.3311 53.1458 42.3099C52.748 40.4477 52.748 40.4477 52.704 39.9197C53.7928 40.0685 54.4399 41.2556 54.8396 42.6341ZM65.7998 35.0418C65.4588 34.3189 64.3351 33.5233 63.7577 33.0609C64.4121 31.445 64.2489 31.3847 65.8071 31.9818C68.049 33.3373 66.6833 33.2398 65.7998 35.0418ZM78.067 66.0347C78.067 66.0347 79.0752 69.0823 79.1375 68.9707C79.2145 68.9618 79.2988 68.9547 79.3832 68.9476C80.8387 70.645 83.5608 71.6585 85.6341 72.4629C88.0666 73.7068 89.1262 74.1161 89.8888 74.5555C90.8035 75.8365 89.7274 77.7519 89.8649 79.2402C89.7898 79.2402 89.4305 80.3582 89.1793 80.5815C88.3471 83.0762 86.591 85.509 86.173 88.071C86.1107 88.0941 85.5039 89.0119 84.8862 89.1696C84.9412 88.7213 84.9943 88.2748 85.0475 87.8283C86.3582 85.2503 89.8576 79.3146 88.6991 76.2387C88.6294 76.2387 86.3343 74.474 85.1007 74.3765C84.6809 75.7479 81.4179 74.9276 80.4427 74.7947C80.4427 74.7203 79.8084 74.4297 79.7021 74.3251C78.5363 74.2348 76.9799 74.3624 76.0744 73.5721C76.0707 73.5243 76.0707 73.4782 76.0707 73.4304L72.3348 73.1823C72.2743 73.3294 72.2138 73.4764 72.1552 73.6253C71.7666 73.5951 71.7666 73.5951 71.3614 73.4162C70.6685 72.2025 70.3092 71.1961 70.7217 69.8495C70.7987 69.8194 70.8738 69.7892 70.9508 69.7591C71.6676 68.657 72.4375 68.0759 72.4375 66.7807C71.7739 66.1552 71.0645 66.5273 71.0645 65.4925C72.1863 64.2328 73.2294 62.9446 74.3421 61.6937C74.3971 61.4032 74.4502 61.1126 74.5107 60.8291C73.1836 60.6732 72.2927 61.2171 71.5448 62.2076C71.3009 62.3936 70.6759 63.012 70.6685 63.0704C69.0755 63.8093 68.4395 66.1623 68.0967 66.1021C67.8144 66.8551 67.8437 67.0854 68.0105 67.8597C68.1095 67.8757 68.412 68.9919 68.5256 69.3711C68.1223 69.8938 67.7942 70.1844 67.7099 70.8311C67.6182 70.8311 67.5266 70.8311 67.4441 70.8311C67.2296 69.1638 67.3139 65.753 67.3139 65.6857C67.2461 65.6786 67.0628 65.5138 67.0316 65.4394C66.643 65.2906 66.3992 65.3047 65.9959 65.4394C65.8731 65.9833 65.8731 65.9833 65.7668 68.0086C65.4386 67.8668 65.325 67.9713 64.9804 68.0688C64.9199 68.4781 64.8667 68.8874 64.8136 69.2967C64.0363 68.9707 64.5001 68.2247 64.0656 67.7109C63.8072 67.6879 63.5487 67.6666 63.2884 67.6506C63.1216 68.5153 63.1216 68.5153 63.1216 69.2967C62.3058 69.6546 62.7311 70.5866 61.4809 70.5866C61.2151 70.2287 61.2151 70.2287 60.865 69.9753C60.8192 69.1638 61.0318 68.5596 60.5754 67.92C60.3077 67.904 60.3077 67.904 59.965 68.0245C59.6753 68.836 59.6295 69.364 59.6295 70.2287C59.4315 70.4005 59.4315 70.4005 59.2335 70.9356C58.6708 71.0189 58.2602 70.7141 58.2327 70.7053C58.7588 69.7077 58.0658 69.6634 58.6158 68.8838C58.8431 68.7439 58.9787 68.7279 59.0319 68.4675C58.8889 68.4976 58.57 68.4178 58.4343 68.4551C58.3811 68.6624 58.0475 69.302 57.9797 69.302C57.767 69.6316 57.4352 70.3899 57.0485 70.5972C57.0741 70.6043 56.1759 72.2397 55.6956 73.0104C55.439 73.4251 55.1805 73.8379 54.933 74.2631C54.7186 74.9772 54.5133 75.6912 54.3061 76.4071C53.516 75.7444 53.4244 75.4379 53.3456 74.4191C53.5692 73.806 53.8478 73.2284 54.1595 72.672C54.6104 71.8712 55.131 71.1146 55.6626 70.3669C56.1319 69.706 56.6103 69.0486 57.054 68.37C57.1181 68.37 57.2538 68.23 57.2538 68.1627C57.3234 68.1326 57.5874 67.7818 57.6516 67.64C57.7157 67.64 57.7945 67.4168 57.7725 67.3051C57.6937 67.275 57.6241 67.2537 57.5526 67.2307C57.5306 66.3661 57.5159 65.5032 57.5031 64.6456C58.1923 61.2047 59.5158 57.9428 60.0713 54.5019C60.0364 54.4646 59.9998 54.4363 59.9723 54.4062C59.8733 53.8853 59.8733 53.8853 59.624 50.2636C60.1079 50.3983 60.7129 50.6658 61.2115 50.5772C61.239 50.4355 61.2756 50.2937 61.3105 50.1609C61.6019 50.0191 61.9007 49.8845 62.1995 49.7498C62.5918 48.5361 63.1894 46.7483 64.3718 46.2274C64.5276 45.8996 64.6211 45.4301 64.984 45.3184C65.7283 44.5884 66.1444 43.7114 66.3002 42.7829C66.2965 42.3063 66.357 42.4817 66.3717 42.0636C66.3882 41.5108 66.324 40.9491 66.1902 40.398C67.7942 38.1939 68.8354 35.4387 70.3019 33.2274C70.3642 33.2186 70.4247 33.2115 70.4925 33.2044C71.5906 31.4538 71.5906 31.4538 71.7959 31.2749C72.1863 30.1285 73.2826 29.3081 73.794 28.2663C73.8545 28.2592 74.2743 27.6337 74.4264 27.3361C74.4869 27.3272 74.7619 27.1111 74.8315 27.104C75.3118 26.2925 76.3017 25.2861 76.5455 24.4374C76.6078 24.4303 77.3997 23.5656 77.6289 22.9703C79.1229 21.2569 81.6306 19.1502 83.933 18.725C83.9495 18.6665 84.5819 18.3529 84.635 18.3015C86.602 18.1597 89.9419 16.6253 91.5184 18.2412C92.0903 18.5619 93.0894 18.6594 93.4102 19.113C94.0206 19.09 94.6292 19.0758 95.2396 19.0598C95.2708 19.113 96.8106 20.4614 97.1607 20.6315C97.1846 20.7289 97.4504 20.9894 97.5659 21.0195C97.5732 21.0797 97.7638 21.1612 97.8463 21.1453C98.0608 21.7123 99.5859 21.6449 100.074 21.668C100.568 22.1216 100.096 22.9774 99.8976 23.4558C99.3495 23.6329 99.2413 23.8952 99.2413 24.4533C99.9122 24.7651 99.9122 24.7651 100.759 24.9742C100.774 25.5625 100.798 26.1507 100.82 26.7478C100.622 27.0597 100.622 27.0597 100.394 27.7082C99.8902 27.9243 99.8224 28.1688 99.5475 28.6384C99.2871 28.6685 99.036 28.6986 98.7849 28.7287C98.7006 28.4825 98.7006 27.7454 98.7702 27.7826C98.8069 27.1111 98.8069 27.1111 98.6547 24.5206C97.5805 24.8768 97.0397 25.7184 95.9032 25.9647C95.9875 26.8134 96.4971 27.4176 96.6878 28.3567C96.642 29.5845 96.1159 31.7444 97.5805 32.3327C97.5659 32.4301 97.5567 32.5276 97.5494 32.6232C98.2808 32.9882 98.7537 32.9298 99.5768 32.9209C99.5016 33.2115 99.432 33.5021 99.3641 33.7997C99.3036 33.8068 99.2413 33.8157 99.1808 33.8299C98.9902 34.2994 98.8765 34.6786 98.5026 35.0223C98.5026 35.118 98.5026 35.2154 98.5026 35.3129C99.212 35.6318 99.5621 35.3129 100.074 34.9018C100.042 34.6945 100.042 34.6945 99.8664 34.59C99.9507 34.4553 100.244 34.3171 100.389 34.3012C100.396 34.2055 100.576 33.9415 100.583 33.8529C100.706 33.8529 100.829 33.8529 100.957 33.8529C100.394 35.8781 100.394 35.8781 100.317 36.4894C98.3578 36.8916 99.4943 41.532 97.8701 42.5597C97.7932 42.5065 97.7253 42.4551 97.6557 42.4091C97.641 41.8811 97.641 41.8811 97.2762 40.0348C97.2139 40.0189 97.1534 40.0118 97.0929 40.0047C96.8876 38.7006 96.9481 37.0776 97.9545 36.1386C97.9545 35.5574 97.9545 34.9762 97.9545 34.4039C97.6868 34.2764 97.641 34.1807 97.4889 33.9344C97.1681 34.0017 97.0306 34.069 96.7171 34.1364C96.7318 34.4996 96.6878 35.0223 96.4678 35.32C95.6283 34.799 97.6868 32.6463 96.3377 32.2069C95.2323 32.7721 95.3698 33.8901 95.2085 35.0506C95.0637 35.4316 94.9188 35.8108 94.7832 36.1899C93.3039 37.6358 91.5881 35.5946 90.4222 34.8363C89.7348 33.3834 90.0409 32.1466 90.4974 30.6795C90.9171 30.233 91.6559 29.1752 92.358 29.2497C93.8978 28.4311 95.4688 27.88 95.0563 25.8601C94.0426 25.5784 93.9509 25.9044 93.5092 26.7762C92.8236 26.9853 90.0556 28.564 90.0482 28.6242C89.5221 28.8616 89.3388 29.2798 88.8054 29.48C88.5231 30.2472 88.0886 30.8425 87.7917 31.6399C87.7917 34.3437 87.2876 37.1361 87.0529 39.8328C87.4709 40.9952 87.1886 42.4179 87.1592 43.6387C86.7395 45.3751 85.3591 46.7678 85.3591 48.5255C86.4113 50.5666 86.5488 52.8966 87.4782 54.9377C87.6927 56.4119 87.6927 56.4119 87.6927 57.3953C87.3957 58.6391 86.7853 59.7642 86.206 60.9194C84.811 61.0382 84.5507 60.3737 84.3601 59.0714C84.1548 59.0112 84.1548 59.0112 84.0484 58.795C83.5682 58.9066 83.4765 59.0555 83.1484 59.4222C82.6754 59.1901 82.6076 58.974 82.5618 58.446C82.3253 58.3928 81.4033 57.3067 81.1136 58.1253C81.4033 58.9155 81.7681 60.6944 82.3858 61.2313C82.7671 62.6682 82.043 62.3263 81.4491 63.1608C81.3794 63.1378 81.3116 63.1147 81.2419 63.0935C80.7085 60.4056 80.0761 56.8602 78.0707 54.819C77.6435 54.1634 76.9048 53.4476 76.6298 52.7548C76.287 52.629 76.2192 52.5989 76.0359 52.3012C75.9662 52.3012 75.9057 52.3012 75.8452 52.3012C75.6161 52.7477 75.7848 53.3059 75.8306 53.7984C76.3567 55.5561 76.782 57.5211 77.6435 60.6572C78.3841 62.0694 78.6701 64.3178 78.067 66.0347ZM21.7445 82.3959L22.0451 81.5259C22.7453 81.2938 22.8993 80.6825 23.1871 79.8816C24.6976 78.9868 24.8351 77.0662 25.5592 75.7178C25.8635 75.4875 26.1769 75.2554 26.4886 75.0321C26.7104 73.767 26.0688 71.1961 27.6251 70.8027C28.0522 70.5263 28.197 70.2499 28.2887 69.7822C28.2887 69.7822 23.3283 64.9592 23.924 63.8075C24.045 62.0534 23.6747 59.906 23.9497 59.0945C24.3622 59.4807 24.5913 59.6597 24.7581 60.2036C24.8113 60.2107 25.0624 60.6501 25.1321 60.8663C25.7572 61.1126 26.8167 63.9581 27.022 64.5092C26.8772 64.798 26.6645 65.1187 26.9303 65.4181C28.7763 65.4695 29.4619 64.9787 29.4619 67.0181C29.1503 67.7481 27.7773 68.5153 28.417 69.1408C29.889 69.1408 30.2923 67.8083 30.7432 66.6247C31.2767 66.8462 31.8871 67.5107 32.0612 68.0688C32.3215 67.9713 32.58 67.8828 32.8385 67.7942C32.9925 66.8994 33.0071 66.6159 32.8018 65.6857C32.5415 65.5811 32.5415 65.5811 31.9934 65.023C31.2767 64.5464 31.0622 64.2328 29.8743 63.2654C28.6315 62.5867 29.2107 62.4981 28.7066 61.4032C26.5729 60.9336 25.9625 58.5718 25.9625 56.6724C25.8176 55.3842 25.6728 54.0961 25.5353 52.8151C25.253 52.6804 25.1614 52.7105 24.8571 52.7548C24.3915 54.1262 24.5821 55.2513 24.5913 56.6724C24.4226 57.149 24.2558 57.6274 24.0872 58.1111C24.034 58.1111 23.9809 58.1111 23.9277 58.1111C23.858 57.9995 23.7976 57.8878 23.7371 57.7833C23.6454 57.7744 23.5537 57.7673 23.4694 57.7673C22.4942 58.9066 22.5474 61.0523 20.9691 61.4173C20.7014 60.6643 20.6868 60.5615 20.8847 59.8014C21.739 58.2971 22.5327 57.0746 22.4245 55.347C22.3641 55.3258 22.3109 55.3027 22.2577 55.2797C22.3952 54.8934 22.4099 54.4912 22.8058 54.3194C22.837 53.8658 22.8682 53.4193 22.8975 52.971C23.4548 51.9805 23.6381 51.5854 23.6381 50.4692C23.1871 49.36 22.0286 48.8462 22.8058 47.5935C22.7912 47.1168 22.8132 46.9538 23.013 46.5375C22.936 46.4329 22.859 46.3284 22.7912 46.2238C23.0661 45.5683 24.3622 45.2989 25.0019 45.2405C25.3374 45.0544 25.6802 44.8684 26.023 44.6894C26.023 44.413 26.023 44.1384 26.023 43.862C25.6123 43.7433 25.2384 43.4527 25.1779 43.0363C25.0789 43.0204 24.9799 43.0133 24.8809 43.0062C24.8718 42.9459 24.8644 42.8875 24.8571 42.8272C24.2008 42.6554 19.4824 43.6618 19.0259 43.9081C18.6062 43.9594 18.1864 44.0108 17.7666 44.0711C17.0279 44.98 15.8987 46.0449 16.3881 47.2745C16.4486 47.2816 16.5091 47.2887 16.5696 47.2958C17.4385 49.0978 18.7272 51.0131 17.7208 53.1287C17.6218 54.1705 17.8656 54.7659 16.7309 54.5887C16.8134 52.8009 17.1727 50.96 17.1727 49.1952C16.8225 48.9578 16.4559 48.8001 16.2799 48.4138C15.5485 48.2951 15.5724 47.9886 15.3725 47.3117C15.785 45.8659 16.1425 44.3103 16.7529 42.9389C17.6144 42.0972 18.9636 42.1274 20.0763 42.2691C21.0002 41.9555 22.9672 41.3903 22.9745 41.2999C23.8287 40.9579 24.2173 40.8304 24.4373 39.9303C23.4401 39.7283 19.6254 40.3839 17.2075 40.9686C16.3038 41.1865 14.1865 43.1887 13.8401 44.6221C13.215 44.6593 12.5532 43.6316 12.0564 43.2897C10.029 43.334 7.72662 46.6633 7.28483 46.8635C7.15468 47.1541 7.15468 47.2515 6.85772 47.3773C6.84305 47.4375 6.83389 47.4978 6.82655 47.5563C6.32428 47.8256 5.82751 48.0931 5.33256 48.3695C5.10342 48.9117 0.461972 56.9488 0.780934 59.5321C0.652616 60.6129 0.568293 60.6802 0.445474 61.536C-0.26211 63.2795 0.071518 73.3559 0.126511 76.1431C0.491302 77.9379 0.942249 80.2537 1.93213 81.8324C2.5114 84.2598 2.48207 86.6819 3.36563 89.065C3.60943 88.9977 3.85324 88.9304 4.10621 88.8631C4.23453 88.4768 4.26569 88.3421 4.56999 88.0657C4.69281 86.2496 4.98977 84.7152 5.50854 82.9876C5.66069 83.016 5.82017 83.0532 5.98149 83.0904C6.00348 84.0153 6.02732 84.9384 6.05665 85.8687C6.28578 86.8308 6.51492 87.7911 6.7514 88.7585C8.74766 88.5583 7.49747 86.9193 7.87143 85.4523C7.93192 85.4824 7.99425 85.5125 8.06207 85.5409C8.80999 87.8354 9.0153 88.126 10.403 91.8645C10.3883 91.962 10.4781 92.1852 10.5404 92.1923C10.9676 93.2731 11.149 93.4592 11.2022 94.7544C11.6385 94.7615 12.0729 94.7774 12.5074 94.7916C12.7347 94.4798 12.7659 94.2264 12.8355 93.8455C12.9418 94.0404 13.292 94.2636 13.4826 94.5843C13.9171 94.6056 14.313 94.4798 14.6265 94.1732C14.6118 93.95 14.0765 92.513 13.5504 92.4528C12.995 91.1647 12.6357 89.8695 12.599 88.4679C13.5669 90.0927 13.5669 90.0927 13.6348 90.4134C13.8786 90.5463 14.1847 90.8369 14.2452 90.844C14.6338 91.5598 14.6338 91.5598 15.0756 92.1037C15.8528 92.148 15.7923 91.4925 15.6933 90.9131C14.9693 90.2185 14.2672 89.3255 13.8951 88.4024C13.9409 88.3864 13.9849 88.3723 14.0307 88.3652C14.3662 88.8046 14.4505 88.9162 14.9839 89.0863C15.2901 89.8322 15.5797 90.0927 15.708 90.4506C15.9683 90.4506 16.2341 90.4506 16.5017 90.4577C17.059 89.6834 17.279 88.8188 17.4935 87.9169C15.6402 86.5614 14.5806 83.7247 13.5669 81.781C12.896 80.8047 12.0033 79.6867 11.7906 78.5102C11.8896 78.4518 11.8896 78.4518 12.0876 78.5102C12.8887 80.1492 13.9409 81.6021 14.7566 83.2109C15.1672 83.7991 15.587 84.7294 15.7923 84.9225C15.9078 85.5568 15.9078 85.5568 16.0288 85.6915C17.4935 85.5409 17.0883 82.8831 17.3321 81.781C17.5228 81.6322 17.7134 81.4904 17.9114 81.3487C17.9114 80.3724 16.6392 79.3217 16.0746 78.5173C15.5265 78.3614 15.2057 77.6686 14.9473 77.2292C13.7411 76.1129 11.1417 72.7766 12.3094 70.9888C12.72 71.7861 12.9418 72.4187 13.3231 73.1327C13.3763 73.1398 13.4368 73.1486 13.4973 73.1557C13.8401 73.9974 13.9097 75.3457 14.7328 75.8223C15.1214 77.1548 16.7309 77.5871 17.1342 78.8238C17.3395 78.854 17.554 78.8912 17.7666 78.9284C17.7831 78.861 17.9957 78.652 18.0874 78.6218C18.1406 77.5127 17.9957 77.7873 17.554 77.0662C17.4843 77.0502 17.4238 77.0431 17.3633 77.0361C16.8592 76.1785 14.7786 73.0654 15.2204 71.9562C15.2662 71.9633 15.3121 71.9792 15.3652 71.9934C15.807 73.6394 17.158 75.1437 18.0416 76.5896C18.4375 76.5896 18.4998 76.5063 18.8261 76.4478C19.1249 75.553 18.9343 74.8691 19.0406 73.9672C18.7272 73.8698 18.6667 73.6253 18.5072 73.3418C18.4375 73.3258 18.377 73.3187 18.3165 73.3117C18.3165 73.3117 16.9215 71.0703 16.6227 71.0402C15.8693 69.9452 14.1682 67.3388 14.9546 65.916C15.9225 68.2105 15.9225 68.2105 16.6007 69.5128C16.6612 69.5217 16.7236 69.5288 16.784 69.5359C17.18 70.3474 17.18 70.3474 17.5998 70.9728C17.7666 71.5327 17.8509 71.9934 18.3459 72.3814C19.8783 71.6727 17.4476 68.7456 16.982 67.9572C16.1205 65.6697 16.1205 65.6697 15.2736 63.8837C15.2974 63.4213 15.3194 62.9588 15.3505 62.5052C15.4037 62.5052 15.4569 62.5052 15.51 62.5052C15.961 63.2866 16.4101 64.0769 16.8592 64.8671C17.4091 66.4741 18.179 68.1202 18.5677 69.7591C19.2698 70.4448 19.673 68.813 19.8252 68.3895C19.8948 68.3824 19.9627 68.3736 20.0323 68.3736L18.8463 66.0259C18.8536 65.8717 21.4438 69.9239 22.4374 71.0189L19.9627 71.7914C19.9517 71.8587 19.9407 71.9243 19.9315 71.9863C19.3522 73.0654 20.1771 73.6926 20.9837 74.3694C21.0002 74.4368 21.167 74.6016 21.2275 74.6086C22.2724 76.1643 23.2861 76.0527 21.7848 77.8263C21.1065 78.2657 20.6189 78.7565 19.3064 79.8143C18.3459 81.1556 18.278 81.4373 18.6135 82.8601C19.9773 83.6042 19.9168 84.7967 19.3981 85.9519C19.3981 86.4126 19.4054 86.8751 19.4146 87.3446C19.651 87.7468 19.8948 88.149 20.1387 88.5583C20.2596 90.4648 20.2596 90.4648 20.245 92.4687C20.421 95.3214 20.6721 98.1138 20.6721 100.974C20.7564 101.794 20.6483 103.394 21.046 104.17C22.1056 104.214 22.738 104.422 23.6839 104.937C23.6986 106.023 23.7206 107.118 23.7444 108.213C24.4465 108.683 25.7718 108.683 26.6481 108.764C27.7626 109.011 29.4014 109.771 30.5141 109.278C30.5141 109.108 30.5141 108.943 30.5141 108.78C28.9138 106.516 29.5847 103.879 26.7855 102.591C26.7782 102.531 26.7709 102.471 26.7635 102.411C25.8176 102.217 25.6343 100.304 25.4364 99.4994C24.6665 98.0394 24.6445 96.326 24.4758 94.7101C23.3778 92.6388 24.2173 89.2068 24.606 86.9867C24.5986 86.6146 24.5913 86.2425 24.5913 85.8687C25.4675 85.0129 25.8176 83.8133 26.6187 82.9044C26.6865 82.9274 26.7635 82.9575 26.8387 82.9876C27.1522 83.7619 28.1054 84.336 28.615 85.043C28.2502 85.4523 27.7094 85.959 27.8084 86.5402C28.4482 86.5402 28.9743 86.8378 29.6067 87.0469C29.9495 87.0469 30.164 86.9424 30.3015 86.9938C30.3088 87.5005 30.3088 87.5005 30.087 88.2305C29.812 88.2535 29.5389 88.2748 29.2639 88.2978C29.1961 88.5051 28.769 88.1632 28.7066 87.784C28.2887 87.784 27.5408 87.8956 27.198 87.6564C27.1063 87.6936 27.0147 87.7379 26.9303 87.784C26.5344 88.879 26.4372 92.9347 27.9917 93.344C27.9771 93.4415 28.3217 93.4131 28.3968 93.4273C29.0989 92.0134 30.4829 91.0902 31.4746 89.8021C31.4746 89.1164 31.0402 88.6628 31.2382 87.9541C32.6643 87.4031 32.6643 84.8871 32.756 83.6733C32.6258 82.9132 32.6258 82.9132 32.6332 82.3321C32.2299 81.8554 31.7423 81.8466 31.4288 81.207C30.8954 81.051 30.1016 79.956 29.9422 79.4493C29.8047 79.405 29.6764 79.3589 29.5462 79.3146C29.5462 79.2633 29.7369 79.1445 29.8358 79.1375C29.9275 78.6821 30.1566 78.2427 30.5141 77.9291C31.1007 76.5825 31.5883 75.1136 32.404 73.8857C33.3738 73.5349 34.5323 73.3861 35.5607 73.3861C36.9337 73.1185 38.061 72.5002 39.2654 71.8375C40.4551 71.6656 42.3084 71.4353 42.7117 70.1312C43.2616 69.6333 43.2983 68.8945 43.4137 68.1964C44.367 67.6223 45.2579 69.015 46.2184 69.3339C46.2257 69.3941 46.4549 69.55 46.5612 69.5731C47.5896 70.1826 48.6345 70.6929 49.6977 71.1376C49.7893 73.1593 50.2036 74.9045 49.4942 76.8465C49.3879 77.5091 49.0249 78.5297 49.3164 79.1481C50.3209 79.8923 50.1779 80.057 49.9855 81.0918C50.7334 81.8732 50.3851 82.5217 51.6151 82.4331C51.8296 82.0007 51.8937 81.6659 52.3135 81.4497C54.3849 82.1797 55.3748 82.3799 57.6516 83.1631C58.6341 83.14 59.7945 83.2818 60.733 82.9752C60.9255 82.3143 60.9402 81.8962 60.9108 81.1963C58.2418 80.8154 55.8074 78.1346 56.0146 75.2447C56.3207 74.4332 56.9898 73.9867 57.7505 73.7475C57.7817 73.5863 57.8055 73.3914 57.8202 73.1788C58.1593 73.2124 58.4966 73.2514 58.8284 73.2975C62.1757 73.2744 65.3543 73.0512 68.6246 72.3442C69.708 75.204 69.3267 79.2845 69.2662 82.3321C69.0517 84.0897 68.9454 84.2899 68.8317 85.1245C68.8317 87.1284 68.8317 89.1306 68.8391 91.1416C68.5714 94.4939 68.5714 97.8232 68.0985 101.153C68.0233 103.431 67.6805 105.658 67.6805 107.901C69.4037 109.585 70.4632 111.356 70.9123 113.896C70.9802 113.926 71.0498 113.963 71.125 114C73.2459 113.821 75.387 113.635 77.5152 113.621C77.583 113.546 77.6509 113.479 77.7279 113.412C77.5519 111.952 76.683 110.708 76.1495 109.331C76.1037 109.264 74.6794 107.09 74.2211 107.037C73.8013 106.404 73.3742 105.972 72.9709 105.295C72.2395 100.274 73.5117 95.3799 74.6629 90.525C74.6629 87.233 76.0432 84.1943 76.3567 81.005C76.782 79.7399 76.6298 78.4145 76.9726 77.192C77.3081 77.1991 77.6509 77.2079 77.9955 77.215C79.8469 77.6916 82.0503 77.7218 83.9183 77.9379C85.009 77.9663 86.107 78.0052 87.2051 78.0425C87.4104 79.1375 86.4718 80.6116 86.0905 81.6092C84.7487 83.8204 83.361 85.7198 82.6076 88.2234C82.6076 89.795 83.2254 91.4109 83.7277 92.8922C85.1685 93.0038 85.4654 91.1416 86.206 90.1069C87.4415 87.4863 88.6752 84.864 89.9108 82.2488C90.0702 81.7722 90.1546 81.1627 90.5432 80.8278C90.886 79.0843 91.5276 77.1991 92.1362 75.5247C91.9547 74.6458 91.7182 74.0948 91.2838 73.2975C90.4589 72.9254 90.4589 72.9254 89.7806 72.486C89.7733 72.4257 85.6341 70.7425 83.8266 69.6546C83.1172 68.1964 83.2474 67.555 84.5049 66.4529C85.2601 65.1045 86.2812 63.8377 86.9613 62.4751C88.6991 60.8521 89.392 56.83 89.9108 54.7286C89.9108 53.5451 89.9108 53.5451 89.8044 52.4359C88.9465 50.3611 88.8622 48.3748 89.117 46.3833L91.6156 46.9857C91.6156 47.0247 91.6174 47.0637 91.6192 47.1027C91.8557 47.4003 92.0995 47.698 92.3433 47.9957C93.1737 48.0701 93.6155 48.9046 94.1654 49.4858C95.9875 50.074 97.8243 48.3979 99.014 47.3117C99.2267 46.5587 99.2267 46.5587 99.4705 46.0821C99.4026 45.2546 99.6538 43.7433 100.074 43.0735C100.667 39.5653 101.307 36.1527 102.193 32.6977C102.193 32.0864 102.2 31.4769 102.207 30.8727C102.422 31.0746 102.422 31.0746 102.612 31.0817C102.796 31.8046 103.71 31.693 104.304 31.693C104.343 30.8514 103.481 31.0073 103.481 30.1515C103.846 30.1356 104.213 30.1214 104.587 30.1055C104.015 29.3365 104.35 29.2798 103.694 29.0636C103.421 28.5498 103.175 28.1245 103.122 27.5363C103.855 27.5735 104.418 28.036 105.258 27.655C105.258 26.9994 104.922 27.1748 104.471 26.7248C104.244 26.4271 104.015 26.1365 103.786 25.846C103.351 23.128 103.146 22.8445 103.161 22.6513C104.022 21.7123 104.983 20.9894 105.996 20.208C106.004 19.9546 106.004 19.9546 105.791 19.6109C104.227 19.8944 102.832 20.2824 101.324 20.7661C100.523 19.3735 98.9609 18.4804 98.0828 17.1693C94.9812 15.114 91.1004 14.547 87.4177 14.8376C86.03 15.1512 84.6424 15.463 83.2547 15.7837C82.7983 16.0442 81.9055 16.4606 81.8982 16.5208C80.7928 17.0789 79.9166 17.5786 78.956 18.3458C77.9258 18.6807 77.2164 20.5872 76.309 20.6917C76.1202 21.2498 75.4108 21.7796 74.9379 22.1375C74.8004 22.5468 74.4337 22.8657 74.0763 23.112C72.8719 24.6766 71.7427 26.0993 70.6374 27.8127C70.1406 28.9201 69.5063 29.9673 68.8537 31.0038V30.8549C68.8537 30.6423 68.7987 30.5537 68.3093 29.9743C67.6769 29.2249 66.2269 28.2698 65.4533 28.2202C65.1252 28.199 64.7182 28.2202 64.7182 28.2202L65.8053 30.7097C66.7713 29.9885 67.3176 29.8415 67.6567 30.1373C67.9408 30.3854 68.4853 30.9471 68.7309 31.2004C68.412 31.7019 68.0912 32.2015 67.7777 32.7065L67.7447 32.7083C67.7117 32.6622 67.675 32.6091 67.6311 32.5435C67.2406 32.3344 67.0408 32.1342 66.0509 31.7161C65.688 31.3369 65.5175 31.1136 65.0335 30.9648C65.0042 30.8833 64.984 30.8089 64.962 30.7345C63.545 30.2862 62.4213 27.7064 61.3105 26.521C60.8119 26.11 60.8119 26.11 59.382 25.2311C59.1455 24.285 59.4883 23.2644 59.5525 22.3041C60.1006 22.0223 60.0071 21.0762 60.612 20.8901C60.5919 20.7183 60.5681 20.5482 60.5406 20.3781L51.287 10.8243C51.2668 10.9023 51.2448 10.9803 51.2246 11.0582C50.8397 11.1557 50.4052 10.9767 50.1358 10.6932C49.4374 10.4328 48.7481 10.1723 48.057 9.91894C48.0204 9.77719 47.9929 9.64253 47.9654 9.50964C47.7656 9.53799 47.5657 9.5752 47.3659 9.61241C47.3806 9.78428 47.3953 9.95615 47.4154 10.1262C48.3063 11.914 48.6326 12.0487 50.5336 11.9884C50.3264 12.9576 50.0844 13.3439 50.2054 14.2901C49.2321 14.3344 48.5135 14.3273 48.156 15.3035C48.0919 15.3035 48.0277 15.3035 47.9654 15.3035C47.914 15.5038 47.5163 16.0265 47.1166 16.7494C46.8545 17.5077 46.5905 18.2678 46.3266 19.0279C46.2276 19.5932 46.2276 19.5932 46.1341 22.7506C45.6648 24.5756 45.9783 26.9374 46.3266 28.7465C47.0396 29.4924 47.5438 31.5247 47.8645 32.4709C47.5438 32.485 47.3513 32.4106 47.2669 32.7845C45.4063 33.091 44.1763 34.7672 43.6465 36.6134C42.6878 36.3618 41.7713 35.8728 40.7521 35.6247C39.3497 35.8409 39.3497 35.8409 37.4433 35.9383C35.8576 36.2502 32.679 37.0776 30.4609 37.494C29.0806 38.0078 29.0806 38.0078 26.1916 39.2676C25.506 40.1021 24.6903 40.6975 24.331 41.6879C24.6445 41.7464 24.7123 41.8297 25.3979 41.8368C26.2136 41.0394 27.9221 41.7925 28.7598 42.2532C28.9743 42.2691 28.9046 41.6064 28.593 40.9881C29.0201 41.0182 29.5682 41.4417 30.1401 41.4275C30.6057 41.8137 30.7267 41.9342 31.3225 42.0016C31.361 41.2485 31.4288 40.7719 30.5819 40.5929C30.5526 40.5185 30.5214 40.4441 30.4994 40.3697C30.5599 40.3396 30.6204 40.3095 30.6901 40.2882C30.7579 40.3254 30.8276 40.3626 30.9027 40.4069C30.91 40.3697 30.9265 40.3325 30.9412 40.3024C31.5351 40.3024 32.756 40.6745 32.9686 41.2113C33.3738 41.3229 33.3738 41.3229 33.755 41.2786C33.799 41.0767 33.799 41.0767 34.0062 40.8003C34.0447 40.8534 34.0905 40.6071 33.8155 40.5487C33.7624 40.2421 33.7165 39.9374 33.6707 39.6397C34.0593 39.5724 34.4553 39.5121 34.8512 39.4537C35.9493 38.6935 37.8246 39.133 39.0381 39.2517C39.6247 39.4537 40.0133 39.87 40.6457 39.87C40.7227 39.7584 40.7979 39.6468 40.8749 39.5422C40.9665 39.5352 41.0655 39.5281 41.1645 39.521C40.851 38.3658 41.7291 38.0238 42.1397 37.1591C42.301 37.1591 42.4605 37.1591 42.62 37.1591C43.2616 38.1726 42.224 39.2145 42.818 40.3839C42.9536 40.4246 43.0893 40.4654 43.2249 40.5079C43.2488 41.4948 43.6355 42.177 44.4055 43.233C44.4275 43.233 44.4513 43.233 44.4733 43.233C44.4806 43.3924 44.4879 43.5537 44.4953 43.7132C44.2441 44.2429 44.2826 44.7036 44.2826 45.2919C43.7492 46.1636 44.114 46.626 45.0525 46.8865C45.4412 47.8468 45.5475 48.6442 45.5108 49.6577C45.9361 49.702 45.9361 49.702 46.1817 49.5903C46.2496 49.2997 46.3266 49.0163 46.4017 48.7328C46.4017 47.8468 46.0516 47.0956 46.1891 46.2238C46.1542 45.5541 46.0864 45.0916 46.0699 44.7408C46.3009 44.8914 46.5154 45.0137 46.6749 45.0952C46.7042 45.2298 46.739 45.3645 46.7757 45.5045C47.4154 45.5576 47.4154 45.5576 47.9654 45.7667C48.6693 45.7667 49.573 45.1997 50.1853 45.7136C50.6619 46.9574 50.8544 48.2987 51.3731 49.5425C52.0074 51.6953 53.1238 54.1971 52.6545 56.4686C51.5766 58.1394 51.2778 60.783 50.8874 62.3741L50.869 62.3759C50.5831 62.1402 50.3209 61.8815 50.1688 61.552C50.0991 61.536 49.5345 60.643 49.3219 60.2036C48.7041 60.0176 48.0644 59.339 47.8352 58.7578C47.7747 58.7436 47.7124 58.7365 47.6519 58.7295C47.5163 58.3928 46.8893 57.9906 46.882 57.9321C45.861 57.3669 46.2881 55.9583 46.2037 56.0097C46.2037 54.8403 46.1194 53.7683 46.0369 52.5546C45.2432 52.3243 45.4485 51.0716 44.7941 50.6623C44.7849 50.6038 44.7776 50.5436 44.7702 50.4833C44.5649 50.4249 44.5649 50.4249 43.817 50.4833C43.8409 51.7272 44.015 53.1198 43.5347 54.2963C42.8638 53.9703 42.873 53.5681 42.697 52.8452C41.401 51.5783 43.2983 49.4415 42.5833 47.9585C41.5605 48.1002 41.4761 49.7533 41.2103 50.5737C41.1187 51.9132 40.8217 54.1705 41.5458 55.3842C42.323 55.891 42.719 56.1443 42.301 57.0746C41.4615 56.9931 40.8822 56.4349 39.9601 56.4349C39.7383 56.83 39.9143 57.3208 39.9601 57.7603C40.2718 57.9693 41.2635 58.1997 41.5605 58.3645C41.5678 58.4229 41.7126 58.5647 41.7749 58.5718C41.3551 60.6873 40.9427 59.9573 39.3204 59.9573C39.3351 60.2107 39.3497 60.4641 39.3644 60.7245C39.4945 60.7617 39.6247 60.806 39.7622 60.8521C39.7842 61.2171 39.808 61.5892 39.83 61.9613C39.3424 62.9074 38.8933 63.5169 38.16 64.3001C37.8777 65.6485 36.9868 67.5479 35.7513 68.3222C34.6533 68.471 33.5094 68.3824 32.382 68.4781C32.3967 68.6641 32.4205 68.8502 32.4425 69.0362C32.9008 69.2683 32.9008 69.2683 33.4727 69.8194C33.6707 70.6982 33.2894 70.638 32.481 70.9657C32.4737 71.026 32.4664 71.0862 32.4572 71.1447C31.7258 71.3449 31.1997 71.2333 30.4298 71.5398C29.7827 72.6419 29.2327 74.0186 28.395 74.9807C28.6388 75.4201 28.89 75.8596 29.1411 76.299C29.0274 76.5523 28.9211 76.6108 28.67 76.7596C28.6608 76.8128 28.4628 76.9315 28.3785 76.9315C28.2722 76.7898 28.1732 76.648 28.0742 76.5063C27.7003 76.4921 27.7003 76.4921 27.297 76.6569C27.2658 77.2079 27.3043 77.7359 27.0752 78.2427C26.078 79.219 25.1467 79.4794 24.9029 80.9837C24.4465 81.5277 24.3237 82.7272 24.1935 83.4483C24.133 83.4554 23.9644 83.6042 23.9497 83.6733C23.8745 83.7017 23.7976 83.7318 23.7206 83.7619C23.6912 83.6503 23.6601 83.5387 23.6289 83.4342C23.1578 83.218 22.9965 83.016 22.6775 82.6067C22.3659 82.5358 22.0561 82.465 21.7445 82.3959ZM78.5363 96.3118C79.5188 96.0053 80.3895 95.5446 81.3959 95.2771C81.4033 95.2098 82.1273 94.7101 82.4555 94.6499C82.4628 94.5914 82.6003 94.4567 82.6681 94.4496C82.6754 94.3522 82.9046 94.0988 83.0182 94.0705C83.0347 93.22 82.8441 92.513 82.8808 91.6572C82.8129 91.6413 82.6003 90.0555 82.5618 89.2723C82.3546 89.2139 82.3546 89.2139 81.9294 89.2723C81.9129 89.3326 80.8918 89.6462 80.3969 89.749C80.3657 89.8163 80.3345 89.8925 80.3052 89.9669C78.4758 90.4418 77.781 94.8891 78.5363 96.3118ZM51.3805 15.4559C51.8644 16.115 52.572 16.7299 52.9038 17.2083C54.3703 18.1757 55.131 20.1655 55.8569 21.7513C55.8569 22.6903 55.7873 23.7924 56.449 24.5437C56.449 25.1851 56.449 25.1851 56.3482 25.683C56.669 26.273 56.8615 26.6964 57.0045 27.352C56.933 27.352 56.8688 27.352 56.8047 27.352C56.7112 27.0987 56.5627 26.9799 56.4417 26.622C55.516 25.6546 54.933 24.0529 54.5628 22.6903C54.0916 21.6928 53.6297 20.7094 52.9386 19.8589C52.6471 19.8589 52.6471 19.8589 52.5115 20.0007C52.5115 21.0585 54 21.707 53.5509 22.965C52.869 21.4979 52.6911 21.5351 51.1678 21.1488C51.0817 20.5889 50.9955 20.0379 50.9112 19.4868C50.4401 19.338 50.4401 19.6286 50.1633 19.8589C50.1413 19.3522 50.1284 18.8472 50.1138 18.3476C49.8296 18.2288 49.8351 18.1243 49.7215 17.8266C49.6078 17.8107 49.4942 17.7965 49.3805 17.7894C48.9882 18.1987 49.0817 18.7126 49.0396 19.2707C49.2302 22.8905 49.2302 22.8905 49.43 24.4409C49.6445 25.0734 49.8296 25.3711 49.793 25.5501C49.1532 24.6571 48.3485 23.7694 47.9782 22.7204C47.9214 22.7116 47.8645 22.7045 47.8077 22.6974C47.7637 22.6088 47.7289 22.5185 47.6941 22.4299C47.3091 22.4299 47.0745 22.437 46.7188 22.5929C46.761 21.5882 46.8105 20.5818 46.86 19.5772C47.4723 17.7806 48.2623 14.2883 50.7609 15.2947C50.8067 15.261 50.8525 15.2256 50.902 15.1919L51.3805 15.4559ZM55.4738 40.0242C55.4023 38.9877 55.7799 37.7669 54.6837 37.5436C54.5353 36.6116 54.5353 36.6116 54.3849 36.2998C52.5702 35.9419 50.1413 34.5723 49.7435 32.5754C50.2348 32.7313 50.2348 32.7313 50.825 33.1406C51.5803 33.9308 53.4446 34.4234 54.4839 34.6981C56.0641 35.5255 56.0641 35.5255 56.2639 35.7328C57.5306 36.1208 58.9182 36.6276 60.2216 36.9182C60.2216 37.0209 60.2216 37.1255 60.2216 37.23C59.1969 37.6092 58.3133 37.96 57.5232 38.7502C57.3381 38.1319 57.2886 37.6694 57.2538 37.0209C55.9009 36.314 55.8074 39.2782 55.6736 40.0242C55.6021 40.0242 55.538 40.0242 55.4738 40.0242Z" fill="#443E3E"/>
</g>
</svg>
