<svg width="171" height="126" viewBox="0 0 171 126" fill="none" xmlns="http://www.w3.org/2000/svg">
<mask id="mask0_1516_10365" style="mask-type:luminance" maskUnits="userSpaceOnUse" x="99" y="32" width="60" height="94">
<path d="M99.9199 32.7461H158.358V125.714H99.9199V32.7461Z" fill="white"/>
</mask>
<g mask="url(#mask0_1516_10365)">
<path fill-rule="evenodd" clip-rule="evenodd" d="M115.055 106.092C115.055 110.223 115.169 114.355 115.021 118.474C114.849 123.004 112.224 125.642 108.172 125.738C104.155 125.834 100.959 123.269 100.868 118.92C100.639 106.826 100.651 94.7206 100.856 82.6269C100.925 78.5435 104.086 75.8935 108.252 75.785C113.434 75.6525 118.627 75.6405 123.809 75.785C126.297 75.8453 127.382 75.4357 127.587 72.2918C128.089 64.667 129.356 57.1144 131.536 49.7908C134.184 40.853 141.569 35.1434 150.392 35.2036C156.544 35.2518 159.214 38.9257 157.594 45.3941C155.128 55.1872 152.549 64.944 149.981 74.7009C145.86 90.3842 145.849 90.3842 130.212 90.3842C126.56 90.3842 122.907 90.589 119.278 90.324C116.105 90.0831 114.69 90.8781 115.009 94.5881C115.34 98.3945 115.089 102.249 115.089 106.092C115.078 106.092 115.066 106.092 115.055 106.092Z" fill="#F0D9B9"/>
</g>
<mask id="mask1_1516_10365" style="mask-type:luminance" maskUnits="userSpaceOnUse" x="12" y="32" width="59" height="94">
<path d="M12.2627 32.7461H70.7008V125.714H12.2627V32.7461Z" fill="white"/>
</mask>
<g mask="url(#mask1_1516_10365)">
<path fill-rule="evenodd" clip-rule="evenodd" d="M70.196 100.768C70.196 106.381 70.2645 111.994 70.1732 117.595C70.0933 122.727 67.16 125.834 62.7087 125.738C58.4285 125.63 55.8605 122.642 55.8262 117.547C55.7691 109.874 55.655 102.189 55.8833 94.5279C55.9746 91.3359 55.3583 90.1313 52.0369 90.2879C45.7365 90.6011 39.4133 90.4204 33.1016 90.3602C27.4632 90.312 24.3815 87.8306 22.8407 81.9765C19.5421 69.5334 16.312 57.0663 13.1619 44.5751C11.7466 38.9739 14.5201 35.3482 20.0329 35.2036C29.2666 34.9747 37.1534 40.9493 39.6987 50.5376C41.5477 57.4758 42.9288 64.5707 43.2255 71.798C43.3511 74.7371 44.0701 76.0019 47.1176 75.8092C51.5917 75.5321 56.0887 75.7248 60.5743 75.7369C67.7878 75.773 70.1846 78.2664 70.196 85.7106C70.2075 90.7336 70.196 95.7566 70.196 100.768Z" fill="#F0D9B9"/>
</g>
<path fill-rule="evenodd" clip-rule="evenodd" d="M85.9414 27.2148C90.29 27.2148 94.6272 27.1666 98.9758 27.2269C106.6 27.3353 112.113 33.081 112.341 41.1154C112.376 42.2959 112.353 43.4763 112.353 44.6568C112.353 50.5471 112.341 50.3784 106.943 50.5591C104.135 50.6555 102.822 50.0171 103.176 46.7527C103.324 45.3434 103.998 42.7897 101.989 42.7054C99.752 42.609 100.494 45.2109 100.665 46.56C101.11 50.0411 99.7291 50.6675 96.7159 50.5712C89.4454 50.3302 82.1521 50.3302 74.8701 50.5712C71.8683 50.6675 70.784 49.6918 71.2634 46.6323C71.3661 45.9216 71.2976 45.1627 71.2292 44.4279C71.1493 43.5366 70.9781 42.4886 69.9052 42.5488C68.9921 42.609 68.5355 43.4281 68.5926 44.452C68.5926 44.5966 68.6154 44.7532 68.5926 44.8977C68.3301 46.7166 69.5057 49.5593 67.9078 50.1857C65.6821 51.0409 62.9428 50.4507 60.4318 50.4748C59.553 50.4748 59.1763 49.9568 59.2105 49.1016C59.4046 44.5845 58.3317 39.8747 60.2378 35.5744C62.5433 30.3949 66.4925 27.3714 72.0738 27.2389C76.6963 27.1305 81.3189 27.2148 85.9414 27.2148Z" fill="#F0D9B9"/>
<path fill-rule="evenodd" clip-rule="evenodd" d="M86.2031 64.4835C74.6981 64.4835 63.1817 64.3149 51.6881 64.5919C48.1955 64.6642 48.1613 62.9417 48.4124 60.376C48.6407 58.0632 47.1911 55.1361 51.6767 55.1723C74.5498 55.3771 97.4342 55.3771 120.296 55.1723C124.245 55.1361 123.366 57.5212 123.252 59.6532C123.149 61.7492 124.633 64.6762 120.296 64.5799C108.939 64.3028 97.5712 64.4835 86.2031 64.4835Z" fill="#F0D9B9"/>
<mask id="mask2_1516_10365" style="mask-type:luminance" maskUnits="userSpaceOnUse" x="120" y="41" width="51" height="66">
<path d="M120.372 41.9941H170.923V106.751H120.372V41.9941Z" fill="white"/>
</mask>
<g mask="url(#mask2_1516_10365)">
<path fill-rule="evenodd" clip-rule="evenodd" d="M132.68 104.366C130.294 104.366 127.909 104.353 125.523 104.378C123.035 104.39 121.369 103.185 121.243 100.559C121.118 97.6923 123.012 96.8611 125.421 96.8611C129.347 96.8852 133.285 96.8852 137.211 96.8611C146.102 96.813 151.33 92.6693 153.692 83.6592C156.763 71.9148 159.799 60.1584 162.766 48.3899C163.451 45.6796 164.57 43.3548 167.56 44.2944C170.436 45.1857 170.391 47.7033 169.683 50.4496C166.658 62.2061 163.873 74.0348 160.792 85.7913C157.641 97.7405 149.115 104.353 137.314 104.366C135.761 104.378 134.221 104.366 132.68 104.366Z" fill="#F0D9B9"/>
</g>
<path fill-rule="evenodd" clip-rule="evenodd" d="M37.843 104.368C35.0009 104.139 31.6682 104.524 28.2897 103.826C18.9533 101.886 13.0182 96.0201 10.4273 86.6848C7.10589 74.7115 4.25247 62.5816 1.23926 50.512C0.600092 47.9463 0.406059 45.1517 3.40786 44.2724C6.39825 43.3931 7.49396 45.6938 8.17878 48.4281C11.1007 60.0641 14.1596 71.676 17.1157 83.3C19.4441 92.4184 24.8199 96.8392 33.7797 96.8633C37.706 96.8873 41.6323 96.8873 45.5586 96.8753C47.9669 96.8633 49.9643 97.8149 49.8273 100.549C49.7132 102.994 48.0126 104.404 45.4901 104.38C43.1047 104.344 40.7192 104.368 37.843 104.368Z" fill="#F0D9B9"/>
<path fill-rule="evenodd" clip-rule="evenodd" d="M157.003 18.8054C157.003 25.5148 151.901 30.8509 145.544 30.8269C139.175 30.7907 134.141 25.4425 134.164 18.709C134.187 12.0117 139.255 6.73576 145.646 6.75985C152.072 6.78394 157.014 12.0358 157.003 18.8054Z" fill="#F0D9B9"/>
<path fill-rule="evenodd" clip-rule="evenodd" d="M36.7273 18.4831C36.773 25.2647 31.8537 30.6732 25.4962 30.8057C19.3443 30.9382 13.8999 25.4093 13.7516 18.8686C13.5918 12.1592 18.9105 6.70255 25.5761 6.72664C31.808 6.73869 36.6702 11.8701 36.7273 18.4831Z" fill="#F0D9B9"/>
<mask id="mask3_1516_10365" style="mask-type:luminance" maskUnits="userSpaceOnUse" x="73" y="0" width="24" height="24">
<path d="M73.624 0.824219L96.9993 0.824219V23.4939H73.624V0.824219Z" fill="white"/>
</mask>
<g mask="url(#mask3_1516_10365)">
<path fill-rule="evenodd" clip-rule="evenodd" d="M96.4289 12.0992C96.4632 18.4352 91.8863 23.2173 85.8484 23.1691C79.9476 23.1209 75.1652 18.0498 75.2451 11.9547C75.3364 6.10057 80.1302 1.10166 85.7685 1.0053C91.6808 0.908935 96.4061 5.82352 96.4289 12.0992Z" fill="#F0D9B9"/>
</g>
</svg>
