<svg width="157" height="92" viewBox="0 0 157 92" fill="none" xmlns="http://www.w3.org/2000/svg">
<path d="M13.6588 3.24902L9.69396 6.10698L9.57832 7.24686C9.21488 10.9143 9.09924 11.8725 8.78536 13.5079C8.33932 15.9198 8.17412 19.8351 8.45496 21.9496C8.71928 24.1798 9.41312 26.8396 10.3217 29.1193C10.966 30.7713 15.8559 41.0963 16.4011 41.9719C16.6819 42.4179 16.3846 43.1943 14.4848 46.8783C13.031 49.6867 12.9484 49.918 12.8328 51.1735C12.7832 51.9004 12.6345 53.3541 12.5024 54.3949C12.3867 55.4356 12.238 56.8068 12.172 57.418L12.0728 58.5414L12.8658 58.0954C13.2953 57.8476 13.7414 57.5667 13.857 57.4841C14.0718 57.3354 14.0552 57.3189 14.4022 58.8553C14.6169 59.8795 14.6169 60.0612 14.3196 59.9456C14.1874 59.896 14.0222 59.9786 13.9396 60.1273C13.8074 60.3586 13.7083 60.3421 12.998 60.0282C12.5684 59.8465 12.1885 59.6813 12.172 59.6813C12.1389 59.6813 12.0728 60.0282 12.0068 60.4412C11.9242 60.9864 11.9572 61.2672 12.1389 61.4654C12.2711 61.6306 12.4528 62.1923 12.5684 62.721C12.7997 63.993 12.7997 64.0095 12.4528 63.7948C12.205 63.6461 11.825 63.7782 10.3217 64.5216L8.488 65.4467L8.38888 66.1571C8.33932 66.5536 8.25672 67.3465 8.19064 67.9413C8.12456 68.536 8.00892 69.1472 7.94284 69.2959C7.86024 69.4611 6.22477 71.8235 4.30845 74.5493C2.29301 77.4237 0.855771 79.6374 0.888811 79.8026C0.921851 79.9678 1.12009 80.1 1.40093 80.133C1.81393 80.1826 1.84697 80.1495 1.84697 79.5218C1.84697 78.9105 1.89653 78.8445 2.24345 78.8445C2.57385 78.8445 2.65645 78.7453 2.72253 78.2993L2.78861 77.7707L2.80513 78.2993C2.83817 78.7619 2.90425 78.8445 3.25117 78.8445C3.66417 78.8445 3.66417 78.861 3.66417 80.3313C3.66417 81.8015 3.66417 81.8181 3.26769 81.8181C3.01989 81.8181 2.83817 81.9337 2.78861 82.0989C2.72253 82.3797 2.70601 82.3797 2.68949 82.0989C2.67297 81.9172 2.54081 81.8181 2.27649 81.8181C1.91305 81.8181 1.86349 81.7355 1.79741 81.0416L1.74785 80.2487L1.71481 81.1077C1.68177 81.9502 1.66525 81.9833 1.21921 81.9833C0.971411 81.9833 0.674051 81.9007 0.591451 81.8181C0.459292 81.6859 0.376692 82.9745 0.310612 85.9811C0.261052 88.36 0.228012 90.3258 0.244532 90.3589C0.261052 90.3754 1.21921 90.458 2.34257 90.5571C5.74569 90.838 8.38888 90.8214 10.107 90.5406C10.966 90.3919 12.9814 90.1111 14.5674 89.9294C17.2766 89.599 19.259 89.3181 21.8692 88.9051C22.4804 88.806 23.0421 88.773 23.1247 88.8225C23.2403 88.8886 23.769 88.806 25.0575 88.4756C25.2393 88.4426 25.834 88.3434 26.3791 88.2608C26.9243 88.1782 27.6677 88.0461 28.0311 87.98L28.6919 87.8313L28.1137 87.6826C27.7999 87.6 27.3869 87.5174 27.2051 87.4844C27.0234 87.4679 25.7183 87.2531 24.3141 87.0218C22.91 86.8071 21.4892 86.5758 21.1754 86.5262C20.1676 86.361 18.8956 85.948 18.6313 85.7002C18.4991 85.5681 18.2844 85.4524 18.1522 85.4524C18.02 85.4524 17.8714 85.3533 17.8218 85.2377C16.748 82.7267 16.0707 80.8764 16.1368 80.6947C16.1863 80.5625 16.8471 79.4392 17.6236 78.2002C18.813 76.2673 19.3086 75.6561 21.1588 73.8059C23.2403 71.7409 23.3064 71.6583 22.943 71.4435C22.5961 71.2453 22.6126 71.2453 23.0917 71.3279C23.5377 71.4105 23.6864 71.3113 24.5785 70.3862C25.1071 69.808 25.6853 69.0977 25.834 68.8003C26.0322 68.4369 26.2305 68.2717 26.4948 68.2717C26.7591 68.2717 27.6512 67.4952 29.5345 65.6119L32.1942 62.9522L35.9773 63.6461C40.1238 64.406 44.0555 65.3311 46.3683 66.091C48.1194 66.6692 49.3089 67.33 51.5886 69.0316C53.7362 70.634 54.1988 70.9149 54.7274 70.9149C55.2726 70.9149 56.2968 70.2375 57.9488 68.8003L59.3035 67.6274L65.3002 70.1054L71.2805 72.5834L71.743 72.1373L72.1891 71.7078L78.8631 75.0944L85.5207 78.481L86.5449 81.5868C87.1231 83.3049 87.5857 84.8082 87.5857 84.9073C87.5857 85.0229 87.4535 85.122 87.2883 85.122C87.1231 85.122 86.9084 85.2046 86.7927 85.3203C86.6771 85.4359 86.5945 85.469 86.5945 85.4194C86.5945 85.3533 86.0163 85.4855 85.3225 85.7168C84.5625 85.948 83.2244 86.1793 82.0515 86.2784C79.3753 86.5262 78.1032 86.708 77.6902 86.9227C77.5085 87.0218 76.4347 87.187 75.3279 87.2696C74.2045 87.3688 72.8829 87.5009 72.3873 87.567L71.4787 87.6826L72.6351 87.8809C73.2794 87.9965 73.9071 88.0791 74.0393 88.0956C74.1715 88.1122 75.0635 88.1782 76.0217 88.2608C77.8719 88.4095 80.003 88.6573 81.7872 88.9051C82.3984 88.9877 83.0923 89.0208 83.307 88.9712C83.687 88.9051 84.1661 88.9547 87.1562 89.4338C88.4612 89.632 91.7487 90.8214 92.013 91.2014C92.2113 91.4492 92.7069 91.4822 97.3325 91.5318C100.884 91.5648 102.454 91.5318 102.454 91.4162C102.454 91.317 102.553 91.2344 102.668 91.2344C102.867 91.2344 103.197 90.6232 103.494 89.6981C103.561 89.5494 103.709 89.4172 103.841 89.4172C103.957 89.4172 104.304 89.2025 104.601 88.9216C104.882 88.6573 105.361 88.36 105.642 88.2443C105.939 88.1452 106.352 87.8313 106.567 87.567L106.947 87.0879L106.6 86.708C106.171 86.2454 104.585 85.3864 103.643 85.1055C103.263 84.9899 102.867 84.8082 102.768 84.676C102.668 84.5604 102.454 84.4612 102.305 84.4612C102.156 84.4612 101.842 84.2795 101.595 84.0482C101.347 83.817 100.901 83.5857 100.62 83.5196C100.157 83.437 99.8435 83.0405 97.8776 80.0504C96.2917 77.6385 95.5814 76.6969 95.3831 76.7299C94.8545 76.829 95.0197 76.2839 95.6309 75.9204C96.8534 75.2266 99.1001 73.2772 102.9 69.6098C107.112 65.5624 107.162 65.4963 107.988 62.7375C109.243 58.591 112.333 51.0083 114.513 46.7131C115.818 44.1195 117.553 41.1789 117.768 41.1789C117.834 41.1789 118.842 42.1205 120.031 43.2935C122.079 45.2759 123.913 46.7957 124.69 47.1591C124.954 47.2913 125.631 47.1591 127.465 46.6305C130.158 45.8706 130.885 45.6063 131.149 45.2759C131.446 44.9124 132.586 41.1954 135.361 31.6138C136.815 26.5587 138.054 22.2635 138.087 22.0488C138.17 21.7018 138.236 21.6853 139.277 21.7844C140.945 21.9331 142.168 22.2966 144.167 23.2052C148.131 25.0058 148.214 25.0389 149.651 25.1215C152.113 25.2536 156.144 24.0146 156.144 23.1391C156.144 22.3626 155.978 22.2966 154.591 22.5278C153.566 22.693 153.137 22.6765 152.377 22.5113L151.435 22.2966L152.774 22.0322C153.5 21.8836 154.541 21.5366 155.086 21.2558C155.978 20.7767 156.061 20.6941 156.061 20.182V19.6203L154.805 19.6699C152.146 19.7855 150.775 19.2734 147.058 16.7954C142.895 14.0035 140.813 12.9628 138.847 12.6654C138.401 12.5993 137.856 12.3846 137.592 12.1698C136.6 11.3438 130.191 9.79093 127.812 9.79093C126.54 9.80745 126.375 9.84049 126.606 10.0222C126.771 10.1379 126.854 10.2865 126.804 10.3361C126.705 10.4352 126.92 11.476 127.168 12.2029C127.25 12.4176 127.234 12.4672 127.118 12.3515C127.019 12.2524 126.821 11.7899 126.655 11.3108C126.507 10.8482 126.309 10.5013 126.226 10.5509C126.127 10.6004 126.11 10.4683 126.176 10.2205L126.275 9.79093H125.152C122.509 9.80745 118.759 10.1048 118.61 10.3196C118.511 10.4848 118.445 10.4848 118.329 10.3031C118.214 10.1213 118.098 10.1709 117.735 10.5509C117.322 10.9804 117.289 10.9969 117.388 10.65C117.503 10.3031 117.47 10.2865 116.463 10.2865C114.282 10.2865 108.384 11.922 103.841 13.7722C100.257 15.2425 98.4724 15.7712 97.6133 15.6225C97.0351 15.5399 96.9856 15.606 97.1508 16.432C97.1508 16.498 97.3325 16.5641 97.5472 16.5972C97.9107 16.6467 97.9107 16.6798 97.9602 19.736L97.9933 22.8417H97.5968C97.349 22.8417 97.1673 22.9574 97.1177 23.1226C97.0516 23.4034 97.0351 23.4034 97.0186 23.1226C97.0021 22.9243 96.8534 22.8417 96.5065 22.8417H96.0109V20.975C95.9944 19.9672 95.9778 18.5465 95.9613 17.8362L95.9283 16.5641H96.3908C96.7873 16.5641 96.8369 16.5146 96.8369 15.9859C96.8369 15.4573 96.7873 15.4077 96.3908 15.4077C95.7631 15.4242 94.7388 16.2337 93.4503 17.7701C91.154 20.5289 90.4436 20.9254 85.6859 22.1644C81.1594 23.3373 80.5151 23.7503 78.318 26.7074C75.46 30.5896 75.6748 30.3418 74.5184 30.7713C73.9402 30.9861 73.395 31.2008 73.2959 31.2669C73.2133 31.333 72.6681 31.5147 72.1065 31.6799C71.1318 31.9607 71.0657 32.0103 71.0657 32.4563C71.0657 33.4806 72.7507 39.6591 73.0977 39.8738C73.1803 39.9399 73.2133 40.0555 73.1637 40.1381C73.1142 40.2207 73.3289 41.0633 73.6428 42.0049C73.9567 42.9631 74.2045 43.7891 74.2045 43.8386C74.2045 43.9708 72.7177 44.2186 72.6186 44.1029C72.569 44.0699 71.7595 40.0225 70.8179 35.1326C69.8597 30.2261 69.0503 26.0631 69.0007 25.8484C68.9181 25.5014 68.852 25.4849 66.8696 25.4849C63.7308 25.4849 63.9456 25.3693 63.2187 27.4508C62.8718 28.4089 62.5249 29.3836 62.4423 29.6149L62.2771 30.0279L61.9632 29.4001L61.6328 28.7889L60.4929 30.0609C55.223 36.0081 43.0148 44.2516 35.8451 46.7296L34.7217 47.1096V46.4983C34.7217 45.8871 34.7383 45.8871 35.8451 45.5071C37.4641 44.9455 41.3628 43.0291 43.6921 41.658C47.5082 39.3947 51.5886 36.5037 55.1239 33.5632C57.1228 31.8947 60.6912 28.3098 60.6086 28.0785C60.5755 27.9794 60.3112 27.8142 59.9973 27.7151L59.4356 27.5334L60.592 26.8891C61.2198 26.5422 61.9632 26.1127 62.2275 25.9475L62.7231 25.6336L61.4841 25.7162C56.9742 26.0631 45.0798 27.0213 42.7835 27.2195C39.5621 27.5169 36.8363 28.1446 33.301 29.4497C31.3682 30.1435 24.5619 32.2911 22.2492 32.9189C21.8857 33.018 21.3736 33.1832 21.0928 33.2658C20.6137 33.431 20.5476 33.3815 19.3912 32.1425C16.7645 29.3341 14.7491 25.6501 13.7083 21.8175C13.4275 20.7272 13.3449 19.9838 13.3449 18.1335C13.3284 14.6478 13.7744 13.6896 16.5828 11.3273C17.4253 10.6169 18.367 9.80745 18.6808 9.52661L19.2425 9.01449L18.5487 4.81842C18.1522 2.50562 17.7888 0.572782 17.7227 0.506703C17.6731 0.440623 15.8394 1.67962 13.6588 3.24902ZM124.425 10.7656C124.425 10.8482 124.277 10.9473 124.095 10.9969C123.665 11.1125 123.665 11.6081 124.078 11.6081C124.673 11.6081 124.921 11.8064 124.921 12.2524C124.921 12.781 124.64 13.0949 124.194 13.0784C123.864 13.0784 123.864 13.0619 124.227 12.9297C124.425 12.8471 124.64 12.6489 124.706 12.5002C124.838 12.1533 124.359 11.7733 123.93 11.889C123.698 11.9551 123.599 11.889 123.599 11.7238C123.599 11.5916 123.55 11.3603 123.5 11.2282C123.418 11.0134 123.649 10.8647 124.392 10.6335C124.409 10.6169 124.425 10.683 124.425 10.7656ZM122.905 11.8064C122.938 12.0377 123.071 12.335 123.203 12.4341C123.731 12.8802 123.269 13.607 122.492 13.574C122.294 13.574 122.344 13.5079 122.658 13.3923C123.252 13.1775 123.236 12.5167 122.658 12.5332C122.228 12.5498 122.145 12.3515 122.525 12.2029C122.823 12.0872 122.856 11.6577 122.575 11.5586C122.459 11.5255 122.228 11.5586 122.079 11.6412C121.898 11.7238 121.782 11.7238 121.782 11.6247C121.782 11.4264 122.112 11.2943 122.525 11.3273C122.757 11.3438 122.872 11.509 122.905 11.8064ZM121.253 12.4672C121.286 12.715 121.187 13.1445 121.039 13.4253L120.758 13.954L121.319 13.8548L121.865 13.7557L121.369 14.0035C120.873 14.2348 120.46 14.3174 120.46 14.1687C120.46 14.1357 120.626 13.7557 120.824 13.3427C121.171 12.6324 121.171 12.5828 120.906 12.3185C120.675 12.0707 120.56 12.0542 120.295 12.2359C120.114 12.3515 119.965 12.368 119.965 12.2854C119.965 12.0707 120.295 11.9551 120.791 11.9881C121.105 12.0211 121.22 12.1203 121.253 12.4672ZM118.808 13.0454C119.453 13.8714 118.974 15.2921 118.197 14.813C118.032 14.7139 117.801 14.3504 117.685 14.0035C117.503 13.4749 117.52 13.3262 117.735 12.9958C118.065 12.4837 118.379 12.5002 118.808 13.0454ZM116.397 14.2183C116.446 14.2513 116.578 14.1026 116.677 13.8548C116.793 13.6236 116.942 13.4253 117.024 13.4253C117.107 13.4253 117.09 13.574 116.991 13.7557C116.892 13.954 116.859 14.2513 116.909 14.4165C116.991 14.6808 116.958 14.7304 116.727 14.6313C116.496 14.5487 116.463 14.5982 116.529 14.9617C116.578 15.2095 116.545 15.4077 116.479 15.4077C116.397 15.4077 116.33 15.3912 116.33 15.3582C116.33 15.3416 116.182 14.813 116 14.1852C115.818 13.5575 115.736 12.9628 115.785 12.8636C115.851 12.7645 116 13.0123 116.116 13.4088C116.231 13.8053 116.364 14.1687 116.397 14.2183ZM136.154 13.9044C136.154 13.987 135.692 14.1357 135.13 14.2348C133.875 14.4496 129.546 14.7965 129.447 14.6974C129.365 14.6313 130.422 14.5156 132.933 14.3174C134.205 14.2348 135.824 13.9705 135.956 13.8383C136.088 13.7227 136.154 13.7392 136.154 13.9044ZM115.174 14.1357C114.398 14.5322 114.629 15.7051 115.455 15.4903C115.67 15.4408 115.835 15.4738 115.835 15.5729C115.835 15.8042 114.794 15.7877 114.546 15.5399C114.431 15.4242 114.348 15.1104 114.348 14.8295C114.348 14.2018 114.612 13.9209 115.174 13.9209H115.587L115.174 14.1357ZM111.275 14.6643C111.325 14.7965 111.474 14.8626 111.622 14.813C111.754 14.7634 111.87 14.78 111.87 14.8791C111.87 14.9617 111.771 15.0773 111.639 15.1269C111.308 15.259 111.655 16.3989 112.019 16.3989C112.2 16.3989 112.217 16.4485 112.085 16.5806C111.771 16.8945 111.408 16.6137 111.275 15.9859C111.226 15.672 111.061 15.3416 110.928 15.259C110.763 15.1764 110.73 15.0938 110.846 15.0112C110.945 14.9452 110.995 14.7965 110.928 14.6643C110.879 14.5322 110.912 14.4165 111.011 14.4165C111.094 14.4165 111.209 14.5322 111.275 14.6643ZM113.72 14.6974C114.133 15.0773 114.1 15.8207 113.654 16.1346C113.159 16.4815 112.927 16.465 112.531 16.0685C111.655 15.193 112.795 13.8548 113.72 14.6974ZM110.268 15.4077C109.756 15.6225 109.789 15.8372 110.383 16.052C111.028 16.2668 111.061 16.8284 110.449 17.0597C110.218 17.1588 109.937 17.1754 109.838 17.1093C109.722 17.0432 109.805 16.9606 110.053 16.8945C110.565 16.7789 110.598 16.3328 110.086 16.2668C109.326 16.1511 109.409 15.2425 110.169 15.259C110.615 15.259 110.615 15.2756 110.268 15.4077ZM105.84 15.7381C105.89 15.8207 105.857 15.9033 105.774 15.9033C105.675 15.9033 105.592 15.8207 105.592 15.7381C105.592 15.639 105.626 15.5729 105.659 15.5729C105.708 15.5729 105.791 15.639 105.84 15.7381ZM108.203 16.1842C108.45 16.6632 108.599 17.5553 108.434 17.5553C108.351 17.5553 108.203 17.258 108.087 16.878C107.922 16.3328 107.823 16.2172 107.525 16.2668C107.145 16.3163 107.079 16.5972 107.311 17.4397C107.393 17.7866 107.36 17.9022 107.211 17.8527C107.112 17.8196 106.964 17.6049 106.914 17.3736C106.567 16.0685 106.567 16.019 106.815 16.1181C106.964 16.1842 107.112 16.1511 107.162 16.0685C107.327 15.7877 108.054 15.8868 108.203 16.1842ZM106.336 17.2084C106.468 17.704 106.485 18.084 106.402 18.15C106.237 18.2492 106.204 18.15 105.939 17.1588C105.791 16.5806 105.84 16.1016 106.039 16.2833C106.072 16.3328 106.204 16.7458 106.336 17.2084ZM102.635 17.5718C102.949 18.6622 103.015 19.1743 102.85 19.0091C102.801 18.943 102.569 19.0091 102.322 19.1412C101.727 19.4386 101.231 19.1247 101.165 18.3978C101.099 17.7536 101.363 17.3901 101.892 17.3901C102.239 17.3901 102.255 17.3406 102.123 16.878C102.024 16.5311 102.024 16.3989 102.156 16.432C102.255 16.465 102.47 16.9771 102.635 17.5718ZM104.403 16.9936C104.932 17.3571 104.849 17.671 104.172 17.7866C103.461 17.9353 103.511 18.2987 104.238 18.2987C104.915 18.2987 104.833 18.6126 104.155 18.6787C103.263 18.7613 102.801 17.704 103.445 17.0597C103.841 16.6632 103.924 16.6632 104.403 16.9936ZM100.422 18.084C100.504 18.1996 100.653 18.563 100.752 18.8934C100.917 19.4716 100.917 19.4882 100.339 19.7029C99.827 19.8846 99.7279 19.8681 99.5462 19.6203C99.2818 19.2569 99.5131 18.7117 99.9922 18.5961C100.157 18.5465 100.306 18.4474 100.306 18.3813C100.306 18.1666 99.9096 18.084 99.6122 18.2492C99.3314 18.3813 99.1992 18.2161 99.4305 18.0014C99.6122 17.8031 100.257 17.8692 100.422 18.084ZM129.348 18.6291C129.348 19.1082 129.282 19.1247 128.952 18.7943C128.638 18.4804 128.803 17.7701 129.133 18.0509C129.249 18.15 129.348 18.4144 129.348 18.6291ZM98.7532 18.53C98.5384 18.7613 98.5054 19.0091 98.5715 19.5542C98.7036 20.5124 98.3898 20.0498 98.2246 19.0421C98.142 18.53 98.1585 18.3648 98.2906 18.4474C98.4063 18.5135 98.4889 18.4804 98.4889 18.3978C98.4889 18.2987 98.6045 18.2161 98.7697 18.2161C99.0175 18.2161 99.0175 18.2326 98.7532 18.53ZM115.868 18.943C116.066 19.2238 116.017 20.1159 115.802 20.3307C115.521 20.6115 114.893 20.5785 114.778 20.2811C114.645 19.9177 114.811 19.6038 115.273 19.389C115.818 19.1412 115.62 18.8274 114.992 18.9595C114.431 19.0917 114.348 18.9265 114.893 18.7282C115.29 18.5796 115.686 18.6622 115.868 18.943ZM114.084 19.356C114.447 19.7525 114.332 19.9672 113.671 20.0994C113.01 20.2316 113.126 20.6115 113.819 20.6115C114.117 20.6115 114.348 20.6611 114.348 20.7106C114.348 20.8428 113.919 21.0245 113.588 21.0245C113.241 21.0245 112.696 20.4133 112.696 20.0333C112.696 19.6534 113.241 19.0421 113.572 19.0421C113.704 19.0421 113.935 19.1908 114.084 19.356ZM111.969 19.6699C112.151 19.802 112.531 20.7602 112.531 21.1236C112.531 21.6192 112.25 21.3054 112.068 20.595C111.92 20.0168 111.804 19.8516 111.573 19.9012C111.341 19.9507 111.292 20.1159 111.325 20.7437C111.374 21.6523 111.127 21.7844 110.978 20.9254C110.862 20.3142 110.482 20.0333 110.185 20.3307C110.053 20.4628 110.053 20.7106 110.185 21.1732C110.284 21.5697 110.284 21.8505 110.202 21.8505C110.02 21.8505 109.822 21.3714 109.64 20.5454C109.541 20.0664 109.557 20.0003 109.789 20.0829C109.921 20.1324 110.086 20.0994 110.152 20.0168C110.202 19.9177 110.433 19.8681 110.648 19.9177C110.862 19.9507 111.127 19.8846 111.226 19.769C111.441 19.5212 111.688 19.4716 111.969 19.6699ZM94.8545 21.0245C94.8545 21.4375 94.9206 21.5201 95.251 21.5201C95.6474 21.5201 95.664 21.5697 95.7135 22.8748C95.7466 23.6347 95.7466 24.6754 95.7135 25.1876C95.664 26.0796 95.6309 26.1457 95.2675 26.1457C94.9701 26.1457 94.8545 26.2283 94.8545 26.4761C94.8545 26.6578 94.7884 26.8065 94.6893 26.8065C94.6067 26.8065 94.5241 26.6578 94.5241 26.4761C94.5241 26.2448 94.4084 26.1457 94.1276 26.1457C93.7642 26.1457 93.7311 26.0631 93.665 25.2702C93.6485 24.7911 93.632 23.7503 93.665 22.9574C93.7146 21.5532 93.7311 21.5201 94.1276 21.5201C94.458 21.5201 94.5241 21.4375 94.5241 21.0245C94.5241 20.7437 94.6067 20.5289 94.6893 20.5289C94.7884 20.5289 94.8545 20.7437 94.8545 21.0245ZM106.418 20.6941C106.418 20.7767 106.534 20.8593 106.666 20.8593C106.947 20.8593 106.997 21.1402 106.732 21.2228C106.418 21.3219 106.732 22.3461 107.129 22.5278C107.459 22.66 107.443 22.66 107.013 22.627C106.6 22.5939 106.501 22.4948 106.369 22.0157C106.286 21.7018 106.154 21.4045 106.072 21.3549C105.906 21.2393 106.072 20.5289 106.27 20.5289C106.352 20.5289 106.418 20.595 106.418 20.6941ZM107.889 20.8428C107.459 21.1897 107.443 21.1732 108.368 21.454C108.731 21.5697 108.797 22.0488 108.483 22.28C108.12 22.5444 107.575 22.5774 107.575 22.3461C107.575 22.247 107.724 22.1809 107.889 22.1809C108.417 22.1809 108.45 21.867 107.955 21.6688C107.707 21.5862 107.443 21.421 107.377 21.3054C107.211 21.0245 107.542 20.5289 107.922 20.5289C108.252 20.5289 108.252 20.5454 107.889 20.8428ZM102.784 21.9662L102.982 22.7591L103.214 22.214C103.346 21.9331 103.511 21.6853 103.61 21.6853C103.709 21.6853 103.693 21.867 103.577 22.1148C103.395 22.5113 103.412 22.5939 103.858 22.9408C104.486 23.4364 104.271 23.6512 103.627 23.1721L103.114 22.8252V23.3538C103.114 24.1468 102.867 23.7668 102.553 22.4783C102.239 21.1897 102.239 21.1897 102.437 21.1897C102.52 21.1897 102.668 21.5366 102.784 21.9662ZM105.758 21.6688C105.972 22.0983 105.972 22.1809 105.692 22.1809C105.559 22.1809 105.246 22.2635 104.998 22.3461C104.585 22.5113 104.568 22.5444 104.816 22.7922C105.047 23.0234 105.163 23.04 105.526 22.8748C105.857 22.7096 105.939 22.7096 105.89 22.8748C105.774 23.2217 104.733 23.2382 104.486 22.9078C104.221 22.5444 104.205 21.8175 104.469 21.5532C104.783 21.2393 105.559 21.3054 105.758 21.6688ZM101.958 22.4287C101.826 22.5774 101.776 22.9243 101.842 23.3373C101.958 24.2459 101.71 24.312 101.479 23.4199C101.231 22.4452 101.248 22.4287 101.677 22.2305C102.123 22.0157 102.239 22.0983 101.958 22.4287ZM115.372 22.9574C115.323 23.2217 115.257 23.3208 115.207 23.2052C115.141 22.9904 115.273 22.5113 115.389 22.5113C115.422 22.5113 115.422 22.7096 115.372 22.9574ZM100.785 23.04C101.099 23.899 101.149 24.345 100.934 24.312C100.818 24.2955 100.587 24.3285 100.438 24.3946C99.6618 24.7415 99.3479 23.8825 100.058 23.4034C100.554 23.073 100.438 22.7756 99.86 22.9243C99.5957 22.9904 99.4966 22.9574 99.5627 22.8417C99.6122 22.7591 99.8931 22.6765 100.157 22.6765C100.504 22.6765 100.686 22.7756 100.785 23.04ZM98.8854 23.3704C99.1992 23.8825 99.381 24.8241 99.1662 24.8241C99.0836 24.8241 98.9514 24.5598 98.8854 24.2459C98.8358 23.932 98.6871 23.6016 98.555 23.486C98.4228 23.3869 98.3237 23.2382 98.3237 23.1556C98.3237 22.8748 98.6541 23.0069 98.8854 23.3704ZM110.846 23.899C110.482 24.1798 110.449 24.7415 110.796 24.5928C110.928 24.5433 111.044 24.5763 111.044 24.6589C111.044 24.758 110.961 24.8241 110.862 24.8241C110.681 24.8241 110.763 25.6501 110.995 26.2448C111.044 26.377 111.011 26.4761 110.912 26.4761C110.829 26.4761 110.664 26.1457 110.548 25.7327C110.433 25.3197 110.284 24.9893 110.218 24.9893C110.053 24.9893 110.218 24.1303 110.433 23.866C110.515 23.7668 110.714 23.6677 110.862 23.6677C111.094 23.6842 111.094 23.7008 110.846 23.899ZM113.852 24.0807C113.72 24.2459 113.687 24.5598 113.753 24.9893C113.803 25.3528 113.803 25.6501 113.72 25.6501C113.605 25.6501 113.126 24.1468 113.225 24.0972C113.258 24.0972 113.423 23.9981 113.605 23.899C114.018 23.6677 114.133 23.7503 113.852 24.0807ZM92.4756 24.692C92.4591 25.171 92.5086 25.2371 92.9051 25.2867L93.3512 25.3362L93.4007 27.5334C93.4668 30.2096 93.4503 30.2757 92.9382 30.2757C92.6904 30.2757 92.5417 30.3748 92.5417 30.5235C92.5417 30.6557 92.4756 30.7713 92.3765 30.7713C92.2939 30.7713 92.2113 30.6557 92.2113 30.5235C92.2113 30.3748 92.0626 30.2757 91.7983 30.2757C91.534 30.2757 91.3853 30.1766 91.3853 30.0114C91.3853 29.8792 91.3192 29.8131 91.2201 29.8627C91.121 29.9123 91.0549 30.6557 91.0549 31.5312C91.0549 33.0841 91.0549 33.0841 90.6419 33.0841C90.361 33.0841 90.2289 33.1832 90.2124 33.3649C90.1958 33.6458 90.1793 33.6458 90.1132 33.3649C90.0637 33.1832 89.882 33.0841 89.5681 33.0841H89.089L89.0394 31.366C88.9734 29.1689 88.9899 29.1193 89.5846 29.1193C90.0141 29.1193 90.0637 29.0532 90.0967 28.5741L90.1132 28.0455L90.1793 28.5741C90.2454 29.0202 90.328 29.1193 90.6584 29.1193C90.8732 29.1193 91.0549 29.1854 91.0549 29.2845C91.0549 29.3671 91.1375 29.4497 91.2201 29.4497C91.3192 29.4497 91.3853 28.6567 91.3853 27.3847V25.3197H91.7983C92.1617 25.3197 92.2113 25.2536 92.2113 24.7415C92.2113 24.4276 92.2774 24.1633 92.36 24.1633C92.4426 24.1633 92.4921 24.4111 92.4756 24.692ZM112.547 24.3285C113.076 24.6259 112.944 25.105 112.283 25.2206C111.87 25.3032 111.738 25.4023 111.821 25.584C111.887 25.7658 112.085 25.8318 112.465 25.7823C113.159 25.6997 113.208 25.9144 112.514 26.0631C111.523 26.2779 110.912 24.9893 111.738 24.4276C112.184 24.1138 112.134 24.1138 112.547 24.3285ZM109.442 25.1545C108.93 25.3693 108.963 25.6006 109.541 25.7327C110.036 25.8318 110.301 26.2118 110.119 26.5092C109.97 26.7404 109.343 26.9552 109.144 26.8396C109.062 26.79 109.161 26.6909 109.392 26.6413C109.904 26.5257 109.937 26.0796 109.442 26.0136C109.243 25.9805 108.996 25.8484 108.896 25.7162C108.632 25.4023 108.963 24.9893 109.458 25.0058C109.805 25.0058 109.805 25.0058 109.442 25.1545ZM108.104 25.518C108.417 25.7823 108.797 27.1865 108.517 27.0874C108.417 27.0543 108.252 26.7404 108.153 26.377C108.021 25.9144 107.889 25.7327 107.657 25.7327C107.36 25.7327 107.327 25.8318 107.36 26.5918C107.377 27.0708 107.344 27.4673 107.261 27.4673C107.145 27.4673 106.683 25.7988 106.782 25.7327C106.947 25.6501 107.674 25.3362 107.757 25.3362C107.806 25.3197 107.955 25.4188 108.104 25.518ZM106.22 26.2614C106.319 26.4266 106.435 26.79 106.485 27.0543C106.584 27.5003 106.534 27.5829 106.121 27.7316C105.213 28.0785 104.634 27.17 105.51 26.7735C105.741 26.6744 105.923 26.5257 105.923 26.4596C105.923 26.2118 105.592 26.1292 105.262 26.3109C104.948 26.4761 104.8 26.3274 105.047 26.0962C105.262 25.8649 106.072 25.9805 106.22 26.2614ZM103.164 26.6578C103.445 26.6744 103.461 26.6909 103.247 26.757C103.081 26.79 102.949 26.9387 102.949 27.0543C102.949 27.5334 103.28 28.1281 103.561 28.1281C103.775 28.1281 103.792 28.1777 103.66 28.3098C103.346 28.6237 102.982 28.3429 102.784 27.649C102.685 27.2856 102.553 26.9717 102.47 26.9387C102.388 26.9056 102.404 26.7074 102.503 26.4761C102.635 26.1457 102.685 26.1127 102.735 26.344C102.784 26.5092 102.966 26.6578 103.164 26.6578ZM104.436 26.5587C104.304 26.7239 104.271 27.0378 104.337 27.4673C104.486 28.3759 104.188 28.2933 103.957 27.3682C103.841 26.9387 103.775 26.5918 103.808 26.5752C103.841 26.5752 104.007 26.4761 104.188 26.377C104.601 26.1457 104.717 26.2283 104.436 26.5587ZM127.399 27.5003C127.399 27.6986 127.201 27.649 126.87 27.4012C126.441 27.0874 126.507 26.9552 126.986 27.17C127.217 27.2691 127.399 27.4177 127.399 27.5003ZM101.264 27.5003C101.611 27.8473 101.479 28.0951 100.884 28.1942C100.57 28.2603 100.306 28.3594 100.306 28.4255C100.306 28.7228 100.719 28.9376 101.198 28.855L101.71 28.7889L101.248 28.9706C100.471 29.268 99.9757 28.9541 99.9757 28.1611C99.9757 27.8142 100.025 27.4673 100.091 27.4177C100.273 27.236 101.049 27.2856 101.264 27.5003ZM70.1406 35.909C71.0327 40.5511 71.7265 44.3673 71.6935 44.3838C71.5778 44.4829 69.0007 44.9455 68.9346 44.8794C68.8355 44.7803 65.6141 28.0785 65.6802 28.0125C65.7297 27.9464 67.8773 27.5169 68.2573 27.4838C68.4555 27.4673 68.819 29.1193 70.1406 35.909ZM99.2818 27.9959C99.5131 28.2933 99.7444 29.5323 99.5296 29.4001C99.4305 29.3341 99.3149 29.0697 99.2653 28.8054C99.2158 28.5411 99.0506 28.2107 98.9019 28.062C98.6706 27.8473 98.6706 27.7977 98.8688 27.7977C99.001 27.7977 99.1827 27.8968 99.2818 27.9959ZM126.573 28.0455C126.87 28.4089 126.639 29.1028 126.176 29.2184C125.796 29.301 124.97 29.0202 125.136 28.8385C125.185 28.8054 125.383 28.855 125.582 28.9541C126.193 29.2845 126.722 28.5081 126.209 27.9959C126.077 27.8638 126.077 27.7977 126.193 27.7977C126.292 27.7977 126.457 27.9133 126.573 28.0455ZM46.8309 28.5081C46.9796 28.5741 47.1117 28.7724 47.0952 28.9871V29.3671L46.93 28.9871C46.7648 28.5576 46.4179 28.6402 46.55 29.0863C46.6326 29.3175 46.6161 29.3341 46.4674 29.1193C46.3683 28.9871 46.2857 28.6898 46.2857 28.4585C46.2857 28.2272 46.3518 28.1281 46.4179 28.2272C46.484 28.3263 46.6657 28.442 46.8309 28.5081ZM111.374 28.442C111.374 28.5246 111.259 28.6237 111.127 28.6898C110.763 28.8219 110.829 29.1028 111.242 29.268C111.54 29.3671 111.54 29.4167 111.325 29.4993C111.11 29.5819 111.094 29.6975 111.226 30.1435C111.424 30.8374 111.424 31.1513 111.209 31.0191C111.127 30.9695 111.044 30.8209 111.044 30.6887C111.044 30.5565 110.961 30.2592 110.846 29.9949C110.631 29.4662 110.664 28.8054 110.912 28.4915C111.11 28.2603 111.374 28.2272 111.374 28.442ZM46.1205 29.0367C46.1205 29.2845 46.0214 29.4497 45.8892 29.4497C45.7571 29.4497 45.6084 29.5488 45.5754 29.6479C45.5258 29.7801 45.4762 29.7471 45.4762 29.5653C45.4597 29.4167 45.5754 29.2845 45.7075 29.2845C45.8397 29.2845 45.9553 29.1689 45.9553 29.0367C45.9553 28.7393 45.7571 28.7228 45.4928 28.9871C45.3441 29.1358 45.2945 29.1358 45.2945 28.9376C45.2945 28.8054 45.4762 28.6733 45.7075 28.6567C46.0544 28.6402 46.1205 28.7063 46.1205 29.0367ZM42.9982 29.0202C42.7504 29.3175 42.9487 29.7801 43.3286 29.7801C43.659 29.7801 43.7582 29.5323 43.4773 29.4001C43.3782 29.3506 43.3947 29.3341 43.5104 29.3506C43.8738 29.4167 43.7416 29.8627 43.3617 29.9123C42.8991 29.9783 42.5357 29.3836 42.833 29.0202C42.9322 28.888 43.0643 28.7889 43.0974 28.7889C43.1469 28.7889 43.0974 28.888 42.9982 29.0202ZM45.0963 29.2515C45.1458 29.5323 45.0632 29.6149 44.8154 29.6149C44.4024 29.6149 44.3529 29.3175 44.7494 29.1689C44.9972 29.0697 44.9972 29.0532 44.6998 28.9211C44.4024 28.7889 44.4024 28.7889 44.7163 28.8385C44.9146 28.855 45.0632 29.0202 45.0963 29.2515ZM114.018 29.4662C114.183 30.0609 114.166 30.1766 113.902 30.3748C113.506 30.6722 112.927 30.6722 112.795 30.3583C112.663 29.9949 112.828 29.681 113.291 29.4662C113.836 29.2184 113.621 28.888 112.993 29.0202C112.696 29.0697 112.547 29.0532 112.613 28.9541C112.663 28.855 112.96 28.7889 113.274 28.7889C113.803 28.7889 113.852 28.8385 114.018 29.4662ZM44.1712 29.3671C44.1381 29.5984 44.072 29.7801 44.0555 29.7801C44.039 29.7801 43.9729 29.5984 43.9399 29.3671C43.8903 29.1028 43.9234 28.9541 44.0555 28.9541C44.1877 28.9541 44.2207 29.1028 44.1712 29.3671ZM42.0731 29.6975C42.0731 29.9288 42.0566 30.1105 42.0401 30.1105C41.9244 30.1105 41.7097 29.3671 41.7758 29.2349C41.9079 29.0202 42.0401 29.2515 42.0731 29.6975ZM40.4377 29.714C40.5863 29.6645 40.6359 29.6975 40.5863 29.7966C40.5203 29.8792 40.5698 30.094 40.702 30.2427C40.9002 30.4905 40.8837 30.507 40.6359 30.2922C40.3881 30.1105 40.3385 30.1105 40.322 30.2922C40.3055 30.5896 40.0412 29.7801 40.0412 29.4497C40.0412 29.301 40.0742 29.3175 40.1238 29.4993C40.1733 29.681 40.3055 29.7636 40.4377 29.714ZM118.131 29.5488C118.164 29.5819 117.966 29.6149 117.685 29.6149C117.404 29.6149 117.123 29.5488 117.074 29.4497C116.991 29.301 117.949 29.4001 118.131 29.5488ZM41.5115 29.6975C41.5115 29.7801 41.3628 29.8792 41.1645 29.9123C40.9167 29.9618 40.8672 29.8957 40.9333 29.6975C41.0489 29.4167 41.5115 29.4167 41.5115 29.6975ZM38.4222 30.3583L38.5213 30.8539L38.2735 30.4409C38.1414 30.2096 38.0423 29.9123 38.0257 29.7801C38.0257 29.4001 38.3066 29.8131 38.4222 30.3583ZM119.866 29.8462C119.734 30.1931 120.312 30.3253 120.642 30.0114C120.989 29.6975 121.039 29.7966 120.791 30.2922C120.659 30.5235 120.675 30.6061 120.824 30.6226C120.94 30.6226 120.873 30.6887 120.675 30.7713C120.46 30.8539 120.295 31.0026 120.295 31.1017C120.295 31.1843 120.213 31.2669 120.13 31.2669C120.031 31.2669 119.998 31.0852 120.064 30.8539C120.147 30.5235 120.08 30.4079 119.734 30.2592C119.271 30.0444 119.188 29.8627 119.519 29.7305C119.866 29.5819 119.965 29.6149 119.866 29.8462ZM37.4475 30.4409C37.4475 30.6887 37.398 30.8704 37.3319 30.8209C37.2493 30.7878 37.1997 30.5235 37.1997 30.2427C37.1997 29.9618 37.2493 29.7801 37.3319 29.8462C37.398 29.9123 37.4475 30.1766 37.4475 30.4409ZM39.3473 30.4244C39.3308 30.6226 39.2813 30.5896 39.1326 30.3087C39.0169 30.1105 38.8517 29.9949 38.7691 30.0609C38.7031 30.127 38.6865 30.094 38.7526 29.9783C38.9178 29.6975 39.3473 30.0279 39.3473 30.4244ZM39.7603 30.1766C39.7603 30.3913 39.7108 30.54 39.6447 30.4905C39.5621 30.4574 39.5125 30.2757 39.5125 30.094C39.5125 29.9288 39.5621 29.7801 39.6447 29.7801C39.7108 29.7801 39.7603 29.9618 39.7603 30.1766ZM110.4 30.2261C110.532 30.5731 110.532 30.7878 110.35 31.1017C109.888 31.9277 108.731 31.5973 108.731 30.6226C108.731 30.0279 109.012 29.7801 109.673 29.7801C110.119 29.7801 110.251 29.8627 110.4 30.2261ZM36.2085 30.8374C36.2085 31.4817 36.1094 31.333 35.9938 30.5235C35.9277 30.0775 35.9442 29.9453 36.0433 30.1105C36.1259 30.2427 36.2085 30.5731 36.2085 30.8374ZM36.6711 31.0191C36.6711 31.2834 36.6381 31.2669 36.5389 30.9365C36.4729 30.7052 36.4068 30.3748 36.4068 30.1931C36.4068 29.9288 36.4398 29.9453 36.5389 30.2757C36.605 30.507 36.6711 30.8374 36.6711 31.0191ZM118.808 30.1105C118.808 30.1931 118.742 30.2757 118.643 30.2757C118.561 30.2757 118.478 30.1931 118.478 30.1105C118.478 30.0114 118.561 29.9453 118.643 29.9453C118.742 29.9453 118.808 30.0114 118.808 30.1105ZM123.104 30.2261C123.104 30.3087 122.955 30.5731 122.773 30.8539C122.592 31.1182 122.492 31.4817 122.542 31.6303C122.608 31.8451 122.558 31.8947 122.393 31.8286C122.261 31.779 122.112 31.8616 122.063 31.9938C121.997 32.1425 121.881 32.2581 121.782 32.2581C121.65 32.2581 121.65 32.159 121.782 31.9277C121.931 31.6469 121.881 31.5477 121.435 31.2834L120.906 30.9695L121.716 30.54C122.525 30.127 123.104 29.9949 123.104 30.2261ZM38.0257 30.6557C38.0257 30.92 37.9762 30.9365 37.7779 30.7713C37.6458 30.6557 37.5301 30.507 37.5301 30.4409C37.5301 30.3913 37.6458 30.3253 37.7779 30.3253C37.9101 30.3253 38.0257 30.4739 38.0257 30.6557ZM38.9178 30.5235C38.9674 30.6557 38.9343 30.7713 38.8517 30.7713C38.7526 30.7713 38.6865 30.6557 38.6865 30.5235C38.6865 30.3913 38.7196 30.2757 38.7526 30.2757C38.7857 30.2757 38.8517 30.3913 38.9178 30.5235ZM66.5888 37.4949C67.3487 41.4763 68.0095 44.8133 68.0425 44.9289C68.1086 45.0941 67.3487 45.3254 65.8123 45.5732L65.1846 45.6723L63.7473 38.2714C62.9709 34.2075 62.3432 30.8539 62.3597 30.8209C62.4423 30.7383 64.4907 30.3087 64.8707 30.2922C65.1846 30.2757 65.3002 30.7878 66.5888 37.4949ZM107.36 31.3495C107.244 32.4894 107.03 33.0841 106.716 33.0841C106.567 33.0841 106.567 33.0345 106.716 32.8859C107.046 32.5555 106.947 32.0929 106.418 31.4321C105.906 30.7878 105.824 30.6061 106.055 30.6061C106.138 30.6061 106.385 30.8704 106.633 31.2008L107.046 31.8121L107.162 31.0356C107.344 29.8957 107.476 30.1105 107.36 31.3495ZM34.2757 30.9365C34.3087 31.1513 34.4244 31.366 34.5235 31.3991C34.7383 31.4651 34.7878 31.2339 34.6061 31.0356C34.4409 30.8704 34.3913 30.4409 34.5565 30.4409C34.7217 30.4409 34.92 31.2339 34.8043 31.4321C34.5235 31.8947 34.0609 31.4486 34.0609 30.7383C34.0609 30.2922 34.1931 30.4244 34.2757 30.9365ZM35.6964 31.2834C35.3495 31.4982 35.1347 31.3825 35.1017 30.92L35.0521 30.5235L35.2173 30.9035C35.4156 31.366 35.7625 31.2173 35.6303 30.7217C35.5477 30.3913 35.5643 30.3913 35.746 30.7383C35.8947 31.0521 35.8947 31.1513 35.6964 31.2834ZM105.758 31.2669C105.89 31.5147 105.89 31.6138 105.725 31.6634C105.609 31.7129 105.295 31.7955 105.031 31.8781C104.585 32.0103 104.568 32.0433 104.833 32.3077C105.047 32.5059 105.213 32.5389 105.51 32.4233C105.774 32.3242 105.923 32.3242 105.923 32.4233C105.923 32.6215 105.163 32.8198 104.849 32.6876C104.42 32.5224 104.188 31.8286 104.403 31.3495C104.651 30.8209 105.493 30.7713 105.758 31.2669ZM124.673 31.2669C124.822 31.7295 124.623 32.2581 124.128 32.7867C123.087 33.9101 122.212 32.6215 123.203 31.4486C123.715 30.8374 124.508 30.7383 124.673 31.2669ZM103.742 31.7129C104.007 32.2251 104.139 33.0841 103.957 33.0841C103.874 33.0841 103.742 32.8198 103.676 32.5059C103.544 31.746 103.181 31.4486 102.834 31.8121C102.602 32.0433 102.586 32.1755 102.751 32.7041C102.933 33.2823 102.9 33.5797 102.685 33.3815C102.635 33.3319 102.503 32.9024 102.371 32.4233C102.173 31.6964 102.173 31.5808 102.371 31.6634C102.503 31.7129 102.652 31.6799 102.701 31.5973C102.867 31.3165 103.594 31.4156 103.742 31.7129ZM116.33 31.5312C116.33 31.7625 115.141 33.5797 114.976 33.5797C114.844 33.5797 115.042 33.1667 115.785 31.9773C116 31.6634 115.984 31.6138 115.719 31.5477C115.521 31.4982 115.571 31.4651 115.884 31.4486C116.132 31.4486 116.33 31.4817 116.33 31.5312ZM88.4282 32.7537C88.8577 32.7537 88.9073 32.8033 88.9073 33.2493C88.9073 33.6788 88.8412 33.7449 88.4778 33.7449C88.1804 33.7449 88.0152 33.844 87.9491 34.1083L87.8665 34.4718L87.7344 34.1083C87.6353 33.8605 87.4535 33.7449 87.1727 33.7449C86.8258 33.7449 86.7597 33.6623 86.7597 33.2493C86.7597 32.8033 86.8093 32.7537 87.2553 32.7537C87.7179 32.7537 87.7509 32.7041 87.7839 32.1259L87.8005 31.5147L87.8665 32.1259C87.9326 32.6876 87.9822 32.7537 88.4282 32.7537ZM101.694 32.192C102.008 32.4894 102.041 33.2658 101.76 33.5467C101.429 33.8771 100.686 33.7779 100.405 33.3815C100.075 32.9024 100.075 32.605 100.422 32.2251C100.752 31.8616 101.347 31.8451 101.694 32.192ZM85.7685 33.0345C85.7685 33.3319 85.8676 33.4145 86.165 33.4145C86.5284 33.4145 86.5615 33.4971 86.6275 34.2405C86.6441 34.6865 86.6441 35.4299 86.6275 35.8925C86.5615 36.6359 86.5284 36.7185 86.165 36.7185C85.8841 36.7185 85.7685 36.8176 85.7685 37.0489C85.7685 37.2306 85.7024 37.3793 85.6033 37.3793C85.5207 37.3793 85.4381 37.2306 85.4381 37.0489C85.4381 36.8011 85.3225 36.7185 85.0251 36.7185C84.6451 36.7185 84.6121 36.6524 84.6121 35.9751C84.6121 35.5621 84.546 35.2317 84.4469 35.2317C84.3643 35.2317 84.2817 35.6447 84.2817 36.1403C84.2817 36.9993 84.2652 37.0489 83.8687 37.0489C83.5548 37.0489 83.4557 37.1315 83.4392 37.4123V37.7923L83.2905 37.4123C83.1914 37.1645 82.9931 37.0489 82.7123 37.0489C82.3158 37.0489 82.2993 37.0159 82.2993 35.9916C82.2993 34.9509 82.3158 34.9178 82.7619 34.8683C83.1253 34.8352 83.2244 34.7196 83.307 34.2405L83.4061 33.6623L83.4392 34.257C83.4557 34.8187 83.4887 34.8683 84.0339 34.9343L84.6121 35.0004V34.2075C84.6121 33.4641 84.6451 33.4145 85.0251 33.4145C85.3885 33.4145 85.4381 33.3484 85.4381 32.7867C85.4381 32.3407 85.4877 32.2416 85.6033 32.4233C85.6859 32.5555 85.7685 32.8363 85.7685 33.0345ZM99.6453 32.8363C99.9426 33.6293 100.009 34.0753 99.8435 34.0753C99.7444 34.0753 99.6122 33.811 99.5462 33.4806C99.4801 33.0841 99.3314 32.8528 99.1332 32.8033C98.7202 32.6876 98.7367 32.4233 99.1497 32.4233C99.3644 32.4233 99.5462 32.5885 99.6453 32.8363ZM127.068 33.1171C127.068 33.2823 126.986 33.3649 126.854 33.3319C126.738 33.2823 126.424 33.6293 126.11 34.1579C125.813 34.6535 125.483 35.0665 125.4 35.0665C125.251 35.0665 125.449 34.6535 126.209 33.4641C126.325 33.2658 126.391 33.018 126.342 32.9354C126.275 32.8528 126.358 32.7041 126.523 32.605C126.854 32.4233 127.068 32.6381 127.068 33.1171ZM118.759 32.9354L119.321 33.2823L118.23 34.0257C117.636 34.4222 117.057 34.7361 116.942 34.6865C116.843 34.6535 117.223 34.3561 117.784 34.0092C118.346 33.6623 118.808 33.3649 118.808 33.3319C118.808 33.2989 118.561 33.1337 118.28 32.9354C117.982 32.7537 117.834 32.5885 117.966 32.5885C118.082 32.5885 118.445 32.7537 118.759 32.9354ZM61.9797 33.3484C61.9797 33.398 62.5084 36.1568 63.1526 39.4773C63.7804 42.7813 64.276 45.5897 64.2429 45.6889C64.2099 45.788 63.5821 46.0027 62.8387 46.1514L61.5006 46.4157L61.3354 45.5732C61.2363 45.1107 60.7077 42.3849 60.1625 39.5269C59.6008 36.6689 59.1218 34.2075 59.0722 34.0588C59.0061 33.844 59.2374 33.7449 60.1956 33.5301C61.5832 33.2493 61.9797 33.1997 61.9797 33.3484ZM114.1 33.6458C113.72 34.224 114.067 34.8517 114.728 34.7526C114.794 34.7526 114.844 34.8022 114.844 34.9013C114.844 35.1326 114.133 35.1161 113.886 34.8683C113.489 34.4718 113.737 33.2493 114.216 33.2493C114.299 33.2493 114.232 33.431 114.1 33.6458ZM113.192 34.0588C113.423 34.5213 113.423 34.5213 112.779 34.637C112.184 34.7526 112.002 35.1161 112.465 35.2978C112.597 35.3473 112.861 35.3143 113.043 35.2317C113.258 35.1161 113.357 35.1161 113.357 35.2152C113.357 35.4299 112.613 35.6282 112.283 35.496C111.854 35.3308 111.622 34.637 111.837 34.1579C112.085 33.6293 112.927 33.5797 113.192 34.0588ZM120.427 33.9431C120.725 34.2405 120.675 34.8683 120.312 34.9839C120.097 35.05 120.031 35.1821 120.08 35.463C120.229 36.2394 119.255 36.3716 118.66 35.6612C118.412 35.3639 118.676 34.7361 119.056 34.7361C119.205 34.7361 119.304 34.5709 119.304 34.3561C119.304 34.1414 119.354 33.9101 119.42 33.8605C119.601 33.6788 120.213 33.7284 120.427 33.9431ZM111.209 34.2405C111.209 34.3231 111.16 34.3892 111.094 34.3892C110.4 34.2735 110.35 34.8187 111.044 34.9509C111.837 35.1161 111.622 36.0742 110.813 36.0412C110.482 36.0412 110.482 36.0412 110.813 35.8925C111.424 35.6447 111.408 35.4134 110.796 35.1656C110.169 34.9013 110.053 34.5213 110.515 34.257C110.879 34.0423 111.209 34.0257 111.209 34.2405ZM108.896 34.9839C108.764 35.1491 108.731 35.463 108.797 35.8925C108.913 36.6359 108.665 36.8011 108.517 36.0742C108.467 35.8099 108.368 35.4134 108.302 35.1656C108.219 34.8187 108.252 34.7526 108.45 34.8352C108.583 34.8848 108.748 34.8352 108.814 34.7361C108.88 34.637 108.963 34.5874 109.012 34.637C109.062 34.6865 109.012 34.8352 108.896 34.9839ZM122.079 34.9343C122.509 35.3639 122.112 36.6855 121.435 37.0489C121.171 37.1976 121.006 37.1811 120.692 36.9663C120.477 36.8341 120.295 36.6359 120.295 36.5368C120.295 36.1403 120.791 35.2482 121.138 35.0004C121.6 34.6865 121.815 34.67 122.079 34.9343ZM104.155 36.6524C104.188 36.702 104.32 36.5037 104.436 36.2229C104.552 35.9586 104.7 35.7273 104.783 35.7273C104.866 35.7273 104.833 35.9255 104.733 36.1568C104.552 36.5533 104.568 36.6359 105.014 36.9828C105.279 37.1976 105.444 37.4123 105.394 37.4784C105.328 37.528 105.064 37.4123 104.816 37.2141L104.353 36.8507L104.254 37.3297C104.139 37.8584 104.089 37.7593 103.693 36.3551C103.544 35.8264 103.478 35.3143 103.544 35.1987C103.627 35.0665 103.759 35.2978 103.874 35.7934C103.99 36.2229 104.106 36.6194 104.155 36.6524ZM107.624 35.2647C108.087 35.6282 108.153 36.3055 107.757 36.702C107.344 37.115 106.964 37.148 106.551 36.7681C106.138 36.3881 106.171 35.6447 106.617 35.3308C107.063 35.0169 107.261 35.0004 107.624 35.2647ZM77.1946 36.8837C77.4589 36.8837 77.6737 36.9498 77.6737 37.0489C77.6737 37.1315 77.4589 37.2141 77.1781 37.2141C76.699 37.2141 76.6825 37.2471 76.6495 37.9905L76.6164 38.7835L76.5669 37.9905C76.5008 37.2471 76.4677 37.2141 76.0052 37.2141C75.7409 37.2141 75.5261 37.1315 75.5261 37.0489C75.5261 36.9498 75.7574 36.8837 76.0217 36.8837C76.4677 36.8837 76.5173 36.8341 76.5503 36.3385L76.5669 35.8099L76.6329 36.3385C76.699 36.8176 76.7651 36.8837 77.1946 36.8837ZM81.655 37.2141C81.9193 37.2141 82.1341 37.2802 82.1341 37.3793C82.1341 37.4619 81.9193 37.5445 81.6385 37.5445C81.2916 37.5445 81.1429 37.6271 81.1264 37.8253C81.1099 38.1062 81.0933 38.1062 81.0273 37.8253C80.9777 37.6601 80.796 37.5445 80.5482 37.5445C80.3334 37.5445 80.1517 37.4619 80.1517 37.3793C80.1517 37.2802 80.3334 37.2141 80.5647 37.2141C80.9116 37.2141 80.9777 37.1315 81.0107 36.6689L81.0273 36.1403L81.0933 36.6689C81.1594 37.148 81.2255 37.2141 81.655 37.2141ZM102.867 36.4211C102.239 36.7846 102.123 37.1976 102.553 37.6271C102.735 37.8088 102.966 37.8584 103.23 37.7923C103.494 37.7262 103.594 37.7593 103.527 37.8749C103.379 38.1227 102.52 38.0731 102.288 37.7923C101.809 37.2141 102.173 36.2229 102.85 36.2229C103.197 36.2394 103.197 36.2394 102.867 36.4211ZM74.9644 37.5445C75.3444 37.5445 75.3609 37.5941 75.3609 38.6183C75.3609 39.6591 75.3444 39.6921 74.9479 39.6921C74.634 39.6921 74.5349 39.7747 74.5184 40.0555V40.4355L74.3697 40.0555C74.2706 39.8077 74.0723 39.6921 73.7915 39.6921C73.395 39.6921 73.3785 39.6591 73.3785 38.6348C73.3785 37.5941 73.395 37.561 73.8411 37.5115C74.221 37.4784 74.3036 37.3628 74.3697 36.8837L74.4358 36.3055L74.5019 36.9167C74.5514 37.4619 74.6175 37.5445 74.9644 37.5445ZM124.376 37.2471C124.227 37.3132 123.897 37.7593 123.599 38.2218C123.318 38.6844 123.038 39.0313 122.988 38.9817C122.938 38.9322 123.137 38.5027 123.418 38.0401C123.715 37.561 123.913 37.0985 123.88 36.9993C123.847 36.8837 123.963 36.7185 124.161 36.6029C124.458 36.4377 124.508 36.4542 124.557 36.7515C124.59 36.9498 124.508 37.1645 124.376 37.2471ZM59.7165 41.6084C60.2451 44.3012 60.6581 46.5314 60.6251 46.5479C60.4929 46.68 57.9158 47.0765 57.8332 46.9939C57.7671 46.9278 57.3376 44.8298 56.875 42.3353C56.396 39.8408 55.983 37.6767 55.9334 37.528C55.8673 37.3132 56.0986 37.2141 57.0568 36.9993C57.7176 36.8672 58.3784 36.7515 58.5105 36.735C58.7253 36.7185 58.9566 37.6767 59.7165 41.6084ZM101.462 37.0489C101.644 37.2306 101.793 37.528 101.793 37.7097C101.793 38.0897 101.248 38.7009 100.884 38.7009C100.521 38.7009 99.9757 38.0897 99.9757 37.6767C99.9757 37.2306 100.422 36.7185 100.835 36.7185C101 36.7185 101.281 36.8672 101.462 37.0489ZM23.4221 38.7339C23.7029 40.0886 23.7029 40.2373 23.4055 40.1216C23.2734 40.0721 23.1082 40.1547 23.0256 40.2868C22.8274 40.6503 21.1423 39.9069 21.2414 39.4773C21.2745 39.3287 21.1919 39.1304 21.0597 39.0478C20.8615 38.9487 21.0597 38.7505 21.9353 38.2383C22.5465 37.8584 23.0917 37.5941 23.1247 37.6271C23.1577 37.6601 23.2899 38.1557 23.4221 38.7339ZM99.7279 38.7009C99.9592 38.7835 99.9922 38.8331 99.8105 38.9487C99.5462 39.1139 99.1497 38.6183 99.1662 38.1392C99.1827 37.8419 99.1992 37.8419 99.2984 38.1888C99.3479 38.4035 99.5462 38.6348 99.7279 38.7009ZM55.7352 40.7659C55.983 42.0379 56.3629 44.0203 56.5777 45.1767L56.9742 47.2748L56.1812 47.44C55.7352 47.5391 55.0909 47.6547 54.744 47.7208L54.0997 47.8199L53.2406 43.4091C52.7781 40.9807 52.4146 38.9652 52.4477 38.9157C52.5633 38.8165 54.7605 38.387 55.0413 38.4201C55.223 38.4531 55.4048 39.0809 55.7352 40.7659ZM112.828 38.8165C112.927 38.9817 113.043 39.3452 113.093 39.6095C113.192 40.0555 113.142 40.1381 112.663 40.3199C111.639 40.6998 111.358 39.7582 112.349 39.2626C112.63 39.1139 112.663 39.0478 112.481 38.8991C112.366 38.8 112.085 38.7505 111.854 38.8C111.54 38.8826 111.507 38.8496 111.705 38.7174C112.085 38.4531 112.663 38.5027 112.828 38.8165ZM110.169 39.3947C110.449 39.7747 110.714 40.8815 110.499 40.7989C110.4 40.7659 110.268 40.5346 110.202 40.2868C110.003 39.593 109.722 39.3121 109.442 39.5599C109.21 39.7417 109.227 40.2207 109.475 40.8815C109.541 41.0467 109.524 41.1789 109.409 41.1789C109.326 41.1789 109.161 40.8815 109.062 40.5181C108.863 39.7582 108.649 39.5765 108.302 39.8738C108.054 40.0721 108.07 40.3199 108.335 41.2119C108.384 41.3771 108.351 41.5093 108.269 41.5093C108.186 41.5093 108.021 41.1789 107.922 40.7824C107.707 39.9069 107.691 39.6756 107.872 39.7251C107.938 39.7251 108.12 39.6921 108.285 39.6095C108.434 39.5434 108.715 39.5269 108.896 39.5765C109.078 39.626 109.243 39.5599 109.293 39.4278C109.409 39.1469 109.954 39.1304 110.169 39.3947ZM25.9992 40.8485C25.7679 41.3771 25.5201 41.7901 25.454 41.7406C25.3714 41.7075 25.5036 41.278 25.7183 40.7989C25.9496 40.3364 26.0818 39.7912 26.0322 39.6095C25.9496 39.2956 25.9661 39.2956 26.1809 39.5765C26.3957 39.8408 26.3791 39.9895 25.9992 40.8485ZM103.907 40.039C103.544 40.2373 103.511 40.6833 103.858 40.6833C103.99 40.6833 104.106 40.7494 104.106 40.8485C104.106 40.9311 104.023 41.0137 103.924 41.0137C103.808 41.0137 103.775 41.1789 103.858 41.4597C103.907 41.7241 104.007 42.0875 104.056 42.2857C104.221 43.0126 103.841 42.6657 103.643 41.9223C103.527 41.5093 103.362 41.1789 103.28 41.1789C103.081 41.1789 103.23 40.3859 103.494 40.0555C103.577 39.9564 103.775 39.8573 103.924 39.8573C104.155 39.8738 104.155 39.8903 103.907 40.039ZM107.145 40.2868C107.459 40.5842 107.492 41.3606 107.211 41.6415C107.096 41.7571 106.815 41.8397 106.584 41.8397C106.005 41.8397 105.758 41.5589 105.758 40.8981C105.758 40.1051 106.6 39.7251 107.145 40.2868ZM105.097 40.7494C104.965 40.9146 104.932 41.2285 105.014 41.7075C105.163 42.5831 104.899 42.3849 104.634 41.4102C104.387 40.5346 104.387 40.4685 104.684 40.5677C104.816 40.6337 104.965 40.6007 105.031 40.5016C105.08 40.4025 105.163 40.3694 105.213 40.419C105.262 40.4685 105.213 40.6172 105.097 40.7494ZM98.4558 40.6172C99.6948 40.7824 99.5131 40.9476 98.1585 40.8815C97.5307 40.8485 97.0021 40.8815 97.0021 40.9641C97.0021 41.0302 96.6882 41.4267 96.3248 41.8397C95.9613 42.2527 94.9701 43.3761 94.1441 44.3507C93.3016 45.3419 92.5582 46.1349 92.4591 46.1349C92.2443 46.1349 91.0053 45.821 88.5769 45.1602C87.5361 44.8794 86.6606 44.6481 86.6606 44.6481C86.6441 44.6481 86.5449 44.8959 86.4293 45.1767C86.3137 45.4741 86.1319 45.9367 85.9998 46.2175C85.8676 46.4818 85.4546 47.473 85.0581 48.3981L84.3478 50.0666L82.7949 48.9102L81.2585 47.7373L78.8962 48.9102C77.5911 49.5545 76.5008 50.0336 76.4512 49.9675C76.4017 49.8849 77.4755 49.2902 78.8301 48.6129L81.2751 47.4069L82.7123 48.4312C83.5053 48.9928 84.2156 49.4058 84.2817 49.3232C84.3643 49.2572 84.8434 48.1503 85.372 46.8783C85.8841 45.6063 86.3632 44.4994 86.4293 44.4333C86.4954 44.3673 87.6518 44.5985 89.0064 44.9455C90.361 45.3089 91.6992 45.6393 91.98 45.6889C92.4756 45.788 92.5912 45.6889 94.7719 43.1448C96.0109 41.7075 97.1508 40.5181 97.2994 40.5181C97.4646 40.5181 97.9768 40.5677 98.4558 40.6172ZM102.041 42.5831C101.942 43.6073 101.611 44.3507 101.363 44.1029C101.297 44.0369 101.33 43.8882 101.429 43.7891C101.743 43.4752 101.661 43.1117 101.116 42.3683C100.835 41.9719 100.653 41.6084 100.719 41.5423C100.818 41.4267 101 41.6249 101.529 42.4179C101.743 42.7153 101.76 42.6822 101.875 41.9223C102.057 40.7824 102.189 41.2945 102.041 42.5831ZM52.6294 44.582C52.9598 46.3662 53.1911 47.8695 53.1415 47.919C53.0754 47.9851 52.4477 48.1503 51.7373 48.299L50.4322 48.5633L50.267 47.8034C50.1844 47.3904 49.9201 46.0027 49.6723 44.7307C49.441 43.4587 49.2098 42.3023 49.1602 42.1536C49.1106 41.9553 49.3584 41.8397 50.3662 41.6415C51.0765 41.4928 51.7373 41.3771 51.8364 41.3606C51.9356 41.3606 52.266 42.7318 52.6294 44.582ZM99.8105 41.5093C99.8105 41.5919 99.9261 41.6745 100.058 41.6745C100.356 41.6745 100.389 41.9553 100.124 42.0379C99.9757 42.0875 99.9757 42.2692 100.141 42.7318C100.273 43.1448 100.422 43.3265 100.57 43.2604C100.703 43.2109 100.802 43.2439 100.802 43.3265C100.802 43.4256 100.653 43.4917 100.471 43.4917C100.157 43.4917 100.075 43.3761 99.7114 42.4179C99.5131 41.8893 99.4801 41.3441 99.6618 41.3441C99.7444 41.3441 99.8105 41.4102 99.8105 41.5093ZM21.6049 42.6987C21.8857 44.0534 21.8857 44.2021 21.5884 44.0864C21.4562 44.0369 21.291 44.1195 21.2084 44.2516C21.0102 44.6151 19.3251 43.8717 19.4242 43.4421C19.4573 43.2935 19.3747 43.0952 19.2425 43.0126C19.0443 42.9135 19.2425 42.7318 20.1181 42.2031C20.7458 41.8397 21.291 41.5589 21.324 41.5919C21.3571 41.6249 21.4727 42.1205 21.6049 42.6987ZM113.654 43.2769C113.753 43.4421 113.869 43.7891 113.919 44.0699C114.018 44.5159 113.968 44.5985 113.522 44.7803C113.126 44.962 112.96 44.962 112.779 44.8133C112.399 44.4994 112.481 44.169 113.026 43.8386C113.423 43.6073 113.489 43.5082 113.307 43.3595C113.175 43.2439 113.01 43.2439 112.861 43.3265C112.465 43.5743 112.25 43.5082 112.597 43.2439C113.026 42.9135 113.473 42.93 113.654 43.2769ZM24.9584 43.8717C24.9749 43.9543 24.8923 43.9543 24.8097 43.9047C24.7106 43.8386 24.4463 44.2186 24.1985 44.7968C23.9672 45.3585 23.7029 45.8045 23.6203 45.8045C23.4221 45.8045 23.4551 45.7054 23.9177 44.7968C24.1489 44.3342 24.2976 43.8551 24.2481 43.723C24.1985 43.6073 24.2976 43.4256 24.4463 43.343C24.7106 43.1943 24.9254 43.4091 24.9584 43.8717ZM48.5985 43.5413C48.5985 43.5743 48.8133 44.7472 49.0941 46.1349C49.3584 47.5391 49.5567 48.6955 49.5402 48.6955C49.3584 48.8276 46.8474 49.2241 46.7648 49.1415C46.6161 48.9763 45.7075 44.1855 45.8066 44.0699C45.9884 43.8882 48.5985 43.3926 48.5985 43.5413ZM108.731 44.3673C108.913 44.4333 108.913 44.4664 108.682 44.4664C108.467 44.4829 108.401 44.5655 108.467 44.8133C108.517 44.995 108.616 45.2924 108.665 45.4741C108.715 45.6558 108.88 45.8045 109.029 45.8045C109.21 45.8045 109.243 45.8541 109.128 45.9697C108.83 46.267 108.434 45.9697 108.335 45.3915C108.269 45.0776 108.104 44.7472 107.938 44.6646C107.74 44.549 107.724 44.4994 107.889 44.4829C108.004 44.4829 108.07 44.3838 108.021 44.2516C107.889 43.9212 108.087 43.7891 108.302 44.0534C108.401 44.1855 108.599 44.3177 108.731 44.3673ZM110.747 44.1029C111.176 44.4994 111.127 45.2428 110.631 45.5732C110.135 45.9036 109.59 45.7384 109.376 45.1933C109.161 44.6316 109.177 44.5325 109.557 44.1525C109.954 43.756 110.334 43.7395 110.747 44.1029ZM98.8358 45.1602C97.8611 46.4322 97.5142 47.2913 97.316 48.8276C97.2168 49.571 97.0186 50.4631 96.8699 50.81C96.5726 51.5369 95.5318 52.3464 93.9624 53.0898C92.7399 53.668 92.2939 54.1306 92.0296 55.1218C91.6331 56.6086 90.5758 57.8476 89.122 58.4753C88.6925 58.6736 87.8005 58.7892 86.2641 58.8553C83.6209 58.9709 83.3235 59.1031 81.5063 60.7551C80.8455 61.3663 80.2673 61.8454 80.2343 61.8124C80.1021 61.6637 82.7123 59.4335 83.4227 59.07C84.0669 58.7396 84.4304 58.6901 85.9337 58.6901C87.0075 58.6901 88.0152 58.591 88.5273 58.4423C90.1298 57.9632 91.4348 56.6086 91.8644 54.9566C92.1452 53.9323 92.5912 53.4698 94.078 52.7594C96.2917 51.6856 96.7543 51.0909 97.0847 48.8607C97.349 47.0765 97.7785 46.0523 98.7202 44.9289C99.5957 43.8882 99.6783 44.0534 98.8358 45.1602ZM106.683 45.1272C106.452 45.3915 106.418 45.5567 106.551 46.0358C106.65 46.3662 106.65 46.6305 106.584 46.6305C106.501 46.6305 106.352 46.3166 106.237 45.9201C106.138 45.5402 106.022 45.1602 105.972 45.0776C105.923 44.995 105.972 44.962 106.105 45.0115C106.237 45.0611 106.435 44.9785 106.567 44.8629C106.898 44.5159 107.013 44.7637 106.683 45.1272ZM103.676 46.0688C103.974 47.1922 104.007 47.4565 103.808 47.4565C103.693 47.4565 103.114 45.3254 103.114 44.8959C103.114 44.5159 103.412 45.1437 103.676 46.0688ZM45.4762 47.2087L45.8892 49.4224L45.0632 49.5876C42.8661 50.0171 43.0148 50.0501 42.8826 49.3232C42.833 48.9763 42.6348 48.0016 42.4696 47.1426C42.2879 46.2836 42.1722 45.5732 42.1888 45.5567C42.2383 45.5237 44.6172 45.0281 44.8815 44.995C44.9806 44.995 45.245 45.9862 45.4762 47.2087ZM102.52 45.2593C102.569 45.4245 102.685 45.8871 102.784 46.3001C102.883 46.7131 102.999 47.1756 103.048 47.3243C103.098 47.4895 103.065 47.6217 102.982 47.6217C102.9 47.6217 102.701 47.1591 102.553 46.5809C102.388 46.0192 102.222 45.4245 102.189 45.2593C102.14 45.1107 102.173 44.9785 102.272 44.9785C102.355 44.9785 102.47 45.1107 102.52 45.2593ZM105.51 45.408C105.873 45.7715 105.758 46.0192 105.113 46.1844C104.453 46.3496 104.535 46.7131 105.229 46.7131C105.791 46.7131 105.923 46.8618 105.493 47.027C104.783 47.2913 104.271 46.8783 104.271 46.0523C104.271 45.2428 104.965 44.8794 105.51 45.408ZM19.7877 46.6635C20.0685 48.0182 20.0685 48.1668 19.7712 48.0512C19.639 48.0016 19.4738 48.0842 19.3912 48.2164C19.193 48.5798 17.5079 47.8364 17.607 47.4069C17.6401 47.2582 17.5575 47.06 17.4253 46.9939C17.2436 46.8783 17.4584 46.68 18.3174 46.1844C18.9286 45.8045 19.4738 45.5237 19.5068 45.5567C19.5399 45.5897 19.6555 46.0853 19.7877 46.6635ZM30.3605 46.2175C30.5752 47.06 29.7823 48.1834 29.1049 48.0016C28.1798 47.7538 28.7745 45.8045 29.7657 45.8045C30.1457 45.8045 30.2779 45.8871 30.3605 46.2175ZM101.859 46.3992C102.255 46.7792 102.189 46.9278 101.595 47.093C100.818 47.2913 100.884 47.7043 101.661 47.6878C102.008 47.6712 102.239 47.7373 102.189 47.8034C102.057 48.0182 101.066 47.9851 100.835 47.7538C100.719 47.6382 100.636 47.3243 100.636 47.0435C100.636 46.201 101.314 45.8375 101.859 46.3992ZM23.1412 47.8364C23.1577 47.919 23.0751 47.919 22.9926 47.8695C22.8934 47.8034 22.6291 48.1834 22.3813 48.7616C22.15 49.3232 21.8857 49.7693 21.8031 49.7693C21.6049 49.7693 21.6379 49.6702 22.1005 48.7616C22.3318 48.299 22.4804 47.8199 22.4309 47.6878C22.3813 47.5721 22.4804 47.3904 22.6291 47.3078C22.8934 47.1591 23.1082 47.3739 23.1412 47.8364ZM73.9897 47.6547C73.9402 47.7869 73.8906 47.7373 73.8906 47.5556C73.8741 47.3739 73.9237 47.2748 73.9732 47.3408C74.0228 47.3904 74.0393 47.5391 73.9897 47.6547ZM100.273 47.9356C100.24 48.2494 100.124 48.3816 99.8105 48.3981C99.3975 48.4477 99.3975 48.4477 99.7774 48.2825C100.223 48.0842 100.257 47.7869 99.8105 47.6712C99.3314 47.5391 99.414 47.3243 99.9096 47.4234C100.24 47.4895 100.323 47.5721 100.273 47.9356ZM73.7915 47.9521C74.0558 48.2164 74.2045 48.4477 74.1054 48.4477C74.0228 48.4477 73.7419 48.2164 73.4941 47.9521C73.2298 47.6712 73.0811 47.4565 73.1637 47.4565C73.2463 47.4565 73.5272 47.6712 73.7915 47.9521ZM75.0966 47.7373C75.1627 47.886 75.1296 48.0842 75.047 48.1668C74.9479 48.266 74.8983 48.1999 74.9149 48.0182C74.9314 47.8199 74.8488 47.7043 74.6671 47.7208C74.5019 47.7373 74.4193 47.6878 74.4688 47.6052C74.6175 47.3574 74.9809 47.44 75.0966 47.7373ZM31.5499 47.853C31.5169 47.9851 31.649 48.1999 31.8307 48.332C32.0951 48.5468 32.1116 48.6294 31.9464 48.9598C31.7481 49.3563 31.7316 49.3563 31.8142 48.9763C31.8638 48.6955 31.7647 48.5468 31.3682 48.3486C30.8891 48.0842 30.8726 48.0677 31.1699 47.853C31.5664 47.5556 31.616 47.5721 31.5499 47.853ZM41.974 48.9433C42.0896 49.4884 42.1392 50.0006 42.0896 50.0832C41.9575 50.2979 39.5125 50.6614 39.3639 50.4962C39.2813 50.4136 39.1491 49.9345 39.0665 49.4058L38.9013 48.4807L40.0742 48.2329C41.8584 47.8695 41.7593 47.8199 41.974 48.9433ZM73.3289 48.3155C73.2794 48.4477 73.2298 48.3981 73.2298 48.2164C73.2133 48.0347 73.2629 47.9356 73.3124 48.0016C73.362 48.0512 73.3785 48.1999 73.3289 48.3155ZM108.566 49.3563C108.434 49.5215 108.401 49.8354 108.467 50.2649C108.517 50.6283 108.517 50.9257 108.434 50.9257C108.318 50.9257 107.839 49.4224 107.938 49.3728C107.971 49.3728 108.137 49.2737 108.318 49.1746C108.731 48.9433 108.847 49.0259 108.566 49.3563ZM38.2735 49.6867C38.5379 50.9752 38.6535 50.8431 37.0841 51.1404C36.2911 51.2891 35.6303 51.4048 35.6138 51.3717C35.5973 51.3552 35.5312 50.9918 35.4651 50.5788L35.3495 49.8023L36.6546 49.5545C37.3649 49.4224 37.9927 49.3067 38.0588 49.2902C38.1249 49.2737 38.224 49.4554 38.2735 49.6867ZM107.327 49.6702C107.74 49.9675 107.542 50.364 106.914 50.4796C106.204 50.6283 106.369 51.0083 107.129 51.0083C107.872 51.0083 107.922 51.19 107.228 51.3387C106.237 51.5534 105.626 50.2649 106.452 49.7032C106.898 49.3893 106.931 49.3893 107.327 49.6702ZM28.6259 50.1492C29.0223 51.0083 27.8494 52.462 27.2051 51.9169C26.6104 51.4213 27.2382 49.7693 28.0311 49.7693C28.312 49.7693 28.5102 49.9014 28.6259 50.1492ZM105.559 50.9422C105.411 52.1482 105.213 52.7429 104.932 52.7429C104.7 52.7429 104.733 52.5446 105.014 52.1812C105.229 51.9004 105.196 51.7847 104.667 51.0578C104.023 50.1823 104.155 49.951 104.816 50.7935L105.229 51.3222L105.361 50.6614C105.46 50.0501 105.559 49.7693 105.659 49.7693C105.675 49.7693 105.642 50.2979 105.559 50.9422ZM100.389 51.0248C100.521 51.3552 100.636 51.8012 100.636 52.016C100.636 52.5446 101.182 52.8255 101.529 52.4786C101.859 52.1647 101.859 51.9004 101.562 51.5039C101.429 51.3056 101.231 51.2396 100.983 51.3056C100.587 51.4048 100.504 51.1735 100.901 51.0248C101.297 50.8761 101.413 50.8926 101.694 51.19C102.024 51.5204 102.041 52.4786 101.71 52.7429C101.578 52.8585 101.314 52.9081 101.132 52.8585C100.95 52.809 100.802 52.842 100.802 52.9246C100.802 53.0072 100.752 53.0733 100.686 53.0733C100.57 53.0733 99.9592 50.9092 99.9757 50.5457C99.9757 50.2649 100.157 50.4631 100.389 51.0248ZM103.924 51.19C104.04 51.6195 104.106 51.9664 104.073 51.983C104.04 51.983 103.858 52.0986 103.66 52.1977C102.916 52.6272 102.619 52.4125 102.371 51.2891C102.222 50.5457 102.52 50.6283 102.718 51.3717C102.817 51.7847 102.982 52.016 103.181 52.049C103.561 52.1316 103.792 51.7847 103.676 51.3387C103.627 51.157 103.544 50.8761 103.511 50.7109C103.461 50.5622 103.494 50.4301 103.577 50.4301C103.66 50.4301 103.825 50.777 103.924 51.19ZM30.823 50.9752C31.1534 51.223 31.0543 51.9169 30.7074 51.9169C30.5917 51.9169 30.5091 52.1482 30.5091 52.4455C30.5091 52.9411 30.4596 52.9907 29.997 53.0402C29.6831 53.0733 29.4023 52.9907 29.2701 52.842C29.0223 52.5281 29.1545 52.5116 29.6005 52.7759C29.8649 52.9411 29.9805 52.9411 30.2118 52.7098C30.4761 52.4455 30.4761 52.396 30.1787 52.0821C29.8814 51.7517 29.8814 51.7517 30.3109 51.7517C30.8726 51.7517 30.9221 51.223 30.3935 50.9587C30.1457 50.8431 30.0961 50.777 30.2779 50.777C30.41 50.7605 30.6578 50.8596 30.823 50.9752ZM32.6402 51.8508C32.9706 52.1812 32.9706 52.3464 32.6237 52.6107C32.4585 52.7264 32.3263 53.0402 32.3263 53.3211C32.3263 53.7341 32.2603 53.8167 31.8638 53.8662C31.0047 53.9654 30.5752 53.1394 31.2525 52.7098C31.4343 52.5942 31.5829 52.3464 31.5829 52.1482C31.5829 51.9664 31.6325 51.7517 31.6986 51.7021C31.8803 51.5039 32.3759 51.5865 32.6402 51.8508ZM34.5565 52.7759C34.5565 52.9576 34.3583 52.9411 34.0609 52.7429C33.9123 52.6603 33.7471 52.6603 33.6149 52.7759C33.4332 52.9246 33.4497 53.0237 33.7305 53.3376C33.9453 53.5524 34.0609 53.8662 34.0279 54.0975C33.9783 54.4279 33.8792 54.4775 33.3341 54.4775C32.9045 54.4775 32.6567 54.3949 32.6072 54.2297C32.5411 54.0314 32.5741 54.0149 32.7559 54.1801C33.0532 54.4775 33.4827 54.4444 33.7471 54.1306C33.9288 53.8993 33.9123 53.8167 33.5488 53.5028C33.1689 53.1724 33.1523 53.1228 33.3836 52.7264C33.5984 52.3464 33.6645 52.3134 34.094 52.4786C34.3418 52.5777 34.5565 52.7098 34.5565 52.7759ZM16.1533 54.5931C16.4341 55.9478 16.4341 56.0964 16.1368 55.9808C16.0046 55.9312 15.8394 55.9973 15.7568 56.1295C15.5586 56.5094 13.857 55.766 13.9561 55.353C14.0057 55.1878 13.9231 54.9896 13.7909 54.907C13.5927 54.8079 13.8074 54.6096 14.6665 54.114C15.2942 53.7506 15.8394 53.4698 15.8724 53.5028C15.9055 53.5358 16.0211 54.0149 16.1533 54.5931ZM35.779 55.5678C35.6469 55.8486 35.4982 56.0469 35.4486 56.0138C35.3165 55.8817 35.746 54.8905 35.8947 54.9896C35.9773 55.0392 35.9277 55.3035 35.779 55.5678ZM19.2756 55.8486C19.1599 55.8817 18.9121 56.2947 18.7139 56.7903C18.4991 57.2859 18.2678 57.6989 18.1852 57.6989C18.0366 57.6989 18.2018 57.1702 18.6148 56.3608C18.7634 56.0799 18.846 55.766 18.813 55.6669C18.78 55.5513 18.8626 55.3861 19.0112 55.2704C19.226 55.1052 19.2921 55.1383 19.3747 55.4356C19.4242 55.6504 19.3747 55.8156 19.2756 55.8486ZM24.9419 57.8971C25.2393 58.1945 25.1897 58.7066 24.8097 59.3013C24.215 60.2925 23.0917 59.896 23.4055 58.8057C23.7029 57.8145 24.4298 57.385 24.9419 57.8971ZM27.1225 59.2683C26.8417 59.9952 26.28 61.0359 26.1974 60.9533C26.1479 60.9203 26.2965 60.4577 26.5278 59.9621C26.8913 59.1361 26.9078 59.037 26.66 58.9709C26.4948 58.9214 26.5774 58.8883 26.8252 58.8718C27.2382 58.8553 27.2712 58.8883 27.1225 59.2683ZM17.5905 59.5161C17.6401 59.6978 17.5905 59.8465 17.4914 59.8465C17.3758 59.8465 17.1114 60.2595 16.8967 60.7551C16.6819 61.2507 16.4506 61.6637 16.368 61.6637C16.2194 61.6637 16.3846 61.135 16.7976 60.3421C16.9462 60.0612 17.0123 59.7639 16.9462 59.6648C16.8802 59.5656 16.9462 59.417 17.0619 59.3344C17.4088 59.1196 17.4914 59.1526 17.5905 59.5161ZM29.1545 59.7804C29.2041 59.8465 29.1049 60.1769 28.9232 60.5238C28.7415 60.8872 28.6754 61.1681 28.7745 61.1681C28.8571 61.1681 28.9397 61.2342 28.9397 61.3333C28.9397 61.4159 28.8241 61.4489 28.6919 61.3994C28.5433 61.3333 28.4441 61.3994 28.4441 61.5646C28.4441 61.7132 28.3615 61.8289 28.2624 61.8289C28.1633 61.8289 28.1303 61.6967 28.1963 61.515C28.2624 61.2837 28.1633 61.1681 27.7833 61.0029C27.2051 60.7716 27.2547 60.656 28.2294 60.0778C28.9397 59.6648 29.0058 59.6482 29.1545 59.7804ZM31.0378 60.7881C30.9882 60.8212 30.79 60.7881 30.6083 60.6725C30.41 60.5734 30.1787 60.5403 30.0961 60.5899C29.8483 60.7386 29.8979 61.1185 30.1787 61.2342C30.5091 61.3498 30.5091 62.2584 30.1622 62.3906C29.7162 62.5558 29.3197 62.5062 29.1049 62.2254C28.9067 62.0106 28.9397 61.9941 29.3197 62.1758C29.6666 62.3245 29.8153 62.3245 30.0135 62.1593C30.377 61.8619 30.3109 61.515 29.8483 61.3002L29.4519 61.1185L29.7823 60.656C30.1127 60.1934 30.1292 60.1934 30.6248 60.4412C30.8891 60.5734 31.0873 60.7386 31.0378 60.7881ZM32.7559 62.2088L32.4255 62.5392L32.4585 62.1428C32.4585 61.928 32.5907 61.6637 32.7393 61.548C33.1358 61.2342 33.1689 61.8124 32.7559 62.2088ZM22.9595 61.6967C23.2734 62.0106 23.1908 62.9027 22.8108 63.3818C22.3648 63.96 21.6214 63.9269 21.5388 63.3322C21.4562 62.7705 21.6379 62.1923 22.0014 61.8289C22.3813 61.4489 22.6787 61.4159 22.9595 61.6967ZM25.6357 62.9027C25.6357 62.9688 25.5201 63.2166 25.3714 63.4974C25.2393 63.7782 25.1732 64.1417 25.2393 64.3399C25.3053 64.5712 25.2723 64.6373 25.1567 64.5712C25.0575 64.5051 24.9254 64.5712 24.8758 64.7033C24.7271 65.0833 24.4463 65.0172 24.5619 64.6373C24.6445 64.3895 24.5619 64.2573 24.2481 64.1086C24.0168 64.0095 23.8185 63.8774 23.8185 63.8278C23.8185 63.7617 24.1324 63.5304 24.5289 63.2826C25.1897 62.8696 25.6357 62.721 25.6357 62.9027ZM15.7238 63.2992C15.7238 63.3818 15.7733 63.58 15.8394 63.7452C15.9055 63.9434 15.889 63.993 15.7568 63.9104C15.6246 63.8443 15.3934 64.1252 15.1125 64.7033C14.5343 65.9093 14.2865 65.9093 14.8152 64.7033C15.0464 64.1912 15.1786 63.6956 15.129 63.613C15.063 63.5139 15.129 63.3818 15.2447 63.2992C15.542 63.1174 15.7238 63.1174 15.7238 63.2992ZM27.2877 63.7122C27.2877 63.7452 27.1721 64.0426 27.0234 64.3895C26.8913 64.7199 26.8087 65.0337 26.8582 65.0833C26.9243 65.1494 26.3791 65.7937 26.2305 65.7937C26.1974 65.7937 26.2139 65.6119 26.247 65.3972C26.3131 65.0833 26.247 64.9842 25.9001 64.9016C25.3053 64.7529 25.3549 64.5712 26.1809 64.0756C26.8087 63.6956 27.2877 63.547 27.2877 63.7122ZM23.2403 64.1417C23.2899 64.2243 23.2569 64.3069 23.1743 64.3069C23.0751 64.3069 22.9926 64.2243 22.9926 64.1417C22.9926 64.0426 23.0256 63.9765 23.0586 63.9765C23.1082 63.9765 23.1908 64.0426 23.2403 64.1417ZM28.7415 64.3399C29.0554 64.6538 28.9728 65.5459 28.5928 66.0249C28.1468 66.6031 27.4034 66.5701 27.3208 65.9754C27.2382 65.4137 27.4199 64.8355 27.7833 64.4721C28.1633 64.0921 28.4607 64.0591 28.7415 64.3399ZM13.1466 64.852C13.5596 65.3807 13.5762 65.5128 13.5762 67.5778V69.7585H13.1632C12.8823 69.7585 12.7502 69.8576 12.7336 70.0393C12.7171 70.3201 12.7006 70.3201 12.6345 70.0393C12.585 69.8741 12.4032 69.7585 12.1554 69.7585H11.759V67.0327V64.3069H12.238C12.6015 64.3069 12.8493 64.4556 13.1466 64.852ZM21.1754 65.7111C21.1754 65.7771 20.3494 67.5778 20.2337 67.7595C20.2007 67.7926 20.1511 67.7926 20.1016 67.743C20.052 67.6935 20.1842 67.2309 20.4154 66.7353C20.7789 65.9093 20.7954 65.8102 20.5476 65.7441C20.3824 65.6945 20.465 65.6615 20.7293 65.645C20.9771 65.645 21.1754 65.6615 21.1754 65.7111ZM23.4881 66.7023C23.769 66.8509 23.9837 67.0161 23.9837 67.0822C23.9672 67.2639 22.1666 68.6516 22.0674 68.569C22.0179 68.5195 22.3483 68.1891 22.8108 67.8421C23.2734 67.4787 23.6368 67.1483 23.6533 67.0987C23.6533 67.0492 23.4055 66.884 23.1247 66.7353C22.8274 66.6031 22.6787 66.471 22.7943 66.471C22.91 66.4545 23.2238 66.5701 23.4881 66.7023ZM25.1567 67.4457C25.5201 67.6439 25.5862 68.4369 25.2393 68.4369C25.0906 68.4369 25.0245 68.6186 25.041 68.9655C25.0575 69.4446 25.008 69.5107 24.595 69.5602C24.3307 69.5933 24.0168 69.5272 23.8846 69.4115C23.5377 69.1307 23.6038 68.5855 23.9837 68.4864C24.2315 68.4203 24.2811 68.3047 24.215 68.0239C24.1489 67.7595 24.215 67.5943 24.4298 67.4622C24.8097 67.2474 24.7767 67.2474 25.1567 67.4457ZM11.1973 68.6021H11.5938V70.5845V72.5669H11.1808C10.8669 72.5669 10.7678 72.6495 10.7512 72.9303V73.3103L10.6026 72.9303C10.52 72.7321 10.3052 72.5669 10.1235 72.5669C9.84264 72.5669 9.79308 72.4347 9.74352 71.7739C9.71048 71.3444 9.71048 70.4523 9.74352 69.7915C9.79308 68.6516 9.82612 68.6021 10.2061 68.6021C10.52 68.6021 10.6026 68.5195 10.6191 68.1395L10.6521 67.6935L10.7182 68.1395C10.7678 68.5029 10.8834 68.6021 11.1973 68.6021ZM21.5058 68.1065C21.5058 68.1891 21.4397 68.2717 21.3406 68.2717C21.258 68.2717 21.1754 68.1891 21.1754 68.1065C21.1754 68.0073 21.258 67.9413 21.3406 67.9413C21.4397 67.9413 21.5058 68.0073 21.5058 68.1065ZM19.3416 69.5767C19.6555 69.775 19.606 70.6671 19.2756 71.1792C18.8791 71.7739 18.6478 71.6583 19.0278 71.0305C19.3747 70.4688 19.4573 69.8411 19.2095 69.6924C18.9452 69.5272 18.5487 69.775 18.3339 70.2541C18.2183 70.5184 18.0696 70.6836 18.0035 70.6505C17.9374 70.601 17.987 70.3532 18.1192 70.0889C18.433 69.4776 18.8791 69.2794 19.3416 69.5767ZM21.671 70.7166C22.0344 71.014 22.0014 71.5757 21.6049 71.5757C21.5058 71.5757 21.4232 71.8235 21.4232 72.1043C21.4232 72.5999 21.3736 72.6495 20.911 72.699C20.5972 72.7321 20.3163 72.6495 20.1842 72.5008C20.052 72.3356 20.052 72.2365 20.1511 72.2365C20.2502 72.2365 20.3824 72.3025 20.432 72.4017C20.5972 72.666 21.1258 72.5999 21.2414 72.3025C21.3075 72.1373 21.2249 71.8895 21.0762 71.7243C20.8119 71.427 20.8119 71.4105 21.1423 71.4105C21.671 71.4105 21.7701 71.0635 21.3406 70.7166C21.1423 70.5514 21.0432 70.4193 21.1423 70.4193C21.2249 70.4193 21.4727 70.5514 21.671 70.7166ZM8.78536 71.4105C8.78536 71.7904 8.86796 71.9061 9.09924 71.9061C9.3966 71.9061 9.42964 72.0547 9.4792 73.8059C9.51224 74.8631 9.51224 75.7883 9.4792 75.8709C9.44616 75.97 9.28096 76.0361 9.09924 76.0361C8.88448 76.0361 8.78536 76.1517 8.76884 76.3995V76.7795L8.62016 76.3995C8.53756 76.2013 8.3228 76.0361 8.14108 76.0361C7.95936 76.0361 7.77764 75.9369 7.7446 75.8213C7.69504 75.7222 7.64548 76.2673 7.64548 77.0603C7.62896 78.4975 7.62896 78.5141 7.21597 78.5141C6.93513 78.5141 6.80297 78.6132 6.78645 78.7949C6.76993 79.0757 6.75341 79.0757 6.68733 78.7949C6.63777 78.6297 6.45605 78.5141 6.22477 78.5141C5.84481 78.5141 5.82829 78.4645 5.77873 77.0273C5.74569 76.2013 5.76221 75.4579 5.77873 75.3753C5.81177 75.2761 6.02653 75.2101 6.24129 75.2101C6.57169 75.2101 6.63777 75.1275 6.67081 74.6649L6.68733 74.1363L6.75341 74.6649C6.80297 75.1109 6.90209 75.2101 7.21597 75.2101C7.43072 75.2101 7.64548 75.3092 7.67852 75.4083C7.72808 75.5239 7.77764 74.7971 7.77764 73.7728C7.79416 71.9887 7.81068 71.9226 8.17412 71.873C8.45496 71.84 8.53756 71.7243 8.50452 71.3609C8.488 71.1131 8.53756 70.9149 8.63668 70.9149C8.71928 70.9149 8.78536 71.1296 8.78536 71.4105ZM19.6886 72.0713C19.6886 72.1539 19.6225 72.2365 19.5234 72.2365C19.4408 72.2365 19.3582 72.1539 19.3582 72.0713C19.3582 71.9721 19.4408 71.9061 19.5234 71.9061C19.6225 71.9061 19.6886 71.9721 19.6886 72.0713ZM94.9371 74.0867C94.9866 75.557 94.7719 75.6891 94.6562 74.2684C94.6067 73.7563 94.491 73.2937 94.3919 73.2607C94.1276 73.1781 94.3589 72.7155 94.6397 72.7651C94.8214 72.7981 94.904 73.1285 94.9371 74.0867ZM92.4426 73.1451C92.8556 73.5581 92.9547 74.4832 92.6408 74.9623C92.3269 75.4579 92.0296 75.4909 91.6661 75.0779C91.2366 74.5988 91.1375 73.7893 91.4514 73.3103C91.7652 72.8312 92.0791 72.7816 92.4426 73.1451ZM90.8071 73.5746C90.9062 73.8719 90.5428 74.7805 90.2289 74.9623C89.8985 75.1605 90.0802 75.3092 90.6088 75.2596C91.0384 75.2101 91.0714 75.2431 90.8071 75.3587C90.6254 75.4413 90.2784 75.5239 90.0141 75.5239L89.5681 75.5405L90.0637 74.8466C90.7245 73.938 90.6749 73.4589 89.948 73.492C89.3203 73.525 89.2542 73.4424 89.7663 73.2442C90.2619 73.0625 90.6914 73.1946 90.8071 73.5746ZM88.8082 74.0537C88.8577 74.4171 88.9899 74.7145 89.089 74.7145C89.2212 74.7145 89.2212 74.7971 89.0725 74.9623C88.9568 75.0944 88.9073 75.3257 88.9734 75.4579C89.0229 75.59 88.9899 75.7057 88.9073 75.7057C88.8082 75.7057 88.7421 75.557 88.7421 75.3587C88.7421 75.0614 88.6595 75.0118 88.1639 75.0779C87.85 75.1109 87.5857 75.0779 87.5857 74.9953C87.5857 74.764 88.4282 73.3929 88.5769 73.3929C88.643 73.3929 88.7421 73.6902 88.8082 74.0537ZM86.2145 73.9215C86.4789 74.2519 86.611 75.0118 86.4954 75.4579C86.3797 75.9369 85.7189 76.1682 85.3555 75.8709C85.0251 75.59 84.8599 74.5988 85.0912 74.1197C85.2894 73.6902 85.9337 73.5746 86.2145 73.9215ZM87.4205 75.6065C87.4205 75.6561 87.3544 75.7387 87.2553 75.7883C87.1727 75.8378 87.0901 75.8048 87.0901 75.7222C87.0901 75.6231 87.1727 75.5405 87.2553 75.5405C87.3544 75.5405 87.4205 75.5735 87.4205 75.6065ZM93.1199 77.3577C93.0703 77.4403 92.839 77.5229 92.6078 77.5229C92.3269 77.5229 92.2113 77.6055 92.2113 77.8533C92.2113 78.0845 92.3269 78.1837 92.5912 78.1837C92.806 78.1837 93.0538 78.2663 93.1694 78.3819C93.4668 78.6793 93.4007 79.307 93.0538 79.5053C92.6573 79.7035 92.0461 79.72 92.0461 79.5218C92.0461 79.4392 92.1782 79.4061 92.36 79.4557C92.5252 79.4887 92.773 79.4061 92.9216 79.2575C93.3016 78.894 93.0042 78.3489 92.4591 78.3489C92.1122 78.3489 92.0461 78.2663 92.0461 77.8698C92.0461 77.4898 92.1287 77.3577 92.426 77.3081C93.0868 77.1759 93.219 77.1925 93.1199 77.3577ZM91.0549 78.1837C91.0549 78.6958 91.121 78.8445 91.3522 78.861C91.5174 78.861 91.5505 78.9105 91.4348 78.9601C91.3192 78.9931 91.2201 79.1914 91.2201 79.3896C91.2036 79.72 91.187 79.7365 90.9888 79.4557C90.8732 79.307 90.5758 79.1749 90.328 79.1749C89.7994 79.1749 89.7994 79.1088 90.2619 78.2167C90.741 77.3246 91.0549 77.3081 91.0549 78.1837ZM89.3698 78.2497C89.4029 78.5471 89.3038 78.9105 89.089 79.1914C88.6264 79.8026 88.643 79.8852 89.2377 79.8026C89.5185 79.7531 89.7333 79.7861 89.7333 79.8522C89.7333 79.9183 89.4029 80.0009 88.9899 80.0339C88.5769 80.0669 88.2465 80.0669 88.2465 80.0339C88.2465 80.0174 88.4778 79.687 88.7421 79.307C89.3038 78.5306 89.3533 78.3158 88.9734 78.0019C88.7751 77.8367 88.643 77.8367 88.3952 77.9854C88.23 78.1011 88.0813 78.1176 88.0813 78.035C88.0813 77.8202 88.4117 77.7046 88.9073 77.7376C89.2377 77.7707 89.3368 77.8698 89.3698 78.2497ZM86.6606 78.3819C86.9414 78.7784 87.024 79.9183 86.7927 80.0669C86.7101 80.1165 86.6441 79.8026 86.6441 79.3896C86.6441 78.7949 86.5615 78.5636 86.2806 78.3158C85.9998 78.1011 85.9667 78.0185 86.1485 78.0185C86.2971 78.0185 86.5284 78.1837 86.6606 78.3819ZM87.7509 80.0009C87.7509 80.0835 87.6683 80.1661 87.5692 80.1661C87.4866 80.1661 87.4535 80.0835 87.5031 80.0009C87.5527 79.9017 87.6353 79.8357 87.6848 79.8357C87.7179 79.8357 87.7509 79.9017 87.7509 80.0009ZM10.107 83.4205C10.4869 85.9315 10.7512 86.774 11.1642 86.774C11.346 86.774 11.792 87.2696 11.825 87.5174C11.8416 87.6826 10.7182 88.0461 9.03316 88.426L7.71156 88.7234L7.18293 87.6166C6.90209 87.0218 6.65429 86.4436 6.65429 86.3445C6.63777 86.0967 9.44616 80.8269 9.59484 80.8269C9.66092 80.8269 9.8922 81.9998 10.107 83.4205ZM93.1694 81.7685C92.6243 81.8511 92.4921 82.4789 93.0208 82.4789C93.4007 82.4789 93.8633 82.8919 93.8633 83.2223C93.8633 83.6022 93.3677 83.9656 92.9051 83.9491C92.4756 83.9326 92.4921 83.9326 93.0042 83.7839C93.3512 83.6848 93.5329 83.5196 93.5329 83.3214C93.5329 82.9249 93.1199 82.578 92.7895 82.7101C92.5912 82.7762 92.5417 82.6771 92.5417 82.2311C92.5417 81.6859 92.5747 81.6529 93.0868 81.6694C93.5824 81.7024 93.5824 81.7024 93.1694 81.7685ZM91.6331 82.4128C91.6331 82.6936 91.7322 83.0405 91.8644 83.1892C92.1452 83.5527 91.9965 83.9161 91.4679 84.1639C91.1375 84.3126 91.0053 84.3126 90.8401 84.1308C90.6749 83.9656 90.6914 83.9326 90.8897 83.9987C91.2201 84.1143 91.7157 83.85 91.7157 83.5527C91.7157 83.4205 91.5174 83.2057 91.2696 83.0736C90.9558 82.9084 90.8897 82.8258 91.0879 82.8093C91.4679 82.8093 91.6166 82.5119 91.3688 82.2145C91.2531 82.0659 91.0384 82.0163 90.8401 82.0824C90.6254 82.1485 90.5593 82.1319 90.6419 81.9833C90.708 81.8841 90.9558 81.8181 91.187 81.8511C91.567 81.9007 91.6331 81.9833 91.6331 82.4128ZM89.7333 82.2311C89.8489 82.3797 89.882 82.5945 89.7994 82.7597C89.6837 83.024 89.6672 83.0075 89.6176 82.6771C89.5516 82.3137 89.4359 82.2476 88.8247 82.2971C88.5438 82.3302 88.5438 82.2971 88.7421 82.165C89.089 81.9172 89.502 81.9502 89.7333 82.2311ZM89.7994 83.1892C90.2454 83.5031 90.0802 84.1639 89.5185 84.3621C89.1881 84.4778 89.0229 84.4612 88.8577 84.3126C88.6925 84.1308 88.7256 84.1143 89.0064 84.1969C89.4359 84.3291 89.9315 83.9161 89.7994 83.5527C89.7333 83.4205 89.5516 83.3049 89.3864 83.3049C89.2212 83.3049 89.0725 83.2223 89.0725 83.1397C89.0725 82.9084 89.4524 82.9414 89.7994 83.1892ZM88.3291 84.296C88.3786 84.3786 88.3456 84.4612 88.263 84.4612C88.1639 84.4612 88.0813 84.3786 88.0813 84.296C88.0813 84.1969 88.1143 84.1308 88.1474 84.1308C88.1969 84.1308 88.2795 84.1969 88.3291 84.296Z" fill="#F0D9B9"/>
<path d="M118.031 12.8803C117.552 13.0455 118.048 14.7471 118.56 14.7471C118.923 14.7471 119.039 14.0202 118.742 13.4585C118.444 12.8803 118.312 12.7812 118.031 12.8803Z" fill="#F0D9B9"/>
<path d="M112.581 15.0111C112.432 15.4076 112.812 16.0684 113.192 16.0684C113.605 16.0684 113.754 15.7214 113.622 15.1598C113.539 14.8624 113.407 14.7468 113.093 14.7468C112.878 14.7468 112.647 14.8624 112.581 15.0111Z" fill="#F0D9B9"/>
<path d="M101.678 17.6722C101.381 17.7878 101.414 18.6303 101.711 18.8781C101.843 18.9938 102.074 19.0433 102.207 18.9772C102.504 18.8616 102.537 18.0356 102.256 17.7548C102.041 17.54 101.992 17.54 101.678 17.6722Z" fill="#F0D9B9"/>
<path d="M103.544 17.3248C103.411 17.6882 103.461 17.7213 103.907 17.6056C104.105 17.5561 104.27 17.4074 104.27 17.2918C104.27 16.9614 103.659 17.0109 103.544 17.3248Z" fill="#F0D9B9"/>
<path d="M99.8767 18.9429C99.6289 19.1246 99.6124 19.2237 99.761 19.3889C100.025 19.6533 100.471 19.455 100.471 19.042C100.471 18.6455 100.323 18.629 99.8767 18.9429Z" fill="#F0D9B9"/>
<path d="M115.223 19.6529C114.959 19.752 114.942 20.132 115.174 20.2807C115.388 20.4128 115.834 20.0659 115.834 19.7685C115.834 19.5373 115.603 19.4877 115.223 19.6529Z" fill="#F0D9B9"/>
<path d="M113.143 19.4715C113.077 19.5376 113.027 19.6863 113.027 19.8019C113.027 20.0497 113.82 19.8845 113.886 19.6202C113.936 19.422 113.308 19.3063 113.143 19.4715Z" fill="#F0D9B9"/>
<path d="M104.666 21.7682C104.6 21.9168 104.6 22.0655 104.65 22.1151C104.815 22.2803 105.443 21.9994 105.376 21.8012C105.277 21.4873 104.782 21.4708 104.666 21.7682Z" fill="#F0D9B9"/>
<path d="M99.992 23.7339C99.8433 23.8991 99.8598 23.9982 100.042 24.1634C100.355 24.4112 100.636 24.246 100.636 23.8165C100.636 23.453 100.273 23.4035 99.992 23.7339Z" fill="#F0D9B9"/>
<path d="M111.821 24.5936C111.557 24.8744 111.722 25.1057 112.118 25.0231C112.35 24.99 112.515 24.8579 112.482 24.7588C112.416 24.544 111.986 24.4284 111.821 24.5936Z" fill="#F0D9B9"/>
<path d="M105.61 26.9554C105.329 27.1371 105.494 27.6988 105.808 27.5997C106.023 27.5171 106.188 26.8067 105.973 26.8067C105.907 26.8067 105.742 26.8728 105.61 26.9554Z" fill="#F0D9B9"/>
<path d="M100.24 27.7312C100.091 28.1111 100.19 28.1607 100.702 28.0285C101.214 27.9129 101.198 27.5825 100.686 27.4999C100.488 27.4669 100.306 27.566 100.24 27.7312Z" fill="#F0D9B9"/>
<path d="M113.075 29.8788C112.927 30.2587 113.29 30.5396 113.604 30.2752C113.736 30.1596 113.852 29.9614 113.852 29.8457C113.852 29.5318 113.208 29.5484 113.075 29.8788Z" fill="#F0D9B9"/>
<path d="M109.177 30.0449C109.111 30.111 109.062 30.3753 109.062 30.6231C109.062 31.2178 109.541 31.5152 109.987 31.2013C110.234 31.0031 110.267 30.8874 110.135 30.491C109.97 30.0449 109.441 29.7971 109.177 30.0449Z" fill="#F0D9B9"/>
<path d="M121.865 30.7226C121.37 30.9869 121.37 30.9869 121.749 31.1521C122.047 31.2843 122.162 31.2513 122.361 31.0035C122.823 30.3922 122.658 30.2931 121.865 30.7226Z" fill="#F0D9B9"/>
<path d="M104.651 31.3489C104.519 31.6959 104.602 31.7454 105.13 31.6463C105.411 31.5967 105.543 31.4811 105.477 31.3324C105.362 31.0186 104.783 31.0351 104.651 31.3489Z" fill="#F0D9B9"/>
<path d="M123.549 31.399C123.219 31.7624 122.905 32.5719 123.037 32.7701C123.367 33.3153 124.424 32.3737 124.424 31.5312C124.424 31.019 123.962 30.9364 123.549 31.399Z" fill="#F0D9B9"/>
<path d="M100.636 32.3572C100.289 32.7537 100.62 33.4971 101.132 33.4971C101.462 33.4971 101.561 33.398 101.594 33.0345C101.693 32.2416 101.082 31.812 100.636 32.3572Z" fill="#F0D9B9"/>
<path d="M112.085 34.158C111.953 34.5214 112.085 34.604 112.581 34.4884C112.862 34.4058 112.977 34.2902 112.911 34.1415C112.796 33.8276 112.217 33.8441 112.085 34.158Z" fill="#F0D9B9"/>
<path d="M119.65 34.124C119.518 34.2892 119.535 34.4379 119.716 34.6692C119.931 34.9665 119.964 34.9665 120.228 34.7022C120.46 34.4709 120.476 34.3718 120.294 34.1736C120.047 33.8597 119.898 33.8432 119.65 34.124Z" fill="#F0D9B9"/>
<path d="M118.973 35.1327C118.675 35.4961 118.89 35.8926 119.386 35.8926C119.766 35.8926 119.815 35.8265 119.766 35.4465C119.716 34.9179 119.287 34.7692 118.973 35.1327Z" fill="#F0D9B9"/>
<path d="M120.956 35.5958C120.775 35.8932 120.626 36.3062 120.626 36.521C120.626 37.0992 121.27 36.934 121.749 36.2401C122.195 35.5628 122.162 35.1663 121.667 35.1002C121.402 35.0672 121.204 35.1994 120.956 35.5958Z" fill="#F0D9B9"/>
<path d="M106.699 35.5126C106.5 35.7109 106.583 36.3552 106.831 36.6195C107.343 37.1151 107.938 36.4047 107.574 35.7274C107.409 35.4135 106.913 35.2814 106.699 35.5126Z" fill="#F0D9B9"/>
<path d="M100.587 37.0654C100.438 37.1645 100.306 37.3958 100.306 37.6106C100.306 38.4201 101.33 38.6513 101.429 37.8584C101.495 37.3132 101 36.8507 100.587 37.0654Z" fill="#F0D9B9"/>
<path d="M112.2 39.6093C111.985 39.8736 112.101 40.1875 112.448 40.1875C112.696 40.1875 112.911 39.7415 112.762 39.5102C112.63 39.2954 112.431 39.3285 112.2 39.6093Z" fill="#F0D9B9"/>
<path d="M106.171 40.4519C105.874 40.7493 105.857 40.9145 106.088 41.3605C106.32 41.7735 106.848 41.757 107.08 41.344C107.426 40.6997 106.667 39.9563 106.171 40.4519Z" fill="#F0D9B9"/>
<path d="M113.159 44.0035C112.993 44.1026 112.861 44.2843 112.861 44.4C112.861 44.7304 113.506 44.7138 113.638 44.3834C113.77 44.02 113.506 43.8052 113.159 44.0035Z" fill="#F0D9B9"/>
<path d="M109.838 44.1851C109.276 44.4824 109.59 45.4736 110.251 45.4736C110.631 45.4736 110.779 45.1102 110.647 44.5816C110.532 44.119 110.218 43.9538 109.838 44.1851Z" fill="#F0D9B9"/>
<path d="M104.502 45.722C104.353 46.0689 104.436 46.1185 104.981 46.0194C105.51 45.9202 105.493 45.5898 104.965 45.5072C104.75 45.4742 104.552 45.5568 104.502 45.722Z" fill="#F0D9B9"/>
<path d="M29.2865 46.3994C28.8405 46.9776 28.824 47.7871 29.2535 47.7871C29.7821 47.7871 30.3438 46.6472 30.0464 46.1682C29.8482 45.8708 29.6665 45.9204 29.2865 46.3994Z" fill="#F0D9B9"/>
<path d="M101.001 46.4984C100.704 46.7957 100.77 46.9609 101.183 46.9609C101.678 46.9609 101.844 46.7957 101.612 46.5149C101.381 46.2506 101.249 46.2506 101.001 46.4984Z" fill="#F0D9B9"/>
<path d="M106.452 49.9842C106.337 50.1164 106.287 50.2486 106.337 50.2981C106.502 50.4633 107.262 50.232 107.196 50.0338C107.096 49.753 106.667 49.7199 106.452 49.9842Z" fill="#F0D9B9"/>
<path d="M27.7347 50.1658C27.6025 50.298 27.4043 50.6284 27.2887 50.9258C27.1069 51.3718 27.1069 51.4874 27.3217 51.7022C27.553 51.9335 27.6191 51.917 27.9329 51.6031C28.3129 51.2231 28.5277 50.5623 28.379 50.1824C28.2633 49.8685 28.0486 49.8685 27.7347 50.1658Z" fill="#F0D9B9"/>
<path d="M31.8143 51.9989C31.6987 52.2963 31.8639 52.5771 32.1777 52.5771C32.5081 52.5771 32.6733 52.0815 32.3925 51.8998C32.0621 51.7016 31.9134 51.7181 31.8143 51.9989Z" fill="#F0D9B9"/>
<path d="M31.3191 52.9745C31.1704 53.3709 31.3686 53.7344 31.7486 53.7344C32.0294 53.7344 32.0955 53.6518 32.046 53.2883C31.9964 52.7762 31.4843 52.5615 31.3191 52.9745Z" fill="#F0D9B9"/>
<path d="M23.8193 58.5583C23.4889 59.3182 23.5384 59.6816 24.001 59.6816C24.3644 59.6816 24.8105 58.9052 24.8105 58.2774C24.8105 57.9636 24.7279 57.8644 24.4801 57.8644C24.2323 57.8644 24.034 58.0627 23.8193 58.5583Z" fill="#F0D9B9"/>
<path d="M28.3778 60.2596C28.2126 60.3917 27.9813 60.5239 27.8822 60.5735C27.7665 60.623 27.7831 60.7056 27.9483 60.8213C28.3282 61.0856 28.4439 61.036 28.6256 60.5735C28.8238 60.0283 28.7743 59.9787 28.3778 60.2596Z" fill="#F0D9B9"/>
<path d="M22.183 62.0099C21.8196 62.4064 21.5883 63.1993 21.7535 63.4802C21.9518 63.794 22.3317 63.6454 22.6621 63.1002C23.0586 62.4724 23.0751 62.109 22.7612 61.8447C22.5795 61.6795 22.4474 61.729 22.183 62.0099Z" fill="#F0D9B9"/>
<path d="M24.6113 63.4476C24.0661 63.778 24.0331 63.9102 24.4791 64.0258C24.7269 64.0919 24.8756 63.9928 25.0573 63.6293C25.3381 63.0842 25.2555 63.0511 24.6113 63.4476Z" fill="#F0D9B9"/>
<path d="M26.2471 64.2741C25.7845 64.588 25.801 64.8027 26.2966 64.8027C26.4453 64.8027 26.6601 64.621 26.7592 64.3897C26.9905 63.8941 26.8748 63.8776 26.2471 64.2741Z" fill="#F0D9B9"/>
<path d="M27.9653 64.6534C27.6018 65.0499 27.3706 65.8429 27.5358 66.1237C27.734 66.4376 28.114 66.2889 28.4443 65.7438C28.8408 65.116 28.8573 64.7526 28.5435 64.4882C28.3617 64.323 28.2296 64.3726 27.9653 64.6534Z" fill="#F0D9B9"/>
<path d="M24.6944 67.561C24.43 67.6601 24.4135 68.2052 24.6613 68.3704C24.7604 68.42 24.9587 68.3539 25.1074 68.2052C25.3386 67.974 25.3386 67.9079 25.1404 67.7096C25.0082 67.594 24.7935 67.5114 24.6944 67.561Z" fill="#F0D9B9"/>
<path d="M24.083 68.7009C23.7526 69.0313 23.9343 69.4277 24.4134 69.4277C24.7272 69.4277 24.8098 69.3451 24.8098 69.0313C24.8098 68.5522 24.4134 68.3705 24.083 68.7009Z" fill="#F0D9B9"/>
<path d="M91.7488 73.2612C91.2532 73.7568 91.7984 75.4584 92.3105 75.0288C92.6244 74.7645 92.6078 73.6412 92.2774 73.3273C91.9636 73.0134 91.9966 73.0134 91.7488 73.2612Z" fill="#F0D9B9"/>
<path d="M88.1963 74.2016C87.8328 74.8128 87.8494 74.8789 88.2458 74.8789C88.5102 74.8789 88.5762 74.7633 88.5762 74.3007C88.5762 73.9868 88.5597 73.7225 88.5267 73.7225C88.5102 73.7225 88.3615 73.9373 88.1963 74.2016Z" fill="#F0D9B9"/>
<path d="M85.3894 74.0032C85.2077 74.1684 85.2572 75.1927 85.439 75.5561C85.7859 76.2004 86.265 75.8369 86.265 74.9449C86.265 74.1684 85.7528 73.6233 85.3894 74.0032Z" fill="#F0D9B9"/>
<path d="M90.3618 78.4481L90.0645 79.0098H90.4775C90.8244 79.0098 90.8905 78.9272 90.8905 78.5307C90.8905 77.8368 90.6922 77.8038 90.3618 78.4481Z" fill="#F0D9B9"/>
<path d="M94.0299 15.6552C92.1466 15.9691 87.8184 17.142 85.0761 18.0671C82.565 18.9096 78.8646 20.5616 73.7103 23.1553L70.8193 24.609L70.8359 28.0947C70.8359 30.0111 70.8854 31.63 70.9185 31.6796C71.0176 31.7622 73.446 30.9692 74.7181 30.4241C75.2137 30.2093 75.6597 29.8293 76.0562 29.3172C76.3701 28.8877 77.2786 27.6652 78.0551 26.6079C78.848 25.5507 79.8062 24.4273 80.1696 24.0969C81.1113 23.3039 82.7137 22.6597 85.8195 21.8667C90.2303 20.7103 90.7259 20.446 92.6422 18.2819C93.27 17.555 94.129 16.6299 94.5586 16.1838C95.0046 15.7543 95.335 15.4074 95.302 15.4239C95.2854 15.4404 94.7072 15.5396 94.0299 15.6552Z" fill="#F0D9B9"/>
<path d="M26.1313 68.6848C26.0157 68.817 25.9992 68.9326 26.0983 68.9326C26.1809 68.9326 26.3461 68.817 26.4617 68.6848C26.5774 68.5527 26.5939 68.437 26.4948 68.437C26.4122 68.437 26.247 68.5527 26.1313 68.6848Z" fill="#F0D9B9"/>
</svg>
