<svg width="126" height="134" viewBox="0 0 126 134" fill="none" xmlns="http://www.w3.org/2000/svg">
<mask id="mask0_1516_10354" style="mask-type:luminance" maskUnits="userSpaceOnUse" x="13" y="0" width="113" height="76">
<path d="M13.1289 0.126953L125.14 0.126953V75.4488H13.1289V0.126953Z" fill="white"/>
</mask>
<g mask="url(#mask0_1516_10354)">
<path d="M15.9757 74.9603C15.9757 74.9603 24.9229 52.0891 46.3295 42.0593C46.3295 42.0593 48.0714 31.9968 50.6794 30.9873V45.5654C50.6794 45.5654 52.4308 32.4961 55.9145 25.9724V44.5667C55.9145 44.5667 57.6563 30.488 61.14 23.4649V38.5423C61.14 38.5423 62.8819 25.473 82.0898 24.9737C82.0898 24.9737 82.0898 19.4486 91.6937 21.9561L125.103 22.2274C125.103 22.2274 94.5397 2.63442 50.8888 16.203C50.8888 16.203 49.147 1.1256 22.5148 0.126953C22.5148 0.126953 34.3079 11.1881 27.3025 22.2274C27.3025 22.1949 9.41758 46.8354 15.9757 74.9603Z" fill="#F0D9B9"/>
</g>
<mask id="mask1_1516_10354" style="mask-type:luminance" maskUnits="userSpaceOnUse" x="0" y="44" width="106" height="90">
<path d="M0.870117 44.8818H105.724V133.512H0.870117L0.870117 44.8818Z" fill="white"/>
</mask>
<g mask="url(#mask1_1516_10354)">
<path d="M65.4991 62.6512C46.3007 63.1506 58.5317 46.5752 58.5317 46.5752C30.1482 49.582 18.7928 78.2388 18.7928 78.2388C21.8482 94.3149 59.8357 88.3013 59.8357 88.3013C78.1585 93.8155 59.3979 108.394 59.3979 108.394H6.57134L0.898438 133.002H72.4951C92.1313 133.512 106.98 103.845 105.229 79.2375C103.487 54.6295 65.4991 62.6512 65.4991 62.6512Z" fill="#F0D9B9"/>
</g>
</svg>
