<svg width="298" height="432" viewBox="0 0 298 432" fill="none" xmlns="http://www.w3.org/2000/svg">
<path d="M93.444 199.761C96.5846 196.344 97.569 193.058 98.2096 189.99L95.8294 189.428C86.1523 190.902 77.5742 191.631 69.7826 191.636H69.7773C68.1523 191.631 66.5898 191.594 65.0586 191.527V212.49C81.319 208.923 89.3659 204.199 93.444 199.761Z" fill="#F0D9B9"/>
<path d="M140.988 431.598C153.41 431.598 163.488 421.531 163.488 409.098V120.687C172.759 119.661 185.9 117.702 200.895 113.979C229.686 106.749 265.624 93.1244 293.436 65.4368C299.119 59.7546 299.119 50.5358 293.436 44.8535C287.749 39.166 278.535 39.166 272.848 44.8535C250.915 66.9056 219.744 79.3327 193.853 85.7233C180.941 88.9421 169.426 90.6973 161.228 91.64C157.322 92.0879 154.197 92.3483 152.004 92.4994C151.165 92.3431 150.306 92.2546 149.421 92.2546H79.1186C78.78 92.2546 78.4415 92.2806 78.1082 92.3066C78.0613 92.3066 78.0196 92.2962 77.9727 92.2962C69.7852 92.4681 63.7227 95.4941 57.7852 99.0983C49.0196 104.676 40.8529 112.572 34.1967 121.744C27.7123 130.958 22.3321 141.255 22.1134 153.63C22.1134 153.656 22.1134 153.682 22.1134 153.708C22.1029 158.348 23.0457 163.348 25.3998 168.005C28.8894 175.077 35.4571 180.536 42.9936 183.567C50.6029 186.676 59.3269 187.973 69.7852 187.994C78.7644 187.989 89.0665 186.989 101.108 184.88C109.025 183.489 114.322 175.942 112.931 168.025C111.546 160.104 103.994 154.812 96.0821 156.202C85.3061 158.093 76.5665 158.88 69.7852 158.874C59.1915 158.937 53.6759 156.791 52.2332 155.682C51.4467 155.119 51.4675 154.989 51.405 154.916C51.3738 154.827 51.2332 154.598 51.228 153.708C51.2227 153.525 51.228 153.317 51.2488 153.088C51.3738 151.359 52.2071 148.275 54.0457 144.822C56.4988 140.036 60.655 134.702 65.0561 130.39V155.098C66.3477 155.187 67.7696 155.239 69.3425 155.239H69.7644C76.9207 155.239 85.5405 154.354 95.4571 152.619C96.4988 152.432 97.5613 152.343 98.6134 152.343C99.6759 152.343 100.728 152.442 101.749 152.619L105.66 131.942C102.499 128.406 101.056 123.437 102.228 118.473C104.145 110.411 112.233 105.416 120.296 107.327C128.369 109.244 133.358 117.333 131.447 125.395C130.27 130.364 126.749 134.156 122.337 135.9L114.801 162.286C115.598 163.864 116.197 165.577 116.514 167.4C117.353 172.182 116.28 177.015 113.488 180.994C112.009 183.104 110.129 184.822 107.988 186.114L106.332 191.916L101.749 190.827C101.056 194.124 99.8165 198.244 96.1134 202.234C91.1811 207.546 82.2071 212.531 65.0561 216.213V409.098C65.0561 421.531 75.1342 431.598 87.5509 431.598C99.978 431.598 110.051 421.531 110.051 409.098V244.838H118.488V409.098C118.488 421.525 128.566 431.598 140.988 431.598Z" fill="#F0D9B9"/>
<path d="M155.217 40.9427C155.217 42.2813 155.15 43.6198 155.02 44.9531C154.889 46.2865 154.691 47.6146 154.431 48.9271C154.165 50.2448 153.842 51.5417 153.452 52.8281C153.061 54.1094 152.613 55.3698 152.098 56.6094C151.587 57.849 151.014 59.0573 150.379 60.2396C149.749 61.4219 149.061 62.5729 148.316 63.6875C147.572 64.8021 146.775 65.8802 145.921 66.9167C145.072 67.9531 144.171 68.9427 143.223 69.8906C142.275 70.8385 141.285 71.7396 140.249 72.5885C139.212 73.4427 138.134 74.2396 137.02 74.9844C135.905 75.7292 134.754 76.4167 133.572 77.0469C132.389 77.6823 131.181 78.2552 129.941 78.7656C128.702 79.2813 127.441 79.7292 126.16 80.1198C124.874 80.5104 123.577 80.8333 122.259 81.099C120.947 81.3594 119.618 81.5573 118.285 81.6875C116.952 81.8177 115.613 81.8854 114.275 81.8854C112.931 81.8854 111.592 81.8177 110.259 81.6875C108.926 81.5573 107.603 81.3594 106.285 81.099C104.973 80.8333 103.671 80.5104 102.389 80.1198C101.103 79.7292 99.8424 79.2813 98.6029 78.7656C97.3685 78.2552 96.1549 77.6823 94.9727 77.0469C93.7904 76.4167 92.6393 75.7292 91.5247 74.9844C90.4102 74.2396 89.3372 73.4427 88.3008 72.5885C87.2643 71.7396 86.2695 70.8385 85.3216 69.8906C84.3737 68.9427 83.4727 67.9531 82.6237 66.9167C81.7747 65.8802 80.9727 64.8021 80.2279 63.6875C79.4831 62.5729 78.7956 61.4219 78.1654 60.2396C77.5299 59.0573 76.9622 57.849 76.4466 56.6094C75.931 55.3698 75.4831 54.1094 75.0924 52.8281C74.7018 51.5417 74.3789 50.2448 74.1185 48.9271C73.8529 47.6146 73.6602 46.2865 73.5247 44.9531C73.3945 43.6198 73.332 42.2813 73.332 40.9427C73.332 39.599 73.3945 38.2604 73.5247 36.9271C73.6602 35.5938 73.8529 34.2708 74.1185 32.9531C74.3789 31.6406 74.7018 30.3385 75.0924 29.0573C75.4831 27.7708 75.931 26.5104 76.4466 25.2708C76.9622 24.0313 77.5299 22.8229 78.1654 21.6406C78.7956 20.4583 79.4831 19.3073 80.2279 18.1927C80.9727 17.0781 81.7747 16.0052 82.6237 14.9688C83.4727 13.9323 84.3737 12.9375 85.3216 11.9896C86.2695 11.0417 87.2643 10.1406 88.3008 9.29167C89.3372 8.44271 90.4102 7.64063 91.5247 6.89583C92.6393 6.15104 93.7904 5.46354 94.9727 4.83333C96.1549 4.19792 97.3685 3.625 98.6029 3.11458C99.8424 2.59896 101.103 2.15104 102.389 1.76042C103.671 1.36979 104.973 1.04687 106.285 0.786458C107.603 0.520833 108.926 0.328126 110.259 0.192708C111.592 0.0625003 112.931 0 114.275 0C115.613 0 116.952 0.0625003 118.285 0.192708C119.618 0.328126 120.947 0.520833 122.259 0.786458C123.577 1.04687 124.874 1.36979 126.16 1.76042C127.441 2.15104 128.702 2.59896 129.941 3.11458C131.181 3.625 132.389 4.19792 133.572 4.83333C134.754 5.46354 135.905 6.15104 137.02 6.89583C138.134 7.64063 139.212 8.44271 140.249 9.29167C141.285 10.1406 142.275 11.0417 143.223 11.9896C144.171 12.9375 145.072 13.9323 145.921 14.9688C146.775 16.0052 147.572 17.0781 148.316 18.1927C149.061 19.3073 149.749 20.4583 150.379 21.6406C151.014 22.8229 151.587 24.0313 152.098 25.2708C152.613 26.5104 153.061 27.7708 153.452 29.0573C153.842 30.3385 154.165 31.6406 154.431 32.9531C154.691 34.2708 154.889 35.5938 155.02 36.9271C155.15 38.2604 155.217 39.599 155.217 40.9427Z" fill="#F0D9B9"/>
<mask id="mask0_2075_10063" style="mask-type:luminance" maskUnits="userSpaceOnUse" x="0" y="211" width="63" height="59">
<path d="M0 211.812H62.9115V269.146H0V211.812Z" fill="#F0D9B9"/>
</mask>
<g mask="url(#mask0_2075_10063)">
<path d="M62.0365 213.125C60.0833 213.51 58.0156 213.885 55.8438 214.24C11.2448 221.646 0.057292 267.063 0 267.203L3.53125 268.083C3.53125 268.073 4.18229 265.438 5.85938 261.25C10.9271 248.615 24.9219 222.953 56.4323 217.833C58.6458 217.474 60.75 217.089 62.7448 216.693L62.0729 213.292L62.0417 213.125H62.0365Z" fill="#F0D9B9"/>
</g>
</svg>
