<svg width="359" height="333" viewBox="0 0 359 333" fill="none" xmlns="http://www.w3.org/2000/svg">
<path d="M26.1658 304.939C26.1658 306.881 25.7079 308.476 24.7923 309.723C23.8608 310.97 22.5347 311.641 20.8139 311.736V306.786C21.398 306.739 21.8243 306.565 22.0926 306.265C22.361 305.965 22.4952 305.579 22.4952 305.105C22.4952 304.679 22.3926 304.331 22.1874 304.063C21.9663 303.779 21.6664 303.637 21.2875 303.637C20.7981 303.637 20.4192 303.866 20.1508 304.323C19.8824 304.781 19.5824 305.523 19.2509 306.549C18.8878 307.639 18.5405 308.523 18.209 309.202C17.8616 309.865 17.3643 310.449 16.717 310.954C16.054 311.444 15.1936 311.688 14.1358 311.688C13.0623 311.688 12.1466 311.42 11.3888 310.883C10.6152 310.346 10.0311 309.604 9.63643 308.657C9.24175 307.71 9.04441 306.636 9.04441 305.436C9.04441 303.495 9.50224 301.947 10.4179 300.795C11.3178 299.627 12.5887 299.003 14.2305 298.924V303.968C13.7253 303.984 13.3465 304.142 13.0939 304.442C12.8413 304.726 12.715 305.097 12.715 305.555C12.715 305.902 12.8176 306.186 13.0228 306.407C13.228 306.628 13.5201 306.739 13.899 306.739C14.2148 306.739 14.491 306.621 14.7278 306.384C14.9489 306.131 15.1462 305.823 15.3199 305.46C15.4777 305.097 15.683 304.56 15.9356 303.85C16.2987 302.792 16.6618 301.924 17.0249 301.245C17.3722 300.55 17.8695 299.958 18.5168 299.469C19.1483 298.964 19.9535 298.711 20.9323 298.711C21.9269 298.711 22.8189 298.964 23.6082 299.469C24.3976 299.958 25.0212 300.677 25.479 301.624C25.9369 302.555 26.1658 303.66 26.1658 304.939ZM9.3049 281.611H12.9991V286.063H26V290.704H12.9991V295.109H9.3049V281.611ZM23.2767 266.964V272.884L26 273.784V278.662L9.3049 272.576L9.3049 267.224L26 261.162V266.064L23.2767 266.964ZM19.7245 268.124L14.3253 269.924L19.7245 271.7V268.124ZM26 248.827L19.8429 252.142V252.639H26V257.281H9.3049V249.963C9.3049 248.621 9.54171 247.485 10.0153 246.553C10.4732 245.622 11.1125 244.919 11.9335 244.446C12.7386 243.972 13.6464 243.735 14.6568 243.735C15.7935 243.735 16.796 244.051 17.6643 244.683C18.5168 245.298 19.1246 246.206 19.4877 247.406L26 243.641V248.827ZM16.6697 252.639V250.342C16.6697 249.711 16.5197 249.237 16.2197 248.921C15.9198 248.606 15.4856 248.448 14.9173 248.448C14.3805 248.448 13.9622 248.614 13.6622 248.945C13.3465 249.261 13.1886 249.727 13.1886 250.342V252.639H16.6697ZM9.3049 226.682H12.9991V231.134H26V235.775H12.9991L12.9991 240.18H9.3049L9.3049 226.682ZM9.3049 218.05H18.9904C19.8903 218.05 20.5849 217.844 21.0744 217.434C21.5638 217.008 21.8085 216.368 21.8085 215.516C21.8085 214.663 21.5638 214.024 21.0744 213.598C20.5692 213.156 19.8745 212.935 18.9904 212.935H9.3049L9.3049 208.293H18.9904C20.5218 208.293 21.8321 208.617 22.9215 209.264C23.995 209.911 24.8081 210.795 25.3606 211.916C25.8974 213.021 26.1658 214.253 26.1658 215.611C26.1658 216.968 25.8974 218.184 25.3606 219.257C24.8081 220.315 23.995 221.152 22.9215 221.768C21.8479 222.368 20.5376 222.668 18.9904 222.668H9.3049V218.05ZM14.8699 190.179C15.8803 190.179 16.8039 190.416 17.6406 190.89C18.4615 191.347 19.1246 192.05 19.6298 192.997C20.1192 193.929 20.3639 195.073 20.3639 196.431V198.728H26V203.37H9.3049V196.431C9.3049 195.089 9.54171 193.952 10.0153 193.021C10.4889 192.074 11.1441 191.363 11.9809 190.89C12.8176 190.416 13.7806 190.179 14.8699 190.179ZM16.6697 196.881C16.6697 195.571 16.0698 194.915 14.8699 194.915C13.6543 194.915 13.0465 195.571 13.0465 196.881V198.728H16.6697V196.881Z" fill="#211302"/>
<path d="M348.523 114.011C348.523 115.953 348.065 117.548 347.15 118.795C346.218 120.042 344.892 120.713 343.171 120.808V115.859C343.755 115.811 344.182 115.638 344.45 115.338C344.718 115.038 344.853 114.651 344.853 114.177C344.853 113.751 344.75 113.404 344.545 113.135C344.324 112.851 344.024 112.709 343.645 112.709C343.155 112.709 342.777 112.938 342.508 113.396C342.24 113.854 341.94 114.596 341.608 115.622C341.245 116.711 340.898 117.595 340.566 118.274C340.219 118.937 339.722 119.521 339.074 120.026C338.411 120.516 337.551 120.761 336.493 120.761C335.42 120.761 334.504 120.492 333.746 119.955C332.973 119.419 332.389 118.677 331.994 117.729C331.599 116.782 331.402 115.709 331.402 114.509C331.402 112.567 331.86 111.02 332.775 109.867C333.675 108.699 334.946 108.075 336.588 107.996V113.041C336.083 113.056 335.704 113.214 335.451 113.514C335.199 113.798 335.072 114.169 335.072 114.627C335.072 114.974 335.175 115.259 335.38 115.48C335.585 115.701 335.878 115.811 336.256 115.811C336.572 115.811 336.848 115.693 337.085 115.456C337.306 115.203 337.504 114.896 337.677 114.532C337.835 114.169 338.04 113.633 338.293 112.922C338.656 111.864 339.019 110.996 339.382 110.317C339.73 109.623 340.227 109.031 340.874 108.541C341.506 108.036 342.311 107.783 343.29 107.783C344.284 107.783 345.176 108.036 345.966 108.541C346.755 109.031 347.379 109.749 347.836 110.696C348.294 111.628 348.523 112.733 348.523 114.011ZM345.634 92.6958V98.616L348.357 99.5159V104.394L331.662 98.3082V92.9563L348.357 86.8939V91.7959L345.634 92.6958ZM342.082 93.8561L336.683 95.6559L342.082 97.432V93.8561ZM337.156 72.3566C336.714 72.6249 336.375 72.996 336.138 73.4696C335.901 73.9274 335.783 74.4721 335.783 75.1036C335.783 76.2718 336.162 77.1954 336.92 77.8742C337.677 78.5373 338.696 78.8688 339.974 78.8688C341.411 78.8688 342.508 78.5136 343.266 77.8032C344.008 77.077 344.379 76.0271 344.379 74.6536C344.379 73.0275 343.645 71.8672 342.177 71.1725V75.8377H338.838V67.1704H343.337C344.221 67.5335 345.05 68.0703 345.824 68.7807C346.597 69.4754 347.237 70.3595 347.742 71.433C348.231 72.5065 348.476 73.7301 348.476 75.1036C348.476 76.777 348.121 78.261 347.41 79.5556C346.684 80.8344 345.681 81.829 344.403 82.5394C343.108 83.234 341.632 83.5814 339.974 83.5814C338.332 83.5814 336.872 83.234 335.593 82.5394C334.299 81.829 333.296 80.8344 332.586 79.5556C331.86 78.2768 331.497 76.8007 331.497 75.1272C331.497 73.0275 332.002 71.2909 333.012 69.9174C334.023 68.5439 335.404 67.6914 337.156 67.3599V72.3566ZM345.634 52.1606V58.0808L348.357 58.9807V63.859L331.662 57.773V52.4211L348.357 46.3587V51.2607L345.634 52.1606ZM342.082 53.3209L336.683 55.1207L342.082 56.8968V53.3209Z" fill="#211302"/>
<path d="M220.678 13L99.0171 59.0985C56.3585 79.946 54.6819 131.088 100.908 152.52L208.394 212.068C225.476 221.722 223.799 235.136 208.394 241.841L45.8828 292.387V205.064C134.835 205.064 134.835 208.664 134.835 320.261L246.875 284.443C261.285 277.572 301.842 261.685 304.45 231.161C307.292 197.896 265.967 175.808 246.875 167.963L161.328 125.929C141.519 118.087 141.259 101.371 161.328 93.0714L309.482 42.7493C309.482 42.7493 309.482 95.9866 309.482 128.297C224.082 128.297 220.678 128.297 220.678 13Z" stroke="#211302" stroke-width="17.7607"/>
</svg>
