<svg width="282" height="333" viewBox="0 0 282 333" fill="none" xmlns="http://www.w3.org/2000/svg">
<path d="M183.677 13L62.0162 59.0985C19.3576 79.946 17.681 131.088 63.9074 152.52L171.393 212.068C188.475 221.722 186.798 235.136 171.393 241.841L8.88193 292.387V205.064C97.8337 205.064 97.8337 208.664 97.8337 320.261L209.874 284.443C224.284 277.572 264.841 261.685 267.449 231.161C270.291 197.896 228.966 175.808 209.874 167.963L124.327 125.929C104.518 118.087 104.258 101.371 124.327 93.0714L272.481 42.7493C272.481 42.7493 272.481 95.9866 272.481 128.297C187.081 128.297 183.677 128.297 183.677 13Z" stroke="white" stroke-width="17.7607"/>
</svg>
