<svg width="1101" height="129" viewBox="0 0 1101 129" fill="none" xmlns="http://www.w3.org/2000/svg">
<path d="M1104.55 128.245C939.134 117.507 757.55 100.935 757.55 100.935C676.793 89.8652 566.036 87.2841 480.184 87.2841C404.946 87.2841 348.826 89.2678 348.826 89.2678C348.826 89.2678 344.122 88.8031 335.35 87.8699C291.839 83.149 149.037 66.5264 0.371094 36.1552C48.9539 33.1407 97.5433 30.1301 146.138 27.1157C166.554 25.8583 187.11 24.5814 207.628 24.5814C214.452 24.5814 221.267 24.7219 228.076 25.0538C259.178 26.5689 288.896 31.977 319.763 34.7025C340.478 36.5416 361.519 37.143 382.625 37.143C403.055 37.143 423.558 36.5769 443.931 36.0225C524.402 33.7655 604.963 31.5513 685.443 29.3334C711.587 28.5954 739.851 27.467 759.262 19.0249C773.064 13.074 781.835 3.5854 799.779 1.2113C802.844 0.816917 805.942 0.656853 809.072 0.656853C816.075 0.656853 823.192 1.45739 830.154 2.18368C857.195 5.01073 884.848 6.39693 912.501 6.39693C920.188 6.39693 927.868 6.28748 935.547 6.07662C965.621 7.86111 995.923 8.74761 1026.23 8.74761C1052.39 8.74761 1078.54 8.08768 1104.55 6.77178V128.245Z" fill="#58483E"/>
</svg>
