<svg width="1440" height="359" viewBox="0 0 1440 359" fill="none" xmlns="http://www.w3.org/2000/svg">
<path d="M0 358.749V0.228851C44.5833 8.94427 122.135 25.4341 241.188 55.0323C420.248 99.6091 621.244 123.104 674.35 128.864C683.122 129.797 687.826 130.262 687.826 130.262C687.826 130.262 743.947 128.278 819.184 128.278C905.036 128.278 1015.79 130.859 1096.55 141.929C1096.55 141.929 1278.13 158.501 1443.55 169.239C1278.13 158.501 1096.55 141.929 1096.55 141.929C1015.79 130.859 905.036 128.278 819.184 128.278C743.947 128.278 687.826 130.262 687.826 130.262C687.826 130.262 683.122 129.797 674.35 128.864C664.364 130.34 654.21 131.698 643.981 132.827C599.882 137.77 554.246 138.626 509.013 140.18C379.688 144.694 247.923 155.1 118.95 155.1C78.9852 155.1 39.268 154.1 0 151.617V358.749Z" fill="#58483E" />
</svg>
